<svg width="19" height="15" viewBox="0 0 19 15" fill="none" xmlns="http://www.w3.org/2000/svg">
<g clip-path="url(#clip0_2545_25115)">
<path d="M1.20469 1.02129C0.765234 1.13731 0.367969 1.47832 0.153516 1.91426C0.0234375 2.17441 0.0234375 2.18145 0.0234375 2.61738C0.0234375 3.03926 0.0269531 3.06738 0.135937 3.29238C0.195703 3.42246 0.322266 3.6123 0.417187 3.71074C0.642187 3.95332 8.15859 8.97363 8.44687 9.07207C8.71055 9.16348 9.30117 9.16348 9.56484 9.07207C9.85312 8.97363 17.3695 3.95332 17.5945 3.71074C17.6895 3.6123 17.816 3.42246 17.8758 3.29238C17.9707 3.08848 17.9883 3.01113 17.9988 2.69824C18.0129 2.40293 18.0023 2.30449 17.9391 2.11465C17.7562 1.56973 17.3238 1.1584 16.793 1.01777C16.6102 0.972071 15.7172 0.965039 8.98828 0.968554C2.45625 0.968554 1.36641 0.975586 1.20469 1.02129Z" fill="white"/>
<path d="M0.0102627 8.98733L0.0208095 13.2518L0.150888 13.5155C0.298544 13.8143 0.5587 14.099 0.829403 14.2537C1.22315 14.4787 0.674716 14.4647 9.00323 14.4647C15.711 14.4647 16.6075 14.4576 16.7903 14.4119C17.3177 14.2713 17.7536 13.86 17.9329 13.3256C18.0032 13.1112 18.0032 13.0549 17.9962 8.91701L17.9857 4.72639L14.1888 7.26115C12.1005 8.65334 10.304 9.83811 10.1985 9.89084C9.73097 10.1334 9.07706 10.2319 8.56378 10.144C7.99776 10.0455 8.00128 10.0455 3.92315 7.32795C1.81729 5.92522 0.0700283 4.76155 0.0454189 4.74748C0.0102627 4.72639 0.00323142 5.55256 0.0102627 8.98733Z" fill="white"/>
</g>
<defs>
<clipPath id="clip0_2545_25115">
<rect width="19" height="14" fill="white" transform="translate(0 0.714844)"/>
</clipPath>
</defs>
</svg>
