<svg width="11" height="19" viewBox="0 0 11 19" fill="none" xmlns="http://www.w3.org/2000/svg">
<path d="M8.23676 10.2684C8.92665 10.2684 9.5133 9.76487 9.61795 9.08296L9.67808 8.69113C9.81077 7.82651 9.14174 7.04698 8.267 7.04698C7.47855 7.04698 6.83939 6.40782 6.83939 5.61937V4.95652C6.83939 4.07521 7.27118 3.21615 8.65555 3.21615C9.43163 3.21615 10.0608 2.58701 10.0608 1.81093V1.72864C10.0608 1.00368 9.53781 0.38321 8.81581 0.317701C8.43102 0.282788 7.99522 0.255859 7.56634 0.255859C5.0208 0.255859 3.35692 1.79876 3.35692 4.59183V5.63219C3.35692 6.41355 2.7235 7.04698 1.94213 7.04698C1.16077 7.04698 0.527344 7.6804 0.527344 8.46176V8.85357C0.527344 9.63494 1.16077 10.2684 1.94213 10.2684C2.7235 10.2684 3.35692 10.9018 3.35692 11.6831V16.3146C3.35692 17.2763 4.1365 18.0559 5.09815 18.0559C6.05981 18.0559 6.83939 17.2763 6.83939 16.3146V11.6657C6.83939 10.894 7.46501 10.2684 8.23676 10.2684Z" fill="#191C17"/>
</svg>
