<svg width="13" height="14" viewBox="0 0 13 14" fill="none" xmlns="http://www.w3.org/2000/svg">
<path d="M2.83819 4.45839V13.4863H0.426844V4.45839H2.83819ZM0.276656 2.10545C0.276656 1.75501 0.399031 1.46576 0.643781 1.2377C0.888531 1.00964 1.21672 0.895608 1.62834 0.895608C2.03441 0.895608 2.35981 1.00964 2.60456 1.2377C2.85488 1.46576 2.98003 1.75501 2.98003 2.10545C2.98003 2.45589 2.85488 2.74514 2.60456 2.9732C2.35981 3.20126 2.03441 3.3153 1.62834 3.3153C1.21672 3.3153 0.888531 3.20126 0.643781 2.9732C0.399031 2.74514 0.276656 2.45589 0.276656 2.10545ZM7.5187 6.3858V13.4863H5.1157V4.45839H7.36851L7.5187 6.3858ZM7.16826 8.6553H6.51745C6.51745 7.9878 6.60367 7.38705 6.7761 6.85305C6.94854 6.31348 7.19051 5.85458 7.50201 5.47633C7.81351 5.09252 8.18342 4.80048 8.61173 4.60023C9.0456 4.39442 9.52954 4.29151 10.0635 4.29151C10.4863 4.29151 10.8729 4.3527 11.2233 4.47508C11.5738 4.59745 11.8741 4.79214 12.1244 5.05914C12.3803 5.32614 12.575 5.67936 12.7085 6.1188C12.8476 6.55823 12.9171 7.09502 12.9171 7.72914V13.4863H10.4974V7.7208C10.4974 7.3203 10.4418 7.0088 10.3305 6.7863C10.2193 6.5638 10.0552 6.40805 9.83826 6.31905C9.62689 6.22448 9.36545 6.1772 9.05395 6.1772C8.73132 6.1772 8.45042 6.24117 8.21123 6.36911C7.9776 6.49705 7.78292 6.67505 7.62717 6.90311C7.47698 7.12561 7.36295 7.38705 7.28507 7.68742C7.2072 7.9878 7.16826 8.31042 7.16826 8.6553Z" fill="#191C17"/>
</svg>
