<svg width="13" height="13" viewBox="0 0 13 13" fill="none" xmlns="http://www.w3.org/2000/svg">
<path d="M2.64746 0.477539C1.49609 0.647461 0.599609 1.46484 0.306641 2.60449L0.242188 2.8623V6.71484V10.5674L0.306641 10.8252C0.570312 11.8535 1.30859 12.6094 2.32812 12.8906L2.61523 12.9697H6.48242H10.3496L10.6074 12.9053C11.6592 12.6357 12.418 11.877 12.6875 10.8252L12.752 10.5674V6.71484V2.8623L12.6875 2.60449C12.4209 1.56152 11.6709 0.805664 10.6221 0.527344L10.3789 0.462891L6.59961 0.457031C4.51953 0.454102 2.74121 0.462891 2.64746 0.477539ZM10.8916 1.75195C11.1963 1.84277 11.4775 2.2207 11.4775 2.53711C11.4775 2.98828 11.085 3.375 10.6309 3.375C9.81934 3.37207 9.48828 2.30859 10.1592 1.86328C10.4023 1.70215 10.6162 1.66992 10.8916 1.75195ZM7.18555 2.74512C8.12305 2.90918 9.02832 3.44238 9.62012 4.17773C10.0654 4.72852 10.332 5.31152 10.4697 6.02637C10.54 6.38672 10.54 7.0459 10.4668 7.41797C10.1504 9.09375 8.87598 10.3682 7.2002 10.6846C6.82812 10.7578 6.16895 10.7578 5.80859 10.6875C4.70996 10.4766 3.83691 9.91699 3.18945 9.00586C2.49805 8.03906 2.28711 6.73828 2.63281 5.56348C2.93457 4.54102 3.6875 3.63867 4.64844 3.14355C5.45996 2.72754 6.30957 2.59277 7.18555 2.74512Z" fill="#191C17"/>
<path d="M6.16016 4.42993C5.24023 4.57642 4.50488 5.23267 4.26465 6.12622C4.21777 6.29614 4.20312 6.43677 4.20312 6.71509C4.20312 7.13403 4.26172 7.40356 4.41699 7.71411C4.73047 8.33813 5.24023 8.76001 5.90234 8.94751C6.22461 9.03833 6.76953 9.03833 7.0918 8.94751C7.90332 8.71899 8.50098 8.12134 8.72949 7.31274C8.82031 6.98755 8.82031 6.44556 8.72949 6.12036C8.44824 5.13013 7.62207 4.46802 6.60254 4.41821C6.45605 4.40942 6.25684 4.41528 6.16016 4.42993Z" fill="#191C17"/>
</svg>
