<svg width="18" height="19" viewBox="0 0 18 19" fill="none" xmlns="http://www.w3.org/2000/svg">
<path d="M16.7717 6.7025L16.5542 4.625C16.2392 2.36 15.2117 1.4375 13.0142 1.4375H11.2442H10.1342H7.85419H6.74419H4.94419C2.73919 1.4375 1.71919 2.36 1.39669 4.6475L1.19419 6.71C1.11919 7.5125 1.33669 8.2925 1.80919 8.9C2.37919 9.6425 3.25669 10.0625 4.23169 10.0625C5.17669 10.0625 6.08419 9.59 6.65419 8.8325C7.16419 9.59 8.03419 10.0625 9.00169 10.0625C9.96919 10.0625 10.8167 9.6125 11.3342 8.8625C11.9117 9.605 12.8042 10.0625 13.7342 10.0625C14.7317 10.0625 15.6317 9.62 16.1942 8.84C16.6442 8.24 16.8467 7.4825 16.7717 6.7025Z" fill="white"/>
<path d="M8.51234 12.9952C7.55984 13.0927 6.83984 13.9027 6.83984 14.8627V16.9177C6.83984 17.1202 7.00484 17.2852 7.20734 17.2852H10.7848C10.9873 17.2852 11.1523 17.1202 11.1523 16.9177V15.1252C11.1598 13.5577 10.2373 12.8152 8.51234 12.9952Z" fill="white"/>
<path d="M16.0277 11.3005V13.5355C16.0277 15.6055 14.3477 17.2855 12.2777 17.2855C12.0752 17.2855 11.9102 17.1205 11.9102 16.918V15.1255C11.9102 14.1655 11.6177 13.4155 11.0477 12.9055C10.5452 12.448 9.86266 12.223 9.01516 12.223C8.82766 12.223 8.64016 12.2305 8.43766 12.253C7.10266 12.388 6.09016 13.513 6.09016 14.863V16.918C6.09016 17.1205 5.92516 17.2855 5.72266 17.2855C3.65266 17.2855 1.97266 15.6055 1.97266 13.5355V11.3155C1.97266 10.7905 2.49016 10.438 2.97766 10.6105C3.18016 10.678 3.38266 10.7305 3.59266 10.7605C3.68266 10.7755 3.78016 10.7905 3.87016 10.7905C3.99016 10.8055 4.11016 10.813 4.23016 10.813C5.10016 10.813 5.95516 10.4905 6.63016 9.93555C7.27516 10.4905 8.11516 10.813 9.00016 10.813C9.89266 10.813 10.7177 10.5055 11.3627 9.95055C12.0377 10.498 12.8777 10.813 13.7327 10.813C13.8677 10.813 14.0027 10.8055 14.1302 10.7905C14.2202 10.783 14.3027 10.7755 14.3852 10.7605C14.6177 10.7305 14.8277 10.663 15.0377 10.5955C15.5252 10.4305 16.0277 10.7905 16.0277 11.3005Z" fill="white"/>
</svg>
