<svg width="18" height="19" viewBox="0 0 18 19" fill="none" xmlns="http://www.w3.org/2000/svg">
<g clip-path="url(#clip0_2545_25110)">
<path d="M3.04039 0.767155C2.64312 0.890202 2.54117 0.974577 1.47242 2.04684C0.488044 3.03122 0.421247 3.10153 0.287653 3.37575C0.210309 3.53395 0.115388 3.78708 0.0802313 3.93825C-0.00414366 4.31442 -0.00765929 5.10544 0.0802313 5.58356C0.526716 8.03044 2.30562 10.9343 5.02672 13.6554C7.77593 16.4082 10.7009 18.2152 13.0951 18.6476C13.4502 18.7109 13.6048 18.7179 14.0619 18.7039C14.6701 18.6828 14.881 18.6406 15.2923 18.4437C15.5384 18.3242 15.6334 18.2398 16.6142 17.259C17.5388 16.3343 17.6865 16.1726 17.7849 15.9722C18.0486 15.4308 18.0556 14.8543 17.8095 14.334C17.6865 14.0738 17.6197 14 16.3541 12.7273C15.6263 11.9961 14.9373 11.3281 14.8248 11.2437C14.5224 11.0152 14.2904 10.9343 13.8509 10.9168C13.422 10.8992 13.1619 10.9695 12.8419 11.1804C12.5255 11.3879 12.3919 11.5707 12.1775 12.0699C12.0439 12.3757 11.8892 12.5867 11.6748 12.7484C11.1685 13.1351 10.6236 13.223 10.0189 13.0191C8.47906 12.5058 6.665 10.8359 5.89156 9.22223C5.70172 8.82145 5.5189 8.22731 5.5189 8.01286C5.52593 7.46091 5.95836 6.82106 6.49273 6.582C7.0482 6.32887 7.12906 6.28317 7.31539 6.09684C7.7232 5.68903 7.89546 5.0527 7.75132 4.49372C7.63179 4.03317 7.56148 3.9488 6.16929 2.54606C4.64 1.0027 4.53453 0.914812 4.03531 0.77067C3.79976 0.703873 3.24781 0.700357 3.04039 0.767155Z" fill="white"/>
</g>
<defs>
<clipPath id="clip0_2545_25110">
<rect width="18" height="18" fill="white" transform="translate(0 0.714844)"/>
</clipPath>
</defs>
</svg>
