<svg width="13" height="13" viewBox="0 0 13 13" fill="none" xmlns="http://www.w3.org/2000/svg">
<path d="M1.01837 0.0404167C0.563881 0.162292 0.157631 0.571081 0.0382946 1.02811C0.00528679 1.16014 0.000208667 1.80253 0.000208667 6.49979C0.000208667 12.3701 -0.0124866 11.9512 0.16017 12.2736C0.264271 12.4717 0.528334 12.7357 0.726381 12.8398C1.04884 13.0125 0.629896 12.9998 6.50021 12.9998C12.3705 12.9998 11.9516 13.0125 12.274 12.8398C12.4721 12.7357 12.7361 12.4717 12.8402 12.2736C13.0129 11.9512 13.0002 12.3701 13.0002 6.49979C13.0002 0.629479 13.0129 1.04842 12.8402 0.725964C12.7361 0.527917 12.4721 0.263855 12.274 0.159753C11.9516 -0.0129032 12.3731 -0.000207901 6.48751 0.00233078C1.91466 0.00233078 1.13517 0.0074091 1.01837 0.0404167ZM5.83751 3.64081C6.46212 4.54725 6.98263 5.29374 6.99533 5.29628C7.01056 5.29881 7.66056 4.55487 8.44259 3.64335L9.86447 1.9828H10.2276C10.4281 1.98026 10.5881 1.99042 10.583 2.00057C10.5805 2.01327 9.84923 2.86639 8.9631 3.89725C8.07697 4.92811 7.35079 5.78885 7.35333 5.81171C7.35333 5.83456 8.1506 7.01014 9.12306 8.4244C10.0955 9.8412 10.8928 11.0041 10.8928 11.0092C10.8928 11.0142 10.3113 11.0193 9.6004 11.0193H8.30802L7.12736 9.29784C6.47736 8.35331 5.92892 7.55858 5.90861 7.53065C5.87814 7.48749 5.75118 7.62714 4.3547 9.25214L2.8338 11.0193H2.46818C2.12794 11.0193 2.10509 11.0168 2.13556 10.9762C2.15587 10.9533 2.92267 10.0596 3.84435 8.99061C4.76349 7.92167 5.52013 7.03299 5.52775 7.01776C5.53283 6.99999 4.77365 5.87518 3.84181 4.51678C2.90743 3.15585 2.13302 2.0285 2.12286 2.01073C2.10763 1.98534 2.36408 1.98026 3.40509 1.98534L4.70509 1.99296L5.83751 3.64081Z" fill="#191C17"/>
</svg>
