<svg width="26" height="26" viewBox="0 0 26 26" fill="none" xmlns="http://www.w3.org/2000/svg">
<path fill-rule="evenodd" clip-rule="evenodd" d="M22.75 9.75C23.8546 9.75 24.75 10.6454 24.75 11.75V15.75C24.75 16.8546 23.8546 17.75 22.75 17.75V20.75C22.75 22.4069 21.4069 23.75 19.75 23.75H18.75C18.75 24.3023 18.3023 24.75 17.75 24.75H15.75C15.1977 24.75 14.75 24.3023 14.75 23.75V21.75C14.75 21.1977 15.1977 20.75 15.75 20.75H17.75C18.3023 20.75 18.75 21.1977 18.75 21.75H19.75C20.3023 21.75 20.75 21.3023 20.75 20.75V17.75C19.6454 17.75 18.75 16.8546 18.75 15.75V11.75C18.75 10.6454 19.6454 9.75 20.75 9.75C20.75 5.88401 17.616 2.75 13.75 2.75H11.75C7.88401 2.75 4.75 5.88401 4.75 9.75C5.85457 9.75 6.75 10.6454 6.75 11.75V15.75C6.75 16.8546 5.85457 17.75 4.75 17.75H2.75C1.64543 17.75 0.75 16.8546 0.75 15.75V11.75C0.75 10.6454 1.64543 9.75 2.75 9.75C2.75 4.77944 6.77944 0.75 11.75 0.75H13.75C18.7206 0.75 22.75 4.77944 22.75 9.75Z" stroke="#181826" stroke-width="1.5" stroke-linecap="round"/>
</svg>
