<svg width="28" height="26" viewBox="0 0 28 26" fill="none" xmlns="http://www.w3.org/2000/svg">
<path d="M10.7213 0.887602C9.36373 1.31628 8.31342 2.40942 7.97047 3.73118C7.83471 4.25274 7.83471 5.253 7.97047 5.77456C8.32057 7.11776 9.42089 8.23947 10.7856 8.63957C11.4072 8.81819 12.4503 8.78961 13.1362 8.57527C14.0937 8.2752 15.0154 7.49643 15.4726 6.61049C16.0228 5.54593 16.0228 3.95981 15.4726 2.89526C15.0154 2.00932 14.0937 1.23055 13.1362 0.93047C12.4289 0.708985 11.3429 0.687551 10.7213 0.887602Z" stroke="#181826" stroke-width="1.5"/>
<path d="M7.29508 10.0282C5.8587 10.675 4.65582 11.7682 3.91287 13.0814C3.79258 13.2949 3.03547 14.9832 2.22176 16.8333L0.757076 20.197L0.75 20.9086C0.75 21.7172 0.863212 22.0277 1.32314 22.4481C1.72646 22.8168 2.00949 22.9139 2.66046 22.9139C3.15576 22.9139 3.27605 22.888 3.60153 22.7198C4.28788 22.377 4.59214 21.9888 5.14405 20.7792L5.63228 19.6989L5.66765 21.4713C5.70303 23.1791 5.71011 23.2503 5.87285 23.5608C6.09928 23.9683 6.5309 24.3629 6.97667 24.5699L7.33046 24.7251L11.6254 24.7445C15.8143 24.7575 15.9204 24.7575 16.3025 24.6281C16.8261 24.447 17.3497 23.9942 17.6045 23.4961L17.8026 23.1079L17.838 20.8309L17.8733 18.5475L18.4394 19.4337C19.0833 20.4299 19.1541 20.5075 19.6423 20.721C20.3782 21.0379 21.3475 20.8827 21.9419 20.3458C22.3028 20.0224 26.336 15.1773 26.5412 14.815C26.6827 14.5692 26.7251 14.3946 26.7393 13.9223C26.7676 13.366 26.7534 13.3207 26.527 12.9261C26.1166 12.2016 25.3029 11.8459 24.4255 12.0076C23.7179 12.137 23.4986 12.3181 22.2037 13.8253C21.5527 14.5886 20.9938 15.2225 20.9584 15.2355C20.9301 15.242 20.6824 14.9121 20.4206 14.4916C19.7272 13.3919 18.7083 11.9947 18.213 11.4448C17.6257 10.8109 17.2153 10.5133 16.4582 10.1705C15.5171 9.75 15.4888 9.75 15.1138 10.067C14.4911 10.5909 13.6279 10.9985 12.7576 11.1796C12.2127 11.2896 11.1443 11.2572 10.5287 11.1149C9.7999 10.9402 8.96496 10.5392 8.44135 10.0993C8.20785 9.91172 7.9885 9.75 7.95313 9.75C7.92482 9.75 7.62764 9.87291 7.29508 10.0282Z" stroke="#181826" stroke-width="1.5"/>
</svg>
