<svg width="25" height="24" viewBox="0 0 25 24" fill="none" xmlns="http://www.w3.org/2000/svg">
<path d="M3.14062 11.2202V15.7102C3.14062 20.2002 4.94063 22.0002 9.43062 22.0002H14.8206C19.3106 22.0002 21.1106 20.2002 21.1106 15.7102V11.2202" stroke="#181826" stroke-width="1.5" stroke-linecap="round" stroke-linejoin="round"/>
<path d="M12.1294 12C13.9594 12 15.3094 10.51 15.1294 8.68L14.4694 2H9.79938L9.12938 8.68C8.94938 10.51 10.2994 12 12.1294 12Z" stroke="#181826" stroke-width="1.5" stroke-linecap="round" stroke-linejoin="round"/>
<path d="M18.4397 12C20.4597 12 21.9397 10.36 21.7397 8.35L21.4597 5.6C21.0997 3 20.0997 2 17.4797 2H14.4297L15.1297 9.01C15.2997 10.66 16.7897 12 18.4397 12Z" stroke="#181826" stroke-width="1.5" stroke-linecap="round" stroke-linejoin="round"/>
<path d="M5.77123 12C7.42123 12 8.91123 10.66 9.07123 9.01L9.29123 6.8L9.77123 2H6.72123C4.10123 2 3.10123 3 2.74123 5.6L2.47123 8.35C2.27123 10.36 3.75123 12 5.77123 12Z" stroke="#181826" stroke-width="1.5" stroke-linecap="round" stroke-linejoin="round"/>
<path d="M12.1289 17C10.4589 17 9.62891 17.83 9.62891 19.5V22H14.6289V19.5C14.6289 17.83 13.7989 17 12.1289 17Z" stroke="#181826" stroke-width="1.5" stroke-linecap="round" stroke-linejoin="round"/>
</svg>
