<svg width="20" height="20" viewBox="0 0 20 20" fill="none" xmlns="http://www.w3.org/2000/svg">
<path d="M8.39167 2.35052L2.61666 6.97551C1.96666 7.49218 1.55 8.58387 1.69166 9.40054L2.8 16.0338C3 17.2172 4.13333 18.1755 5.33333 18.1755H14.6667C15.8583 18.1755 17 17.2088 17.2 16.0338L18.3083 9.40054C18.4417 8.58387 18.025 7.49218 17.3833 6.97551L11.6083 2.35886C10.7167 1.6422 9.275 1.64219 8.39167 2.35052Z" stroke="white" stroke-width="1.25" stroke-linecap="round" stroke-linejoin="round"/>
<path d="M10 12.9167C11.1506 12.9167 12.0833 11.9839 12.0833 10.8333C12.0833 9.68274 11.1506 8.75 10 8.75C8.84941 8.75 7.91667 9.68274 7.91667 10.8333C7.91667 11.9839 8.84941 12.9167 10 12.9167Z" stroke="white" stroke-width="1.25" stroke-linecap="round" stroke-linejoin="round"/>
</svg>
