<svg width="20" height="20" viewBox="0 0 20 20" fill="none" xmlns="http://www.w3.org/2000/svg">
<path d="M10.8333 18.9596H7.49996C2.97496 18.9596 1.04163 17.0263 1.04163 12.5013V7.5013C1.04163 2.9763 2.97496 1.04297 7.49996 1.04297H12.5C17.025 1.04297 18.9583 2.9763 18.9583 7.5013V10.8346C18.9583 11.1763 18.675 11.4596 18.3333 11.4596C17.9916 11.4596 17.7083 11.1763 17.7083 10.8346V7.5013C17.7083 3.65964 16.3416 2.29297 12.5 2.29297H7.49996C3.65829 2.29297 2.29163 3.65964 2.29163 7.5013V12.5013C2.29163 16.343 3.65829 17.7096 7.49996 17.7096H10.8333C11.175 17.7096 11.4583 17.993 11.4583 18.3346C11.4583 18.6763 11.175 18.9596 10.8333 18.9596Z" fill="white"/>
<path d="M6.10837 12.7029C5.97504 12.7029 5.84171 12.6613 5.72504 12.5696C5.45004 12.3613 5.40006 11.9696 5.60839 11.6946L7.5917 9.1196C7.83337 8.81127 8.17505 8.61127 8.56671 8.56127C8.95838 8.51127 9.3417 8.61961 9.65004 8.86127L11.1751 10.0613C11.2334 10.1113 11.2917 10.1029 11.3334 10.1029C11.3667 10.1029 11.425 10.0863 11.475 10.0196L13.4 7.53626C13.6084 7.26126 14.0001 7.21127 14.2751 7.42794C14.5501 7.63627 14.6001 8.02794 14.3834 8.30294L12.4584 10.7863C12.2167 11.0946 11.875 11.2946 11.4834 11.3363C11.1 11.3863 10.7084 11.2779 10.4084 11.0363L8.88338 9.83627C8.82505 9.78627 8.75838 9.78627 8.72505 9.7946C8.69172 9.7946 8.63337 9.81127 8.58337 9.87794L6.60006 12.4529C6.48339 12.6196 6.30004 12.7029 6.10837 12.7029Z" fill="white"/>
<path d="M16.8833 18.9588C16.5916 18.9588 16.2166 18.8672 15.7749 18.6005L15.5666 18.4755C15.5083 18.4422 15.3332 18.4422 15.2749 18.4755L15.0666 18.6005C14.1082 19.1755 13.4999 18.9338 13.2333 18.7338C12.9583 18.5338 12.5333 18.0339 12.7833 16.9339L12.8249 16.7589C12.8416 16.6922 12.7916 16.5338 12.7499 16.4838L12.4583 16.1922C11.9666 15.6922 11.7749 15.1088 11.9416 14.5838C12.1082 14.0672 12.5999 13.7005 13.2916 13.5839L13.6082 13.5339C13.6666 13.5172 13.7832 13.4339 13.8166 13.3755L14.0499 12.9005C14.3749 12.2422 14.8749 11.8672 15.4249 11.8672C15.9749 11.8672 16.4749 12.2422 16.7999 12.9005L17.0333 13.3672C17.0666 13.4255 17.1833 13.5088 17.2416 13.5255L17.5583 13.5755C18.2499 13.6922 18.7416 14.0589 18.9083 14.5755C19.0749 15.0922 18.8916 15.6755 18.3916 16.1838L18.0999 16.4755C18.0583 16.5255 18.0083 16.6839 18.0249 16.7505L18.0666 16.9255C18.3166 18.0255 17.8916 18.5255 17.6166 18.7255C17.4666 18.8422 17.2249 18.9588 16.8833 18.9588ZM15.4083 13.1255C15.3999 13.1338 15.2833 13.2172 15.1666 13.4588L14.9333 13.9339C14.7333 14.3422 14.2582 14.6922 13.8166 14.7672L13.4999 14.8172C13.2333 14.8588 13.1416 14.9505 13.1333 14.9672C13.1333 14.9839 13.1583 15.1172 13.3499 15.3088L13.6416 15.6005C13.9833 15.9505 14.1582 16.5505 14.0499 17.0255L14.0083 17.2005C13.9333 17.5255 13.9666 17.6672 13.9833 17.7172C14.0083 17.7005 14.1499 17.6839 14.4249 17.5172L14.6333 17.3922C15.0916 17.1172 15.7499 17.1172 16.2083 17.3922L16.4166 17.5172C16.7583 17.7255 16.8999 17.7005 16.9083 17.7005C16.8749 17.7005 16.9166 17.5338 16.8416 17.2005L16.7999 17.0255C16.6916 16.5422 16.8666 15.9505 17.2083 15.6005L17.4999 15.3088C17.6916 15.1172 17.7166 14.9838 17.7166 14.9588C17.7083 14.9422 17.6166 14.8589 17.3499 14.8089L17.0333 14.7589C16.5833 14.6839 16.1166 14.3339 15.9166 13.9255L15.6833 13.4588C15.5499 13.2088 15.4333 13.1338 15.4083 13.1255Z" fill="white"/>
</svg>
