<svg width="20" height="20" viewBox="0 0 20 20" fill="none" xmlns="http://www.w3.org/2000/svg">
<path d="M18.3333 10.0013V7.5013C18.3333 3.33464 16.6666 1.66797 12.5 1.66797H7.49996C3.33329 1.66797 1.66663 3.33464 1.66663 7.5013V12.5013C1.66663 16.668 3.33329 18.3346 7.49996 18.3346H9.99996" stroke="white" stroke-width="1.25" stroke-linecap="round" stroke-linejoin="round"/>
<path d="M17.4667 14.8667L16.1084 15.3251C15.7334 15.4501 15.4334 15.7417 15.3084 16.1251L14.8501 17.4834C14.4584 18.6584 12.8084 18.6334 12.4417 17.4584L10.9001 12.5001C10.6001 11.5167 11.5084 10.6001 12.4834 10.9084L17.4501 12.4501C18.6167 12.8167 18.6334 14.4751 17.4667 14.8667Z" stroke="white" stroke-width="1.25" stroke-linecap="round" stroke-linejoin="round"/>
</svg>
