<svg xmlns="http://www.w3.org/2000/svg" xmlns:xlink="http://www.w3.org/1999/xlink" width="50" height="50" viewBox="0 0 50 50">
  <defs>
    <clipPath id="clip-Discount">
      <rect width="50" height="50"/>
    </clipPath>
  </defs>
  <g id="Discount" clip-path="url(#clip-Discount)">
    <g id="noun-discount-5698987" transform="translate(-103.403 -29.43)">
      <path id="Path_232" data-name="Path 232" d="M37.96,5.861c-1.081-1.3-3.279-2.495-4.817-2.274l-1.49.214a4.114,4.114,0,0,1-1.871-.145,4.173,4.173,0,0,1-1.606-.993L27.1,1.618a5.657,5.657,0,0,0-7.922,0L18.1,2.663a4.178,4.178,0,0,1-1.606.992A4.1,4.1,0,0,1,14.62,3.8l-1.491-.214A5.641,5.641,0,0,0,8.938,4.661,5.938,5.938,0,0,0,6.643,8.425L6.44,9.6a4.385,4.385,0,0,1-.747,1.828A4.226,4.226,0,0,1,4.208,12.69l-1.059.555A5.876,5.876,0,0,0,.285,16.7a6.065,6.065,0,0,0,.34,4.523l.441.891a4.414,4.414,0,0,1,.477,1.963,4.442,4.442,0,0,1-.478,1.961l-.44.894a6.066,6.066,0,0,0-.34,4.519A5.881,5.881,0,0,0,3.15,34.9l1.059.555a4.219,4.219,0,0,1,1.485,1.267c.373.517-1.294,4.4,2.292,7.311C14.177,36.18,30.5,15.324,37.96,5.861Z" transform="matrix(-0.819, 0.574, -0.574, -0.819, 161.495, 61.516)" fill="#333eff"/>
      <path id="Path_231" data-name="Path 231" d="M39.46,37.854c-1.123,1.32-3.408,2.524-5.007,2.3L32.9,39.939a4.217,4.217,0,0,0-3.615,1.152l-1.12,1.056a6,6,0,0,1-8.235,0L18.812,41.09A4.222,4.222,0,0,0,15.2,39.939l-1.55.217a6,6,0,0,1-6.742-4.9l-.211-1.184a4.374,4.374,0,0,0-.777-1.85,4.363,4.363,0,0,0-1.543-1.282l-1.1-.562A6.016,6.016,0,0,1,.65,22.31l.458-.9a4.371,4.371,0,0,0,.5-1.986,4.4,4.4,0,0,0-.5-1.985l-.458-.9A6.014,6.014,0,0,1,3.274,8.466l1.1-.562A4.355,4.355,0,0,0,5.918,6.622C6.306,6.1,4.875,2.94,8.985,0,15.422,7.949,31.705,28.278,39.46,37.854Z" transform="translate(122.765 24.37) rotate(39)" fill="#4d99ff"/>
      <path id="Path_229" data-name="Path 229" d="M19.435,14.331a5.1,5.1,0,1,1-3.609,1.494,5.086,5.086,0,0,1,3.609-1.494ZM5.1,0A5.112,5.112,0,1,1,1.495,1.5,5.091,5.091,0,0,1,5.1,0Zm17.01.905a1.074,1.074,0,1,1,1.519,1.519L2.425,23.632A1.074,1.074,0,0,1,.906,22.113Z" transform="matrix(0.978, -0.208, 0.208, 0.978, 114.454, 45.188)" fill="#fff"/>
    </g>
  </g>
</svg>
