<svg xmlns="http://www.w3.org/2000/svg" width="18.974" height="18.203" viewBox="0 0 18.974 18.203">
  <g id="Icon_feather-shopping-cart" data-name="Icon feather-shopping-cart" transform="translate(-0.5 -0.5)">
    <path id="Path_252" data-name="Path 252" d="M13.543,30.772A.772.772,0,1,1,12.772,30,.772.772,0,0,1,13.543,30.772Z" transform="translate(-5.099 -13.841)" fill="none" stroke="#2d2d2d" stroke-linecap="round" stroke-linejoin="round" stroke-width="2"/>
    <path id="Path_253" data-name="Path 253" d="M30.043,30.772A.772.772,0,1,1,29.272,30,.772.772,0,0,1,30.043,30.772Z" transform="translate(-13.112 -13.841)" fill="none" stroke="#2d2d2d" stroke-linecap="round" stroke-linejoin="round" stroke-width="2"/>
    <path id="Path_254" data-name="Path 254" d="M1.5,1.5H4.586L6.654,11.831A1.543,1.543,0,0,0,8.2,13.073h7.5a1.543,1.543,0,0,0,1.543-1.242l1.234-6.473H5.358" fill="none" stroke="#2d2d2d" stroke-linecap="round" stroke-linejoin="round" stroke-width="2"/>
  </g>
</svg>
