<svg xmlns="http://www.w3.org/2000/svg" width="16" height="20" viewBox="0 0 16 20" fill="none">
  <g clip-path="url(#clip0_4295_36699)">
    <path d="M15.304 8.33301C15.304 14.1663 7.99966 19.1663 7.99966 19.1663C7.99966 19.1663 0.695312 14.1663 0.695312 8.33301C0.695313 6.34388 1.46488 4.43623 2.83471 3.02971C4.20454 1.62318 6.06243 0.833008 7.99966 0.833008C9.93689 0.833008 11.7948 1.62318 13.1646 3.02971C14.5344 4.43623 15.304 6.34388 15.304 8.33301Z" stroke="#145CA8" stroke-width="1.5" stroke-linecap="round" stroke-linejoin="round" />
    <path d="M7.99728 10.833C9.34198 10.833 10.4321 9.71372 10.4321 8.33301C10.4321 6.9523 9.34198 5.83301 7.99728 5.83301C6.65259 5.83301 5.5625 6.9523 5.5625 8.33301C5.5625 9.71372 6.65259 10.833 7.99728 10.833Z" stroke="#145CA8" stroke-width="1.5" stroke-linecap="round" stroke-linejoin="round" />
  </g>
  <defs>
    <clipPath id="clip0_4295_36699">
      <rect width="16" height="20" fill="white" />
    </clipPath>
  </defs>
</svg>
