<svg xmlns="http://www.w3.org/2000/svg" width="26.983" height="28.49" viewBox="0 0 26.983 28.49">
  <g id="Group_2224" data-name="Group 2224" transform="translate(-9.955 -9.86)">
    <path id="Path_280" data-name="Path 280" d="M36.77,31.96l-4.08-6.97a10.23,10.23,0,0,0,1.17-4.77,10.36,10.36,0,0,0-20.72,0,10.26,10.26,0,0,0,1.12,4.65l-4.14,7.09a1.229,1.229,0,0,0,.03,1.28,1.543,1.543,0,0,0,1.3.77l3.76.31a.557.557,0,0,1,.43.25l2.1,2.98a1.569,1.569,0,0,0,1.35.8h.02a1.264,1.264,0,0,0,1.11-.61l3.24-5.53,3.24,5.53a1.264,1.264,0,0,0,1.11.61h.02a1.545,1.545,0,0,0,1.3-.73l2.14-3.05a.586.586,0,0,1,.43-.25l3.67-.3h.04a1.6,1.6,0,0,0,1.35-.77A1.292,1.292,0,0,0,36.77,31.96ZM23.51,11.47a8.729,8.729,0,0,1,7.34,13.47l-.04.02.01.02a8.735,8.735,0,1,1-7.31-13.51ZM19.02,36.56l-2.06-2.93a2.186,2.186,0,0,0-1.63-.93l-3.61-.27,3.51-6.01a10.368,10.368,0,0,0,7.23,4.1l.04.07-3.48,5.97Zm12.54-3.87a2.186,2.186,0,0,0-1.63.93l-2.05,2.96-3.5-5.99.04-.07a10.364,10.364,0,0,0,7.29-4.01l3.44,5.89Z" fill="#fff"/>
    <path id="Path_281" data-name="Path 281" d="M22.6,24.89l5.25-6.54a.811.811,0,1,0-1.26-1.02l-4.24,5.28L20.3,20.96a.811.811,0,1,0-1.02,1.26l3.32,2.67Z" fill="#fff"/>
  </g>
</svg>