<svg id="Group_2335" data-name="Group 2335" xmlns="http://www.w3.org/2000/svg" width="17.503" height="14.169" viewBox="0 0 17.503 14.169">
  <g id="Group_2326" data-name="Group 2326" transform="translate(0)">
    <path id="Path_304" data-name="Path 304" d="M17.663,14.221a.417.417,0,0,1,.093.583l-1.1,1.526a.417.417,0,0,1-.338.173H16.31a.417.417,0,0,1-.338-.183l-.564-.833a.417.417,0,0,1,.69-.467l.23.34.75-1.043a.417.417,0,0,1,.586-.1Zm1.839,1.03a2.917,2.917,0,0,1-5.392,1.534l-4.034,1.35-.025.008a.368.368,0,0,1-.267,0,.031.031,0,0,1-.025-.008L2.283,15.643A.405.405,0,0,1,2,15.252V6.917a.388.388,0,0,1,.05-.192.149.149,0,0,1,.042-.058.393.393,0,0,1,.083-.083.274.274,0,0,1,.108-.058l.05-.017L6.009,5.284l.058-.017L9.759,4.033a.031.031,0,0,1,.025-.008.368.368,0,0,1,.267,0l.025.008L17.5,6.509l.017.008.033.008a.4.4,0,0,1,.258.258c.008.008.008.017.008.033a.417.417,0,0,1,.017.1v5.709A2.9,2.9,0,0,1,19.5,15.252ZM7.476,5.667l6.193,2.067,2.442-.817L9.918,4.85ZM9.5,9.718,2.833,7.492v7.459L9.5,17.177Zm2.859-1.55L6.167,6.1l-2.442.817L9.918,8.984Zm1.309,7.084a2.917,2.917,0,0,1,2.917-2.917,2.281,2.281,0,0,1,.417.033V7.492L13.827,8.551a.121.121,0,0,1-.058.017c0,.008-.008.008-.017.008L10.335,9.718v7.459l3.442-1.15A2.679,2.679,0,0,1,13.668,15.252Zm5,0a2.09,2.09,0,0,0-1.334-1.942c-.042-.017-.083-.033-.133-.05a.026.026,0,0,1-.017-.008,2.319,2.319,0,0,0-.6-.083,2.084,2.084,0,1,0,2.084,2.084Z" transform="translate(-2 -4)" fill="#0f5132"/>
  </g>
</svg>
