<svg xmlns="http://www.w3.org/2000/svg" width="28.114" height="28.509" viewBox="0 0 28.114 28.509">
  <g id="Group_2225" data-name="Group 2225" transform="translate(-7.797 -10.081)">
    <path id="Path_283" data-name="Path 283" d="M16.43,26.1a.905.905,0,0,0-1.3,1.26L19,31.35a.918.918,0,0,0,.65.28.853.853,0,0,0,.63-.26.9.9,0,0,0,.02-1.28Zm2.76-2.31a.905.905,0,1,0-1.3,1.26l3.87,3.99a.918.918,0,0,0,.65.28.853.853,0,0,0,.63-.26.9.9,0,0,0,.02-1.28l-3.87-3.99Z" fill="#fff"/>
    <path id="Path_284" data-name="Path 284" d="M34.42,11.47a4.88,4.88,0,0,0-6.84.02l-2.59,2.53c-.07.07-.13.16-.2.24H20.24a1.3,1.3,0,0,0-.91.38L8.17,25.85a1.286,1.286,0,0,0-.01,1.8L18.45,38.2a1.264,1.264,0,0,0,.92.39,1.248,1.248,0,0,0,.91-.38L31.75,26.72a1.28,1.28,0,0,0,.37-.9V20.51a.921.921,0,0,0,.36-.2l1.84-1.69a4.88,4.88,0,0,0,1.59-3.56,4.81,4.81,0,0,0-1.49-3.59ZM30.31,25.59,19.37,36.54,9.83,26.75,20.46,16.07h3.29a4.8,4.8,0,0,0,1.19,4.92l.36.37a.9.9,0,1,0,1.28-1.27l-.36-.37a3.042,3.042,0,0,1-.9-2.21,3.005,3.005,0,0,1,.38-1.44h4.61v9.52Zm2.79-8.31-.97.9V15.54a1.276,1.276,0,0,0-1.28-1.28H27.34l1.5-1.47a3.1,3.1,0,0,1,5.26,2.25A3.039,3.039,0,0,1,33.1,17.28Z" fill="#fff"/>
  </g>
</svg>
