<svg width="25" height="24" viewBox="0 0 25 24" fill="none" xmlns="http://www.w3.org/2000/svg">
<path d="M3.67188 7.43945L12.5019 12.5494L21.2719 7.46942" stroke="#4D4D4D" stroke-width="1.5" stroke-linecap="round" stroke-linejoin="round"/>
<path d="M12.5 21.6091V12.5391" stroke="#4D4D4D" stroke-width="1.5" stroke-linecap="round" stroke-linejoin="round"/>
<path d="M10.4306 2.48L5.09061 5.45003C3.88061 6.12003 2.89062 7.80001 2.89062 9.18001V14.83C2.89062 16.21 3.88061 17.89 5.09061 18.56L10.4306 21.53C11.5706 22.16 13.4406 22.16 14.5806 21.53L19.9206 18.56C21.1306 17.89 22.1206 16.21 22.1206 14.83V9.18001C22.1206 7.80001 21.1306 6.12003 19.9206 5.45003L14.5806 2.48C13.4306 1.84 11.5706 1.84 10.4306 2.48Z" stroke="#4D4D4D" stroke-width="1.5" stroke-linecap="round" stroke-linejoin="round"/>
<path d="M17.5017 20V9.57965L8.01172 4.09961" stroke="#4D4D4D" stroke-width="1.5" stroke-linecap="round" stroke-linejoin="round"/>
</svg>
