<svg width="18" height="18" viewBox="0 0 18 18" fill="none" xmlns="http://www.w3.org/2000/svg">
<path d="M17.2667 14.2333C17.2667 14.5333 17.2 14.8417 17.0583 15.1417C16.9167 15.4417 16.7333 15.725 16.4917 15.9917C16.0833 16.4417 15.6333 16.7667 15.125 16.975C14.625 17.1833 14.0833 17.2917 13.5 17.2917C12.65 17.2917 11.7417 17.0917 10.7833 16.6833C9.825 16.275 8.86667 15.725 7.91667 15.0333C6.95833 14.3333 6.05 13.5583 5.18333 12.7C4.325 11.8333 3.55 10.925 2.85833 9.975C2.175 9.025 1.625 8.075 1.225 7.13333C0.825 6.18333 0.625 5.275 0.625 4.40833C0.625 3.84167 0.725 3.3 0.925 2.8C1.125 2.29167 1.44167 1.825 1.88333 1.40833C2.41667 0.883333 3 0.625 3.61667 0.625C3.85 0.625 4.08333 0.675 4.29167 0.775C4.50833 0.875 4.7 1.025 4.85 1.24167L6.78333 3.96667C6.93333 4.175 7.04167 4.36667 7.11667 4.55C7.19167 4.725 7.23333 4.9 7.23333 5.05833C7.23333 5.25833 7.175 5.45833 7.05833 5.65C6.95 5.84167 6.79167 6.04167 6.59167 6.24167L5.95833 6.9C5.86667 6.99167 5.825 7.1 5.825 7.23333C5.825 7.3 5.83333 7.35833 5.85 7.425C5.875 7.49167 5.9 7.54167 5.91667 7.59167C6.06667 7.86667 6.325 8.225 6.69167 8.65833C7.06667 9.09167 7.46667 9.53333 7.9 9.975C8.35 10.4167 8.78333 10.825 9.225 11.2C9.65833 11.5667 10.0167 11.8167 10.3 11.9667C10.3417 11.9833 10.3917 12.0083 10.45 12.0333C10.5167 12.0583 10.5833 12.0667 10.6583 12.0667C10.8 12.0667 10.9083 12.0167 11 11.925L11.6333 11.3C11.8417 11.0917 12.0417 10.9333 12.2333 10.8333C12.425 10.7167 12.6167 10.6583 12.825 10.6583C12.9833 10.6583 13.15 10.6917 13.3333 10.7667C13.5167 10.8417 13.7083 10.95 13.9167 11.0917L16.675 13.05C16.8917 13.2 17.0417 13.375 17.1333 13.5833C17.2167 13.7917 17.2667 14 17.2667 14.2333Z" stroke="#181826" stroke-width="1.25" stroke-miterlimit="10"/>
</svg>
