<svg xmlns="http://www.w3.org/2000/svg" xmlns:xlink="http://www.w3.org/1999/xlink" width="26" height="26" viewBox="0 0 26 26">
  <defs>
    <clipPath id="clip-cancelled_">
      <rect width="26" height="26"/>
    </clipPath>
  </defs>
  <g id="cancelled_" data-name="cancelled " clip-path="url(#clip-cancelled_)">
    <g id="Group_13" data-name="Group 13" transform="translate(-3.5 -2.5)">
      <path id="Line_19" data-name="Line 19" d="M0,19.128a.835.835,0,0,1-.835-.835V0A.835.835,0,0,1,0-.835.835.835,0,0,1,.835,0V18.293A.835.835,0,0,1,0,19.128Z" transform="translate(4.5 8.159)"/>
      <path id="Line_20" data-name="Line 20" d="M0,4.494a.831.831,0,0,1-.462-.14A.835.835,0,0,1-.695,3.2L1.744-.463A.835.835,0,0,1,2.9-.695.835.835,0,0,1,3.134.463L.695,4.122A.834.834,0,0,1,0,4.494Z" transform="translate(4.5 4.5)"/>
      <path id="Line_21" data-name="Line 21" d="M14.634.835H0V-.835H14.634Z" transform="translate(6.939 4.5)"/>
      <path id="Line_22" data-name="Line 22" d="M2.44,4.494a.834.834,0,0,1-.7-.372L-.695.463A.835.835,0,0,1-.463-.695.835.835,0,0,1,.695-.463L3.134,3.2a.835.835,0,0,1-.694,1.3Z" transform="translate(21.573 4.5)"/>
      <path id="Line_23" data-name="Line 23" d="M0,9.372a.835.835,0,0,1-.835-.835V0A.835.835,0,0,1,0-.835.835.835,0,0,1,.835,0V8.537A.835.835,0,0,1,0,9.372Z" transform="translate(24.012 8.159)"/>
      <path id="Line_24" data-name="Line 24" d="M15.854.835H0A.835.835,0,0,1-.835,0,.835.835,0,0,1,0-.835H15.854A.835.835,0,0,1,16.689,0,.835.835,0,0,1,15.854.835Z" transform="translate(4.5 26.451)"/>
      <path id="Line_25" data-name="Line 25" d="M0,4.494a.834.834,0,0,1-.264-.043A.835.835,0,0,1-.792,3.394L.427-.264A.835.835,0,0,1,1.484-.792.835.835,0,0,1,2.012.264L.792,3.923A.835.835,0,0,1,0,4.494Z" transform="translate(10.963 4.5)"/>
      <path id="Line_26" data-name="Line 26" d="M0,4.494a.834.834,0,0,1-.264-.043A.835.835,0,0,1-.792,3.394L.427-.264A.835.835,0,0,1,1.484-.792.835.835,0,0,1,2.012.264L.792,3.923A.835.835,0,0,1,0,4.494Z" transform="translate(15.476 4.5)"/>
      <path id="Ellipse_7" data-name="Ellipse 7" d="M6.1,1.67A4.428,4.428,0,1,0,10.525,6.1,4.433,4.433,0,0,0,6.1,1.67M6.1,0A6.1,6.1,0,1,1,0,6.1,6.1,6.1,0,0,1,6.1,0Z" transform="translate(17.305 16.085)"/>
      <path id="Path_76" data-name="Path 76" d="M0,4.494a.835.835,0,0,1-.835-.835V-.794A.835.835,0,0,1,0-1.629a.835.835,0,0,1,.835.835V3.659A.835.835,0,0,1,0,4.494Z" transform="translate(10.598 19.134)"/>
      <path id="Line_28" data-name="Line 28" d="M0,3.274a.832.832,0,0,1-.59-.245.835.835,0,0,1,0-1.181L1.849-.59a.835.835,0,0,1,1.181,0,.835.835,0,0,1,0,1.181L.59,3.029A.832.832,0,0,1,0,3.274Z" transform="translate(8.159 16.695)"/>
      <path id="Line_29" data-name="Line 29" d="M2.439,3.274a.832.832,0,0,1-.59-.245L-.59.59A.835.835,0,0,1-.59-.59.835.835,0,0,1,.59-.59L3.029,1.849a.835.835,0,0,1-.59,1.425Z" transform="translate(10.598 16.695)"/>
      <path id="Line_30" data-name="Line 30" d="M0,5.713a.835.835,0,0,1-.835-.835V0A.835.835,0,0,1,0-.835.835.835,0,0,1,.835,0V4.878A.835.835,0,0,1,0,5.713Z" transform="translate(10.963 8.159)"/>
      <path id="Line_31" data-name="Line 31" d="M0,5.713a.835.835,0,0,1-.835-.835V0A.835.835,0,0,1,0-.835.835.835,0,0,1,.835,0V4.878A.835.835,0,0,1,0,5.713Z" transform="translate(15.476 8.159)"/>
      <path id="Line_32" data-name="Line 32" d="M4.268.835H0A.835.835,0,0,1-.835,0,.835.835,0,0,1,0-.835H4.268A.835.835,0,0,1,5.1,0,.835.835,0,0,1,4.268.835Z" transform="translate(11.207 13.037)"/>
      <path id="Line_33" data-name="Line 33" d="M19.512.835H0A.835.835,0,0,1-.835,0,.835.835,0,0,1,0-.835H19.512A.835.835,0,0,1,20.347,0,.835.835,0,0,1,19.512.835Z" transform="translate(4.5 8.159)"/>
    </g>
    <g id="Group_7" data-name="Group 7" transform="translate(17.2 16.55)">
      <path id="Line_1" data-name="Line 1" d="M.836,5.357A.837.837,0,0,1,.521,5.3a.829.829,0,0,1-.146-.077A.835.835,0,0,1,.245,3.93L3.939.244A.836.836,0,1,1,5.12,1.428L1.426,5.113A.839.839,0,0,1,1.3,5.22a.831.831,0,0,1-.3.122A.84.84,0,0,1,.836,5.357Z"/>
      <path id="Line_2" data-name="Line 2" d="M4.53,5.357A.837.837,0,0,1,4.216,5.3a.829.829,0,0,1-.145-.076.84.84,0,0,1-.131-.107L.245,1.428A.836.836,0,1,1,1.426.244L5.12,3.93a.836.836,0,0,1-.59,1.428Z"/>
    </g>
  </g>
</svg>
