<svg xmlns="http://www.w3.org/2000/svg" width="18.487" height="14.563" viewBox="0 0 18.487 14.563">
  <g id="Group_2348" data-name="Group 2348" transform="translate(-1137.6 -1530)">
    <text id="_" data-name="₹" transform="translate(1146.231 1535.703)" font-size="3" font-family="WorkSans-Bold, Work Sans" font-weight="700"><tspan x="0" y="0">₹</tspan></text>
    <g id="Group_2344" data-name="Group 2344" transform="translate(1137.6 1534.902)">
      <path id="Path_310" data-name="Path 310" d="M19.834,47.661H3.9a.306.306,0,0,1-.3-.3V38.3a.306.306,0,0,1,.3-.3H19.834a.306.306,0,0,1,.3.3v9.063A.293.293,0,0,1,19.834,47.661ZM4.2,47.063H19.535V38.6H4.2v8.466Z" transform="translate(-3.6 -38)"/>
    </g>
    <g id="Group_2345" data-name="Group 2345" transform="translate(1149.153 1536.157)">
      <path id="Path_311" data-name="Path 311" d="M63.771,51.471H61.9a.3.3,0,0,1,0-.6h1.753l1.135-.976V45.874L63.652,44.9H61.9a.3.3,0,1,1,0-.6h1.872a.256.256,0,0,1,.2.08l1.315,1.135a.32.32,0,0,1,.1.219v4.3a.32.32,0,0,1-.1.219L63.97,51.391A.256.256,0,0,1,63.771,51.471Z" transform="translate(-61.6 -44.3)"/>
    </g>
    <g id="Group_2346" data-name="Group 2346" transform="translate(1138.795 1536.157)">
      <path id="Path_312" data-name="Path 312" d="M13.086,51.471H11.213a.256.256,0,0,1-.2-.08L9.7,50.256a.32.32,0,0,1-.1-.219v-4.3a.285.285,0,0,1,.1-.219l1.315-1.135a.354.354,0,0,1,.2-.08h1.872a.3.3,0,0,1,0,.6H11.333l-1.135.976V49.9l1.135.976h1.753a.3.3,0,0,1,0,.6Z" transform="translate(-9.6 -44.3)"/>
    </g>
    <g id="Group_2347" data-name="Group 2347" transform="translate(1142.281 1536.157)">
      <path id="Path_313" data-name="Path 313" d="M30.685,51.471a3.585,3.585,0,1,1,3.585-3.585A3.6,3.6,0,0,1,30.685,51.471Zm0-6.573a2.988,2.988,0,1,0,2.988,2.988A2.984,2.984,0,0,0,30.685,44.9Z" transform="translate(-27.1 -44.3)"/>
    </g>
    <path id="Path_315" data-name="Path 315" d="M25.257,22.614,23.923,13.65a.309.309,0,0,0-.339-.259L7.808,15.762a.281.281,0,0,0-.239.339l.279,1.992h.6L8.186,16.3l15.178-2.271,1.255,8.366-1.115.159v.6L25,22.933A.27.27,0,0,0,25.257,22.614Z" transform="translate(1130.828 1516.611)"/>
    <path id="Path_316" data-name="Path 316" d="M66.07,22.345l1.733-.259,1.255.8.259,1.673h.239a.493.493,0,0,1,.378.179l-.319-2.092a.288.288,0,0,0-.139-.2L68,21.508a.245.245,0,0,0-.2-.04l-1.852.279a.309.309,0,0,0-.259.339A.346.346,0,0,0,66.07,22.345Z" transform="translate(1084.279 1510.147)"/>
    <path id="Path_317" data-name="Path 317" d="M35.757,27.706a2.973,2.973,0,0,1,5.4,0h.657a3.594,3.594,0,0,0-6.713,0Z" transform="translate(1108.774 1506.997)"/>
    <path id="Path_318" data-name="Path 318" d="M16.177,29.944l.777-.9,1.733-.259a.3.3,0,0,0-.08-.6l-1.852.279a.268.268,0,0,0-.179.1L15.44,29.884c-.02.02-.02.04-.04.06Z" transform="translate(1124.55 1504.759)"/>
    <text id="_2" data-name="₹" transform="translate(1144.436 1541.703)" font-size="5" font-family="WorkSans-Bold, Work Sans" font-weight="700"><tspan x="0" y="0">₹</tspan></text>
    <path id="Path_319" data-name="Path 319" d="M4555.547,7004.62h2.124l-.24.815-.514.086-.755-.313Z" transform="translate(-3409.194 -5469.118)" fill="#fff"/>
  </g>
</svg>
