<svg xmlns="http://www.w3.org/2000/svg" xmlns:xlink="http://www.w3.org/1999/xlink" width="100" height="100" viewBox="0 0 100 100">
  <defs>
    <clipPath id="clip-Confirmed">
      <rect width="100" height="100"/>
    </clipPath>
  </defs>
  <g id="Confirmed" clip-path="url(#clip-Confirmed)">
    <rect width="100" height="100" fill="#fbfbfb"/>
    <g id="Group_16" data-name="Group 16" transform="translate(-138.116 251.884)">
      <path id="Path_24" data-name="Path 24" d="M31.184,47.34h-.945a.539.539,0,1,0,0,1.078h.945a.539.539,0,0,0,0-1.078Z" transform="translate(156.251 -241.585)"/>
      <path id="Path_25" data-name="Path 25" d="M24.272,47.34H20.459a.539.539,0,0,0,0,1.078h3.813a.539.539,0,0,0,0-1.078Z" transform="translate(160.596 -241.585)"/>
      <path id="Path_26" data-name="Path 26" d="M23.827,51.58H20.459a.539.539,0,0,0,0,1.078h3.368a.539.539,0,0,0,0-1.078Z" transform="translate(160.596 -243.468)"/>
      <path id="Path_27" data-name="Path 27" d="M33.771,36.394V29.046a2.159,2.159,0,0,0-2.156-2.156H16.886a2.159,2.159,0,0,0-2.156,2.156V42.1a2.159,2.159,0,0,0,2.156,2.156H33.232a3.951,3.951,0,0,0,.539-7.864ZM22.506,27.968H26v3.685l-1.473-.861a.532.532,0,0,0-.545,0l-1.473.861ZM16.886,43.18A1.079,1.079,0,0,1,15.808,42.1V29.046a1.079,1.079,0,0,1,1.078-1.078h4.541v4.624a.537.537,0,0,0,.272.467.548.548,0,0,0,.539,0l2.012-1.178,2.012,1.178a.526.526,0,0,0,.272.072.507.507,0,0,0,.267-.072.537.537,0,0,0,.272-.467V27.968h4.541a1.079,1.079,0,0,1,1.078,1.078v7.348a3.946,3.946,0,0,0-2.168,6.786H16.886Zm16.346,0a2.876,2.876,0,1,1,2.873-2.873A2.877,2.877,0,0,1,33.232,43.18Z" transform="translate(162.901 -232.501)"/>
      <path id="Path_28" data-name="Path 28" d="M47.653,48.616,46.4,49.872l-.422-.422a.538.538,0,1,0-.761.761l.806.806a.55.55,0,0,0,.767,0l1.634-1.634a.537.537,0,0,0,0-.761A.543.543,0,0,0,47.653,48.616Z" transform="translate(149.43 -242.082)"/>
      <path id="Path_29" data-name="Path 29" d="M33.336,1H4.235A3.238,3.238,0,0,0,1,4.235v29.1a3.238,3.238,0,0,0,3.235,3.235h29.1a3.238,3.238,0,0,0,3.235-3.235V4.235A3.238,3.238,0,0,0,33.336,1ZM4.235,2.078h29.1a2.159,2.159,0,0,1,2.156,2.156V6.991H2.078V4.235A2.159,2.159,0,0,1,4.235,2.078Zm29.1,33.414H4.235a2.159,2.159,0,0,1-2.156-2.156V8.064H35.493V33.336A2.159,2.159,0,0,1,33.336,35.493Z" transform="translate(169 -221)"/>
      <path id="Path_30" data-name="Path 30" d="M7.519,7.468H8.658a.539.539,0,1,0,0-1.078H7.519a.539.539,0,1,0,0,1.078Z" transform="translate(166.344 -223.394)"/>
      <path id="Path_31" data-name="Path 31" d="M13.119,7.468h1.139a.539.539,0,0,0,0-1.078H13.119a.539.539,0,1,0,0,1.078Z" transform="translate(163.856 -223.394)"/>
      <path id="Path_32" data-name="Path 32" d="M18.729,7.468h1.139a.539.539,0,0,0,0-1.078H18.729a.539.539,0,0,0,0,1.078Z" transform="translate(161.364 -223.394)"/>
      <path id="Path_33" data-name="Path 33" d="M34.5,7.468H47.26a.539.539,0,1,0,0-1.078H34.5a.539.539,0,0,0,0,1.078Z" transform="translate(154.359 -223.394)"/>
      <path id="Path_34" data-name="Path 34" d="M7.519,18.658h8.454a.539.539,0,1,0,0-1.078H7.519a.539.539,0,1,0,0,1.078Z" transform="translate(166.344 -228.365)"/>
      <path id="Path_35" data-name="Path 35" d="M10.532,22.35H7.519a.539.539,0,1,0,0,1.078h3.012a.539.539,0,1,0,0-1.078Z" transform="translate(166.344 -230.484)"/>
      <path id="Path_36" data-name="Path 36" d="M16.569,22.35a.539.539,0,0,0,0,1.078h.867a.539.539,0,0,0,0-1.078Z" transform="translate(162.324 -230.484)"/>
    </g>
  </g>
</svg>
