<svg xmlns="http://www.w3.org/2000/svg" width="21" height="20" viewBox="0 0 21 20" fill="none">
  <g clip-path="url(#clip0_4295_36725)">
    <path d="M2.89829 12.4864L1.51648 11.1046C0.952841 10.5409 0.952841 9.61365 1.51648 9.05001L2.89829 7.66818C3.13465 7.43181 3.32556 6.96817 3.32556 6.6409V4.68633C3.32556 3.88633 3.98011 3.23181 4.78011 3.23181H6.73465C7.06192 3.23181 7.52556 3.04093 7.76193 2.80456L9.14374 1.42273C9.70737 0.859091 10.6347 0.859091 11.1983 1.42273L12.5801 2.80456C12.8165 3.04093 13.2801 3.23181 13.6074 3.23181H15.5619C16.3619 3.23181 17.0165 3.88633 17.0165 4.68633V6.6409C17.0165 6.96817 17.2074 7.43181 17.4437 7.66818L18.8256 9.05001C19.3892 9.61365 19.3892 10.5409 18.8256 11.1046L17.4437 12.4864C17.2074 12.7228 17.0165 13.1864 17.0165 13.5137V15.4681C17.0165 16.2681 16.3619 16.9228 15.5619 16.9228H13.6074C13.2801 16.9228 12.8165 17.1137 12.5801 17.35L11.1983 18.7319C10.6347 19.2955 9.70737 19.2955 9.14374 18.7319L7.76193 17.35C7.52556 17.1137 7.06192 16.9228 6.73465 16.9228H4.78011C3.98011 16.9228 3.32556 16.2681 3.32556 15.4681V13.5137C3.32556 13.1773 3.13465 12.7137 2.89829 12.4864Z" stroke="#145CA8" stroke-width="1.5" stroke-linecap="round" stroke-linejoin="round" />
    <path d="M7.46094 12.7954L12.9155 7.34082" stroke="#145CA8" stroke-width="1.5" stroke-linecap="round" stroke-linejoin="round" />
    <path d="M12.4574 12.3408H12.4655" stroke="#145CA8" stroke-width="1.5" stroke-linecap="round" stroke-linejoin="round" />
    <path d="M7.91049 7.79537H7.91866" stroke="#145CA8" stroke-width="1.5" stroke-linecap="round" stroke-linejoin="round" />
  </g>
  <defs>
    <clipPath id="clip0_4295_36725">
      <rect width="20" height="20" fill="white" transform="translate(0.09375)" />
    </clipPath>
  </defs>
</svg>
