<svg xmlns="http://www.w3.org/2000/svg" xmlns:xlink="http://www.w3.org/1999/xlink" width="45" height="45" viewBox="0 0 45 45">
  <defs>
    <clipPath id="clip-Delivered_2">
      <rect width="45" height="45"/>
    </clipPath>
  </defs>
  <g id="Delivered_2" data-name="Delivered– 2" clip-path="url(#clip-Delivered_2)">
    <rect width="45" height="45" fill="#fff"/>
    <path id="Path_47" data-name="Path 47" d="M2.212.529A1.682,1.682,0,0,0,.529,2.212V18.489A1.677,1.677,0,0,0,2.212,20.17H19.239a5.052,5.052,0,0,0,7.578-6.409l1.048-1.048a.562.562,0,0,0-.415-.959.532.532,0,0,0-.376.163l-.924.921a5.041,5.041,0,0,0-3.733-1.645V2.212A1.681,1.681,0,0,0,20.734.529Zm0,1.124H8.384V6.7a.561.561,0,0,0,.845.484l2.246-1.292L13.72,7.187a.561.561,0,0,0,.842-.484V1.653h6.172a.554.554,0,0,1,.559.559v9.108a5.05,5.05,0,0,0-3.077,7.729h-16a.552.552,0,0,1-.559-.559V2.212a.551.551,0,0,1,.559-.559Zm7.295,0h3.932v4.08l-1.686-.969a.561.561,0,0,0-.559,0l-1.687.969ZM22.416,12.316a3.912,3.912,0,0,1,2.938,1.321l-2.938,2.934-1.847-1.848a.563.563,0,0,0-.8.8l2.246,2.245a.561.561,0,0,0,.795,0L25.981,14.6a3.927,3.927,0,1,1-7.492,1.646,4.19,4.19,0,0,1,.607-2.1,3.794,3.794,0,0,1,3.319-1.828ZM3.9,13.436A.539.539,0,0,0,3.335,14V16.8a.561.561,0,1,0,1.122,0V14A.539.539,0,0,0,3.9,13.436Zm2.245,0A.539.539,0,0,0,5.58,14V16.8a.561.561,0,1,0,1.122,0V14A.539.539,0,0,0,6.141,13.436Zm2.245,0A.539.539,0,0,0,7.825,14V16.8a.561.561,0,1,0,1.122,0V14A.539.539,0,0,0,8.386,13.436Z" transform="translate(2.471 6.207)"/>
    <path id="Path_61" data-name="Path 61" d="M31.239,153.236c1.613,1.086,3.311,2.179,4.792,3.015a10.327,10.327,0,0,0,3.625,1.494h.031a16.072,16.072,0,0,0,4.111-.835c.685-.2,1.332-.409,1.861-.557a5.308,5.308,0,0,1,1.1-.23h2.266a1.7,1.7,0,0,0,1.674,1.622h3.13a1.736,1.736,0,0,0,1.684-1.689l.684-9.712a1.68,1.68,0,0,0-1.684-1.773H50.7a1.7,1.7,0,0,0-1.684,1.733v.062H46.695l-2.656-1.137a.6.6,0,0,0-.235-.048H35.2a2.416,2.416,0,0,0-2.4,2.006l-4.942-2.863a2.654,2.654,0,0,0-1.517-.354,2.613,2.613,0,0,0-.505.084,2.66,2.66,0,0,0-1.617,1.247,2.748,2.748,0,0,0,.947,3.632s2.852,2.131,6.078,4.3Zm-4.824-8.073a1.46,1.46,0,0,1,.841.2l5.824,3.379a2.449,2.449,0,0,0,2.116,1.223h5.941a.6.6,0,0,0,0-1.2H35.2a1.192,1.192,0,1,1,0-2.383H43.68l2.661,1.136a.6.6,0,0,0,.234.049h2.436v7.361H46.757a5.907,5.907,0,0,0-1.419.274c-.558.156-1.2.36-1.879.561a15.156,15.156,0,0,1-3.754.783,9.881,9.881,0,0,1-3.081-1.335c-1.434-.81-3.115-1.89-4.713-2.966-3.2-2.152-6.092-4.308-6.092-4.308a1.543,1.543,0,0,1-.566-2.036,1.463,1.463,0,0,1,1.162-.735Zm24.281.607h3.814a.483.483,0,0,1,.491.49l-.685,9.708c-.026.37-.257.579-.49.579H50.7a.508.508,0,0,1-.487-.535V146.3A.505.505,0,0,1,50.7,145.77Zm1.821,8.382a.6.6,0,1,0,.6.6A.6.6,0,0,0,52.517,154.152Z" transform="translate(-14.967 -116.168)"/>
  </g>
</svg>
