<svg xmlns="http://www.w3.org/2000/svg" width="18" height="14">
  <path d="M1.636 0C.733 0 0 .73 0 1.63v8.96h1.636a2.45 2.45 0 002.455 2.444 2.45 2.45 0 002.454-2.443h4.91a2.45 2.45 0 002.454 2.443 2.45 2.45 0 002.455-2.443H18V6.517L15.545 3.26h-2.454V0H1.636zm11.455 4.48h2.045l1.612 2.037h-3.657V4.481zm-9 4.889c.678 0 1.227.547 1.227 1.222 0 .674-.55 1.222-1.227 1.222a1.225 1.225 0 01-1.227-1.222c0-.675.55-1.222 1.227-1.222zm9.818 0c.678 0 1.227.547 1.227 1.222 0 .674-.55 1.222-1.227 1.222a1.225 1.225 0 01-1.227-1.222c0-.675.55-1.222 1.227-1.222z" fill="#424242" fill-rule="evenodd"/>
</svg>
