<svg xmlns="http://www.w3.org/2000/svg" xmlns:xlink="http://www.w3.org/1999/xlink" width="100" height="100" viewBox="0 0 100 100">
  <defs>
    <clipPath id="clip-Delivered">
      <rect width="100" height="100"/>
    </clipPath>
  </defs>
  <g id="Delivered" clip-path="url(#clip-Delivered)">
    <rect width="100" height="100" fill="#fff"/>
    <g id="Group_19" data-name="Group 19" transform="translate(-645.824 375.176)">
      <g id="Group_18" data-name="Group 18" transform="translate(675 -346)">
        <g id="Group_17" data-name="Group 17" transform="translate(0)">
          <path id="Path_37" data-name="Path 37" d="M40.585,15.158a.651.651,0,0,0-.651.651V29.475a.652.652,0,0,1-.651.651H20.412V9.3H26.92v5.857a.651.651,0,0,0,.942.582l2.312-1.156,2.312,1.156a.646.646,0,0,0,.291.069.65.65,0,0,0,.651-.651V13.206a.651.651,0,1,0-1.3,0v.9l-1.661-.83a.651.651,0,0,0-.582,0l-1.661.83V9.3h3.254a.651.651,0,1,0,0-1.3H11.952A1.955,1.955,0,0,0,10,9.952V29.475a1.955,1.955,0,0,0,1.952,1.952H39.284a1.955,1.955,0,0,0,1.952-1.952V15.809A.651.651,0,0,0,40.585,15.158ZM11.3,29.475V9.952a.652.652,0,0,1,.651-.651h7.158V30.126H11.952A.652.652,0,0,1,11.3,29.475Z" transform="translate(-3.492 -2.794)"/>
          <path id="Path_38" data-name="Path 38" d="M51.857,0a5.857,5.857,0,1,0,5.857,5.857A5.864,5.864,0,0,0,51.857,0Zm0,10.412a4.555,4.555,0,1,1,4.555-4.555A4.56,4.56,0,0,1,51.857,10.412Z" transform="translate(-16.065 0)"/>
          <path id="Path_39" data-name="Path 39" d="M55.1,6.191,52.952,8.334l-.841-.841a.651.651,0,0,0-.92.92l1.3,1.3a.65.65,0,0,0,.92,0l2.6-2.6a.651.651,0,1,0-.92-.92Z" transform="translate(-17.811 -2.095)"/>
          <path id="Path_40" data-name="Path 40" d="M23.713,47.928,21.289,49.9H16.57A2.6,2.6,0,0,0,14.316,46H6.142a3.232,3.232,0,0,0-2.3.953L.191,50.6a.651.651,0,0,0,.92.92l3.651-3.651a1.938,1.938,0,0,1,1.38-.572h8.174a1.3,1.3,0,0,1,0,2.6h-3.9a.651.651,0,1,0,0,1.3H21.521a.653.653,0,0,0,.411-.146l2.628-2.143a.625.625,0,0,0,.049-.044,1.632,1.632,0,0,1,2.21-.146,1.545,1.545,0,0,1,.081,2.222l-3.253,3a1.953,1.953,0,0,1-1.323.515H8.7a.651.651,0,0,0-.433.165L6.075,56.577a.651.651,0,0,0,.865.972l2.008-1.788H22.323a3.247,3.247,0,0,0,2.2-.86L27.8,51.887a2.858,2.858,0,0,0,.832-2.086,2.824,2.824,0,0,0-.943-2.042A2.909,2.909,0,0,0,23.713,47.928Z" transform="translate(0 -16.065)"/>
        </g>
      </g>
    </g>
  </g>
</svg>
