<svg width="20" height="20" viewBox="0 0 20 20" fill="none" xmlns="http://www.w3.org/2000/svg">
<path d="M9.51009 0.0546875C9.13509 0.175781 8.93978 0.320312 8.2015 1.02344C7.74447 1.46094 7.40072 1.75781 7.32259 1.78516C7.21322 1.82422 7.03353 1.80859 6.24056 1.69531C5.16634 1.54688 5.02962 1.53906 4.70541 1.62109C4.22884 1.74609 3.8265 2.0625 3.60775 2.48438C3.45541 2.76953 3.43197 2.875 3.26009 3.86719C3.18197 4.30859 3.09994 4.72656 3.08041 4.79688C3.02572 4.96875 2.91244 5.04297 2.06869 5.49219C1.19369 5.95312 0.931969 6.125 0.775719 6.33984C0.478844 6.74609 0.365563 7.11719 0.400719 7.57422C0.428063 7.92578 0.490563 8.08203 0.990563 9.10938C1.21322 9.57031 1.36556 9.92969 1.36556 10C1.36556 10.0703 1.21322 10.4297 0.990563 10.8906C0.490563 11.918 0.428063 12.0742 0.400719 12.4258C0.365563 12.8828 0.478844 13.2539 0.775719 13.6602C0.931969 13.875 1.19369 14.0469 2.06869 14.5078C2.91244 14.957 3.02572 15.0312 3.08041 15.2031C3.10384 15.2734 3.18978 15.7266 3.27572 16.2109C3.44759 17.1836 3.48666 17.3242 3.67416 17.6406C3.96322 18.1211 4.55697 18.4414 5.14681 18.4375C5.24837 18.4336 5.75228 18.375 6.26791 18.3047C7.02572 18.1992 7.22494 18.1836 7.3265 18.2188C7.40072 18.2422 7.76791 18.5625 8.20931 18.9805C8.85775 19.6016 9.00228 19.7188 9.25619 19.8398C9.54134 19.9766 9.56478 19.9805 9.99837 19.9805C10.432 19.9805 10.4554 19.9766 10.7406 19.8398C10.9945 19.7188 11.139 19.6016 11.7874 18.9805C12.3382 18.457 12.5804 18.25 12.6859 18.2188C12.8031 18.1836 13.0023 18.2031 13.7484 18.3047C14.7992 18.4531 14.971 18.4609 15.2913 18.3789C15.7679 18.2539 16.1702 17.9375 16.389 17.5156C16.5413 17.2305 16.5648 17.125 16.7367 16.1328C16.8148 15.6914 16.8968 15.2734 16.9163 15.2031C16.971 15.0312 17.0843 14.957 17.9281 14.5078C18.8031 14.0469 19.0648 13.875 19.221 13.6602C19.5179 13.2539 19.6312 12.8828 19.596 12.4258C19.5687 12.0742 19.5062 11.918 19.0062 10.8906C18.7835 10.4297 18.6312 10.0703 18.6312 10C18.6312 9.92969 18.7835 9.57031 19.0062 9.10938C19.5062 8.08203 19.5687 7.92578 19.596 7.57422C19.6312 7.11719 19.5179 6.74609 19.221 6.33984C19.0648 6.125 18.8031 5.95312 17.9281 5.49219C17.0843 5.04297 16.971 4.96875 16.9163 4.79688C16.8968 4.72656 16.8148 4.30859 16.7367 3.86719C16.5648 2.875 16.5413 2.76953 16.389 2.48438C16.1702 2.0625 15.7679 1.74609 15.2913 1.62109C14.9671 1.53906 14.8304 1.54688 13.7562 1.69531C12.9632 1.80859 12.7835 1.82422 12.6742 1.78516C12.596 1.75781 12.2523 1.46094 11.7874 1.01953C11.1351 0.398438 10.9945 0.28125 10.7406 0.160156C10.4749 0.03125 10.4124 0.0195312 10.057 0.0117188C9.81087 0.00390625 9.60775 0.0195312 9.51009 0.0546875ZM8.22103 4.90234C8.56478 4.99219 8.87728 5.17969 9.15462 5.45312C9.5765 5.875 9.77181 6.35547 9.77181 6.95312C9.76791 7.73828 9.30697 8.45312 8.56869 8.8125C7.11166 9.51562 5.40072 8.26172 5.62337 6.64453C5.73275 5.84375 6.37337 5.11328 7.15072 4.90625C7.43197 4.83203 7.93587 4.82812 8.22103 4.90234ZM13.9398 5.66406C14.2288 5.74609 14.4242 6.07812 14.3382 6.33984C14.2757 6.52734 6.46712 14.3203 6.30697 14.3516C5.92416 14.4297 5.54134 14.0195 5.65853 13.6602C5.70931 13.5117 13.471 5.73047 13.6312 5.66797C13.7601 5.61719 13.7835 5.61719 13.9398 5.66406ZM12.6781 11.0195C12.8031 11.043 13.0335 11.1211 13.182 11.1914C14.5062 11.832 14.8031 13.5156 13.7757 14.5352C13.346 14.9609 12.8812 15.1562 12.3031 15.1562C11.7367 15.1562 11.2601 14.9609 10.8577 14.5625C10.7288 14.4336 10.5765 14.25 10.5218 14.1562C10.0726 13.3906 10.1312 12.4648 10.6663 11.8008C11.182 11.168 11.9163 10.8789 12.6781 11.0195Z" fill="#34A853"/>
</svg>
