<svg xmlns="http://www.w3.org/2000/svg" xmlns:xlink="http://www.w3.org/1999/xlink" width="25" height="25" viewBox="0 0 25 25">
  <defs>
    <clipPath id="clip-Discount">
      <rect width="25" height="25"/>
    </clipPath>
  </defs>
  <g id="Discount" clip-path="url(#clip-Discount)">
    <g id="noun-discount-1025981" transform="translate(-73.875 -24.87)">
      <path id="Path_41" data-name="Path 41" d="M95.252,309.532c-.225-.309-.7-.393-1.4-.281l-2.583.477a.358.358,0,0,0,.14.7l2.583-.477a1.08,1.08,0,0,1,.505-.028c-2.162.983-4.267,2.049-6.12,3a4.294,4.294,0,0,1-1.937.59,2.988,2.988,0,0,1-1.319-.365h-.056c-1.207-.533-3.706-1.628-3.986-1.741l-.505-.2.028.73v.028h-.646a9.175,9.175,0,0,1-1.291-3.481c-.028-.225-.056-.477-.084-.7l1.853-.056h.028v.028l.028.73.477-.2a3.6,3.6,0,0,1,1.348-.253,3.427,3.427,0,0,1,1.741.449,3.313,3.313,0,0,1,.674.477,6.361,6.361,0,0,0,.7.505,4.345,4.345,0,0,0,3.116.477,1.866,1.866,0,0,1,1.179.084s.028.028,0,.084c-.028.253-.786.393-1.067.421h-.084a8.672,8.672,0,0,1-2.19.168l-1.151-.084a.351.351,0,1,0-.028.7c1.039.084,1.151.084,1.151.084a9.873,9.873,0,0,0,2.358-.168l.112-.028c.533-.084,1.516-.253,1.656-1.011a.847.847,0,0,0-.2-.7,2.2,2.2,0,0,0-1.769-.281,3.676,3.676,0,0,1-2.639-.393c-.225-.14-.421-.309-.646-.449a4.847,4.847,0,0,0-.786-.533,4.483,4.483,0,0,0-2.077-.533,3.937,3.937,0,0,0-1.151.168.627.627,0,0,0-.73-.449l-2.077.056H78.3l-.421.028.028.365a1.132,1.132,0,0,0,0,.309l.084.758a9.28,9.28,0,0,0,1.432,3.818.582.582,0,0,0,.477.253h.73a.7.7,0,0,0,.646-.393c.309.14,3.706,1.628,4.1,1.8a.1.1,0,0,1,.084.028,2.785,2.785,0,0,0,.983.2h.056a5.3,5.3,0,0,0,2.246-.674c1.881-.955,3.986-2.021,6.2-3.032a.8.8,0,0,0,.477-.477,1.192,1.192,0,0,0-.168-.533Z" transform="translate(0 -269.236)"/>
      <path id="Path_41_-_Outline" data-name="Path 41 - Outline" d="M80.569,306.981a.657.657,0,0,1,.68.44,3.973,3.973,0,0,1,1.118-.156,4.53,4.53,0,0,1,2.1.539,4.9,4.9,0,0,1,.792.537c.113.071.22.149.324.225s.209.153.32.223a3.148,3.148,0,0,0,1.722.46,5.783,5.783,0,0,0,.883-.074,3.921,3.921,0,0,1,.666-.06,1.654,1.654,0,0,1,1.146.355l0,0a.893.893,0,0,1,.207.741c-.149.807-1.2.973-1.7,1.052l-.108.027a10.492,10.492,0,0,1-1.89.185c-.166,0-.328-.005-.483-.015,0,0-.123,0-1.152-.084h0a.4.4,0,0,1-.3-.137.354.354,0,0,1-.086-.281.386.386,0,0,1,.372-.386.355.355,0,0,1,.05,0l1.148.084c.137.01.283.015.433.015a9.3,9.3,0,0,0,1.744-.182h.094c.4-.04,1-.2,1.017-.377v-.009l0-.008c.011-.021.006-.03.006-.03a1.035,1.035,0,0,0-.585-.106,4.1,4.1,0,0,0-.548.04,6.846,6.846,0,0,1-1.034.085,3.878,3.878,0,0,1-2.115-.569,4.13,4.13,0,0,1-.528-.371c-.06-.047-.119-.093-.178-.137a3.268,3.268,0,0,0-.666-.473,3.479,3.479,0,0,0-1.6-.447q-.06,0-.12,0a3.566,3.566,0,0,0-1.331.249l-.543.224-.03-.781-1.775.054c.012.1.024.2.035.3.014.119.028.238.042.35a9.124,9.124,0,0,0,1.269,3.437h.567l-.03-.782.576.224c.283.113,2.811,1.221,3.979,1.737h.056l.009,0,.128.056a2.615,2.615,0,0,0,1.169.305,4.249,4.249,0,0,0,1.917-.584c1.765-.909,3.845-1.964,5.953-2.928A1.4,1.4,0,0,0,94,310l-2.586.478a.476.476,0,0,1-.069.005.4.4,0,0,1-.411-.328.453.453,0,0,1,.063-.308.366.366,0,0,1,.26-.17l2.581-.477a3.493,3.493,0,0,1,.545-.048,1.076,1.076,0,0,1,.892.328h0l.015.022a1.225,1.225,0,0,1,.176.554l0,.011,0,.01a.847.847,0,0,1-.505.509c-2.25,1.025-4.441,2.137-6.2,3.031a5.385,5.385,0,0,1-2.266.679h-.058a2.859,2.859,0,0,1-1-.2l-.01,0-.008-.008c-.013-.013-.023-.013-.049-.013h-.01l-.009,0c-.362-.155-3.555-1.553-4.057-1.778a.755.755,0,0,1-.668.378H79.9a.636.636,0,0,1-.52-.277,9.312,9.312,0,0,1-1.438-3.837l-.085-.765c0-.036,0-.074-.006-.11a.573.573,0,0,1,.006-.2l-.031-.406.471-.031h.116l2.076-.056C80.512,306.982,80.541,306.981,80.569,306.981Zm.612.565-.014-.05a.577.577,0,0,0-.678-.412l-2.08.056H78.3l-.367.025.025.325,0,.01a.475.475,0,0,0,0,.174c0,.038.007.076.007.116l.084.755a9.214,9.214,0,0,0,1.424,3.8.531.531,0,0,0,.435.23h.73a.649.649,0,0,0,.6-.365l.022-.043.044.02c.315.143,3.67,1.613,4.088,1.792a.147.147,0,0,1,.1.034,2.752,2.752,0,0,0,.956.19h.056a5.291,5.291,0,0,0,2.223-.668c1.762-.894,3.955-2.007,6.207-3.033a.759.759,0,0,0,.447-.435,1.131,1.131,0,0,0-.157-.5h0c-.206-.284-.663-.372-1.355-.261l-2.582.477a.269.269,0,0,0-.192.125.358.358,0,0,0-.049.24.3.3,0,0,0,.312.242.375.375,0,0,0,.053,0l2.581-.477a1.143,1.143,0,0,1,.527-.027l.139.035-.13.059c-2.164.984-4.307,2.07-6.118,3a4.339,4.339,0,0,1-1.96.6l-.082,0a2.88,2.88,0,0,1-1.13-.316l-.118-.051h-.056l-.01,0c-1.163-.514-3.7-1.627-3.985-1.74l-.434-.169.025.734h-.723L79.91,312a9.221,9.221,0,0,1-1.3-3.5c-.014-.114-.028-.233-.042-.352s-.028-.239-.042-.351l-.007-.055,1.987-.058v.078l.025.656.411-.169a3.661,3.661,0,0,1,1.367-.256c.039,0,.08,0,.122,0a3.575,3.575,0,0,1,1.642.458,3.342,3.342,0,0,1,.683.484c.057.042.116.089.176.136a4.059,4.059,0,0,0,.517.363,3.784,3.784,0,0,0,2.064.556,6.75,6.75,0,0,0,1.02-.084,4.2,4.2,0,0,1,.563-.041,1.071,1.071,0,0,1,.659.139.119.119,0,0,1,.013.134c-.056.342-1.1.455-1.11.456h-.084a9.4,9.4,0,0,1-1.758.183c-.152,0-.3-.005-.44-.015l-1.151-.084-.039,0a.285.285,0,0,0-.272.29v.007a.255.255,0,0,0,.063.205.3.3,0,0,0,.225.1c1.018.082,1.146.084,1.151.084.156.01.316.015.48.015A10.39,10.39,0,0,0,88.7,311.2l.11-.027c.484-.077,1.483-.234,1.619-.971a.8.8,0,0,0-.185-.659,1.565,1.565,0,0,0-1.073-.323,3.821,3.821,0,0,0-.65.058,5.887,5.887,0,0,1-.9.075,3.243,3.243,0,0,1-1.774-.475c-.114-.071-.222-.15-.326-.227s-.209-.153-.32-.223l0,0a4.837,4.837,0,0,0-.778-.528,4.432,4.432,0,0,0-2.055-.528,3.86,3.86,0,0,0-1.136.166Z" transform="translate(0 -269.236)"/>
      <path id="Path_42" data-name="Path 42" d="M348.6,48.464a.356.356,0,0,0,.168.028.328.328,0,0,0,.309-.2l4.211-7.861a.352.352,0,1,0-.618-.337l-4.211,7.861A.368.368,0,0,0,348.6,48.464Z" transform="translate(-261.857 -10.695)"/>
      <path id="Path_42_-_Outline" data-name="Path 42 - Outline" d="M348.771,48.542a.4.4,0,0,1-.191-.033l-.005,0a.416.416,0,0,1-.156-.572l4.21-7.859a.389.389,0,0,1,.355-.205.425.425,0,0,1,.189.044.373.373,0,0,1,.191.238.432.432,0,0,1-.028.306l-4.21,7.859A.378.378,0,0,1,348.771,48.542Zm-.143-.121a.316.316,0,0,0,.143.021.278.278,0,0,0,.262-.165l0-.005,4.211-7.861a.33.33,0,0,0,.021-.233.274.274,0,0,0-.139-.176.324.324,0,0,0-.144-.033.29.29,0,0,0-.266.151l-4.212,7.862A.319.319,0,0,0,348.628,48.421Z" transform="translate(-261.857 -10.695)"/>
      <path id="Path_43" data-name="Path 43" d="M270.866,33.979a2.128,2.128,0,0,0,1.656-.73,3,3,0,0,0,0-3.65,2.213,2.213,0,0,0-1.656-.73,2.07,2.07,0,0,0-1.628.73,3,3,0,0,0,0,3.65A2.031,2.031,0,0,0,270.866,33.979Zm-1.123-3.9a1.354,1.354,0,0,1,1.123-.477,1.483,1.483,0,0,1,1.123.477,2,2,0,0,1,.449,1.348,1.936,1.936,0,0,1-.449,1.376,1.354,1.354,0,0,1-1.123.477,1.44,1.44,0,0,1-1.123-.477,2,2,0,0,1-.449-1.348A2.022,2.022,0,0,1,269.743,30.077Z" transform="translate(-184.625)"/>
      <path id="Path_43_-_Outline" data-name="Path 43 - Outline" d="M270.866,34.029a2.081,2.081,0,0,1-1.667-.748,3.054,3.054,0,0,1,0-3.716,2.106,2.106,0,0,1,1.665-.746,2.25,2.25,0,0,1,1.693.746,3.053,3.053,0,0,1,0,3.718A2.164,2.164,0,0,1,270.866,34.029Zm0-5.109a2.01,2.01,0,0,0-1.59.712,2.955,2.955,0,0,0,0,3.584,1.986,1.986,0,0,0,1.592.714,2.069,2.069,0,0,0,1.619-.713,2.955,2.955,0,0,0,0-3.582A2.154,2.154,0,0,0,270.866,28.92Zm0,4.408a1.483,1.483,0,0,1-1.16-.494,2.038,2.038,0,0,1-.462-1.381,2.082,2.082,0,0,1,.462-1.409,1.4,1.4,0,0,1,1.16-.494,1.542,1.542,0,0,1,1.16.494,2.038,2.038,0,0,1,.462,1.381,1.991,1.991,0,0,1-.462,1.409A1.4,1.4,0,0,1,270.866,33.328Zm0-3.678a1.305,1.305,0,0,0-1.085.459,1.985,1.985,0,0,0-.438,1.344,1.94,1.94,0,0,0,.436,1.314,1.388,1.388,0,0,0,1.086.461,1.305,1.305,0,0,0,1.085-.459,1.9,1.9,0,0,0,.438-1.344,1.94,1.94,0,0,0-.436-1.314A1.424,1.424,0,0,0,270.866,29.65Z" transform="translate(-184.625)"/>
      <path id="Path_44" data-name="Path 44" d="M441.618,159.98a3,3,0,0,0,0,3.65,2.244,2.244,0,0,0,3.313,0,3,3,0,0,0,0-3.65,2.244,2.244,0,0,0-3.313,0Zm1.656-.028a1.483,1.483,0,0,1,1.123.477,2,2,0,0,1,.449,1.348,1.936,1.936,0,0,1-.449,1.376,1.354,1.354,0,0,1-1.123.477,1.44,1.44,0,0,1-1.123-.477,2,2,0,0,1-.449-1.348,1.82,1.82,0,0,1,.449-1.348A1.375,1.375,0,0,1,443.274,159.952Z" transform="translate(-351.475 -126.197)"/>
      <path id="Path_44_-_Outline" data-name="Path 44 - Outline" d="M443.274,159.2a2.165,2.165,0,0,1,1.694.747,3.053,3.053,0,0,1,0,3.717,2.294,2.294,0,0,1-3.387,0,3.053,3.053,0,0,1,0-3.717A2.164,2.164,0,0,1,443.274,159.2Zm0,5.109a2.069,2.069,0,0,0,1.619-.713,2.955,2.955,0,0,0,0-3.582,2.194,2.194,0,0,0-3.239,0,2.955,2.955,0,0,0,0,3.582A2.07,2.07,0,0,0,443.274,164.309Zm0-4.408a1.542,1.542,0,0,1,1.16.494,2.038,2.038,0,0,1,.462,1.381,1.991,1.991,0,0,1-.462,1.409,1.4,1.4,0,0,1-1.16.493,1.483,1.483,0,0,1-1.16-.494,2.038,2.038,0,0,1-.462-1.381,1.861,1.861,0,0,1,.464-1.383A1.421,1.421,0,0,1,443.274,159.9Zm0,3.678a1.306,1.306,0,0,0,1.085-.459,1.9,1.9,0,0,0,.438-1.344,1.94,1.94,0,0,0-.436-1.314,1.424,1.424,0,0,0-1.086-.461,1.329,1.329,0,0,0-1.085.487,1.77,1.77,0,0,0-.438,1.316,1.94,1.94,0,0,0,.436,1.314A1.388,1.388,0,0,0,443.274,163.579Z" transform="translate(-351.475 -126.197)"/>
    </g>
  </g>
</svg>
