<svg xmlns="http://www.w3.org/2000/svg" xmlns:xlink="http://www.w3.org/1999/xlink" width="25" height="25" viewBox="0 0 25 25">
  <defs>
    <clipPath id="clip-double_tick">
      <rect width="25" height="25"/>
    </clipPath>
  </defs>
  <g id="double_tick" data-name="double tick" clip-path="url(#clip-double_tick)">
    <g id="noun-double-tick-3101561" transform="translate(-77.471 -138.601)">
      <path id="Path_65" data-name="Path 65" d="M94.215,147.07l-9.536,9.58a.931.931,0,0,1-1.322,0l-4.748-4.781a.474.474,0,0,1,0-.666l.662-.666a.465.465,0,0,1,.661,0L83.7,154.33a.465.465,0,0,0,.661,0l8.533-8.592a.465.465,0,0,1,.661,0l.661.666a.473.473,0,0,1,0,.666Zm7.243-.666-.652-.666a.454.454,0,0,0-.652,0l-8.408,8.592a.454.454,0,0,1-.652,0l-.674-.689a.454.454,0,0,0-.652,0l-.653.665a.479.479,0,0,0,0,.667l1.641,1.677a.907.907,0,0,0,1.3,0l9.4-9.58a.478.478,0,0,0,0-.666Z" transform="translate(0)" fill="#1d8956"/>
    </g>
  </g>
</svg>
