<svg width="20" height="20" viewBox="0 0 20 20" fill="none" xmlns="http://www.w3.org/2000/svg">
<path fill-rule="evenodd" clip-rule="evenodd" d="M5.83073 17.7057C2.78906 17.7057 1.03906 15.9557 1.03906 12.9141V7.08073C1.03906 4.03906 2.78906 2.28906 5.83073 2.28906H14.1641C17.2057 2.28906 18.9557 4.03906 18.9557 7.08073V12.9141C18.9557 15.9557 17.2057 17.7057 14.1641 17.7057H5.83073ZM2.28906 7.08073V12.9141C2.28906 15.2974 3.4474 16.4557 5.83073 16.4557H14.1641C16.5474 16.4557 17.7057 15.2974 17.7057 12.9141V7.08073C17.7057 4.6974 16.5474 3.53906 14.1641 3.53906H5.83073C3.4474 3.53906 2.28906 4.6974 2.28906 7.08073Z" fill="#181826"/>
<path d="M8.04705 10.0637L5.43871 7.98038C5.17205 7.76371 5.12205 7.37204 5.33872 7.10538C5.55538 6.83871 5.94705 6.78871 6.21372 7.00538L8.82204 9.08871C9.45538 9.59705 10.5304 9.59705 11.1637 9.08871L13.772 7.00538C14.0387 6.78871 14.4387 6.83038 14.647 7.10538C14.8637 7.37204 14.8221 7.77205 14.5471 7.98038L11.9387 10.0637C11.4054 10.5054 10.697 10.722 9.99705 10.722C9.29705 10.722 8.58872 10.5054 8.04705 10.0637Z" fill="#181826"/>
</svg>
