<svg xmlns="http://www.w3.org/2000/svg" xmlns:xlink="http://www.w3.org/1999/xlink" width="45" height="45" viewBox="0 0 45 45">
  <defs>
    <clipPath id="clip-Exchanged_4">
      <rect width="45" height="45"/>
    </clipPath>
  </defs>
  <g id="Exchanged_4" data-name="Exchanged – 4" clip-path="url(#clip-Exchanged_4)">
    <rect width="45" height="45" fill="#fff"/>
    <g id="noun-package-replaced-6077196" transform="translate(3.983 3.966)">
      <path id="Path_9" data-name="Path 9" d="M79.938,70H63.157A1.158,1.158,0,0,0,62,71.157V85.624a1.158,1.158,0,0,0,1.157,1.157H79.938A1.158,1.158,0,0,0,81.1,85.624V71.157A1.158,1.158,0,0,0,79.938,70Zm-6.365,1.447v4.629a.025.025,0,0,1-.02,0L72.3,75.051a1.194,1.194,0,0,0-1.5,0l-1.256,1.02a.022.022,0,0,1-.02,0V71.447ZM63.157,85.624V71.157h5.208v4.968a1.1,1.1,0,0,0,.64.991,1.2,1.2,0,0,0,1.267-.146l1.256-1.02a.049.049,0,0,1,.04,0l1.256,1.02a1.189,1.189,0,0,0,.749.263,1.2,1.2,0,0,0,.518-.117,1.1,1.1,0,0,0,.64-.991V71.157h5.208V85.624Z" transform="translate(-44.062 -49.747)"/>
      <path id="Path_10" data-name="Path 10" d="M108.517,105.085h-2.969a.579.579,0,1,0,0,1.157h2.969a.579.579,0,1,0,0-1.157Z" transform="translate(-74.599 -74.681)"/>
      <path id="Path_11" data-name="Path 11" d="M108.517,112.78h-2.969a.579.579,0,1,0,0,1.157h2.969a.579.579,0,1,0,0-1.157Z" transform="translate(-74.599 -80.15)"/>
      <path id="Path_12" data-name="Path 12" d="M75.244,103.034c-.01-.01-.022-.017-.032-.025L75.2,103c-.01-.008-.019-.017-.03-.024l-.009-.005c-.016-.01-.032-.018-.048-.026l-.008,0c-.011-.006-.022-.013-.033-.018l-.01,0A.57.57,0,0,0,75,102.9c-.013,0-.026-.01-.04-.012l-.011,0a.58.58,0,0,0-.059-.006c-.015,0-.029,0-.044,0h-.011c-.019,0-.037,0-.056.005s-.032,0-.047.005h-.011c-.017,0-.032.01-.049.015s-.033.009-.049.015l-.01,0c-.015.006-.029.016-.043.023s-.032.016-.047.026l-.009.005c-.011.007-.021.017-.031.026l-.013.011c-.011.009-.022.016-.033.026L73.4,104.04a.579.579,0,0,0,.8.834l.064-.062v1.755a.579.579,0,1,0,1.157,0v-1.755l.064.062a.579.579,0,1,0,.8-.834Z" transform="translate(-52.035 -73.109)"/>
      <path id="Path_13" data-name="Path 13" d="M19.1,15.624V1.157A1.158,1.158,0,0,0,17.938,0H1.157A1.158,1.158,0,0,0,0,1.157V15.624a1.158,1.158,0,0,0,1.157,1.157H17.938A1.158,1.158,0,0,0,19.1,15.624ZM11.573,1.157V5.786a.025.025,0,0,1-.02,0L10.3,4.761a1.194,1.194,0,0,0-1.5,0L7.543,5.781a.021.021,0,0,1-.02,0V1.157Zm-10.416,0H6.365V5.836a1.1,1.1,0,0,0,.64.991A1.2,1.2,0,0,0,8.272,6.68L9.528,5.66a.049.049,0,0,1,.04,0l1.256,1.02a1.189,1.189,0,0,0,.749.263,1.2,1.2,0,0,0,.518-.117,1.1,1.1,0,0,0,.64-.991V1.157h5.208V15.624H1.157Z"/>
      <path id="Path_14" data-name="Path 14" d="M46.517,35.085H43.548a.579.579,0,0,0,0,1.157h2.969a.579.579,0,0,0,0-1.157Z" transform="translate(-30.537 -24.934)"/>
      <path id="Path_15" data-name="Path 15" d="M46.517,42.78H43.548a.579.579,0,0,0,0,1.157h2.969a.579.579,0,0,0,0-1.157Z" transform="translate(-30.537 -30.403)"/>
      <path id="Path_16" data-name="Path 16" d="M13.244,33.034c-.01-.01-.022-.016-.032-.025L13.2,33c-.01-.008-.02-.018-.03-.025l-.009-.005c-.015-.01-.032-.017-.048-.026l0,0c-.013-.007-.024-.015-.037-.02l-.01,0c-.017-.007-.035-.011-.053-.017s-.029-.01-.044-.013l-.011,0c-.018,0-.036,0-.054-.006s-.033,0-.049,0h-.011c-.016,0-.033,0-.049,0s-.036,0-.054.006l-.011,0c-.014,0-.028.009-.042.013a.569.569,0,0,0-.055.017l-.01,0c-.012,0-.022.012-.033.018l-.006,0a.559.559,0,0,0-.05.027l-.009.005c-.01.007-.019.016-.029.024l-.014.012c-.011.009-.023.016-.033.026L11.4,34.04a.579.579,0,1,0,.8.833l.064-.062v1.755a.579.579,0,0,0,1.157,0V34.812l.064.062a.579.579,0,1,0,.8-.834Z" transform="translate(-7.973 -23.361)"/>
      <path id="Path_17" data-name="Path 17" d="M89.695,30.387a.579.579,0,1,0,1.157,0,8.178,8.178,0,0,0-6.784-8.047l.37-.33a.579.579,0,1,0-.771-.863L82.3,22.368l-.006.007-.006,0-.005.006c-.013.012-.023.026-.035.04s-.022.024-.032.037l-.008.011c-.009.013-.016.028-.024.042s-.018.03-.026.046l-.005.011c-.006.014-.009.029-.014.044s-.012.034-.017.051l0,.012c0,.014,0,.029-.005.043s-.006.036-.007.055v.016s0,.005,0,.008,0,.023,0,.035,0,.035,0,.052,0,.012,0,.019.008.03.012.045.007.03.012.045l.007.018c.006.015.014.029.021.044s.012.027.02.04l.01.016c.01.015.021.028.032.042s.013.021.022.03l.006.006,0,.006,1.368,1.447a.579.579,0,1,0,.841-.8l-.291-.308a7.021,7.021,0,0,1,5.512,6.847Z" transform="translate(-58.351 -14.924)"/>
      <path id="Path_18" data-name="Path 18" d="M23.848,80.132c0-.017,0-.035,0-.052s0-.012,0-.019-.008-.03-.012-.045-.007-.03-.012-.045l-.007-.018c-.006-.015-.014-.029-.021-.044s-.012-.027-.02-.04l-.01-.016c-.01-.015-.021-.028-.032-.042s-.013-.021-.022-.03l-.007-.006,0-.006-1.368-1.447a.579.579,0,1,0-.841.8l.291.308a7.021,7.021,0,0,1-5.513-6.847.579.579,0,0,0-1.157,0,8.178,8.178,0,0,0,6.784,8.047l-.37.33a.579.579,0,0,0,.771.863L23.659,80.6l.006-.006.006,0,.005-.006c.013-.012.023-.026.035-.04s.022-.024.032-.037l.008-.011c.009-.013.016-.028.024-.042s.018-.03.026-.046L23.8,80.4c.006-.014.01-.029.014-.044s.012-.034.017-.051l0-.012c0-.014,0-.029.005-.043s.006-.036.007-.055v-.016s0-.005,0-.008S23.849,80.144,23.848,80.132Z" transform="translate(-10.736 -51.168)"/>
    </g>
  </g>
</svg>
