<svg xmlns="http://www.w3.org/2000/svg" xmlns:xlink="http://www.w3.org/1999/xlink" width="25" height="25" viewBox="0 0 25 25">
  <defs>
    <clipPath id="clip-Price:_Hight_To_Low">
      <rect width="25" height="25"/>
    </clipPath>
  </defs>
  <g id="Price:_Hight_To_Low" data-name="Price: Hight To Low" clip-path="url(#clip-Price:_Hight_To_Low)">
    <g id="noun-price-1987768" transform="translate(-111.238 -6.435)">
      <path id="Path_46" data-name="Path 46" d="M432.624,383.225a.365.365,0,0,0-.365-.365h-2.081a.365.365,0,0,0,0,.73h.584c.164,0,.292,0,.383.183h-.968a.365.365,0,1,0,0,.73.384.384,0,0,0-.347.274.4.4,0,0,0,.091.42l1.5,1.424a.348.348,0,0,0,.237.091.365.365,0,0,0,.256-.621l-.858-.767h0a1.333,1.333,0,0,0,.913-.822h.292a.365.365,0,1,0,0-.73h-.292c-.018-.183-.037-.183-.055-.183h.347a.365.365,0,0,0,.365-.365Z" transform="translate(-302.839 -360.667)"/>
      <path id="Path_50" data-name="Path 50" d="M117.589,20.642l6.481-6.463,1.315,1.315h0a.347.347,0,0,0,.511,0l4.016-4.017v1.552a.367.367,0,1,0,.73,0v-2.41a.292.292,0,0,0-.109-.219.329.329,0,0,0-.256-.073l-2.392-.037a.383.383,0,1,0,0,.767L129.4,11l-3.761,3.743-1.315-1.333h0a.365.365,0,0,0-.511,0l-6.737,6.719a.383.383,0,0,0,0,.529.438.438,0,0,0,.256.091.329.329,0,0,0,.256-.11Z"/>
      <path id="Subtraction_19" data-name="Subtraction 19" d="M1588.843,3096.306h0a3.4,3.4,0,0,1-3.4-3.385,3.643,3.643,0,0,1,.622-1.955l.017-.025v-5.271c0-.146.142-.21.283-.21h1.351c.116,0,.175.032.175.21v3.966l.93-.116v-5.675c0-.146.142-.211.284-.211h1.351c.115,0,.174.032.174.211v6.208h.1l-.056.083a3.362,3.362,0,0,1-1.825,6.17Zm-.849-6.142h0l-.25.126a2.818,2.818,0,0,0-1.757,2.629,2.856,2.856,0,1,0,2.858-2.858h-.029a2.772,2.772,0,0,0-.822.125v-.022Zm-1.387-4.174v4.4l.168-.155a2.4,2.4,0,0,1,.526-.368l.054-.028v-3.849Zm2.739-1.825v5.4l.077.018a3.085,3.085,0,0,1,.531.176l.14.061v-5.656Z" transform="translate(-1460.464 -3068.827)"/>
      <path id="Subtraction_17" data-name="Subtraction 17" d="M1586.982,3089.824H1585.7a.26.26,0,0,1-.187-.077.264.264,0,0,1-.078-.187v-5.66a.266.266,0,0,1,.266-.266h1.278a.267.267,0,0,1,.266.266v5.66a.263.263,0,0,1-.078.187A.267.267,0,0,1,1586.982,3089.824Zm-1.013-5.66v5.13h.748v-5.13Z" transform="translate(-1465.303 -3064.262)"/>
      <path id="Subtraction_18" data-name="Subtraction 18" d="M1586.982,3090.555H1585.7a.264.264,0,0,1-.187-.077.269.269,0,0,1-.078-.188v-6.39a.266.266,0,0,1,.266-.266h1.278a.267.267,0,0,1,.266.266v6.39a.266.266,0,0,1-.266.266Zm-1.013-6.39v5.677h.748v-5.677Z" transform="translate(-1462.564 -3064.993)"/>
      <path id="Subtraction_16" data-name="Subtraction 16" d="M1586.982,3086.721H1585.7a.266.266,0,0,1-.266-.266V3083.9a.266.266,0,0,1,.266-.266h1.278a.263.263,0,0,1,.187.078.259.259,0,0,1,.077.187v2.556a.264.264,0,0,1-.077.188A.266.266,0,0,1,1586.982,3086.721Zm-1.013-2.556v2.026h.748v-2.026Z" transform="translate(-1468.042 -3061.158)"/>
    </g>
  </g>
</svg>