<svg xmlns="http://www.w3.org/2000/svg" xmlns:xlink="http://www.w3.org/1999/xlink" width="25" height="25" viewBox="0 0 25 25">
  <defs>
    <clipPath id="clip-Latest">
      <rect width="25" height="25"/>
    </clipPath>
  </defs>
  <g id="Latest" clip-path="url(#clip-Latest)">
    <g id="noun-newspaper-941753" transform="translate(-145.118 -88.007)">
      <path id="Path_32" data-name="Path 32" d="M165.407,92.68H153.432a1.315,1.315,0,0,0-1.315,1.315v1.49h-1.224a1.315,1.315,0,0,0-1.315,1.315v10.593a1.315,1.315,0,0,0,1.315,1.315h14.513a1.315,1.315,0,0,0,1.315-1.315v-13.4a1.315,1.315,0,0,0-1.315-1.312Zm.716,14.71a.716.716,0,0,1-.716.716H150.894a.716.716,0,0,1-.716-.716V96.8a.716.716,0,0,1,.716-.716h1.224v10.19a.3.3,0,0,0,.6,0V93.992a.716.716,0,0,1,.716-.716h11.975a.716.716,0,0,1,.716.716Z"/>
      <path id="Path_32_-_Outline" data-name="Path 32 - Outline" d="M153.432,92.63h11.975a1.365,1.365,0,0,1,1.365,1.362v13.4a1.366,1.366,0,0,1-1.365,1.365H150.894a1.366,1.366,0,0,1-1.365-1.365V96.8a1.366,1.366,0,0,1,1.365-1.365h1.174v-1.44A1.366,1.366,0,0,1,153.432,92.63Zm11.975,16.027a1.266,1.266,0,0,0,1.265-1.265v-13.4a1.265,1.265,0,0,0-1.265-1.262H153.432a1.266,1.266,0,0,0-1.265,1.265v1.54h-1.274a1.266,1.266,0,0,0-1.265,1.265v10.593a1.266,1.266,0,0,0,1.265,1.265Zm-11.975-15.43h11.975a.767.767,0,0,1,.766.766v13.4a.767.767,0,0,1-.766.766H150.894a.767.767,0,0,1-.766-.766V96.8a.767.767,0,0,1,.766-.766h1.274v10.24a.249.249,0,0,0,.5,0V93.992A.767.767,0,0,1,153.432,93.226Zm11.975,14.829a.667.667,0,0,0,.666-.666v-13.4a.667.667,0,0,0-.666-.666H153.432a.667.667,0,0,0-.666.666v12.279a.349.349,0,0,1-.7,0V96.131h-1.174a.667.667,0,0,0-.666.666V107.39a.667.667,0,0,0,.666.666Z"/>
      <path id="Path_33" data-name="Path 33" d="M303.022,149.822H296.2a.347.347,0,1,1,0-.695h6.826a.347.347,0,1,1,0,.695Z" transform="translate(-140.014 -54.034)"/>
      <path id="Path_33_-_Outline" data-name="Path 33 - Outline" d="M303.022,149.872H296.2a.4.4,0,0,1,0-.795h6.826a.4.4,0,0,1,0,.795Zm-6.826-.695a.3.3,0,1,0,0,.595h6.826a.3.3,0,1,0,0-.595Z" transform="translate(-140.014 -54.034)"/>
      <path id="Path_34" data-name="Path 34" d="M236.509,204.206h-5.1a.24.24,0,1,1,0-.479h5.1a.24.24,0,1,1,0,.479Z" transform="translate(-78.1 -106.298)"/>
      <path id="Path_34_-_Outline" data-name="Path 34 - Outline" d="M236.509,204.256h-5.1a.29.29,0,1,1,0-.579h5.1a.29.29,0,1,1,0,.579Zm-5.1-.479a.19.19,0,1,0,0,.379h5.1a.19.19,0,1,0,0-.379Z" transform="translate(-78.1 -106.298)"/>
      <path id="Path_35" data-name="Path 35" d="M236.509,249.566h-5.1a.24.24,0,1,1,0-.479h5.1a.24.24,0,1,1,0,.479Z" transform="translate(-78.1 -149.718)"/>
      <path id="Path_35_-_Outline" data-name="Path 35 - Outline" d="M236.509,249.616h-5.1a.29.29,0,1,1,0-.579h5.1a.29.29,0,1,1,0,.579Zm-5.1-.479a.19.19,0,1,0,0,.379h5.1a.19.19,0,1,0,0-.379Z" transform="translate(-78.1 -149.718)"/>
      <path id="Path_36" data-name="Path 36" d="M236.509,294.926h-5.1a.24.24,0,1,1,0-.479h5.1a.24.24,0,0,1,0,.479Z" transform="translate(-78.1 -193.138)"/>
      <path id="Path_36_-_Outline" data-name="Path 36 - Outline" d="M236.509,294.976h-5.1a.29.29,0,1,1,0-.579h5.1a.29.29,0,1,1,0,.579Zm-5.1-.479a.19.19,0,0,0,0,.379h5.1a.19.19,0,0,0,0-.379Z" transform="translate(-78.1 -193.138)"/>
      <path id="Path_37" data-name="Path 37" d="M243.694,340.286H231.408a.24.24,0,0,1,0-.479H243.7a.24.24,0,1,1,0,.479Z" transform="translate(-78.1 -236.558)"/>
      <path id="Path_37_-_Outline" data-name="Path 37 - Outline" d="M243.694,340.336H231.408a.29.29,0,0,1,0-.579H243.7a.29.29,0,1,1,0,.579Zm-12.286-.479a.19.19,0,0,0,0,.379h12.286a.19.19,0,1,0,0-.379Z" transform="translate(-78.1 -236.558)"/>
      <path id="Path_38" data-name="Path 38" d="M243.694,382.286H231.408a.24.24,0,0,1,0-.479H243.7a.24.24,0,1,1,0,.479Z" transform="translate(-78.1 -276.762)"/>
      <path id="Path_38_-_Outline" data-name="Path 38 - Outline" d="M243.694,382.336H231.408a.29.29,0,0,1,0-.579H243.7a.29.29,0,1,1,0,.579Zm-12.286-.479a.19.19,0,0,0,0,.379h12.286a.19.19,0,1,0,0-.379Z" transform="translate(-78.1 -276.762)"/>
      <path id="Path_39" data-name="Path 39" d="M243.694,424.286H231.408a.24.24,0,0,1,0-.479H243.7a.24.24,0,1,1,0,.479Z" transform="translate(-78.1 -316.966)"/>
      <path id="Path_39_-_Outline" data-name="Path 39 - Outline" d="M243.694,424.336H231.408a.29.29,0,0,1,0-.579H243.7a.29.29,0,1,1,0,.579Zm-12.286-.479a.19.19,0,0,0,0,.379h12.286a.19.19,0,1,0,0-.379Z" transform="translate(-78.1 -316.966)"/>
      <path id="Path_40" data-name="Path 40" d="M374.933,186.964v4.886h-5.413v-4.886h5.413m.192-.479h-5.8a.288.288,0,0,0-.287.287v5.269a.288.288,0,0,0,.287.287h5.8a.288.288,0,0,0,.287-.287v-5.269A.288.288,0,0,0,375.125,186.485Z" transform="translate(-210.077 -89.793)"/>
      <path id="Path_40_-_Outline" data-name="Path 40 - Outline" d="M369.329,186.435h5.8a.338.338,0,0,1,.337.337v5.269a.338.338,0,0,1-.337.337h-5.8a.338.338,0,0,1-.337-.337v-5.269A.338.338,0,0,1,369.329,186.435Zm5.8,5.844a.238.238,0,0,0,.237-.237v-5.269a.238.238,0,0,0-.237-.237h-5.8a.238.238,0,0,0-.237.237v5.269a.238.238,0,0,0,.237.237Zm-5.654-5.365h5.513V191.9h-5.513Zm5.413.1h-5.313V191.8h5.313Z" transform="translate(-210.077 -89.793)"/>
    </g>
  </g>
</svg>