<svg width="20" height="20" viewBox="0 0 20 20" fill="none" xmlns="http://www.w3.org/2000/svg">
<path d="M2.50781 9.34766V13.0893C2.50781 16.831 4.00781 18.331 7.74948 18.331H12.2411C15.9828 18.331 17.4828 16.831 17.4828 13.0893V9.34766" stroke="#181826" stroke-width="1.25" stroke-linecap="round" stroke-linejoin="round"/>
<path d="M10.0017 10.0013C11.5267 10.0013 12.6517 8.75964 12.5017 7.23464L11.9517 1.66797H8.06003L7.5017 7.23464C7.3517 8.75964 8.4767 10.0013 10.0017 10.0013Z" stroke="#181826" stroke-width="1.25" stroke-linecap="round" stroke-linejoin="round"/>
<path d="M15.2596 10.0013C16.943 10.0013 18.1763 8.63464 18.0096 6.95964L17.7763 4.66797C17.4763 2.5013 16.643 1.66797 14.4596 1.66797H11.918L12.5013 7.50964C12.643 8.88464 13.8846 10.0013 15.2596 10.0013Z" stroke="#181826" stroke-width="1.25" stroke-linecap="round" stroke-linejoin="round"/>
<path d="M4.70259 10.0013C6.07759 10.0013 7.31925 8.88464 7.45259 7.50964L7.63592 5.66797L8.03592 1.66797H5.49425C3.31092 1.66797 2.47759 2.5013 2.17759 4.66797L1.95259 6.95964C1.78592 8.63464 3.01925 10.0013 4.70259 10.0013Z" stroke="#181826" stroke-width="1.25" stroke-linecap="round" stroke-linejoin="round"/>
<path d="M10.0013 14.168C8.60964 14.168 7.91797 14.8596 7.91797 16.2513V18.3346H12.0846V16.2513C12.0846 14.8596 11.393 14.168 10.0013 14.168Z" stroke="#181826" stroke-width="1.25" stroke-linecap="round" stroke-linejoin="round"/>
</svg>
