<svg xmlns="http://www.w3.org/2000/svg" xmlns:xlink="http://www.w3.org/1999/xlink" width="25" height="25" viewBox="0 0 25 25">
  <defs>
    <clipPath id="clip-Price:_Low_To_High">
      <rect width="25" height="25"/>
    </clipPath>
  </defs>
  <g id="Price:_Low_To_High" data-name="Price: Low To High" clip-path="url(#clip-Price:_Low_To_High)">
    <g id="noun-low-price-5349928" transform="translate(-80.185 -54.575)">
      <path id="Subtraction_32" data-name="Subtraction 32" d="M1523.7,3146.637a.528.528,0,0,1-.4-.185l-3.887-4.578a.527.527,0,0,1,.4-.868h1.567v-1.562l-.017-.015a3.556,3.556,0,0,1,0-5.368l.017-.014v-1.562a.81.81,0,0,1,.809-.809h3.024a.81.81,0,0,1,.809.809v1.562l.017.014a3.556,3.556,0,0,1,0,5.368l-.017.015v1.562h1.566a.527.527,0,0,1,.4.868l-3.887,4.578A.529.529,0,0,1,1523.7,3146.637Zm-3.969-5.143h0l3.97,4.676,3.97-4.676h-1.893a.245.245,0,0,1-.245-.245V3139.8l-.075.042a3.554,3.554,0,0,1-3.515,0l-.075-.042v1.453a.245.245,0,0,1-.245.244Zm3.97-7.823a3.073,3.073,0,1,0,3.073,3.073A3.076,3.076,0,0,0,1523.7,3133.671Zm0-.489a3.555,3.555,0,0,1,1.758.465l.075.042v-1.206a.321.321,0,0,0-.32-.321h-3.024a.321.321,0,0,0-.32.321v1.206l.075-.042A3.555,3.555,0,0,1,1523.7,3133.183Zm0,6.338a2.777,2.777,0,1,1,2.777-2.777A2.78,2.78,0,0,1,1523.7,3139.521Zm0-5.065a2.288,2.288,0,1,0,2.289,2.289A2.291,2.291,0,0,0,1523.7,3134.455Zm0,4.135a.244.244,0,0,1-.244-.244v-.137l-.04-.009a.988.988,0,0,1-.766-.717.241.241,0,0,1,.027-.185.246.246,0,0,1,.15-.112.259.259,0,0,1,.06-.007.245.245,0,0,1,.237.186.558.558,0,0,0,.584.379h.018a.683.683,0,0,0,.483-.178.239.239,0,0,0,.056-.2c-.017-.138-.1-.308-.6-.39-.784-.129-.922-.567-.935-.816a.861.861,0,0,1,.69-.868l.038-.01v-.141a.244.244,0,0,1,.489,0v.139l.038.01a.992.992,0,0,1,.688.59.244.244,0,0,1-.451.189.537.537,0,0,0-.515-.325.689.689,0,0,0-.143.015c-.085.02-.359.107-.346.377.005.117.066.282.526.357.616.1.955.374,1.008.814a.727.727,0,0,1-.17.578,1.068,1.068,0,0,1-.6.32l-.041.008v.133A.244.244,0,0,1,1523.7,3138.591Z" transform="translate(-1430.648 -3071.262)"/>
      <path id="Subtraction_31" data-name="Subtraction 31" d="M1535.635,3140.613h-1.765a.575.575,0,0,1-.574-.574v-4.873h-.813a.408.408,0,0,1-.311-.674l2.269-2.673a.409.409,0,0,1,.624,0l2.269,2.673a.409.409,0,0,1-.311.673h-.813v4.873A.575.575,0,0,1,1535.635,3140.613Zm-.883-8.406h0l-2.1,2.47h.885a.245.245,0,0,1,.245.245v5.116a.086.086,0,0,0,.085.085h1.765a.086.086,0,0,0,.086-.085v-5.116a.245.245,0,0,1,.244-.245h.886l-2.1-2.47Zm-11.9,8.406h-1.766a.575.575,0,0,1-.574-.574v-4.873h-.813a.409.409,0,0,1-.311-.674l2.269-2.673a.412.412,0,0,1,.312-.144.407.407,0,0,1,.311.145l2.27,2.673a.408.408,0,0,1-.312.673h-.813v4.873A.574.574,0,0,1,1522.848,3140.613Zm-.883-8.406h0l-2.1,2.47h.886a.245.245,0,0,1,.244.245v5.116a.086.086,0,0,0,.085.085h1.765a.086.086,0,0,0,.086-.085v-5.116a.245.245,0,0,1,.245-.245h.885l-2.1-2.47Z" transform="translate(-1435.306 -3069.727)"/>
    </g>
  </g>
</svg>