<svg xmlns="http://www.w3.org/2000/svg" xmlns:xlink="http://www.w3.org/1999/xlink" width="24" height="24" viewBox="0 0 24 24" fill="#707070">
  <defs>
    <clipPath id="clip-Men">
      <rect width="24" height="24"/>
    </clipPath>
  </defs>
  <g id="Men" clip-path="url(#clip-Men)">
    <g id="noun-partners-749196" transform="translate(-71.51 -89.203)">
      <path id="Path_1" data-name="Path 1" d="M87.934,104.147a35.886,35.886,0,0,1,5.978,3.91,2.2,2.2,0,0,1,.794,1.718v3.113H86.333Zm.443-7.751a4.365,4.365,0,0,0,.182-.687c.715-4.284-1.395-4.432-1.395-4.432h0a3.238,3.238,0,0,0-1.271-1.182,4.284,4.284,0,0,0-2.611-.55,3.771,3.771,0,0,0-1.031.2,4.583,4.583,0,0,0-1.144.584,6.128,6.128,0,0,0-1.192.972,4.742,4.742,0,0,0-1.271,2.23,4.844,4.844,0,0,0,0,2.178,4.341,4.341,0,0,0,.182.687c-.423-.041-.917.206-.45,1.859.344,1.209.66,1.55.9,1.567a5.065,5.065,0,0,0,.639,1.728v1.539l3.329,2.4-1.251,1.591.842,1.35-.646,4.452h2.841l-.649-4.442.842-1.35L83.972,105.5l3.329-2.4v-1.577a4.962,4.962,0,0,0,.632-1.718c.241-.021.56-.344.9-1.567.46-1.642-.034-1.886-.457-1.842Zm-9.091,7.751a35.876,35.876,0,0,0-5.982,3.91,2.2,2.2,0,0,0-.794,1.718v3.113h8.376Z"/>
    </g>
  </g>
</svg>
