<svg xmlns="http://www.w3.org/2000/svg" width="96.291" height="14.514" viewBox="0 0 96.291 14.514">
  <g id="mexpress-tag" transform="translate(0 -3)">
    <path id="Path_325" data-name="Path 325" d="M12.323,7.118H.708A.667.667,0,0,1,0,6.413a.667.667,0,0,1,.708-.7H12.323a.667.667,0,0,1,.708.7A.667.667,0,0,1,12.323,7.118Z" transform="translate(0 1.66)" fill="#ff3f6c"/>
    <path id="Path_326" data-name="Path 326" d="M8.207,9.739H3.958a.7.7,0,1,1,0-1.409H8.207a.7.7,0,1,1,0,1.409Z" transform="translate(1.991 3.266)" fill="#ff3f6c"/>
    <path id="Path_327" data-name="Path 327" d="M24.049,17.514c-1.417,0-2.55-1.268-3.683-3.8-.991,2.536-2.266,3.8-3.683,3.8-1.7,0-2.833-1.832-3.683-3.8-.992,2.536-2.266,3.8-3.683,3.8H2.377a.7.7,0,1,1,0-1.409H9.318c.85,0,1.841-1.409,2.833-3.946l.142-.7A.655.655,0,0,1,13,11.032a.722.722,0,0,1,.708.564c0,.141.142.423.142.564V12.3c.85,2.4,1.841,3.946,2.691,3.946s1.983-1.409,2.833-3.946a6.078,6.078,0,0,0,.142-.7.94.94,0,0,1,.708-.564.78.78,0,0,1,.708.423l.283.7c.991,2.677,2.125,4.227,2.975,3.946a1.1,1.1,0,0,0,.567-.564c.425-.846.142-2.536-.567-4.65-.991-2.818-3.116-6.482-3.966-6.482-.425,0-1.7,1.409-2.975,4.368a.8.8,0,0,1-1.416,0C14.558,5.818,13.425,4.409,13,4.409H3.652a.667.667,0,0,1-.708-.7A.667.667,0,0,1,3.652,3h9.49c1.133,0,2.408,1.268,3.683,3.946C17.674,4.832,19.091,3,20.366,3c2.55.141,5.241,7.327,5.241,7.468.708,1.832,1.275,4.227.567,5.777a2.484,2.484,0,0,1-1.416,1.268Z" transform="translate(1.022 0)" fill="#ff3f6c"/>
    <path id="Path_328" data-name="Path 328" d="M19.1,15.954,21.042,4.286h7.33l-.343,2.058H23.185l-.424,2.541h4.118l-.346,2.076H22.414L21.925,13.9H26.95l-.343,2.058Z" transform="translate(11.7 0.788)" fill="#686b77"/>
    <path id="Path_329" data-name="Path 329" d="M24.119,15.954l4.3-6.013L26.265,4.286h2.776l.737,2.326q.134.394.259.841.143.447.3,1h.073q.31-.555.566-1t.5-.841l1.422-2.326h2.667l-4.067,5.78,2.32,5.888H31.05l-.834-2.505q-.161-.447-.3-.913t-.286-1h-.073q-.307.537-.6,1-.277.465-.551.913l-1.633,2.505Z" transform="translate(14.777 0.788)" fill="#686b77"/>
    <path id="Path_330" data-name="Path 330" d="M30.8,15.954,32.75,4.286H36.7a7.116,7.116,0,0,1,2.3.34,2.61,2.61,0,0,1,1.475,1.163,3.139,3.139,0,0,1,.268,2.2,4.309,4.309,0,0,1-.984,2.2,4.721,4.721,0,0,1-1.884,1.288,6.733,6.733,0,0,1-2.373.412H33.967l-.678,4.062ZM34.3,9.923h1.379A2.985,2.985,0,0,0,37.5,9.44a2.211,2.211,0,0,0,.8-1.45,1.255,1.255,0,0,0-.39-1.36,2.881,2.881,0,0,0-1.694-.394H34.91Z" transform="translate(18.873 0.788)" fill="#686b77"/>
    <path id="Path_331" data-name="Path 331" d="M36.786,15.954,38.732,4.286h4.173a6.968,6.968,0,0,1,2.214.322,2.522,2.522,0,0,1,1.43,1.11,3.077,3.077,0,0,1,.259,2.147,4.148,4.148,0,0,1-.975,2.147,4.578,4.578,0,0,1-1.821,1.235,6.771,6.771,0,0,1-2.333.394H39.991l-.719,4.313Zm6.422,0-1.873-4.975,2-1.539L46,15.954ZM40.32,9.672h1.47a3.078,3.078,0,0,0,1.762-.447,1.984,1.984,0,0,0,.807-1.36,1.177,1.177,0,0,0-.369-1.271,2.918,2.918,0,0,0-1.628-.358h-1.47Z" transform="translate(22.538 0.788)" fill="#686b77"/>
    <path id="Path_332" data-name="Path 332" d="M42.934,15.954,44.88,4.286h7.33l-.343,2.058H47.022L46.6,8.885h4.118l-.346,2.076H46.252l-.49,2.935h5.025l-.343,2.058Z" transform="translate(26.304 0.788)" fill="#686b77"/>
    <path id="Path_333" data-name="Path 333" d="M52.13,16.25a6.083,6.083,0,0,1-2.251-.429,5.1,5.1,0,0,1-1.82-1.27l1.714-1.682a4.133,4.133,0,0,0,1.263.913,3.574,3.574,0,0,0,1.5.34,2.5,2.5,0,0,0,1.378-.322,1.344,1.344,0,0,0,.609-.931.843.843,0,0,0-.11-.644,1.383,1.383,0,0,0-.545-.429,9.313,9.313,0,0,0-.838-.412l-1.45-.662a4.1,4.1,0,0,1-1.051-.662,2.606,2.606,0,0,1-.719-1.02,2.782,2.782,0,0,1-.1-1.467,3.534,3.534,0,0,1,.816-1.736A4.775,4.775,0,0,1,52.2,4.618a5.286,5.286,0,0,1,2.218-.465,4.871,4.871,0,0,1,1.948.394,4.2,4.2,0,0,1,1.557,1.11l-1.53,1.557a3.926,3.926,0,0,0-1.045-.7,3.1,3.1,0,0,0-1.283-.251,2.34,2.34,0,0,0-1.23.3,1.208,1.208,0,0,0-.579.859.772.772,0,0,0,.131.626,1.692,1.692,0,0,0,.578.447q.406.179.878.394l1.423.608a3.758,3.758,0,0,1,1.132.716,2.37,2.37,0,0,1,.643,1.038,2.821,2.821,0,0,1,.073,1.414,3.824,3.824,0,0,1-.825,1.79,4.663,4.663,0,0,1-1.724,1.306A5.824,5.824,0,0,1,52.13,16.25Z" transform="translate(29.444 0.706)" fill="#686b77"/>
    <path id="Path_334" data-name="Path 334" d="M57.662,16.25a6.083,6.083,0,0,1-2.251-.429,5.093,5.093,0,0,1-1.82-1.27l1.714-1.682a4.133,4.133,0,0,0,1.263.913,3.574,3.574,0,0,0,1.5.34A2.5,2.5,0,0,0,59.45,13.8a1.344,1.344,0,0,0,.609-.931.843.843,0,0,0-.11-.644,1.383,1.383,0,0,0-.545-.429,9.314,9.314,0,0,0-.838-.412l-1.45-.662a4.1,4.1,0,0,1-1.051-.662,2.6,2.6,0,0,1-.719-1.02,2.784,2.784,0,0,1-.1-1.467,3.537,3.537,0,0,1,.816-1.736,4.777,4.777,0,0,1,1.673-1.217,5.285,5.285,0,0,1,2.218-.465,4.871,4.871,0,0,1,1.948.394,4.2,4.2,0,0,1,1.557,1.11l-1.53,1.557a3.929,3.929,0,0,0-1.045-.7A3.1,3.1,0,0,0,59.6,6.264a2.34,2.34,0,0,0-1.23.3,1.208,1.208,0,0,0-.579.859.772.772,0,0,0,.131.626A1.692,1.692,0,0,0,58.5,8.5q.406.179.878.394L60.8,9.5a3.757,3.757,0,0,1,1.133.716,2.369,2.369,0,0,1,.643,1.038,2.823,2.823,0,0,1,.073,1.414,3.825,3.825,0,0,1-.825,1.79A4.663,4.663,0,0,1,60.1,15.767,5.824,5.824,0,0,1,57.662,16.25Z" transform="translate(32.834 0.706)" fill="#686b77"/>
  </g>
</svg>
