<svg xmlns="http://www.w3.org/2000/svg" xmlns:xlink="http://www.w3.org/1999/xlink" width="45" height="45" viewBox="0 0 45 45">
  <defs>
    <clipPath id="clip-order_Packed_7">
      <rect width="45" height="45"/>
    </clipPath>
  </defs>
  <g id="order_Packed_7" data-name="order Packed – 7" clip-path="url(#clip-order_Packed_7)">
    <rect width="45" height="45" fill="#fff"/>
    <g id="noun-package-returned-3780435" transform="translate(-11.692 0.111)">
      <g id="Package_Returned" data-name="Package Returned" transform="translate(15.605 5)">
        <path id="Path_19" data-name="Path 19" d="M35.589,24.478V11.18a.685.685,0,0,0-.137-.412l-4.12-5.494A.686.686,0,0,0,30.782,5H8.807a.686.686,0,0,0-.549.275l-4.12,5.494A.685.685,0,0,0,4,11.18V38.649a.687.687,0,0,0,.687.687H33.393c.419,0,2.059-1.137,2.062-2C35.474,31.566,35.589,26.455,35.589,24.478Zm-5.15-18.1,3.09,4.12H24.451l-1.03-4.12Zm-12.855,0H22l1.03,4.12H16.554Zm-1.223,5.494h6.867v5.9l-.2-.2a.686.686,0,0,0-.971,0l-.888.888-.888-.888a.686.686,0,0,0-.971,0l-.888.888-.888-.888a.686.686,0,0,0-.971,0l-.2.2ZM9.15,6.373h7.018l-1.03,4.12H6.06ZM5.373,37.963v-26.1h9.614v7.554a.687.687,0,0,0,1.172.486l.888-.888.888.888a.686.686,0,0,0,.971,0l.888-.888.888.888a.686.686,0,0,0,.971,0l.888-.888.888.888a.687.687,0,0,0,1.172-.486V11.867h9.614v26.1H5.373Zm1.575-7.068a.686.686,0,0,1,0-.971L8.322,28.55a.686.686,0,0,1,.971,0l1.373,1.373a.687.687,0,1,1-.971.971l-.2-.2v2.463a.687.687,0,1,1-1.373,0V30.693l-.2.2a.686.686,0,0,1-.971,0Zm9.212-.971a.687.687,0,1,1-.971.971l-.2-.2v2.463a.687.687,0,1,1-1.373,0V30.693l-.2.2a.687.687,0,1,1-.971-.971l1.374-1.373a.686.686,0,0,1,.971,0Zm.2,5.979a.687.687,0,0,1-.687.687H7.434a.687.687,0,0,1,0-1.373h8.241A.687.687,0,0,1,16.361,35.9Z" transform="translate(-4 -5)"/>
        <path id="Path_64" data-name="Path 64" d="M6.851,0" transform="translate(26.586 24.389)" fill="none" stroke="#000" stroke-linecap="round" stroke-width="1"/>
        <path id="Path_65" data-name="Path 65" d="M4,24.478V11.18a.685.685,0,0,1,.137-.412l4.12-5.494A.686.686,0,0,1,8.807,5H30.782a.686.686,0,0,1,.549.275l4.12,5.494a.685.685,0,0,1,.137.412V38.649a.687.687,0,0,1-.687.687H6.2c-.419,0-2.059-1.137-2.062-2C4.115,31.566,4,26.455,4,24.478Zm5.15-18.1-3.09,4.12h9.078l1.03-4.12ZM22,6.373H17.584l-1.03,4.12h6.481Zm1.223,5.494H16.361v5.9l.2-.2a.686.686,0,0,1,.971,0l.888.888.888-.888a.686.686,0,0,1,.971,0l.888.888.888-.888a.686.686,0,0,1,.971,0l.2.2Zm7.211-5.494H23.42l1.03,4.12h9.078Zm3.777,31.589v-26.1H24.6v7.554a.687.687,0,0,1-1.172.486l-.888-.888-.888.888a.686.686,0,0,1-.971,0l-.888-.888-.888.888a.686.686,0,0,1-.971,0l-.888-.888-.888.888a.687.687,0,0,1-1.172-.486V11.867H5.373v26.1H34.216Z" transform="translate(-4 -5)"/>
      </g>
    </g>
  </g>
</svg>
