<svg xmlns="http://www.w3.org/2000/svg" xmlns:xlink="http://www.w3.org/1999/xlink" width="45" height="45" viewBox="0 0 45 45">
  <defs>
    <clipPath id="clip-order_confimed_7">
      <rect width="45" height="45"/>
    </clipPath>
  </defs>
  <g id="order_confimed_7" data-name="order confimed – 7" clip-path="url(#clip-order_confimed_7)">
    <rect width="45" height="45" fill="#fff"/>
    <g id="noun-package-returned-3780435" transform="translate(-11.692 0.111)">
      <g id="Package_Returned" data-name="Package Returned" transform="translate(15.605 5)">
        <path id="Path_19" data-name="Path 19" d="M35.589,24.478V11.18a.685.685,0,0,0-.137-.412l-4.12-5.494A.686.686,0,0,0,30.782,5H8.807a.686.686,0,0,0-.549.275l-4.12,5.494A.685.685,0,0,0,4,11.18V38.649a.687.687,0,0,0,.687.687H27.1a8.92,8.92,0,1,0,8.487-14.858Zm-5.15-18.1,3.09,4.12H24.451l-1.03-4.12Zm-12.855,0H22l1.03,4.12H16.554Zm-1.223,5.494h6.867v5.9l-.2-.2a.686.686,0,0,0-.971,0l-.888.888-.888-.888a.686.686,0,0,0-.971,0l-.888.888-.888-.888a.686.686,0,0,0-.971,0l-.2.2ZM9.15,6.373h7.018l-1.03,4.12H6.06ZM5.373,37.963v-26.1h9.614v7.554a.687.687,0,0,0,1.172.486l.888-.888.888.888a.686.686,0,0,0,.971,0l.888-.888.888.888a.686.686,0,0,0,.971,0l.888-.888.888.888a.687.687,0,0,0,1.172-.486V11.867h9.614v12.4c-.227-.017-.455-.035-.687-.035a8.913,8.913,0,0,0-7.511,13.734Zm28.156,2.747a7.554,7.554,0,1,1,7.554-7.554A7.554,7.554,0,0,1,33.529,40.709ZM6.948,30.894a.686.686,0,0,1,0-.971L8.322,28.55a.686.686,0,0,1,.971,0l1.373,1.373a.687.687,0,1,1-.971.971l-.2-.2v2.463a.687.687,0,1,1-1.373,0V30.693l-.2.2a.686.686,0,0,1-.971,0Zm9.212-.971a.687.687,0,1,1-.971.971l-.2-.2v2.463a.687.687,0,1,1-1.373,0V30.693l-.2.2a.687.687,0,1,1-.971-.971l1.374-1.373a.686.686,0,0,1,.971,0Zm.2,5.979a.687.687,0,0,1-.687.687H7.434a.687.687,0,0,1,0-1.373h8.241A.687.687,0,0,1,16.361,35.9Z" transform="translate(-4 -5)"/>
      </g>
    </g>
    <g id="Group_8" data-name="Group 8">
      <line id="Line_3" data-name="Line 3" x2="2" y2="4" transform="translate(29.297 33.374) rotate(-11)" fill="none" stroke="#000" stroke-linecap="round" stroke-width="1.5"/>
      <line id="Line_4" data-name="Line 4" y1="5" x2="7" transform="translate(31.069 32.011) rotate(-11)" fill="none" stroke="#000" stroke-linecap="round" stroke-width="1.5"/>
    </g>
  </g>
</svg>
