<svg xmlns="http://www.w3.org/2000/svg" width="18" height="20" viewBox="0 0 18 20" fill="none">
  <g clip-path="url(#clip0_4295_36740)">
    <path d="M13.0531 7.63615L4.95312 2.91797" stroke="#145CA8" stroke-width="1.5" stroke-linecap="round" stroke-linejoin="round" />
    <path d="M17.0984 13.6361V6.36333C17.0981 6.04448 17.0148 5.73133 16.8568 5.45529C16.6989 5.17925 16.4718 4.95002 16.1984 4.7906L9.89844 1.15423C9.6248 0.994656 9.3144 0.910645 8.99844 0.910645C8.68247 0.910645 8.37207 0.994656 8.09844 1.15423L1.79844 4.7906C1.52507 4.95002 1.29802 5.17925 1.14005 5.45529C0.982086 5.73133 0.898761 6.04448 0.898438 6.36333V13.6361C0.898761 13.9549 0.982086 14.268 1.14005 14.5441C1.29802 14.8201 1.52507 15.0494 1.79844 15.2088L8.09844 18.8451C8.37207 19.0047 8.68247 19.0887 8.99844 19.0887C9.3144 19.0887 9.6248 19.0047 9.89844 18.8451L16.1984 15.2088C16.4718 15.0494 16.6989 14.8201 16.8568 14.5441C17.0148 14.268 17.0981 13.9549 17.0984 13.6361Z" stroke="#145CA8" stroke-width="1.5" stroke-linecap="round" stroke-linejoin="round" />
    <path d="M1.14844 5.41797L9.00544 10.0089L16.8624 5.41797" stroke="#145CA8" stroke-width="1.5" stroke-linecap="round" stroke-linejoin="round" />
    <path d="M9 19.1636V10" stroke="#145CA8" stroke-width="1.5" stroke-linecap="round" stroke-linejoin="round" />
  </g>
  <defs>
    <clipPath id="clip0_4295_36740">
      <rect width="18" height="20" fill="white" />
    </clipPath>
  </defs>
</svg>
