<svg xmlns="http://www.w3.org/2000/svg" xmlns:xlink="http://www.w3.org/1999/xlink" width="45" height="45" viewBox="0 0 45 45">
  <defs>
    <clipPath id="clip-order_Cancelled_6">
      <rect width="45" height="45"/>
    </clipPath>
  </defs>
  <g id="order_Cancelled_6" data-name="order Cancelled – 6" clip-path="url(#clip-order_Cancelled_6)">
    <rect width="45" height="45" fill="#fff"/>
    <g id="noun-package-returned-3780435" transform="translate(-11.692 0.111)">
      <g id="Package_Returned" data-name="Package Returned" transform="translate(15.605 5)">
        <path id="Path_19" data-name="Path 19" d="M35.589,24.478V11.18a.685.685,0,0,0-.137-.412l-4.12-5.494A.686.686,0,0,0,30.782,5H8.807a.686.686,0,0,0-.549.275l-4.12,5.494A.685.685,0,0,0,4,11.18V38.649a.687.687,0,0,0,.687.687H27.1a8.92,8.92,0,1,0,8.487-14.858Zm-5.15-18.1,3.09,4.12H24.451l-1.03-4.12Zm-12.855,0H22l1.03,4.12H16.554Zm-1.223,5.494h6.867v5.9l-.2-.2a.686.686,0,0,0-.971,0l-.888.888-.888-.888a.686.686,0,0,0-.971,0l-.888.888-.888-.888a.686.686,0,0,0-.971,0l-.2.2ZM9.15,6.373h7.018l-1.03,4.12H6.06ZM5.373,37.963v-26.1h9.614v7.554a.687.687,0,0,0,1.172.486l.888-.888.888.888a.686.686,0,0,0,.971,0l.888-.888.888.888a.686.686,0,0,0,.971,0l.888-.888.888.888a.687.687,0,0,0,1.172-.486V11.867h9.614v12.4c-.227-.017-.455-.035-.687-.035a8.913,8.913,0,0,0-7.511,13.734Zm28.156,2.747a7.554,7.554,0,1,1,7.554-7.554A7.554,7.554,0,0,1,33.529,40.709ZM6.948,30.894a.686.686,0,0,1,0-.971L8.322,28.55a.686.686,0,0,1,.971,0l1.373,1.373a.687.687,0,1,1-.971.971l-.2-.2v2.463a.687.687,0,1,1-1.373,0V30.693l-.2.2a.686.686,0,0,1-.971,0Zm9.212-.971a.687.687,0,1,1-.971.971l-.2-.2v2.463a.687.687,0,1,1-1.373,0V30.693l-.2.2a.687.687,0,1,1-.971-.971l1.374-1.373a.686.686,0,0,1,.971,0Zm.2,5.979a.687.687,0,0,1-.687.687H7.434a.687.687,0,0,1,0-1.373h8.241A.687.687,0,0,1,16.361,35.9Z" transform="translate(-4 -5)"/>
        <g id="Group_7" data-name="Group 7" transform="translate(25.03 23.627)">
          <g id="Line_1" data-name="Line 1" fill="none" stroke-linecap="round">
            <path d="M1.062,7.9,7.92,1.062" stroke="none"/>
            <path d="M 1.061715841293335 8.655367851257324 C 1.013605952262878 8.655367851257324 0.965501070022583 8.650774955749512 0.9181138277053833 8.64158821105957 C 0.870726466178894 8.632400512695312 0.8240568041801453 8.618620872497559 0.7788176536560059 8.600246429443359 C 0.7335785031318665 8.581872940063477 0.6897697448730469 8.558905601501465 0.6481042504310608 8.531345367431641 C 0.6064388751983643 8.503785133361816 0.5669167041778564 8.471631050109863 0.5302505493164062 8.434883117675781 C 0.4570370316505432 8.361502647399902 0.4021600782871246 8.27675724029541 0.3656135201454163 8.186341285705566 C 0.3290669918060303 8.095924377441406 0.3108508884906769 7.999835968017578 0.3109591007232666 7.903768539428711 C 0.3110673427581787 7.807701587677002 0.3294999301433563 7.711655616760254 0.3662507236003876 7.621323108673096 C 0.4030015766620636 7.530990600585938 0.4580706357955933 7.446370601654053 0.5314517617225647 7.373157501220703 L 7.389777660369873 0.5302568078041077 C 7.426408767700195 0.4937081634998322 7.465876579284668 0.4617279767990112 7.50747013092041 0.4343163967132568 C 7.549063682556152 0.4069047868251801 7.592783451080322 0.384061723947525 7.637918949127197 0.3657872378826141 C 7.683054447174072 0.3475127816200256 7.729605674743652 0.3338068723678589 7.776862144470215 0.3246695399284363 C 7.824119091033936 0.3155322670936584 7.872081279754639 0.3109636306762695 7.92003870010376 0.3109636306762695 C 7.968148231506348 0.3109636306762695 8.016253471374512 0.3155570328235626 8.063640594482422 0.3247438371181488 C 8.111027717590332 0.3339306116104126 8.157697677612305 0.3477107882499695 8.202936172485352 0.366084486246109 C 8.248175621032715 0.3844581246376038 8.291984558105469 0.4074252247810364 8.333650588989258 0.4349858462810516 C 8.37531566619873 0.4625463783740997 8.414837837219238 0.4947004616260529 8.451503753662109 0.5314480066299438 C 8.524717330932617 0.6048291921615601 8.579594612121582 0.6895742416381836 8.616141319274902 0.7799908518791199 C 8.652688026428223 0.8704074025154114 8.670903205871582 0.9664954543113708 8.670795440673828 1.062562465667725 C 8.670687675476074 1.158629655838013 8.652255058288574 1.25467574596405 8.615504264831543 1.345008373260498 C 8.578753471374512 1.435341119766235 8.523683547973633 1.519960522651672 8.450303077697754 1.59317409992218 L 1.591976523399353 8.436075210571289 C 1.55534553527832 8.472622871398926 1.515877962112427 8.504603385925293 1.474284291267395 8.532014846801758 C 1.432690739631653 8.559427261352539 1.388971090316772 8.582269668579102 1.343835592269897 8.600543975830078 C 1.298700094223022 8.618818283081055 1.252148747444153 8.632524490356445 1.204892039299011 8.641661643981934 C 1.15763533115387 8.650799751281738 1.109673142433167 8.655367851257324 1.061715841293335 8.655367851257324 Z" stroke="none" fill="#000"/>
          </g>
          <g id="Line_2" data-name="Line 2" fill="none" stroke-linecap="round">
            <path d="M1.062,1.062,7.92,7.9" stroke="none"/>
            <path d="M 7.92003870010376 8.655367851257324 C 7.87207555770874 8.655367851257324 7.824111461639404 8.650800704956055 7.776854991912842 8.641664505004883 C 7.729598999023438 8.632528305053711 7.683050155639648 8.618824005126953 7.637917041778564 8.600550651550293 C 7.59278392791748 8.582278251647949 7.54906702041626 8.559435844421387 7.507473945617676 8.532023429870605 C 7.46588134765625 8.504610061645508 7.426413059234619 8.472627639770508 7.389777660369873 8.436075210571289 L 0.5314517617225647 1.59317409992218 C 0.4580706357955933 1.519960522651672 0.4030015766620636 1.435341119766235 0.3662507236003876 1.345008373260498 C 0.3294999301433563 1.25467574596405 0.3110673427581787 1.158629655838013 0.3109591007232666 1.062562465667725 C 0.3108508884906769 0.9664954543113708 0.3290669918060303 0.8704073429107666 0.3656135201454163 0.7799908518791199 C 0.4021600782871246 0.6895742416381836 0.4570370316505432 0.6048291921615601 0.5302505493164062 0.5314480066299438 C 0.5669121742248535 0.494704931974411 0.6064335703849792 0.4625531136989594 0.6481000185012817 0.4349933564662933 C 0.6897664666175842 0.4074335694313049 0.7335779666900635 0.3844659626483917 0.778819739818573 0.3660911917686462 C 0.8240614533424377 0.3477164208889008 0.8707335591316223 0.333934485912323 0.9181211590766907 0.3247463405132294 C 0.9655086994171143 0.3155581653118134 1.013611793518066 0.3109636306762695 1.061715722084045 0.3109636306762695 C 1.109678983688354 0.3109636306762695 1.157642960548401 0.3155311942100525 1.204899430274963 0.3246670365333557 C 1.252155780792236 0.3338028788566589 1.298704624176025 0.347507119178772 1.34383761882782 0.3657805025577545 C 1.388970494270325 0.3840539157390594 1.432687401771545 0.4068963527679443 1.474279999732971 0.4343088269233704 C 1.515872597694397 0.461721271276474 1.555341005325317 0.4937036335468292 1.591976523399353 0.5302568078041077 L 8.450303077697754 7.373157501220703 C 8.523683547973633 7.446370601654053 8.578753471374512 7.530990600585938 8.615504264831543 7.621323108673096 C 8.652255058288574 7.711655616760254 8.670687675476074 7.807701587677002 8.670795440673828 7.903768539428711 C 8.670903205871582 7.999835968017578 8.652688026428223 8.095924377441406 8.616141319274902 8.186341285705566 C 8.579594612121582 8.27675724029541 8.524717330932617 8.361502647399902 8.451503753662109 8.434883117675781 C 8.414841651916504 8.471626281738281 8.375320434570312 8.503778457641602 8.333654403686523 8.531337738037109 C 8.291988372802734 8.558897972106934 8.248176574707031 8.581865310668945 8.202934265136719 8.600239753723145 C 8.157692909240723 8.61861515045166 8.111020088195801 8.632396697998047 8.063632965087891 8.641585350036621 C 8.01624584197998 8.650774002075195 7.968142509460449 8.655367851257324 7.92003870010376 8.655367851257324 Z" stroke="none" fill="#000"/>
          </g>
        </g>
      </g>
    </g>
  </g>
</svg>
