<svg xmlns="http://www.w3.org/2000/svg" xmlns:xlink="http://www.w3.org/1999/xlink" width="100" height="100" viewBox="0 0 100 100">
  <defs>
    <clipPath id="clip-Packed">
      <rect width="100" height="100"/>
    </clipPath>
  </defs>
  <g id="Packed" clip-path="url(#clip-Packed)">
    <rect width="100" height="100" fill="#fff"/>
    <path id="Path_41" data-name="Path 41" d="M69.11,33.055l-27.139-.3a.958.958,0,0,0-.738.316l-9.182,9.083a.914.914,0,0,0-.316.738l.034,25.29a1,1,0,0,0,1.055,1.055l27.62-.19a1.162,1.162,0,0,0,.738-.316L69.9,60.167a.958.958,0,0,0,.316-.738L70.165,34.11A1,1,0,0,0,69.11,33.055Zm-9.342,9.122-8.505.281,7.7-8.076,8.822.123Zm-16.846,1.34h6.763l.1,5.492h-7.07Zm1.013-1.34,7.659-8.067,5.363.131-7.272,8.045Zm-1.64-8.335,7.857.269-7.434,7.768H34.056ZM33.11,43.6l8.654-.088-.215,5.363A1,1,0,0,0,42.6,49.934h7.385a1,1,0,0,0,1.055-1.055V43.6h8.44V67.868H39.44V59.956a.5.5,0,0,0-.527-.527h-4.22a.5.5,0,0,0-.527.527v7.912H33.11ZM34.9,67.868V60.145h3.828v7.723Zm26.278-1.055-.223-23.7,8.02-7.53v23.42Zm-20.159-4.22H46.3a.5.5,0,0,0,.527-.527v-2.11a.5.5,0,0,0-.527-.527H41.022a.5.5,0,0,0-.527.527v2.11A.5.5,0,0,0,41.022,62.593Zm.209-2.542H46.2v1.938H41.231Zm-.209,6.762h9.494a.5.5,0,0,0,.527-.527v-2.11a.5.5,0,0,0-.527-.527H41.022a.5.5,0,0,0-.527.527v2.11A.5.5,0,0,0,41.022,66.813Zm.209-2.409h9.144v1.767H41.231Z" transform="translate(-1.044 -0.989)"/>
  </g>
</svg>
