<svg xmlns="http://www.w3.org/2000/svg" width="19.823" height="19.859" viewBox="0 0 19.823 19.859">
  <g id="Icon" transform="matrix(1, -0.017, 0.017, 1, -1.025, -0.559)">
    <g id="Icon-2" data-name="Icon" transform="translate(1.76 1.667)">
      <path id="Path" d="M19.743,15.158v2.713a1.809,1.809,0,0,1-1.971,1.809,17.891,17.891,0,0,1-7.8-2.777,17.622,17.622,0,0,1-5.425-5.425,17.891,17.891,0,0,1-2.776-7.84,1.808,1.808,0,0,1,1.8-1.971H6.279A1.808,1.808,0,0,1,8.088,3.222a11.589,11.589,0,0,0,.633,2.541,1.807,1.807,0,0,1-.407,1.908L7.166,8.819a14.452,14.452,0,0,0,5.425,5.425L13.739,13.1a1.807,1.807,0,0,1,1.908-.407,11.588,11.588,0,0,0,2.541.633A1.809,1.809,0,0,1,19.743,15.158Z" transform="translate(-1.76 -1.667)" fill="none" stroke="#393d46" stroke-linecap="round" stroke-linejoin="round" stroke-width="1.5"/>
    </g>
  </g>
</svg>
