<svg width="23" height="22" viewBox="0 0 23 22" fill="none" xmlns="http://www.w3.org/2000/svg">
<path d="M11.5 17.875C15.297 17.875 18.375 14.797 18.375 11C18.375 7.20304 15.297 4.125 11.5 4.125C7.70304 4.125 4.625 7.20304 4.625 11C4.625 14.797 7.70304 17.875 11.5 17.875Z" stroke="#0073CF" stroke-width="1.375" stroke-linecap="round" stroke-linejoin="round"/>
<path d="M11.5 13.75C13.0188 13.75 14.25 12.5188 14.25 11C14.25 9.48122 13.0188 8.25 11.5 8.25C9.98122 8.25 8.75 9.48122 8.75 11C8.75 12.5188 9.98122 13.75 11.5 13.75Z" stroke="#0073CF" stroke-width="1.375" stroke-linecap="round" stroke-linejoin="round"/>
<path d="M11.5 3.66732V1.83398" stroke="#0073CF" stroke-width="1.375" stroke-linecap="round" stroke-linejoin="round"/>
<path d="M4.16536 11H2.33203" stroke="#0073CF" stroke-width="1.375" stroke-linecap="round" stroke-linejoin="round"/>
<path d="M11.5 18.334V20.1673" stroke="#0073CF" stroke-width="1.375" stroke-linecap="round" stroke-linejoin="round"/>
<path d="M18.832 11H20.6654" stroke="#0073CF" stroke-width="1.375" stroke-linecap="round" stroke-linejoin="round"/>
</svg>
