<svg xmlns="http://www.w3.org/2000/svg" xmlns:xlink="http://www.w3.org/1999/xlink" width="45" height="45" viewBox="0 0 45 45">
  <defs>
    <clipPath id="clip-Placed_11">
      <rect width="45" height="45"/>
    </clipPath>
  </defs>
  <g id="Placed_11" data-name="Placed – 11" clip-path="url(#clip-Placed_11)">
    <rect width="45" height="45" fill="#fff"/>
    <g id="Group_10" data-name="Group 10">
      <line id="Line_5" data-name="Line 5" x2="6" transform="translate(5.5 10.5)" fill="none" stroke="#000" stroke-linecap="round" stroke-width="1.4"/>
      <line id="Line_6" data-name="Line 6" x1="5" y1="17" transform="translate(11.5 10.5)" fill="none" stroke="#000" stroke-linecap="round" stroke-width="1.4"/>
      <line id="Line_7" data-name="Line 7" x2="16" transform="translate(16.5 27.5)" fill="none" stroke="#000" stroke-linecap="round" stroke-width="1.4"/>
      <line id="Line_8" data-name="Line 8" x2="13" transform="translate(12.5 14.5)" fill="none" stroke="#000" stroke-width="1.4"/>
      <line id="Line_9" data-name="Line 9" x1="1.8" y2="4.92" transform="translate(32.7 22.6)" fill="none" stroke="#000" stroke-linecap="round" stroke-width="1.4"/>
      <g id="Ellipse_5" data-name="Ellipse 5" transform="translate(25 7)" fill="none" stroke="#000" stroke-width="1.4">
        <circle cx="8" cy="8" r="8" stroke="none"/>
        <circle cx="8" cy="8" r="7.3" fill="none"/>
      </g>
      <g id="Group_9" data-name="Group 9" transform="translate(0.5 0.5)">
        <line id="Line_10" data-name="Line 10" x2="2" y2="2" transform="translate(29.5 15.5)" fill="none" stroke="#000" stroke-linecap="round" stroke-width="1.4"/>
        <line id="Line_11" data-name="Line 11" y1="5" x2="5" transform="translate(31.5 12.5)" fill="none" stroke="#000" stroke-linecap="round" stroke-width="1.4"/>
      </g>
      <g id="Ellipse_6" data-name="Ellipse 6" transform="translate(15.9 33)" fill="none" stroke="#000" stroke-width="1.4">
        <circle cx="3" cy="3" r="3" stroke="none"/>
        <circle cx="3" cy="3" r="2.3" fill="none"/>
      </g>
      <g id="Path_69" data-name="Path 69" transform="translate(25.9 33)" fill="none">
        <path d="M3,0A3,3,0,1,1,0,3,3,3,0,0,1,3,0Z" stroke="none"/>
        <path d="M 3 1.400000095367432 C 2.117759943008423 1.400000095367432 1.400000095367432 2.117759943008423 1.400000095367432 3 C 1.400000095367432 3.882240056991577 2.117759943008423 4.599999904632568 3 4.599999904632568 C 3.882240056991577 4.599999904632568 4.599999904632568 3.882240056991577 4.599999904632568 3 C 4.599999904632568 2.117759943008423 3.882240056991577 1.400000095367432 3 1.400000095367432 M 3 0 C 4.65684986114502 0 6 1.34315013885498 6 3 C 6 4.65684986114502 4.65684986114502 6 3 6 C 1.34315013885498 6 0 4.65684986114502 0 3 C 0 1.34315013885498 1.34315013885498 0 3 0 Z" stroke="none" fill="#000"/>
      </g>
      <path id="Path_68" data-name="Path 68" d="M154.673-231.48H138.742s-2.376-.212-2.416,1.922,2.34,2.141,2.34,2.141h16.007" transform="translate(-121.673 260.186)" fill="none" stroke="#000" stroke-linecap="round" stroke-linejoin="round" stroke-width="1"/>
    </g>
  </g>
</svg>
