<svg xmlns="http://www.w3.org/2000/svg" xmlns:xlink="http://www.w3.org/1999/xlink" width="25" height="25" viewBox="0 0 25 25">
  <defs>
    <clipPath id="clip-Popularity">
      <rect width="25" height="25"/>
    </clipPath>
  </defs>
  <g id="Popularity" clip-path="url(#clip-Popularity)">
    <g id="noun-popularity-5536441" transform="translate(-123.607 -42.917)">
      <path id="Subtraction_5" data-name="Subtraction 5" d="M1703.49,3122.282a.482.482,0,0,1-.482-.482v-1a.479.479,0,0,1,.141-.341.485.485,0,0,1,.341-.141l0-.2v.2a.482.482,0,0,1,.482.482v1a.483.483,0,0,1-.485.482Z" transform="translate(-1566.997 -3073.814)"/>
      <path id="Subtraction_6" data-name="Subtraction 6" d="M1703.49,3122.148a.481.481,0,0,1-.418-.722l.5-.868a.476.476,0,0,1,.291-.225.452.452,0,0,1,.122-.015.483.483,0,0,1,.423.723l-.5.867a.48.48,0,0,1-.293.225A.535.535,0,0,1,1703.49,3122.148Z" transform="translate(-1563.504 -3072.745)"/>
      <path id="Subtraction_7" data-name="Subtraction 7" d="M1703.49,3121.782a.5.5,0,0,1-.125-.016.482.482,0,0,1-.34-.592.477.477,0,0,1,.225-.292l.867-.5a.489.489,0,0,1,.243-.064.452.452,0,0,1,.121.015.482.482,0,0,1,.342.59.475.475,0,0,1-.225.293l-.866.5A.488.488,0,0,1,1703.49,3121.782Z" transform="translate(-1560.951 -3069.821)"/>
      <path id="Subtraction_8" data-name="Subtraction 8" d="M1704.489,3121.281h-1a.477.477,0,0,1-.34-.14.482.482,0,0,1,.34-.823h1a.482.482,0,1,1,0,.964Z" transform="translate(-1560.017 -3065.83)"/>
      <path id="Subtraction_9" data-name="Subtraction 9" d="M1704.356,3121.782a.483.483,0,0,1-.243-.066l-.866-.5a.482.482,0,0,1,.241-.9.5.5,0,0,1,.24.062l.867.5a.482.482,0,0,1-.115.885A.5.5,0,0,1,1704.356,3121.782Z" transform="translate(-1560.952 -3062.34)"/>
      <path id="Subtraction_4" data-name="Subtraction 4" d="M1703.992,3122.149a.5.5,0,0,1-.126-.016.481.481,0,0,1-.286-.214l-.507-.875a.484.484,0,0,1,.543-.709.486.486,0,0,1,.293.224l.5.867a.483.483,0,0,1-.178.66A.478.478,0,0,1,1703.992,3122.149Z" transform="translate(-1570.989 -3072.748)"/>
      <path id="Subtraction_3" data-name="Subtraction 3" d="M1704.356,3121.782a.482.482,0,0,1-.241-.065l-.867-.5a.482.482,0,0,1,.481-.835l.868.5a.483.483,0,0,1-.115.884A.5.5,0,0,1,1704.356,3121.782Z" transform="translate(-1573.911 -3069.824)"/>
      <path id="Subtraction_2" data-name="Subtraction 2" d="M1704.489,3121.281h-1a.479.479,0,0,1-.341-.141.485.485,0,0,1-.141-.34.479.479,0,0,1,.141-.341.485.485,0,0,1,.341-.141h1a.494.494,0,0,1,.341.141.479.479,0,0,1,.141.341.482.482,0,0,1-.482.481Z" transform="translate(-1574.981 -3065.833)"/>
      <path id="Subtraction_1" data-name="Subtraction 1" d="M1703.488,3121.784a.491.491,0,0,1-.122-.016.482.482,0,0,1-.294-.225.483.483,0,0,1,.179-.661l.863-.5a.488.488,0,0,1,.243-.064.482.482,0,0,1,.247.9l-.872.5A.484.484,0,0,1,1703.488,3121.784Z" transform="translate(-1573.914 -3062.345)"/>
      <path id="Subtraction_12" data-name="Subtraction 12" d="M1703.49,3123.807h0a.482.482,0,0,1-.482-.482V3120.8a.479.479,0,0,1,.141-.341.481.481,0,0,1,.681,0,.479.479,0,0,1,.141.341v2.525a.482.482,0,0,1-.141.341A.493.493,0,0,1,1703.49,3123.807Z" transform="translate(-1569.499 -3059.506)"/>
      <path id="Subtraction_11" data-name="Subtraction 11" d="M1703.49,3125.016a.482.482,0,0,1-.482-.481V3120.8a.482.482,0,0,1,.481-.482.487.487,0,0,1,.341.141.482.482,0,0,1,.141.341v3.735a.493.493,0,0,1-.141.34A.482.482,0,0,1,1703.49,3125.016Z" transform="translate(-1566.997 -3060.684)"/>
      <path id="Subtraction_10" data-name="Subtraction 10" d="M1703.49,3123.807a.482.482,0,0,1-.482-.482V3120.8a.482.482,0,0,1,.141-.34.477.477,0,0,1,.341-.141l0-.2v.2a.481.481,0,0,1,.34.139.486.486,0,0,1,.143.342v2.525a.484.484,0,0,1-.485.482Z" transform="translate(-1564.495 -3059.506)"/>
      <path id="Subtraction_13" data-name="Subtraction 13" d="M1703.489,3122.42a.485.485,0,0,1-.34-.141.479.479,0,0,1-.141-.34V3120.8a.482.482,0,0,1,.823-.342.491.491,0,0,1,.14.344v1.135a.483.483,0,0,1-.482.482Z" transform="translate(-1572.001 -3058.118)"/>
      <path id="Subtraction_14" data-name="Subtraction 14" d="M1703.489,3122.42a.485.485,0,0,1-.34-.141.479.479,0,0,1-.141-.34V3120.8a.482.482,0,0,1,.823-.342.491.491,0,0,1,.14.344v1.135a.483.483,0,0,1-.482.482Z" transform="translate(-1561.989 -3058.118)"/>
      <path id="Subtraction_15" data-name="Subtraction 15" d="M1709.048,3128.625a1.376,1.376,0,0,1-.4-.058l-1.349-.391-1.353.392a1.41,1.41,0,0,1-.4.057,1.47,1.47,0,0,1-1.464-1.409l-.041-1.406-.792-1.16a1.47,1.47,0,0,1,.707-2.19l1.328-.473.859-1.114a1.476,1.476,0,0,1,2.3,0l.86,1.115,1.325.473a1.471,1.471,0,0,1,.711,2.19l-.792,1.16-.041,1.406A1.472,1.472,0,0,1,1709.048,3128.625Zm-1.747-1.436a.507.507,0,0,1,.125.016l1.5.437a.569.569,0,0,0,.153.022.473.473,0,0,0,.476-.478l.043-1.546a.483.483,0,0,1,.077-.25l.879-1.287a.473.473,0,0,0-.239-.734l-1.457-.521a.489.489,0,0,1-.219-.158l-.947-1.226a.473.473,0,0,0-.774,0l-.947,1.226a.48.48,0,0,1-.221.159l-1.459.521a.484.484,0,0,0-.31.3.491.491,0,0,0,.071.429l.873,1.279a.491.491,0,0,1,.083.259l.047,1.545a.469.469,0,0,0,.473.478.569.569,0,0,0,.153-.022l1.488-.434A.481.481,0,0,1,1707.3,3127.189Z" transform="translate(-1570.81 -3069.895)"/>
    </g>
  </g>
</svg>