<svg xmlns="http://www.w3.org/2000/svg" xmlns:xlink="http://www.w3.org/1999/xlink" width="45" height="45" viewBox="0 0 45 45">
  <defs>
    <clipPath id="clip-Profile_9">
      <rect width="45" height="45"/>
    </clipPath>
  </defs>
  <g id="Profile_9" data-name="Profile  – 9" clip-path="url(#clip-Profile_9)">
    <rect width="45" height="45" fill="#fff"/>
    <g id="Ellipse_1" data-name="Ellipse 1" transform="translate(6 5)" fill="none" stroke="#000" stroke-width="1.5">
      <circle cx="17" cy="17" r="17" stroke="none"/>
      <circle cx="17" cy="17" r="16.25" fill="none"/>
    </g>
    <g id="Intersection_1" data-name="Intersection 1" transform="translate(13 -327)" fill="none">
      <path d="M2,364s0,0,0,0a8,8,0,0,1,16,0s0,0,0,0a17.028,17.028,0,0,1-16,0Z" stroke="none"/>
      <path d="M 9.999899864196777 364.5003051757812 C 12.22348976135254 364.5003051757812 14.43027114868164 364.0196533203125 16.43845558166504 363.1036376953125 C 16.00074195861816 359.9422302246094 13.28021144866943 357.5003967285156 9.999899864196777 357.5003967285156 C 6.719587802886963 357.5003967285156 3.999054431915283 359.9422607421875 3.561342477798462 363.1036376953125 C 5.569540500640869 364.0196533203125 7.776335716247559 364.5003051757812 9.999899864196777 364.5003051757812 M 9.999899864196777 366.0003051757812 C 7.107729911804199 366.0003051757812 4.384130001068115 365.2779541015625 1.999819874763489 364.0039978027344 C 1.999819874763489 364.00244140625 1.999799847602844 364.0011596679688 1.999799847602844 363.9996032714844 C 1.999799847602844 359.5815124511719 5.581799983978271 356.0003967285156 9.999899864196777 356.0003967285156 C 14.41800022125244 356.0003967285156 18 359.5815124511719 18 363.9996032714844 C 18 364.0009460449219 17.99999046325684 364.0026245117188 17.99999046325684 364.0039672851562 C 15.61567974090576 365.2779541015625 12.89206981658936 366.0003051757812 9.999899864196777 366.0003051757812 Z" stroke="none" fill="#000"/>
    </g>
    <g id="Ellipse_2" data-name="Ellipse 2" transform="translate(15 11)" fill="none" stroke="#000" stroke-width="1.5">
      <circle cx="8" cy="8" r="8" stroke="none"/>
      <circle cx="8" cy="8" r="7.25" fill="none"/>
    </g>
  </g>
</svg>
