<svg xmlns="http://www.w3.org/2000/svg" xmlns:xlink="http://www.w3.org/1999/xlink" width="25" height="25" viewBox="0 0 25 25">
  <defs>
    <clipPath id="clip-Customer_Rating">
      <rect width="25" height="25"/>
    </clipPath>
  </defs>
  <g id="Customer_Rating" data-name="Customer Rating" clip-path="url(#clip-Customer_Rating)">
    <g id="noun-customer-review-5417173" transform="translate(-91.412 -42.082)">
      <path id="Subtraction_22" data-name="Subtraction 22" d="M1499.1,3123.543a.2.2,0,0,1-.094-.023l-1.159-.609-1.165.613a.2.2,0,0,1-.087.02.207.207,0,0,1-.12-.038.2.2,0,0,1-.081-.2l.221-1.292-.938-.913a.2.2,0,0,1-.05-.208.2.2,0,0,1,.163-.137l1.3-.189.58-1.174,0,0a.2.2,0,0,1,.361,0l.58,1.175,1.3.189a.2.2,0,0,1,.112.345l-.938.913.221,1.292a.2.2,0,0,1-.044.164A.2.2,0,0,1,1499.1,3123.543Zm-1.252-1.062a.2.2,0,0,1,.093.023l.89.47-.168-.994a.2.2,0,0,1,.058-.179l.721-.7-1-.145a.2.2,0,0,1-.152-.111l-.446-.9-.445.9a.2.2,0,0,1-.152.111l-1,.145.721.7a.2.2,0,0,1,.058.179l-.17.993.869-.456.023-.012A.189.189,0,0,1,1497.844,3122.48Z" transform="translate(-1393.886 -3072.712)"/>
      <path id="Subtraction_21" data-name="Subtraction 21" d="M1498.054,3123.766l-.005-.076a.205.205,0,0,1-.166-.085l-.756-1.068-1.317.017a.2.2,0,0,1-.176-.11.2.2,0,0,1,.018-.213l.783-1.049-.42-1.239a.2.2,0,0,1,.047-.209.206.206,0,0,1,.144-.06.2.2,0,0,1,.066.011l1.241.42,1.049-.783a.207.207,0,0,1,.122-.04.2.2,0,0,1,.09.021.2.2,0,0,1,.111.183l-.018,1.309,1.076.76a.2.2,0,0,1-.062.354l-1.251.389-.389,1.251a.2.2,0,0,1-.16.138.111.111,0,0,1-.025,0v.076Zm-.866-1.636h0l.042,0a.2.2,0,0,1,.166.085l.58.822.3-.961a.2.2,0,0,1,.133-.133l.961-.3-.822-.581a.2.2,0,0,1-.085-.167l.013-1.007-.807.6a.209.209,0,0,1-.119.038.2.2,0,0,1-.064-.01l-.953-.323.325.959a.2.2,0,0,1-.031.18l-.6.8Z" transform="translate(-1398.261 -3070.615)"/>
      <path id="Subtraction_20" data-name="Subtraction 20" d="M1497.289,3123.742h0a.215.215,0,0,1-.059-.01.2.2,0,0,1-.138-.163l-.188-1.3-1.175-.58a.2.2,0,0,1-.113-.182.2.2,0,0,1,.113-.182l1.174-.58.188-1.3a.2.2,0,0,1,.138-.163.174.174,0,0,1,.062-.01.2.2,0,0,1,.145.061l.916.936,1.291-.221a.188.188,0,0,1,.033,0,.2.2,0,0,1,.18.3l-.611,1.161.609,1.159a.2.2,0,0,1-.015.213.205.205,0,0,1-.165.083l-.033,0-1.289-.221-.916.938A.2.2,0,0,1,1497.289,3123.742Zm.14-3.822-.145.993a.2.2,0,0,1-.111.152l-.9.448.9.445a.2.2,0,0,1,.111.151l.145.994.7-.72a.206.206,0,0,1,.147-.061l.032,0,.994.17-.469-.891a.2.2,0,0,1,0-.188l.468-.89-1,.171-.026,0a.206.206,0,0,1-.146-.061l-.7-.716Z" transform="translate(-1400.359 -3066.239)"/>
      <path id="Subtraction_24" data-name="Subtraction 24" d="M1498.2,3123.743h-.006a.2.2,0,0,1-.145-.061l-.913-.938-1.292.221-.034,0a.2.2,0,0,1-.164-.083.2.2,0,0,1-.014-.213l.609-1.159-.609-1.16a.2.2,0,0,1,.015-.213.206.206,0,0,1,.165-.083l.033,0,1.292.221.917-.942a.205.205,0,0,1,.142-.057.2.2,0,0,1,.2.174l.188,1.3,1.175.579a.2.2,0,0,1,.113.182.2.2,0,0,1-.113.182l-1.175.58-.188,1.3a.208.208,0,0,1-.139.163A.249.249,0,0,1,1498.2,3123.743Zm-.995-1.419h0a.212.212,0,0,1,.145.061l.7.723.145-.994a.2.2,0,0,1,.111-.152l.9-.445-.908-.449a.2.2,0,0,1-.1-.149l-.145-1-.7.72a.2.2,0,0,1-.145.061h-.006l-.022,0-1-.171.468.891a.2.2,0,0,1,0,.188l-.467.889.991-.17h.035Z" transform="translate(-1387.215 -3066.24)"/>
      <path id="Subtraction_23" data-name="Subtraction 23" d="M1497.588,3123.69h0a.157.157,0,0,1-.031,0,.2.2,0,0,1-.162-.14l-.389-1.25-1.251-.389a.2.2,0,0,1-.057-.358l1.07-.755-.017-1.309a.2.2,0,0,1,.2-.2.2.2,0,0,1,.121.04l1.049.783,1.24-.42a.2.2,0,0,1,.066-.011.2.2,0,0,1,.144.059.207.207,0,0,1,.048.211l-.421,1.238.787,1.054a.2.2,0,0,1-.167.319l-1.309-.016-.746,1.055-.01.013A.2.2,0,0,1,1497.588,3123.69Zm-.428-3.8.012.905v.1a.2.2,0,0,1-.085.168l-.821.58.96.3a.2.2,0,0,1,.133.133l.3.961.581-.822a.2.2,0,0,1,.167-.085l1.006.013-.6-.8a.2.2,0,0,1-.029-.186l.322-.952-.952.321a.2.2,0,0,1-.064.011.206.206,0,0,1-.122-.04l-.806-.6Z" transform="translate(-1389.461 -3070.615)"/>
      <path id="Subtraction_25" data-name="Subtraction 25" d="M1497.91,3120.9h-2.1a.2.2,0,1,1,0-.4h2.1a.4.4,0,1,0,0-.808h-2.1a.2.2,0,1,1,0-.4h2.1a.808.808,0,1,1,0,1.616Z" transform="translate(-1390.298 -3062.488)"/>
      <path id="Subtraction_26" data-name="Subtraction 26" d="M1497.758,3121.051h-1.943a.2.2,0,1,1,0-.405h1.948a.48.48,0,0,0,0-.959h-1.944a.2.2,0,1,1,0-.4h1.942a.884.884,0,0,1,0,1.769Z" transform="translate(-1390.222 -3061.275)"/>
      <path id="Subtraction_27" data-name="Subtraction 27" d="M1497.758,3121.051h-1.943a.2.2,0,1,1,0-.4h1.948a.48.48,0,0,0,0-.959h-1.944a.2.2,0,1,1,0-.4h1.942a.884.884,0,0,1,0,1.769Z" transform="translate(-1390.222 -3059.912)"/>
      <path id="Subtraction_28" data-name="Subtraction 28" d="M1501.682,3121.05h-5.868a.2.2,0,1,1,0-.4h5.868a.48.48,0,0,0,0-.959.2.2,0,1,1,0-.4.884.884,0,1,1,0,1.768Z" transform="translate(-1394.146 -3058.547)"/>
      <path id="Subtraction_29" data-name="Subtraction 29" d="M1498.016,3124.385h-2.2a.2.2,0,0,1-.2-.2v-4.7a.2.2,0,0,1,.2-.2h2.2a.2.2,0,0,1,.2.2v4.7a.2.2,0,0,1-.059.143A.2.2,0,0,1,1498.016,3124.385Zm-2-4.7v4.294h1.8v-4.294Z" transform="translate(-1396.12 -3061.882)"/>
      <path id="Subtraction_30" data-name="Subtraction 30" d="M1495.636,3123.65h0l.048-.4v-.006c.366-.015,1.289-.218,1.978-1.79l.009-.02a4.159,4.159,0,0,0,.321-1.37c.027-.391.144-.639.347-.738a.436.436,0,0,1,.2-.047.79.79,0,0,1,.425.153,1.536,1.536,0,0,1,.644.943,2.988,2.988,0,0,1-.2,1.978l-.005.01-.011.019,0,.008-.008.015a.64.64,0,0,0-.085.191l-.015.057.042.041a.2.2,0,0,1-.283.29c-.2-.189-.2-.443-.012-.777l0-.008.006-.01,0,0,0-.008a2.589,2.589,0,0,0,.165-1.71l-.018-.077a1.144,1.144,0,0,0-.453-.616.571.571,0,0,0-.147-.077l-.08-.029-.042.075a.892.892,0,0,0-.077.351,4.561,4.561,0,0,1-.363,1.523C1497.21,3123.5,1495.99,3123.649,1495.636,3123.65Z" transform="translate(-1393.664 -3065.843)"/>
      <path id="Path_64" data-name="Path 64" d="M250.032,390.5a.3.3,0,0,1-.3-.3v-1.32a.3.3,0,1,1,.6,0v1.32a.3.3,0,0,1-.3.3Z" transform="translate(-149.237 -330.29)"/>
      <path id="Path_76" data-name="Path 76" d="M250.032,390.6a.4.4,0,0,1-.4-.4v-1.32a.4.4,0,1,1,.8,0v1.32a.4.4,0,0,1-.4.4Zm0-1.924a.2.2,0,0,0-.2.2v1.32a.2.2,0,1,0,.4,0v-1.32A.2.2,0,0,0,250.032,388.677Z" transform="translate(-149.237 -330.29)" fill="#707070"/>
    </g>
  </g>
</svg>