<svg width="24" height="26" viewBox="0 0 24 26" fill="none" xmlns="http://www.w3.org/2000/svg">
<g clip-path="url(#clip0_2344_11120)">
<path d="M22.3511 17.7266V8.27208C22.3507 7.85759 22.2418 7.45049 22.0354 7.09164C21.8289 6.73278 21.5322 6.43478 21.1749 6.22753L12.9416 1.50026C12.584 1.29281 12.1783 1.18359 11.7654 1.18359C11.3525 1.18359 10.9468 1.29281 10.5892 1.50026L2.35588 6.22753C1.99862 6.43478 1.70189 6.73278 1.49545 7.09164C1.28901 7.45049 1.18011 7.85759 1.17969 8.27208V17.7266C1.18011 18.1411 1.28901 18.5482 1.49545 18.9071C1.70189 19.2659 1.99862 19.5639 2.35588 19.7712L10.5892 24.4984C10.9468 24.7059 11.3525 24.8151 11.7654 24.8151C12.1783 24.8151 12.584 24.7059 12.9416 24.4984L21.1749 19.7712C21.5322 19.5639 21.8289 19.2659 22.0354 18.9071C22.2418 18.5482 22.3507 18.1411 22.3511 17.7266Z" stroke="#0073CF" stroke-width="1.6" stroke-linecap="round" stroke-linejoin="round"/>
<path d="M1.94922 7.14961L7 10.5M21.8355 7.04297L16.5 10.5" stroke="#0073CF" stroke-width="1.6" stroke-linecap="round" stroke-linejoin="round"/>
<path d="M12 24.5L12 19" stroke="#0073CF" stroke-width="1.6" stroke-linecap="round" stroke-linejoin="round"/>
<g clip-path="url(#clip1_2344_11120)">
<path d="M17.1992 13.5C17.1992 14.5312 16.9105 15.5075 16.4017 16.3325C16.113 16.8275 15.7417 17.2675 15.3155 17.625C14.353 18.4912 13.088 19 11.6992 19C9.69172 19 7.94545 17.9275 6.9967 16.3325C6.48795 15.5075 6.19922 14.5312 6.19922 13.5C6.19922 11.7675 6.99672 10.2138 8.26172 9.21001C9.21047 8.45376 10.4067 8 11.6992 8C14.738 8 17.1992 10.4612 17.1992 13.5Z" stroke="#0073CF" stroke-width="1.6" stroke-miterlimit="10" stroke-linecap="round" stroke-linejoin="round"/>
<path d="M13.9258 11.5508V10.8008H9.80078V11.5508H11.1133C11.6015 11.5508 12.0137 11.865 12.1689 12.3008H9.80078V13.0508H12.1689C12.0919 13.2695 11.9491 13.459 11.7601 13.5933C11.5711 13.7276 11.3451 13.8001 11.1133 13.8008H9.80078V14.706L11.8955 16.8008H12.956L10.706 14.5508H11.1133C11.5453 14.5502 11.9638 14.4007 12.2984 14.1274C12.633 13.8542 12.8632 13.4739 12.95 13.0508H13.9258V12.3008H12.95C12.8925 12.0279 12.7741 11.7715 12.6035 11.5508H13.9258Z" fill="#0073CF"/>
</g>
</g>
<defs>
<clipPath id="clip0_2344_11120">
<rect width="23.4" height="26" fill="white"/>
</clipPath>
<clipPath id="clip1_2344_11120">
<rect width="13" height="15.6" fill="white" transform="translate(5.19922 6.5)"/>
</clipPath>
</defs>
</svg>
