<svg width="26" height="26" viewBox="0 0 26 26" fill="none" xmlns="http://www.w3.org/2000/svg">
<path d="M24.8157 16.543C24.8157 21.1166 21.1166 24.8157 16.543 24.8157L17.7839 22.7475" stroke="#0073CF" stroke-width="1.6" stroke-linecap="round" stroke-linejoin="round"/>
<path d="M1.17969 9.45632C1.17969 4.88268 4.87878 1.18359 9.45241 1.18359L8.21152 3.25178" stroke="#0073CF" stroke-width="1.6" stroke-linecap="round" stroke-linejoin="round"/>
<g clip-path="url(#clip0_2344_11128)">
<path d="M19.0781 12.627C19.0781 13.7509 18.7635 14.8148 18.209 15.7139C17.8943 16.2534 17.4897 16.7329 17.0251 17.1226C15.9762 18.0666 14.5975 18.6211 13.084 18.6211C10.8961 18.6211 8.99296 17.4522 7.95897 15.7139C7.40452 14.8148 7.08984 13.7509 7.08984 12.627C7.08984 10.7388 7.95899 9.04546 9.33765 7.95153C10.3716 7.12734 11.6754 6.63281 13.084 6.63281C16.3957 6.63281 19.0781 9.31519 19.0781 12.627Z" stroke="#0073CF" stroke-width="1.6" stroke-miterlimit="10" stroke-linecap="round" stroke-linejoin="round"/>
<path d="M15.5108 10.5048V9.6875H11.0156V10.5048H12.4459C12.978 10.5048 13.4271 10.8473 13.5963 11.3221H11.0156V12.1394H13.5963C13.5124 12.3778 13.3568 12.5843 13.1508 12.7306C12.9448 12.877 12.6986 12.956 12.4459 12.9567H11.0156V13.9432L13.2984 16.226H14.454L12.0021 13.774H12.4459C12.9167 13.7734 13.3728 13.6105 13.7374 13.3127C14.102 13.0149 14.3528 12.6006 14.4475 12.1394H15.5108V11.3221H14.4475C14.3849 11.0247 14.2558 10.7453 14.0699 10.5048H15.5108Z" fill="#0073CF"/>
</g>
<defs>
<clipPath id="clip0_2344_11128">
<rect width="14" height="15" fill="white" transform="translate(6 5)"/>
</clipPath>
</defs>
</svg>
