<svg xmlns="http://www.w3.org/2000/svg" xmlns:xlink="http://www.w3.org/1999/xlink" width="45" height="45" viewBox="0 0 45 45">
  <defs>
    <clipPath id="clip-Refund_4">
      <rect width="45" height="45"/>
    </clipPath>
  </defs>
  <g id="Refund_4" data-name="Refund – 4" clip-path="url(#clip-Refund_4)">
    <rect width="45" height="45" fill="#fff"/>
    <g id="Group_11" data-name="Group 11" transform="translate(0 1.362)">
      <g id="Ellipse_4" data-name="Ellipse 4" transform="translate(13.7 13.7)" fill="none" stroke="#000" stroke-width="1.4">
        <circle cx="8.75" cy="8.75" r="8.75" stroke="none"/>
        <circle cx="8.75" cy="8.75" r="8.05" fill="none"/>
      </g>
      <path id="Path_30" data-name="Path 30" d="M45.367,46.139V44.824a3.749,3.749,0,0,1-1.992-.574l.31-.873a3.507,3.507,0,0,0,1.877.563c.924,0,1.55-.534,1.55-1.28,0-.718-.511-1.16-1.476-1.55-1.332-.522-2.153-1.12-2.153-2.256a2.147,2.147,0,0,1,1.969-2.1V35.437h.81V36.7a3.552,3.552,0,0,1,1.694.454l-.327.861a3.177,3.177,0,0,0-1.642-.442c-1,0-1.384.6-1.384,1.12,0,.677.482,1.016,1.619,1.487,1.343.545,2.021,1.223,2.021,2.383a2.271,2.271,0,0,1-2.061,2.216v1.355h-.815Z" transform="translate(-23.309 -18.287)"/>
      <path id="Path_70" data-name="Path 70" d="M12.344.3C6.625,3.14,1.488,6.358.172,15.609" transform="translate(4.5 5.5)" fill="none" stroke="#000" stroke-linecap="round" stroke-width="1.4"/>
      <path id="Path_71" data-name="Path 71" d="M13.525.86C1.67,3.874-2.272,14.482.007,22.914" transform="translate(0.115 33.976) rotate(-74)" fill="none" stroke="#000" stroke-linecap="round" stroke-width="1.4"/>
      <path id="Path_72" data-name="Path 72" d="M-.056.785C.865.66,12.247,4.456,13.056,16.58c-.024-.2-.012-.1,0,0" transform="translate(22.338 4.202) rotate(-16)" fill="none" stroke="#000" stroke-linecap="round" stroke-width="1.4"/>
      <path id="Path_73" data-name="Path 73" d="M13.831,21.013C2.269,17.651-1.518,7.9.51,0" transform="matrix(-0.53, -0.848, 0.848, -0.53, 28.929, 39.291)" fill="none" stroke="#000" stroke-linecap="round" stroke-width="1.4"/>
      <line id="Line_12" data-name="Line 12" x2="7" y2="1" transform="translate(10.5 4.5)" fill="none" stroke="#000" stroke-linecap="round" stroke-width="1.4"/>
      <line id="Line_13" data-name="Line 13" y1="7" x2="2" transform="translate(15.5 5.5)" fill="none" stroke="#000" stroke-linecap="round" stroke-width="1.4"/>
      <line id="Line_14" data-name="Line 14" x2="7" y2="1" transform="translate(34.691 40.921) rotate(-179)" fill="none" stroke="#000" stroke-linecap="round" stroke-width="1.4"/>
      <line id="Line_15" data-name="Line 15" y1="7" x2="2" transform="translate(29.709 39.834) rotate(-179)" fill="none" stroke="#000" stroke-linecap="round" stroke-width="1.4"/>
    </g>
  </g>
</svg>
