<svg xmlns="http://www.w3.org/2000/svg" xmlns:xlink="http://www.w3.org/1999/xlink" width="100" height="100" viewBox="0 0 100 100">
  <defs>
    <clipPath id="clip-Replace">
      <rect width="100" height="100"/>
    </clipPath>
  </defs>
  <g id="Replace" clip-path="url(#clip-Replace)">
    <rect width="100" height="100" fill="#fff"/>
    <path id="Path_13" data-name="Path 13" d="M18.243,5.834A16.889,16.889,0,0,0,6.385,31.673l.771-3.306a.589.589,0,0,1,1.147.267L7.225,33.257l-.138.593L6.5,33.693,1.7,32.4a.588.588,0,1,1,.307-1.136l3.285.885A18.065,18.065,0,0,1,25.655,5.213a.575.575,0,0,1,.3.888.606.606,0,0,1-.67.23,16.818,16.818,0,0,0-7.043-.5ZM14.957,38.917a.608.608,0,0,1,.679-.227A16.887,16.887,0,0,0,34.377,12.8l-.459,3.133a.589.589,0,1,1-1.165-.17l.687-4.7.089-.6.6.107,4.89.888a.589.589,0,1,1-.212,1.159l-3.577-.65A18.066,18.066,0,0,1,15.25,39.8a.578.578,0,0,1-.293-.886Zm6.108-27.637a.783.783,0,0,0-.735.008l-9.323,5.051a.77.77,0,0,0-.4.567.583.583,0,0,0-.075.287V27.932a.786.786,0,0,0,.4.684l9.93,5.579a.786.786,0,0,0,.813-.026l9.322-6.049a.785.785,0,0,0,.357-.658V17.193a.6.6,0,0,0-.075-.29.775.775,0,0,0-.414-.563ZM11.708,27.7V18.115L15.8,20.421v3.314a.589.589,0,1,0,1.178,0V21.084l3.614,2.036v9.572Zm18.467-.455L21.77,32.7v-9.59l8.4-4.968ZM17.423,19.983,21.174,22.1l8.518-5.034-3.824-1.975a.6.6,0,0,1-.08.054Zm7.21-5.534-3.924-2.027-8.516,4.616,4.039,2.276Z" transform="translate(29.736 27.51)" fill-rule="evenodd"/>
  </g>
</svg>
