<svg xmlns="http://www.w3.org/2000/svg" width="24" height="24" viewBox="0 0 24 24" fill="none">
<g clip-path="url(#clip0_1042_6828)">
<path d="M8.53329 0.480404C3.69701 1.1823 0.183006 5.53858 0.527161 10.4066C0.767164 13.8119 2.75964 16.7508 5.83439 18.2225C7.82234 19.178 10.0729 19.4044 12.2194 18.861C13.1069 18.6346 14.2164 18.1546 14.9137 17.6881L15.2217 17.4844L15.5251 17.7878C15.6926 17.9553 16.9787 19.2821 18.3779 20.7357C20.0308 22.452 20.9908 23.4165 21.1085 23.4754C21.2308 23.5388 21.4029 23.575 21.6429 23.5841C21.9508 23.6022 22.0233 23.5886 22.2406 23.4844C22.6753 23.2671 22.9153 22.8776 22.9153 22.3614C22.9153 21.8361 22.9335 21.8588 19.9312 18.7433C18.4368 17.19 17.187 15.8904 17.1598 15.8451C17.11 15.7817 17.1236 15.741 17.2458 15.596C17.5221 15.2474 18.0202 14.4594 18.2557 13.993C18.6994 13.1055 19.0164 12.1137 19.1659 11.122C19.2745 10.4201 19.2745 9.1205 19.1659 8.4005C18.9077 6.70236 18.1877 5.07668 17.1236 3.80874C15.5749 1.96118 13.5235 0.810974 11.1597 0.475876C10.571 0.389837 9.13103 0.394365 8.53329 0.480404ZM10.8518 2.94836C12.7945 3.211 14.6602 4.42913 15.7334 6.13632C16.5032 7.36803 16.879 8.91673 16.7432 10.3296C16.5439 12.4715 15.4481 14.3281 13.6866 15.501C11.3907 17.0361 8.41103 17.0406 6.10609 15.5191C3.49323 13.7938 2.36567 10.5832 3.33474 7.64879C3.69248 6.56651 4.20871 5.73329 5.03287 4.91366C6.59968 3.34232 8.6465 2.65401 10.8518 2.94836Z" fill="#181826"/>
</g>
<defs>
<clipPath id="clip0_1042_6828">
<rect width="23.1852" height="23.1852" fill="white" transform="translate(0.128906 0.407227)"/>
</clipPath>
</defs>
</svg>
