<svg width="104" height="97" viewBox="0 0 104 97" fill="none" xmlns="http://www.w3.org/2000/svg">
<rect x="1" y="1" width="101.5" height="94" rx="14" stroke="#CCD2E3" stroke-width="2" stroke-dasharray="10 10"/>
<g clip-path="url(#clip0_2274_40812)">
<path d="M44.0454 30.5061C42.4238 30.9483 41.3224 32.015 40.8628 33.5759C40.7674 33.9054 40.7241 34.3997 40.7241 35.1975V36.3509L37.238 36.3769L33.7432 36.4029L33.1015 36.6371C31.9221 37.0707 30.9075 37.9292 30.3612 38.9698C29.7628 40.1058 29.7975 39.3861 29.7975 51.5354C29.7975 63.7193 29.7542 62.8521 30.3785 64.0402C30.9335 65.1155 32.0262 66.0174 33.2229 66.3903L33.8299 66.5811H51.9975H70.1651L70.7721 66.3903C71.9688 66.0174 73.0615 65.1155 73.6165 64.0402C74.2409 62.8521 74.1975 63.7193 74.1975 51.5354C74.1975 39.3774 74.2322 40.1058 73.6252 38.9611C73.0788 37.9205 72.0816 37.0707 70.8935 36.6371L70.2518 36.4029L66.7657 36.3769L63.271 36.3509V35.1975C63.271 33.9314 63.1669 33.4372 62.742 32.6307C62.2824 31.7548 61.3892 31.009 60.3659 30.6188L59.8456 30.4193L52.171 30.402C45.7798 30.3847 44.4183 30.402 44.0454 30.5061ZM53.4717 40.8256C55.8912 41.1898 57.8684 42.1697 59.5767 43.8521C62.846 47.078 63.6959 52.1164 61.6667 56.2355C60.1664 59.262 57.4435 61.3693 54.0788 62.089C53.0555 62.3058 50.9396 62.3058 49.9163 62.089C46.5256 61.3606 43.7939 59.236 42.2763 56.1314C41.097 53.712 40.9062 50.7029 41.7734 48.1186C43.421 43.1843 48.4421 40.0538 53.4717 40.8256Z" fill="#CCD2E3"/>
<path d="M51.3034 44.3475C49.6124 44.4949 48.1122 45.2147 46.8895 46.4461C46.213 47.1398 45.9095 47.5647 45.4933 48.4579C44.9643 49.5679 44.8516 50.1056 44.8516 51.4931C44.8516 52.9413 44.9643 53.4443 45.58 54.7017C46.664 56.913 48.7452 58.3699 51.1907 58.6387C54.7722 59.029 58.0241 56.7829 58.9867 53.2708C59.2035 52.4817 59.2035 50.5045 58.9867 49.7154C58.2496 47.0531 56.151 45.0239 53.5495 44.4862C52.743 44.3128 52.1273 44.2781 51.3034 44.3475Z" fill="#CCD2E3"/>
</g>
<defs>
<clipPath id="clip0_2274_40812">
<rect width="44.4013" height="37" fill="white" transform="translate(29.7969 30)"/>
</clipPath>
</defs>
</svg>
