<svg xmlns="http://www.w3.org/2000/svg" width="30.6" height="22.03" viewBox="0 0 30.6 22.03">
  <g id="Group_2221" data-name="Group 2221" transform="translate(-8.43 -13.41)">
    <path id="Path_270" data-name="Path 270" d="M38.63,22.97,35.74,18.6a2.451,2.451,0,0,0-2.05-1.1H29.01V15.87a2.458,2.458,0,0,0-2.46-2.46H10.89a2.458,2.458,0,0,0-2.46,2.46V29.53a2.458,2.458,0,0,0,2.46,2.46h.99a3.47,3.47,0,0,0,6.94,0h9.44a3.47,3.47,0,0,0,6.94,0h1.37a2.458,2.458,0,0,0,2.46-2.46v-5.2a2.333,2.333,0,0,0-.4-1.36ZM17.01,31.98a1.66,1.66,0,0,1-3.32,0v-.03a1.66,1.66,0,0,1,3.32,0v.03ZM27.2,30.17H18.32a3.448,3.448,0,0,0-5.92,0H10.9a.644.644,0,0,1-.64-.64V15.86a.644.644,0,0,1,.64-.64H26.57a.644.644,0,0,1,.64.64V30.17H27.2Zm6.2,1.81a1.656,1.656,0,0,1-3.31,0v-.03a1.66,1.66,0,0,1,3.32,0c-.01.02-.01.02-.01.03Zm3.82-2.45a.644.644,0,0,1-.64.64H34.7a3.442,3.442,0,0,0-5.69-.33V19.31h4.68a.617.617,0,0,1,.53.29l2.89,4.37a.656.656,0,0,1,.11.35v5.21Z" fill="#fff"/>
    <path id="Path_271" data-name="Path 271" d="M21.54,19.97a1.536,1.536,0,0,0-2.05.14l-.45.45-.45-.45a1.525,1.525,0,0,0-2.05-.14,1.48,1.48,0,0,0-.1,2.18l2.59,2.59.01-.01.01.01,2.59-2.59A1.487,1.487,0,0,0,21.54,19.97Z" fill="#fff"/>
  </g>
</svg>
