<svg xmlns="http://www.w3.org/2000/svg" xmlns:xlink="http://www.w3.org/1999/xlink" width="24" height="24" viewBox="0 0 24 24" fill="#707070">
  <defs>
    <clipPath id="clip-Women">
      <rect width="24" height="24"/>
    </clipPath>
  </defs>
  <g id="Women" clip-path="url(#clip-Women)">
    <g id="noun-business-women-648908" transform="translate(-287.185 -77.943)">
      <path id="Path_2" data-name="Path 2" d="M292.758,90.132s1.913-.029,1.8-5.1,2.216-5.931,3.093-6.25c2.551-.957,3.826.571,3.826.571,2.943-.271,3.756,2.943,3.4,6.607s1.652,4.231,1.652,4.231c-1.384,1.413-4.3,1.323-4.3,1.323v1.276l-2.388,7.477,2.972-4.094,1.5.159h0a.121.121,0,0,0,.127-.166l-.829-2.079a.1.1,0,0,1,.124-.128c.979.354,2.047.638,2.073.638h0a11.092,11.092,0,0,1,2,.765,2.4,2.4,0,0,1,1.361,1.913v4.145H290.185V97.275a2.4,2.4,0,0,1,1.358-1.913,11.106,11.106,0,0,1,2-.752c.029,0,1.1-.3,2.079-.638a.1.1,0,0,1,.124.127l-.829,2.092h0a.121.121,0,0,0,.128.166l1.5-.159,2.972,4.094-2.4-7.525V91.535c-3.364.038-4.356-1.4-4.356-1.4Z" transform="translate(0 0)"/>
    </g>
  </g>
</svg>
