<svg width="16" height="16" viewBox="0 0 16 16" fill="none" xmlns="http://www.w3.org/2000/svg">
<path d="M12.0939 14.4125C11.5072 14.5859 10.8139 14.6659 10.0006 14.6659H6.00056C5.18723 14.6659 4.49389 14.5859 3.90723 14.4125C4.05389 12.6792 5.83389 11.3125 8.00056 11.3125C10.1672 11.3125 11.9472 12.6792 12.0939 14.4125Z" stroke="#8E8EA9" stroke-linecap="round" stroke-linejoin="round"/>
<path d="M9.99967 1.33203H5.99967C2.66634 1.33203 1.33301 2.66536 1.33301 5.9987V9.9987C1.33301 12.5187 2.09301 13.8987 3.90634 14.412C4.05301 12.6787 5.83301 11.312 7.99967 11.312C10.1663 11.312 11.9463 12.6787 12.093 14.412C13.9063 13.8987 14.6663 12.5187 14.6663 9.9987V5.9987C14.6663 2.66536 13.333 1.33203 9.99967 1.33203ZM7.99967 9.44535C6.67967 9.44535 5.61301 8.37204 5.61301 7.05204C5.61301 5.73204 6.67967 4.66536 7.99967 4.66536C9.31967 4.66536 10.3863 5.73204 10.3863 7.05204C10.3863 8.37204 9.31967 9.44535 7.99967 9.44535Z" stroke="#8E8EA9" stroke-linecap="round" stroke-linejoin="round"/>
<path d="M10.3866 7.05465C10.3866 8.37465 9.31995 9.44796 7.99995 9.44796C6.67995 9.44796 5.61328 8.37465 5.61328 7.05465C5.61328 5.73465 6.67995 4.66797 7.99995 4.66797C9.31995 4.66797 10.3866 5.73465 10.3866 7.05465Z" stroke="#8E8EA9" stroke-linecap="round" stroke-linejoin="round"/>
</svg>
