<svg xmlns="http://www.w3.org/2000/svg" width="16" height="16" viewBox="0 0 16 16" fill="none">
  <path d="M6.70635 14.3868C6.03968 14.3868 5.36635 13.9335 4.46635 13.0401L2.15968 10.7335C0.199678 8.77346 0.399678 8.02013 2.15968 6.25346L5.87301 2.53346C7.18635 1.22013 8.27301 0.453464 10.353 2.53346L12.6597 4.84013C14.533 6.71346 14.0797 7.90013 12.6597 9.32013L8.94635 13.0335C8.04635 13.9335 7.37968 14.3868 6.70635 14.3868ZM2.86635 10.0201L5.17301 12.3268C6.58635 13.7401 6.81968 13.7468 8.23968 12.3268L11.953 8.61346C13.0663 7.50013 13.353 6.9468 11.953 5.5468L9.64635 3.24013C8.18635 1.78013 7.74635 2.08013 6.57968 3.24013L2.86635 6.95346C1.45301 8.37346 1.33301 8.4868 2.86635 10.0201Z" fill="#666687" />
  <path d="M13.4263 14.3066C12.6663 14.3066 12.0663 14.0133 11.773 13.4999C11.4796 12.9866 11.5396 12.3199 11.933 11.6666L12.373 10.9399C12.633 10.5133 13.013 10.2666 13.4263 10.2666C13.8396 10.2666 14.2263 10.5133 14.4796 10.9399L14.9196 11.6666C15.313 12.3199 15.3663 12.9866 15.0796 13.4999C14.793 14.0133 14.1796 14.3066 13.4263 14.3066ZM13.4263 11.2666C13.393 11.2666 13.313 11.3199 13.2263 11.4533L12.7863 12.1799C12.5863 12.5133 12.533 12.8133 12.6396 13.0066C12.7463 13.1999 13.033 13.3066 13.4196 13.3066C13.8063 13.3066 14.093 13.1999 14.1996 13.0066C14.3063 12.8133 14.253 12.5199 14.053 12.1799L13.613 11.4533C13.5396 11.3133 13.4596 11.2666 13.4263 11.2666Z" fill="#666687" />
  <path d="M1.33277 8.66024C1.11277 8.66024 0.912773 8.51357 0.852773 8.29357C0.779439 8.0269 0.939439 7.75357 1.20611 7.68024C4.98611 6.65357 8.99277 6.62024 12.7928 7.59357L13.1261 7.68024C13.3928 7.74691 13.5528 8.02024 13.4861 8.28691C13.4194 8.55357 13.1461 8.71357 12.8794 8.64691L12.5461 8.56024C8.91277 7.62691 5.08611 7.66024 1.47277 8.64691C1.41944 8.66024 1.37277 8.66024 1.33277 8.66024Z" fill="#666687" />
</svg>
