<svg xmlns="http://www.w3.org/2000/svg" width="16" height="16" viewBox="0 0 16 16" fill="none">
  <path d="M11.7471 6.41357H8.24707C7.97374 6.41357 7.74707 6.18691 7.74707 5.91357C7.74707 5.64024 7.97374 5.41357 8.24707 5.41357H11.7471C12.0204 5.41357 12.2471 5.64024 12.2471 5.91357C12.2471 6.18691 12.0271 6.41357 11.7471 6.41357Z" fill="#0073cf" />
  <path d="M4.74638 6.91972C4.61971 6.91972 4.49305 6.87305 4.39305 6.77305L3.89305 6.27305C3.69971 6.07972 3.69971 5.75972 3.89305 5.56639C4.08638 5.37305 4.40638 5.37305 4.59971 5.56639L4.74638 5.71305L5.89305 4.56639C6.08638 4.37305 6.40638 4.37305 6.59971 4.56639C6.79305 4.75972 6.79305 5.07972 6.59971 5.27305L5.09971 6.77305C5.00638 6.86639 4.87971 6.91972 4.74638 6.91972Z" fill="#0073cf" />
  <path d="M11.7471 11.0801H8.24707C7.97374 11.0801 7.74707 10.8534 7.74707 10.5801C7.74707 10.3067 7.97374 10.0801 8.24707 10.0801H11.7471C12.0204 10.0801 12.2471 10.3067 12.2471 10.5801C12.2471 10.8534 12.0271 11.0801 11.7471 11.0801Z" fill="#0073cf" />
  <path d="M4.74638 11.5867C4.61971 11.5867 4.49305 11.54 4.39305 11.44L3.89305 10.94C3.69971 10.7467 3.69971 10.4267 3.89305 10.2334C4.08638 10.04 4.40638 10.04 4.59971 10.2334L4.74638 10.38L5.89305 9.23338C6.08638 9.04005 6.40638 9.04005 6.59971 9.23338C6.79305 9.42671 6.79305 9.74671 6.59971 9.94005L5.09971 11.44C5.00638 11.5334 4.87971 11.5867 4.74638 11.5867Z" fill="#0073cf" />
  <path d="M9.99967 15.1668H5.99967C2.37967 15.1668 0.833008 13.6202 0.833008 10.0002V6.00016C0.833008 2.38016 2.37967 0.833496 5.99967 0.833496H9.99967C13.6197 0.833496 15.1663 2.38016 15.1663 6.00016V10.0002C15.1663 13.6202 13.6197 15.1668 9.99967 15.1668ZM5.99967 1.8335C2.92634 1.8335 1.83301 2.92683 1.83301 6.00016V10.0002C1.83301 13.0735 2.92634 14.1668 5.99967 14.1668H9.99967C13.073 14.1668 14.1663 13.0735 14.1663 10.0002V6.00016C14.1663 2.92683 13.073 1.8335 9.99967 1.8335H5.99967Z" fill="#0073cf" />
</svg>
