<svg xmlns="http://www.w3.org/2000/svg" width="16" height="16" viewBox="0 0 16 16" fill="none">
  <path d="M10.0234 0.0033499C10.0367 0.00445345 10.0503 0.00620153 10.0635 0.00823271L14.418 0.679131C14.6504 0.699518 14.8687 0.800804 15.0342 0.966241C15.1996 1.13172 15.3009 1.35006 15.3213 1.58245L15.9922 5.93694C15.9942 5.95013 15.996 5.96369 15.9971 5.97698C16.0092 6.12296 15.9885 6.26971 15.9365 6.40667C15.8854 6.54122 15.8053 6.6629 15.7021 6.76312L6.88379 15.5825C6.61604 15.8499 6.25242 16.0003 5.87402 16.0004C5.49545 16.0004 5.13212 15.8499 4.86426 15.5825L0.417969 11.1371C0.150537 10.8694 0.000104044 10.5058 0 10.1274C0 9.7488 0.150444 9.38546 0.417969 9.11761L9.2373 0.298272C9.33751 0.195104 9.45921 0.114938 9.59375 0.0638968C9.73067 0.0119605 9.8775 -0.00873163 10.0234 0.0033499ZM11.4287 3.42913C10.7975 3.42913 10.2852 3.9415 10.2852 4.57269C10.2853 5.20374 10.7976 5.71526 11.4287 5.71526C12.0597 5.71511 12.5711 5.20364 12.5713 4.57269C12.5713 3.9416 12.0598 3.42928 11.4287 3.42913Z" fill="#666687" />
  <path opacity="0.4" d="M11.4284 5.7154C10.7972 5.7154 10.2856 5.20373 10.2856 4.57254C10.2856 3.94136 10.7972 3.42969 11.4284 3.42969C12.0596 3.42969 12.5713 3.94136 12.5713 4.57254C12.5713 5.20373 12.0596 5.7154 11.4284 5.7154Z" fill="#666687" />
</svg>
