<svg xmlns="http://www.w3.org/2000/svg" xmlns:xlink="http://www.w3.org/1999/xlink" width="250" height="250" viewBox="0 0 250 250">
  <defs>
    <clipPath id="clip-Create_Account">
      <rect width="250" height="250"/>
    </clipPath>
  </defs>
  <g id="Create_Account" data-name="Create Account" clip-path="url(#clip-Create_Account)">
    <path id="noun-add-user-4871301" d="M244.451,162.708A46.353,46.353,0,1,0,198.1,116.354,46.353,46.353,0,0,0,244.451,162.708ZM313.98,209.06a34.765,34.765,0,1,1-34.764,34.765A34.765,34.765,0,0,1,313.98,209.06Zm0,11.588a5.8,5.8,0,0,0-5.7,4.753l-.093,1.042V238.03H296.6a5.8,5.8,0,0,0-1.042,11.5l1.042.093h11.588v11.588a5.795,5.795,0,0,0,11.495,1.042l.093-1.042V249.619h11.589a5.8,5.8,0,0,0,1.042-11.5l-1.042-.093-11.59-.012V226.442a5.794,5.794,0,0,0-5.792-5.795ZM244.451,174.3a80.877,80.877,0,0,1,58.161,24.574,46.422,46.422,0,0,0-33.523,56.553l-105.759-.01A81.117,81.117,0,0,1,244.451,174.3Z" transform="translate(-131.331 -49.002)" fill="#aaa" fill-rule="evenodd"/>
  </g>
</svg>
