<svg xmlns="http://www.w3.org/2000/svg" width="18" height="18" viewBox="0 0 18 18" fill="none">
  <path fill-rule="evenodd" clip-rule="evenodd" d="M0.826172 1.99387C0.826172 1.34897 1.34897 0.826172 1.99387 0.826172H6.66468C7.30959 0.826172 7.83238 1.34897 7.83238 1.99387V9.00008C7.83238 9.64499 7.30959 10.1678 6.66468 10.1678H1.99387C1.34897 10.1678 0.826172 9.64499 0.826172 9.00008V1.99387ZM11.3355 0.826172C10.6906 0.826172 10.1678 1.34897 10.1678 1.99387V4.34095C10.1678 4.98585 10.6906 5.50866 11.3355 5.50866H16.0063C16.6512 5.50866 17.174 4.98585 17.174 4.34095V1.99387C17.174 1.34897 16.6512 0.826172 16.0063 0.826172H11.3355ZM1.99387 12.4915C1.34897 12.4915 0.826172 13.0143 0.826172 13.6592V16.0063C0.826172 16.6512 1.34897 17.174 1.99387 17.174H6.66468C7.30959 17.174 7.83238 16.6512 7.83238 16.0063V13.6592C7.83238 13.0143 7.30959 12.4915 6.66468 12.4915H1.99387Z" fill="#666687" />
  <path d="M10.1678 9.00008C10.1678 8.35519 10.6906 7.83238 11.3355 7.83238H16.0063C16.6512 7.83238 17.174 8.35519 17.174 9.00008V16.0063C17.174 16.6512 16.6512 17.174 16.0063 17.174H11.3355C10.6906 17.174 10.1678 16.6512 10.1678 16.0063V9.00008Z" fill="#666687" fill-opacity="0.4" />
</svg>
