<svg width="87" height="87" viewBox="0 0 87 87" fill="none" xmlns="http://www.w3.org/2000/svg">
<path d="M0 13.3828V16.729H26.7692V20.0751H6.69231V23.4213H0V26.7674H23.4231V30.1136H6.69231V33.4597H0V36.8059H20.0769V40.152H6.69231V43.4982H0V46.8443H16.7308V50.1905H6.69231V63.5751C6.69231 65.5828 8.03077 66.9213 10.0385 66.9213H13.3846C14.0538 61.2328 19.0731 56.5683 25.0962 56.5683C31.1192 56.5683 36.1385 60.8982 36.8077 66.9213H46.8462C48.8538 66.9213 50.1923 65.5828 50.1923 63.5751C50.1923 45.2807 50.1923 35.0234 50.1923 16.729C50.1923 14.7213 48.8538 13.3828 46.8462 13.3828H0ZM56.8846 26.7674C54.8769 26.7674 53.5385 28.1059 53.5385 30.1136V63.5751C53.5385 65.2482 54.8769 66.9213 56.8846 66.9213C57.5538 61.2328 62.5731 56.5683 68.5962 56.5683C74.6192 56.5683 79.6385 60.8982 80.3077 66.9213H83.6538C85.6615 66.9213 87 65.5828 87 63.5751V46.8443C87 43.8328 84.2796 40.152 84.2796 40.152L76.9615 30.1136C75.2885 28.1059 74.2846 26.7674 71.9423 26.7674H56.8846ZM63.5769 33.4597H71.6278C72.297 33.4597 72.9896 34.0888 72.9896 34.0888L79.9931 43.8127C80.6624 44.8166 81.355 45.8606 81.355 46.5298H63.5769V33.4597ZM25.0962 60.858C23.0462 60.8651 21.0822 61.6822 19.6324 63.1314C18.1825 64.5806 17.3644 66.5445 17.3565 68.5943C17.3636 70.6449 18.1813 72.6094 19.6312 74.0593C21.0811 75.5092 23.0456 76.327 25.0962 76.334C27.1467 76.327 29.1112 75.5092 30.5611 74.0593C32.011 72.6094 32.8287 70.6449 32.8358 68.5943C32.8287 66.5438 32.011 64.5793 30.5611 63.1294C29.1112 61.6795 27.1467 60.8651 25.0962 60.858ZM68.5962 60.858C66.5463 60.8651 64.5821 61.6822 63.1322 63.1314C61.6827 64.5806 60.8645 66.5445 60.8565 68.5943C60.8635 70.6449 61.6813 72.6094 63.1312 74.0593C64.5811 75.5092 66.5456 76.327 68.5962 76.334C70.6467 76.327 72.6112 75.5092 74.0611 74.0593C75.511 72.6094 76.3288 70.6449 76.3358 68.5943C76.3288 66.5438 75.511 64.5793 74.0611 63.1294C72.6112 61.6795 70.6467 60.8651 68.5962 60.858Z" fill="#001B5A"/>
</svg>
