<svg width="16" height="14" viewBox="0 0 16 14" fill="none" xmlns="http://www.w3.org/2000/svg">
<path fill-rule="evenodd" clip-rule="evenodd" d="M15.2166 0.532433C15.5945 0.90901 15.5945 1.51956 15.2166 1.89614L10.0944 7L15.2166 12.1039C15.5945 12.4804 15.5945 13.091 15.2166 13.4676C14.8386 13.8441 14.2259 13.8441 13.848 13.4676L8.04151 7.68185C7.66358 7.30528 7.66358 6.69472 8.04151 6.31815L13.848 0.532433C14.2259 0.155856 14.8386 0.155856 15.2166 0.532433Z" fill="#0073cf"/>
<path fill-rule="evenodd" clip-rule="evenodd" d="M7.95825 0.532433C8.33618 0.90901 8.33618 1.51956 7.95825 1.89614L2.8361 7L7.95825 12.1039C8.33618 12.4804 8.33618 13.091 7.95825 13.4676C7.58033 13.8441 6.96759 13.8441 6.58966 13.4676L0.783209 7.68185C0.405282 7.30528 0.405282 6.69472 0.783209 6.31815L6.58966 0.532433C6.96759 0.155856 7.58033 0.155856 7.95825 0.532433Z" fill="#0073cf"/>
</svg>
