<svg xmlns="http://www.w3.org/2000/svg" xmlns:xlink="http://www.w3.org/1999/xlink" width="200" height="200" viewBox="0 0 200 200" fill="#001B5A">
  <defs>
    <clipPath id="clip-Custom_Size_2">
      <rect width="200" height="200"/>
    </clipPath>
  </defs>
  <g id="Custom_Size_2" data-name="Custom Size – 2" clip-path="url(#clip-Custom_Size_2)">
    <g id="Group_1" data-name="Group 1" transform="translate(1395.583 -146.021)">
      <path id="Rectangle_1" data-name="Rectangle 1" d="M0,0H101.8a17.9,17.9,0,0,1,17.9,17.9v0a15.869,15.869,0,0,1-15.869,15.869H0a0,0,0,0,1,0,0V0A0,0,0,0,1,0,0Z" transform="translate(-1297.234 226.666) rotate(-45)"/>
      <path id="Path_10" data-name="Path 10" d="M-639.221,408.7c.364-3.808,3.054-8.438,5.235-16.429,1.309-4.854,3.417-10.9,7.78-16.055,4.872,4.779,23.413,24.195,23.413,24.195s-3.345,4.107-11.125,6.721-16.941,6.049-19.123,6.572S-639.585,412.511-639.221,408.7Z" transform="translate(-688.462 -132.698)"/>
      <path id="Path_11" data-name="Path 11" d="M-618.1,265.385l13.482-25.677-.047,81.084s.08,30.236-31.955,37.526c-8.214,1.745-113.046,1.027-113.046,1.027s-25.874-.719-35.526-28.338c-1.848-5.544-1.129-17.66-1.129-17.66l.1-97.952s-.1-32.856,33.78-37.477c10.37.308,85.426-.616,85.426-.616l-20.638,12.269-66.654,1s-18.884,7.266-19.6,25.748c-.308,8.419-.1,109.675-.1,109.675s6.478,17.58,24.96,21.071c16.223.308,107.809-1,107.809-1s22.875-3.232,23.285-21.2C-617.956,307.306-618.1,265.385-618.1,265.385Z" transform="translate(-604 -15.471)"/>
    </g>
  </g>
</svg>
