<svg width="20" height="20" viewBox="0 0 20 20" fill="none" xmlns="http://www.w3.org/2000/svg">
<path opacity="0.4" d="M18.3334 5.41797H13.3334" stroke="#666687" stroke-width="1.25" stroke-miterlimit="10" stroke-linecap="round" stroke-linejoin="round"/>
<path d="M4.99972 5.41797H1.66638" stroke="#666687" stroke-width="1.25" stroke-miterlimit="10" stroke-linecap="round" stroke-linejoin="round"/>
<path d="M8.33305 8.33333C9.94388 8.33333 11.2497 7.0275 11.2497 5.41667C11.2497 3.80584 9.94388 2.5 8.33305 2.5C6.72222 2.5 5.41638 3.80584 5.41638 5.41667C5.41638 7.0275 6.72222 8.33333 8.33305 8.33333Z" stroke="#666687" stroke-width="1.25" stroke-miterlimit="10" stroke-linecap="round" stroke-linejoin="round"/>
<path opacity="0.4" d="M6.66663 14.582H1.66663" stroke="#666687" stroke-width="1.25" stroke-miterlimit="10" stroke-linecap="round" stroke-linejoin="round"/>
<path d="M18.3333 14.5859H15" stroke="#666687" stroke-width="1.25" stroke-miterlimit="10" stroke-linecap="round" stroke-linejoin="round"/>
<path d="M11.6667 17.5013C13.2775 17.5013 14.5833 16.1955 14.5833 14.5846C14.5833 12.9738 13.2775 11.668 11.6667 11.668C10.0558 11.668 8.75 12.9738 8.75 14.5846C8.75 16.1955 10.0558 17.5013 11.6667 17.5013Z" stroke="#666687" stroke-width="1.25" stroke-miterlimit="10" stroke-linecap="round" stroke-linejoin="round"/>
</svg>
