<svg xmlns="http://www.w3.org/2000/svg" width="48.448" height="48.448" viewBox="0 0 48.448 48.448">
  <g id="Group_2155" data-name="Group 2155" transform="translate(-4045 -5690)">
    <path id="Path_254" data-name="Path 254" d="M31.484,22.538l3.98-3.981a5.316,5.316,0,0,1,7.519,0l3.981,3.981h5.629a5.317,5.317,0,0,1,5.317,5.316v5.629l3.981,3.981a5.316,5.316,0,0,1,0,7.519l-3.981,3.98v5.63a5.317,5.317,0,0,1-5.317,5.316h-5.63l-3.981,3.981a5.316,5.316,0,0,1-7.519,0l-3.98-3.981h-5.63a5.317,5.317,0,0,1-5.316-5.316v-5.63l-3.981-3.98a5.316,5.316,0,0,1,0-7.519l3.981-3.981V27.854a5.315,5.315,0,0,1,5.316-5.316Z" transform="translate(4030 5673)" fill="#69bf79" fill-rule="evenodd"/>
    <g id="Icon" transform="translate(4060.506 5707.902) rotate(-1)">
      <path id="Path" d="M0,0V12.5H17.307V0Z" transform="translate(0 0)" fill="none" stroke="#fff" stroke-linecap="round" stroke-linejoin="round" stroke-width="1.5"/>
      <line id="Line" x2="0.867" transform="translate(7.66 5.899)" fill="none" stroke="#fff" stroke-linecap="round" stroke-linejoin="round" stroke-width="1.5"/>
    </g>
  </g>
</svg>
