<svg xmlns="http://www.w3.org/2000/svg" xmlns:xlink="http://www.w3.org/1999/xlink" width="250" height="250" viewBox="0 0 250 250">
  <defs>
    <clipPath id="clip-GST_Info">
      <rect width="250" height="250"/>
    </clipPath>
  </defs>
  <g id="GST_Info" data-name="GST Info" clip-path="url(#clip-GST_Info)">
    <g id="Group_1093" data-name="Group 1093" transform="translate(11 16)">
      <path id="Path_242" data-name="Path 242" d="M608.917,382.414c-.4-1.18-.4-2.36-.788-3.54A11.431,11.431,0,0,0,608.917,382.414Z" transform="translate(-381.952 -225.669)" fill="#fff"/>
      <path id="Path_243" data-name="Path 243" d="M487.057,336.657a11.636,11.636,0,0,1-.787-3.933c0-.787-.394-1.18-.787-1.967s-.393-1.574-.786-2.359-.393-1.181-.787-1.967l-1.18-2.361c-.393-.393-.393-1.18-.787-1.573a15.975,15.975,0,0,1-1.967-3.54c-.393-.393-.786-.787-.786-1.18-.393-.787-1.181-1.573-1.574-2.361-.392-.393-.786-1.18-1.179-1.573-.393-.787-1.18-1.18-1.573-1.967a5.413,5.413,0,0,1-1.181-1.573l-.393-.393c-9.047-9.047-21.633-14.16-35.4-14.16a51.135,51.135,0,1,0,51.135,51.135C488.237,343.738,487.844,340.2,487.057,336.657ZM417.828,328.4a7.787,7.787,0,1,1,0,11.013C414.682,336.264,414.682,331.151,417.828,328.4Zm38.548,38.547a7.788,7.788,0,1,1,0-11.014C459.522,359.078,459.522,364.191,456.376,366.945Zm-38.548,5.9-5.507-5.506,44.448-44.449,5.507,5.508Z" transform="translate(-260.094 -179.912)" fill="#fff"/>
      <path id="Path_244" data-name="Path 244" d="M322.7,223.081V199.087A27.121,27.121,0,0,1,299.5,175.88H180.707A27.121,27.121,0,0,1,157.5,199.087v23.994a27.121,27.121,0,0,1,23.208,23.208H263.7l-.787.786c11.014-14.553,28.321-24.387,47.989-24.387a76.344,76.344,0,0,1,9.44.787c.787,0,1.573-.394,2.36-.394Zm-82.6,15.34a27.534,27.534,0,1,1,27.534-27.534A27.365,27.365,0,0,1,240.1,238.421Z" transform="translate(-133.902 -113.928)" fill="#fff"/>
      <path id="Path_245" data-name="Path 245" d="M317.166,210a19.667,19.667,0,1,0,19.668,19.667A19.476,19.476,0,0,0,317.166,210Z" transform="translate(-210.96 -132.71)" fill="#fff"/>
      <path id="Path_246" data-name="Path 246" d="M385.879,341.379a17.145,17.145,0,0,0,1.573-2.754A22.5,22.5,0,0,0,385.879,341.379Z" transform="translate(-259.614 -203.514)" fill="#fff"/>
      <path id="Path_247" data-name="Path 247" d="M305.605,122.5H116.8A11.59,11.59,0,0,0,105,134.3v94.4a11.59,11.59,0,0,0,11.8,11.8H224.185a1.446,1.446,0,0,1,.393-1.181c.393-.786.393-1.966.787-2.753a47.81,47.81,0,0,1,5.507-12.98c-.393.394-.393.787-.787,1.18H144.336v-3.933a19.476,19.476,0,0,0-19.667-19.667h-3.934V161.832h3.934a19.476,19.476,0,0,0,19.667-19.667v-3.933H278.073v3.933a19.477,19.477,0,0,0,19.667,19.667h3.934v35.007a55.165,55.165,0,0,1,11.8,5.9,23.9,23.9,0,0,1,3.934,2.754V134.3a11.59,11.59,0,0,0-11.8-11.8Z" transform="translate(-105 -84.542)" fill="#fff"/>
      <path id="Path_248" data-name="Path 248" d="M384.824,48.882h1.967a19.754,19.754,0,0,1,4.72.787l-.394-1.967a11.955,11.955,0,0,0-13.767-9.44L262.495,61.076Z" transform="translate(-191.693 -38.068)" fill="#fff"/>
      <path id="Path_249" data-name="Path 249" d="M400.492,90.94a16.311,16.311,0,0,1,6.294,1.18V90.546c-.787-6.293-6.294-11.8-12.981-11.013L277.375,90.94Z" transform="translate(-199.889 -60.851)" fill="#fff"/>
    </g>
  </g>
</svg>
