<svg xmlns="http://www.w3.org/2000/svg" width="25.075" height="23.808" viewBox="0 0 25.075 23.808">
  <g id="ion:archive-outline" transform="matrix(1, 0, 0, 1, 0, 0)">
    <rect id="ion:archive-outline-2" data-name="ion:archive-outline" width="25.075" height="23.808" fill="none"/>
    <path id="Vector_Stroke_" data-name="Vector (Stroke)" d="M.784,0a.765.765,0,0,1,.784.744v11.9a1.094,1.094,0,0,0,.346.789,1.214,1.214,0,0,0,.831.328H16.062a1.214,1.214,0,0,0,.831-.328,1.094,1.094,0,0,0,.346-.789V.744a.785.785,0,0,1,1.567,0V12.65a2.545,2.545,0,0,1-.8,1.837,2.824,2.824,0,0,1-1.935.764H2.74A2.824,2.824,0,0,1,.8,14.488,2.545,2.545,0,0,1,0,12.65V.744A.765.765,0,0,1,.784,0Z" transform="translate(3.134 6.324)" fill="#6c6c6c" fill-rule="evenodd"/>
    <path id="Vector_Stroke_2" data-name="Vector (Stroke)" d="M2.155,1.488a.573.573,0,0,0-.588.558V3.162a.573.573,0,0,0,.588.558H19.785a.573.573,0,0,0,.588-.558V2.046a.573.573,0,0,0-.588-.558ZM0,2.046A2.1,2.1,0,0,1,2.155,0H19.785A2.1,2.1,0,0,1,21.94,2.046V3.162a2.1,2.1,0,0,1-2.155,2.046H2.155A2.1,2.1,0,0,1,0,3.162Z" transform="translate(1.567 2.232)" fill="#6c6c6c" fill-rule="evenodd"/>
    <path id="Vector_Stroke_3" data-name="Vector (Stroke)" d="M3.918,0A.765.765,0,0,1,4.7.744v4.9L6.5,3.938a.813.813,0,0,1,1.108,0,.718.718,0,0,1,0,1.052L4.472,7.966a.813.813,0,0,1-1.108,0L.23,4.99a.718.718,0,0,1,0-1.052.813.813,0,0,1,1.108,0l1.8,1.706V.744A.765.765,0,0,1,3.918,0Z" transform="translate(8.619 9.672)" fill="#6c6c6c" fill-rule="evenodd"/>
  </g>
</svg>
