<svg xmlns="http://www.w3.org/2000/svg" width="25.075" height="28.433" viewBox="0 0 25.075 28.433">
  <g id="_24_basic_pencil-edit" data-name="24 / basic / pencil-edit" transform="matrix(1, 0, 0, 1, 0, 0)">
    <rect id="_24_basic_pencil-edit-2" data-name="24 / basic / pencil-edit" width="25.075" height="28.433" fill="none"/>
    <g id="icon">
      <path id="Subtract" d="M20.9,26.063H4.179A2.245,2.245,0,0,1,2.09,23.694V4.739A2.245,2.245,0,0,1,4.179,2.37h7.314V4.739H4.179V23.694H20.9V15.4h2.09v8.293A2.245,2.245,0,0,1,20.9,26.063ZM10.589,21.327H6.268V20.143l0-3.809a5.051,5.051,0,0,1,1.382-3.191L16.4,3.228a2.358,2.358,0,0,1,3.639,0l2.2,2.489a3.107,3.107,0,0,1,.753,2.063,3.145,3.145,0,0,1-.753,2.062l-8.694,9.854A4.081,4.081,0,0,1,10.589,21.327ZM18.218,4.739a.45.45,0,0,0-.338.16L9.085,14.867a2.566,2.566,0,0,0-.727,1.562v2.529l2.156,0a2.1,2.1,0,0,0,1.495-.881l8.744-9.915a.6.6,0,0,0,0-.774L18.556,4.9A.445.445,0,0,0,18.218,4.739Z" fill="#6c6c6c"/>
      <path id="Path" d="M0,1.675,1.478,0l3.31,3.753L3.31,5.429Z" transform="translate(15.249 5.715)" fill="#6c6c6c" fill-rule="evenodd"/>
    </g>
  </g>
</svg>
