<svg xmlns="http://www.w3.org/2000/svg" width="14" height="16" viewBox="0 0 14 16" fill="none">
  <path opacity="0.4" d="M1.85711 0C1.40245 0 0.966412 0.180611 0.644926 0.502103C0.323429 0.823593 0.142822 1.25963 0.142822 1.71429V14.2857C0.142822 14.7403 0.323429 15.1765 0.644926 15.4979C0.966412 15.8194 1.40245 16 1.85711 16H12.1429C12.5975 16 13.0335 15.8194 13.355 15.4979C13.6765 15.1765 13.8571 14.7403 13.8571 14.2857V5.71429C13.8571 5.56273 13.7969 5.41738 13.6897 5.31023L8.54688 0.167368C8.43971 0.0602039 8.29438 0 8.14282 0H1.85711Z" fill="#666687" />
  <path d="M13.8571 5.71429C13.8571 5.56273 13.7969 5.41738 13.6897 5.31023L8.54688 0.167368C8.43971 0.0602039 8.29438 0 8.14282 0V5.14286C8.14282 5.45845 8.39866 5.71429 8.71425 5.71429H13.8571Z" fill="#666687" />
</svg>
