<svg width="16" height="16" viewBox="0 0 16 16" fill="none" xmlns="http://www.w3.org/2000/svg">
<path d="M1.33301 5.9987V4.33203C1.33301 2.67203 2.67301 1.33203 4.33301 1.33203H5.99967" stroke="#8E8EA9" stroke-linecap="round" stroke-linejoin="round"/>
<path d="M10 1.33203H11.6667C13.3267 1.33203 14.6667 2.67203 14.6667 4.33203V5.9987" stroke="#8E8EA9" stroke-linecap="round" stroke-linejoin="round"/>
<path d="M14.667 10.668V11.668C14.667 13.328 13.327 14.668 11.667 14.668H10.667" stroke="#8E8EA9" stroke-linecap="round" stroke-linejoin="round"/>
<path d="M5.99967 14.6667H4.33301C2.67301 14.6667 1.33301 13.3267 1.33301 11.6667V10" stroke="#8E8EA9" stroke-linecap="round" stroke-linejoin="round"/>
<path d="M7.00033 4.66797V6.0013C7.00033 6.66797 6.66699 7.0013 6.00033 7.0013H4.66699C4.00033 7.0013 3.66699 6.66797 3.66699 6.0013V4.66797C3.66699 4.0013 4.00033 3.66797 4.66699 3.66797H6.00033C6.66699 3.66797 7.00033 4.0013 7.00033 4.66797Z" stroke="#8E8EA9" stroke-linecap="round" stroke-linejoin="round"/>
<path d="M12.3333 4.66797V6.0013C12.3333 6.66797 12 7.0013 11.3333 7.0013H10C9.33333 7.0013 9 6.66797 9 6.0013V4.66797C9 4.0013 9.33333 3.66797 10 3.66797H11.3333C12 3.66797 12.3333 4.0013 12.3333 4.66797Z" stroke="#8E8EA9" stroke-linecap="round" stroke-linejoin="round"/>
<path d="M7.00033 10V11.3333C7.00033 12 6.66699 12.3333 6.00033 12.3333H4.66699C4.00033 12.3333 3.66699 12 3.66699 11.3333V10C3.66699 9.33333 4.00033 9 4.66699 9H6.00033C6.66699 9 7.00033 9.33333 7.00033 10Z" stroke="#8E8EA9" stroke-linecap="round" stroke-linejoin="round"/>
<path d="M12.3333 10V11.3333C12.3333 12 12 12.3333 11.3333 12.3333H10C9.33333 12.3333 9 12 9 11.3333V10C9 9.33333 9.33333 9 10 9H11.3333C12 9 12.3333 9.33333 12.3333 10Z" stroke="#8E8EA9" stroke-linecap="round" stroke-linejoin="round"/>
</svg>
