<svg width="82" height="66" viewBox="0 0 82 66" fill="none" xmlns="http://www.w3.org/2000/svg">
<path d="M1.14803 64.4244H1.68276L1.41681 62.6903L1.14803 64.4244ZM0 65.9045L0.866826 61.929H1.97171L2.82822 65.9045H1.89947L1.78315 65.1432H1.05281L0.936487 65.9045H0ZM3.19197 65.9045V61.929H4.15941L4.9322 64.381C4.90147 63.9687 4.87849 63.612 4.86348 63.3125C4.84846 63.0137 4.84143 62.7599 4.84143 62.5538V61.929H5.67144V65.9045H4.69954L3.92159 63.3777C3.95607 63.7062 3.98234 64.0252 4.00016 64.3336C4.01846 64.6427 4.02737 64.9425 4.02737 65.233V65.9045H3.19197ZM8.60026 64.4244H9.13499L8.86903 62.6903L8.60026 64.4244ZM7.45223 65.9045L8.31905 61.929H9.42417L10.2804 65.9045H9.3517L9.2356 65.1432H8.50504L8.38871 65.9045H7.45223ZM11.58 63.6392C11.5943 63.641 11.61 63.6427 11.6276 63.6446C11.6461 63.6462 11.6707 63.6471 11.7043 63.6471C11.8893 63.6471 12.0242 63.604 12.106 63.5167C12.1891 63.4304 12.2303 63.2911 12.2303 63.0983C12.2303 62.9389 12.1862 62.8242 12.099 62.7538C12.0111 62.6832 11.8647 62.648 11.6602 62.648H11.58V63.6392ZM10.6444 65.9045V61.929H11.5598C11.8964 61.929 12.145 61.944 12.3061 61.9731C12.4665 62.0021 12.6021 62.0514 12.7123 62.1203C12.8586 62.2092 12.9696 62.3422 13.0463 62.5193C13.123 62.6956 13.1607 62.9063 13.1607 63.1502C13.1607 63.5529 13.0549 63.8594 12.8427 64.0684C12.6304 64.2771 12.3185 64.3819 11.9078 64.3819H11.58V65.9045H10.6444ZM14.2304 64.4244H14.7654L14.4992 62.6903L14.2304 64.4244ZM13.0824 65.9045L13.9494 61.929H15.0543L15.9106 65.9045H14.9821L14.8658 65.1432H14.1352L14.0189 65.9045H13.0824ZM17.1944 63.5838C17.2104 63.5838 17.2305 63.5845 17.2552 63.5864C17.2798 63.588 17.2983 63.589 17.3107 63.589C17.5028 63.589 17.6393 63.5503 17.7195 63.4726C17.7997 63.3952 17.8394 63.2649 17.8394 63.0805C17.8394 62.9105 17.7997 62.7899 17.7195 62.7184C17.6393 62.6471 17.5028 62.611 17.3107 62.611C17.2983 62.611 17.2798 62.6119 17.2552 62.6136C17.2305 62.6154 17.2104 62.6164 17.1944 62.6164V63.5838ZM16.2746 65.9045V61.929H17.3204C17.6632 61.929 17.9116 61.9449 18.0659 61.9766C18.221 62.0082 18.346 62.0629 18.4428 62.1405C18.5556 62.2339 18.6403 62.3476 18.6966 62.4841C18.7522 62.6199 18.7803 62.782 18.7803 62.9686C18.7803 63.1978 18.7407 63.3899 18.6605 63.5449C18.5812 63.6992 18.4571 63.827 18.2887 63.9265C18.576 64.0543 18.7275 64.3564 18.7435 64.8332V64.8454C18.7451 64.8956 18.747 64.968 18.7487 65.063C18.7557 65.5107 18.8298 65.7908 18.9708 65.9045H17.8835C17.8588 65.8217 17.8413 65.7354 17.8298 65.6446C17.8192 65.5548 17.8129 65.4577 17.8129 65.3548C17.8129 65.2905 17.8148 65.2138 17.8183 65.123C17.8218 65.0323 17.8234 64.9741 17.8234 64.946C17.8234 64.7037 17.7918 64.5372 17.7284 64.4471C17.6649 64.3582 17.5504 64.3132 17.3856 64.3132H17.1944V65.9045H16.2746ZM19.3725 65.9045V61.929H20.34L21.1127 64.381C21.0818 63.9687 21.059 63.612 21.044 63.3125C21.029 63.0137 21.022 62.7599 21.022 62.5538V61.929H21.852V65.9045H20.8801L20.1021 63.3777C20.1364 63.7062 20.1629 64.0252 20.1805 64.3336C20.199 64.6427 20.2077 64.9425 20.2077 65.233V65.9045H19.3725ZM23.364 64.4244H23.8987L23.6325 62.6903L23.364 64.4244ZM22.2157 65.9045L23.0828 61.929H24.1877L25.0442 65.9045H24.1154L23.9991 65.1432H23.2688L23.1525 65.9045H22.2157ZM26.8247 65.9045V61.929H28.9871V62.7008H27.75V63.4304H28.8919V64.2288H27.75V65.0956H28.9871V65.9045H26.8247ZM29.5631 65.9045V61.929H30.5308L31.3033 64.381C31.2726 63.9687 31.2496 63.612 31.2346 63.3125C31.2196 63.0137 31.2126 62.7599 31.2126 62.5538V61.929H32.0426V65.9045H31.0707L30.2928 63.3777C30.3272 63.7062 30.3537 64.0252 30.3713 64.3336C30.3898 64.6427 30.3985 64.9425 30.3985 65.233V65.9045H29.5631ZM33.1784 65.9045V62.7008H32.4328V61.929H34.8912V62.7008H34.1088V65.9045H33.1784ZM35.2709 65.9045V61.929H37.433V62.7008H36.1961V63.4304H37.3381V64.2288H36.1961V65.0956H37.433V65.9045H35.2709ZM38.9291 63.5838C38.9451 63.5838 38.9652 63.5845 38.9901 63.5864C39.0147 63.588 39.0333 63.589 39.0455 63.589C39.2375 63.589 39.3743 63.5503 39.4542 63.4726C39.5345 63.3952 39.5741 63.2649 39.5741 63.0805C39.5741 62.9105 39.5345 62.7899 39.4542 62.7184C39.3743 62.6471 39.2375 62.611 39.0455 62.611C39.0333 62.611 39.0147 62.6119 38.9901 62.6136C38.9652 62.6154 38.9451 62.6164 38.9291 62.6164V63.5838ZM38.0093 65.9045V61.929H39.0553C39.3979 61.929 39.6466 61.9449 39.8006 61.9766C39.9557 62.0082 40.0809 62.0629 40.1778 62.1405C40.2906 62.2339 40.375 62.3476 40.4315 62.4841C40.4871 62.6199 40.5153 62.782 40.5153 62.9686C40.5153 63.1978 40.4756 63.3899 40.3954 63.5449C40.3161 63.6992 40.1918 63.827 40.0234 63.9265C40.3107 64.0543 40.4622 64.3564 40.4782 64.8332V64.8454C40.4801 64.8956 40.4817 64.968 40.4834 65.063C40.4904 65.5107 40.5645 65.7908 40.7055 65.9045H39.6182C39.5935 65.8217 39.576 65.7354 39.5645 65.6446C39.5539 65.5548 39.5478 65.4577 39.5478 65.3548C39.5478 65.2905 39.5495 65.2138 39.553 65.123C39.5565 65.0323 39.5584 64.9741 39.5584 64.946C39.5584 64.7037 39.5267 64.5372 39.4632 64.4471C39.3998 64.3582 39.2851 64.3132 39.1205 64.3132H38.9291V65.9045H38.0093ZM42.043 63.6392C42.0571 63.641 42.073 63.6427 42.0906 63.6446C42.1091 63.6462 42.1338 63.6471 42.1673 63.6471C42.3523 63.6471 42.4872 63.604 42.5691 63.5167C42.6518 63.4304 42.6933 63.2911 42.6933 63.0983C42.6933 62.9389 42.6493 62.8242 42.562 62.7538C42.4738 62.6832 42.3277 62.648 42.1232 62.648H42.043V63.6392ZM41.1072 65.9045V61.929H42.0228C42.3594 61.929 42.6077 61.944 42.7691 61.9731C42.9293 62.0021 43.0651 62.0514 43.1753 62.1203C43.3214 62.2092 43.4326 62.3422 43.5091 62.5193C43.5857 62.6956 43.6237 62.9063 43.6237 63.1502C43.6237 63.5529 43.518 63.8594 43.3057 64.0684C43.0932 64.2771 42.7813 64.3819 42.3709 64.3819H42.043V65.9045H41.1072ZM45.0396 63.5838C45.0555 63.5838 45.0757 63.5845 45.1003 63.5864C45.125 63.588 45.1435 63.589 45.1559 63.589C45.348 63.589 45.4845 63.5503 45.5647 63.4726C45.6449 63.3952 45.6846 63.2649 45.6846 63.0805C45.6846 62.9105 45.6449 62.7899 45.5647 62.7184C45.4845 62.6471 45.348 62.611 45.1559 62.611C45.1435 62.611 45.125 62.6119 45.1003 62.6136C45.0757 62.6154 45.0555 62.6164 45.0396 62.6164V63.5838ZM44.1198 65.9045V61.929H45.1655C45.5084 61.929 45.7568 61.9449 45.9111 61.9766C46.0661 62.0082 46.1911 62.0629 46.288 62.1405C46.4008 62.2339 46.4855 62.3476 46.5418 62.4841C46.5974 62.6199 46.6255 62.782 46.6255 62.9686C46.6255 63.1978 46.5859 63.3899 46.5056 63.5449C46.4264 63.6992 46.3023 63.827 46.1339 63.9265C46.4212 64.0543 46.5727 64.3564 46.5887 64.8332V64.8454C46.5903 64.8956 46.5922 64.968 46.5938 65.063C46.6009 65.5107 46.675 65.7908 46.8159 65.9045H45.7286C45.704 65.8217 45.6864 65.7354 45.6749 65.6446C45.6644 65.5548 45.6581 65.4577 45.6581 65.3548C45.6581 65.2905 45.6599 65.2138 45.6635 65.123C45.667 65.0323 45.6686 64.9741 45.6686 64.946C45.6686 64.7037 45.637 64.5372 45.5736 64.4471C45.5101 64.3582 45.3956 64.3132 45.2307 64.3132H45.0396V65.9045H44.1198ZM47.2177 65.9045V61.929H48.1481V65.9045H47.2177ZM48.6706 64.5564H49.5217V64.6727C49.5217 64.8923 49.5473 65.0464 49.5994 65.1352C49.6505 65.2253 49.7377 65.2701 49.8602 65.2701C49.958 65.2701 50.0353 65.2359 50.0919 65.1678C50.1491 65.1001 50.1772 65.0077 50.1772 64.8904C50.1772 64.6974 50.0389 64.5116 49.7633 64.3343C49.7183 64.3036 49.6838 64.2797 49.6601 64.2649L49.616 64.2365C49.2424 63.9846 49.0107 63.7961 48.919 63.6683C48.8538 63.5723 48.8045 63.464 48.7703 63.3432C48.7358 63.2233 48.7182 63.0913 48.7182 62.9485C48.7182 62.6014 48.8186 62.3281 49.0203 62.1309C49.2213 61.9325 49.4987 61.834 49.8512 61.834C50.2354 61.834 50.5279 61.9308 50.7305 62.1255C50.9324 62.3195 51.0337 62.6004 51.0337 62.9686C51.0337 62.9837 51.0328 63.0057 51.0309 63.0331C51.0293 63.0603 51.0284 63.0814 51.0284 63.0974H50.1932V63.0479C50.1932 62.8753 50.1657 62.744 50.112 62.6551C50.0574 62.566 49.9791 62.5212 49.8759 62.5212C49.7886 62.5212 49.7183 62.5528 49.6653 62.6154C49.6115 62.6781 49.5853 62.7608 49.5853 62.8638C49.5853 63.0322 49.7358 63.2112 50.0382 63.3995C50.0935 63.4356 50.135 63.463 50.1641 63.4825C50.1887 63.4956 50.2223 63.5177 50.2654 63.5468C50.5905 63.7529 50.7985 63.9274 50.8902 64.0684C50.9465 64.1591 50.9906 64.263 51.0204 64.3793C51.0504 64.4957 51.0654 64.6216 51.0654 64.7574C51.0654 65.1556 50.9624 65.4612 50.7554 65.6772C50.5492 65.8923 50.2539 65.9997 49.8707 65.9997C49.468 65.9997 49.1657 65.8965 48.9631 65.6913C48.7614 65.4852 48.6601 65.1793 48.6601 64.7731C48.6601 64.7476 48.661 64.7204 48.6619 64.6922C48.6626 64.6641 48.6652 64.6181 48.6706 64.5564ZM51.5668 65.9045V61.929H53.729V62.7008H52.4918V63.4304H53.6338V64.2288H52.4918V65.0956H53.729V65.9045H51.5668ZM54.1835 64.5564H55.0349V64.6727C55.0349 64.8923 55.0604 65.0464 55.1122 65.1352C55.1634 65.2253 55.2506 65.2701 55.373 65.2701C55.4708 65.2701 55.5485 65.2359 55.6048 65.1678C55.662 65.1001 55.6904 65.0077 55.6904 64.8904C55.6904 64.6974 55.552 64.5116 55.2762 64.3343C55.2312 64.3036 55.1969 64.2797 55.1732 64.2649L55.1291 64.2365C54.7555 63.9846 54.5238 63.7961 54.4321 63.6683C54.3669 63.5723 54.3174 63.464 54.2832 63.3432C54.2489 63.2233 54.2311 63.0913 54.2311 62.9485C54.2311 62.6014 54.3317 62.3281 54.5334 62.1309C54.7342 61.9325 55.0119 61.834 55.3644 61.834C55.7485 61.834 56.041 61.9308 56.2436 62.1255C56.4453 62.3195 56.5466 62.6004 56.5466 62.9686C56.5466 62.9837 56.5459 63.0057 56.5441 63.0331C56.5424 63.0603 56.5415 63.0814 56.5415 63.0974H55.7061V63.0479C55.7061 62.8753 55.6789 62.744 55.6252 62.6551C55.5705 62.566 55.4919 62.5212 55.389 62.5212C55.3017 62.5212 55.2311 62.5528 55.1784 62.6154C55.1247 62.6781 55.0982 62.7608 55.0982 62.8638C55.0982 63.0322 55.2487 63.2112 55.551 63.3995C55.6066 63.4356 55.6479 63.463 55.677 63.4825C55.7019 63.4956 55.7352 63.5177 55.7783 63.5468C56.1036 63.7529 56.3114 63.9274 56.4031 64.0684C56.4594 64.1591 56.5035 64.263 56.5335 64.3793C56.5635 64.4957 56.5785 64.6216 56.5785 64.7574C56.5785 65.1556 56.4753 65.4612 56.2682 65.6772C56.0621 65.8923 55.767 65.9997 55.3836 65.9997C54.9809 65.9997 54.6788 65.8965 54.4762 65.6913C54.2743 65.4852 54.173 65.1793 54.173 64.7731C54.173 64.7476 54.1739 64.7204 54.1748 64.6922C54.1758 64.6641 54.1783 64.6181 54.1835 64.5564ZM58.4965 65.9045V61.929H59.4269V65.9045H58.4965ZM60.0712 65.9045V61.929H61.0386L61.8112 64.381C61.7804 63.9687 61.7575 63.612 61.7424 63.3125C61.7274 63.0137 61.7204 62.7599 61.7204 62.5538V61.929H62.5504V65.9045H61.5787L60.8006 63.3777C60.835 63.7062 60.8615 64.0252 60.8791 64.3336C60.8977 64.6427 60.9063 64.9425 60.9063 65.233V65.9045H60.0712ZM63.1998 65.9045V61.929H64.1302V65.9045H63.1998ZM65.2606 65.9045V62.7008H64.5153V61.929H66.9737V62.7008H66.191V65.9045H65.2606ZM67.3534 65.9045V61.929H68.2837V65.9045H67.3534ZM69.7904 64.4244H70.3251L70.0592 62.6903L69.7904 64.4244ZM68.6423 65.9045L69.5094 61.929H70.6143L71.4706 65.9045H70.542L70.4257 65.1432H69.6952L69.5788 65.9045H68.6423ZM72.1324 65.9045V62.7008H71.3868V61.929H73.8452V62.7008H73.0628V65.9045H72.1324ZM74.2249 65.9045V61.929H75.1553V65.9045H74.2249ZM76.4074 65.9045L75.5193 61.929H76.5024L76.846 64.0172C76.8613 64.1106 76.8788 64.2332 76.899 64.3854C76.9185 64.5379 76.9377 64.7028 76.9572 64.8798L76.9651 64.8303C77.0109 64.4155 77.0435 64.1467 77.063 64.0226L77.4136 61.929H78.3951L77.4912 65.9045H76.4074ZM78.7598 65.9045V61.929H80.9222V62.7008H79.685V63.4304H80.8269V64.2288H79.685V65.0956H80.9222V65.9045H78.7598Z" fill="#0073CF"/>
<path fill-rule="evenodd" clip-rule="evenodd" d="M0.0742188 47.1094H3.26127V51.8108C3.26127 52.5432 3.39002 53.0895 3.64918 53.4473C3.90974 53.8095 4.30445 53.9882 4.83684 53.9882C5.43864 53.9882 5.89294 53.7419 6.20463 53.2529C6.51468 52.7642 6.66853 52.0486 6.66853 51.1016V47.1094H9.86519V56.432H6.96052V54.6878C6.59512 55.3076 6.1256 55.7802 5.54982 56.1036C4.97499 56.4287 4.31947 56.5912 3.58914 56.5912C2.44369 56.5912 1.57169 56.2418 0.971999 55.5429C0.372772 54.844 0.0742188 53.8231 0.0742188 52.4825V47.1094Z" fill="#4D4D4D"/>
<path fill-rule="evenodd" clip-rule="evenodd" d="M22.0628 50.981V56.4327H18.8938V51.6421C18.8938 50.9127 18.7643 50.3672 18.5042 50.0112C18.2448 49.6524 17.8508 49.4755 17.3182 49.4755C16.7638 49.4755 16.3189 49.6988 15.9861 50.1477C15.6528 50.5964 15.4851 51.1986 15.4851 51.9522V56.4327H12.291V47.1105H15.1931V48.7839C15.5606 48.1586 16.0325 47.6816 16.6097 47.3549C17.1887 47.0282 17.8414 46.8643 18.5659 46.8643C19.7046 46.8643 20.5728 47.2121 21.1692 47.9124C21.764 48.6115 22.0628 49.6336 22.0628 50.981Z" fill="#4D4D4D"/>
<path fill-rule="evenodd" clip-rule="evenodd" d="M24.3457 56.432H27.5424V47.1094H24.3457V56.432Z" fill="#4D4D4D"/>
<path fill-rule="evenodd" clip-rule="evenodd" d="M36.7821 47.3509L36.4727 49.5982C36.0468 49.3566 35.6183 49.173 35.1842 49.0466C34.7499 48.9192 34.3366 48.855 33.941 48.855C33.5512 48.855 33.2498 48.9253 33.0383 49.063C32.8265 49.2021 32.7202 49.3988 32.7202 49.6517C32.7205 49.9816 33.1534 50.2666 34.0195 50.5039C34.2916 50.5781 34.5076 50.64 34.6657 50.6876C35.658 50.9822 36.3498 51.3429 36.7429 51.7678C37.1334 52.193 37.3311 52.7761 37.3311 53.5113C37.3311 54.4961 36.9479 55.2734 36.1807 55.8379C35.4136 56.4064 34.357 56.6874 33.0111 56.6874C32.439 56.6874 31.8745 56.6449 31.3168 56.557C30.7575 56.4676 30.2112 56.3356 29.6751 56.1585L29.8782 53.7693C30.3261 53.9989 30.7929 54.1734 31.2746 54.2965C31.7598 54.4166 32.2495 54.4755 32.7456 54.4755C33.2116 54.4755 33.5627 54.414 33.8005 54.2853C34.0346 54.1598 34.1525 53.9696 34.1525 53.7163C34.1525 53.3371 33.6757 53.0062 32.7202 52.7236C32.4824 52.6532 32.2971 52.5967 32.1613 52.5538C31.1871 52.2378 30.5103 51.8811 30.127 51.4899C29.7433 51.0968 29.5508 50.5813 29.5508 49.9441C29.5508 48.9704 29.9342 48.213 30.7007 47.6739C31.4685 47.1342 32.5467 46.8643 33.941 46.8643C34.3934 46.8643 34.861 46.9037 35.3381 46.9872C35.8163 47.0711 36.298 47.1912 36.7821 47.3509Z" fill="#4D4D4D"/>
<path fill-rule="evenodd" clip-rule="evenodd" d="M44.2366 49.2529C43.6163 49.2529 43.1304 49.4772 42.776 49.9268C42.4221 50.3752 42.2445 50.9901 42.2445 51.7774C42.245 52.5371 42.4195 53.1389 42.7673 53.5864C43.1158 54.032 43.5882 54.2532 44.1846 54.2532C44.7852 54.2527 45.2662 54.0247 45.6204 53.5639C45.9795 53.1042 46.1568 52.4768 46.1568 51.6789C46.1568 50.9467 45.9823 50.3602 45.6302 49.9169C45.2801 49.4753 44.8152 49.2529 44.2366 49.2529ZM42.245 55.1303V60.2222H39.0488V47.11H41.9176V48.8899C42.2844 48.2365 42.7535 47.7337 43.3299 47.3854C43.9034 47.039 44.5526 46.8643 45.2735 46.8643C46.5299 46.8643 47.5414 47.3056 48.3072 48.191C49.0757 49.0759 49.4587 50.2537 49.4587 51.7226C49.4587 53.1938 49.071 54.3892 48.2945 55.3078C47.5194 56.2272 46.5231 56.6874 45.3059 56.6874C44.6581 56.6874 44.0783 56.5593 43.5689 56.298C43.057 56.0403 42.6172 55.6493 42.245 55.1303Z" fill="#4D4D4D"/>
<path fill-rule="evenodd" clip-rule="evenodd" d="M56.5847 52.193C55.6463 52.193 54.9704 52.2948 54.559 52.4974C54.1448 52.7008 53.9375 53.0275 53.9375 53.4757C53.9375 53.8017 54.0475 54.0632 54.2696 54.2642C54.4919 54.4642 54.7851 54.5648 55.1495 54.5648C55.7302 54.5648 56.2021 54.369 56.572 53.9787C56.9402 53.5904 57.1245 53.0824 57.1245 52.4583V52.193H56.5847ZM60.1333 51.5553V56.4324H57.3635L57.2922 54.9816C56.916 55.5196 56.4601 55.9122 55.9261 56.1627C55.3911 56.4132 54.7473 56.5386 53.9924 56.5386C53.0463 56.5386 52.2953 56.272 51.7322 55.734C51.1731 55.1967 50.8926 54.4799 50.8926 53.5819C50.8926 52.549 51.3007 51.7847 52.114 51.2844C52.929 50.7863 54.1814 50.5379 55.8773 50.5379H57.1245V50.4129C57.1245 49.9063 56.9299 49.5158 56.5403 49.245C56.1519 48.9743 55.5851 48.8383 54.84 48.8383C54.4741 48.8383 54.0571 48.9025 53.5937 49.0325C53.1267 49.161 52.6244 49.3505 52.0877 49.5979L52.0347 47.4918C52.554 47.2742 53.1159 47.1103 53.722 47.0066C54.3266 46.8989 54.991 46.8457 55.7162 46.8457C57.2381 46.8457 58.3558 47.2266 59.0688 47.9825C59.7783 48.7417 60.1333 49.9326 60.1333 51.5553Z" fill="#4D4D4D"/>
<path fill-rule="evenodd" clip-rule="evenodd" d="M69.8337 47.3509L69.6127 49.6875C69.3001 49.5156 68.9914 49.3902 68.684 49.3074C68.3772 49.225 68.0712 49.1819 67.7632 49.1819C66.9728 49.1819 66.3431 49.415 65.8773 49.881C65.4111 50.3475 65.1789 50.9807 65.1789 51.7777C65.1789 52.5537 65.4268 53.1771 65.9228 53.6448C66.4182 54.1108 67.0798 54.3439 67.9143 54.3439C68.2625 54.3439 68.5956 54.2989 68.919 54.2098C69.2393 54.1216 69.551 53.9879 69.8515 53.8029L69.9242 56.2554C69.5154 56.3972 69.0663 56.5049 68.574 56.5781C68.0796 56.6517 67.5439 56.6874 66.9672 56.6874C65.454 56.6874 64.2288 56.2378 63.2884 55.3348C62.3479 54.4307 61.877 53.2527 61.877 51.7943C61.877 50.2666 62.3516 49.0618 63.3015 48.184C64.2518 47.3045 65.5596 46.8643 67.2229 46.8643C67.6234 46.8643 68.0416 46.9037 68.4769 46.9829C68.9096 47.0645 69.3627 47.1858 69.8337 47.3509Z" fill="#4D4D4D"/>
<path fill-rule="evenodd" clip-rule="evenodd" d="M78.1009 50.8283C78.0354 50.2054 77.8358 49.7131 77.4988 49.3557C77.1613 48.9983 76.7354 48.8198 76.2155 48.8198C75.7025 48.8198 75.2801 48.9983 74.949 49.3557C74.6183 49.7131 74.418 50.2054 74.3469 50.8283H78.1009ZM80.9239 51.9358V52.7149H74.3824C74.4464 53.3232 74.7109 53.7918 75.1718 54.123C75.6301 54.4527 76.2513 54.6181 77.03 54.6181C77.4967 54.6181 77.9885 54.5538 78.5092 54.4237C79.0261 54.2937 79.5613 54.0993 80.1098 53.8395V56.1231C79.5911 56.3138 79.0509 56.4545 78.4867 56.5483C77.9203 56.6402 77.3337 56.6878 76.7204 56.6878C75.0198 56.6878 73.6931 56.2396 72.736 55.3449C71.7807 54.4476 71.3027 53.2008 71.3027 51.6102C71.3027 50.1564 71.7436 49.0027 72.6257 48.1476C73.5087 47.2918 74.6994 46.8643 76.1993 46.8643C77.7078 46.8643 78.8732 47.3042 79.6928 48.184C80.5144 49.0618 80.9239 50.3128 80.9239 51.9358Z" fill="#4D4D4D"/>
<path fill-rule="evenodd" clip-rule="evenodd" d="M26.2035 43.286C14.2511 43.286 4.56055 33.5964 4.56055 21.6423C4.56078 9.68801 14.2511 0 26.2035 0V43.286Z" fill="#66D3E1"/>
<path fill-rule="evenodd" clip-rule="evenodd" d="M15.6037 38.8891C9.7545 33.0408 9.7545 23.5564 15.6037 17.7093C21.4513 11.8612 30.9331 11.8612 36.7837 17.7093C42.6313 23.5564 42.6313 33.0408 36.7837 38.8891C30.9331 44.7373 21.4513 44.7373 15.6037 38.8891Z" fill="#B3EAF7"/>
<path fill-rule="evenodd" clip-rule="evenodd" d="M14.6793 35.4413C10.4611 31.2223 10.4611 24.3817 14.6793 20.1665C18.8988 15.9461 25.7389 15.9461 29.9572 20.1646C34.1773 24.3834 34.175 31.2223 29.9572 35.4413C25.7389 39.6605 18.8988 39.6605 14.6793 35.4413Z" fill="white"/>
<path fill-rule="evenodd" clip-rule="evenodd" d="M13.9156 32.748C11.0724 29.9026 11.0724 25.2889 13.9156 22.4438C16.7619 19.5994 21.3744 19.5994 24.2162 22.4438C27.063 25.2901 27.063 29.9026 24.2162 32.748C21.373 35.5919 16.7619 35.5919 13.9156 32.748Z" fill="#66D3E1"/>
<path fill-rule="evenodd" clip-rule="evenodd" d="M80.8766 47.5018V47.3456C80.9809 47.3456 81.0848 47.3196 81.1892 47.2804C81.3065 47.2283 81.4108 47.1631 81.5018 47.0719C81.5933 46.9807 81.6714 46.8895 81.7106 46.7722C81.7626 46.6549 81.7887 46.5377 81.7887 46.4073C81.7887 46.2771 81.7626 46.1467 81.7106 46.0294C81.6714 45.9122 81.6062 45.8078 81.5152 45.7297C81.4237 45.6385 81.3196 45.5604 81.2021 45.5083C81.0982 45.4689 80.9938 45.4431 80.8766 45.4431V45.2998C81.0067 45.2998 81.1371 45.3258 81.2544 45.3779C81.3848 45.4302 81.5018 45.5212 81.6062 45.6256C81.7105 45.7297 81.7886 45.8472 81.8538 45.9774C81.9059 46.1075 81.9322 46.2511 81.9322 46.3944C81.9322 46.5508 81.9059 46.6941 81.8538 46.8243C81.7886 46.9547 81.7105 47.0719 81.6062 47.1763C81.5018 47.2804 81.3717 47.3587 81.2415 47.4108C81.124 47.4629 80.9938 47.4889 80.8766 47.5018ZM80.8766 46.5245L81.0982 47.0067H81.3716L81.0848 46.4335C81.1763 46.4073 81.2544 46.3681 81.3065 46.3163C81.3456 46.2511 81.3716 46.1856 81.3716 46.0946C81.3716 45.9774 81.3327 45.8993 81.2415 45.8341C81.1634 45.782 81.033 45.7557 80.8766 45.7557V45.8993C80.9547 45.9122 81.0199 45.9253 81.059 45.9513C81.1111 45.9903 81.1371 46.0426 81.1371 46.1207C81.1371 46.1856 81.1111 46.2379 81.059 46.2642C81.0199 46.29 80.9547 46.3163 80.8766 46.3163V46.5245ZM80.8766 45.2998V45.4431H80.8245C80.6941 45.4431 80.5768 45.4689 80.4596 45.5083C80.3423 45.5604 80.2379 45.6256 80.1598 45.7168C80.0686 45.8078 79.9903 45.9122 79.9382 46.0294C79.8859 46.1467 79.8601 46.2771 79.8601 46.3944C79.8601 46.5245 79.8859 46.6418 79.9382 46.7593C79.9903 46.8766 80.0555 46.9807 80.1467 47.0719C80.2379 47.1631 80.3423 47.2283 80.4596 47.2804C80.5768 47.3327 80.6941 47.3587 80.8114 47.3587C80.8374 47.3587 80.8505 47.3456 80.8766 47.3456V47.5018H80.8245C80.6681 47.5018 80.5377 47.476 80.4073 47.4108C80.2642 47.3587 80.1467 47.2804 80.0426 47.1631C79.9382 47.0588 79.8601 46.9415 79.8078 46.8114C79.7428 46.6812 79.7168 46.5377 79.7168 46.3944C79.7168 46.2511 79.7428 46.1075 79.8078 45.9774C79.8601 45.8341 79.9513 45.7168 80.0555 45.6124C80.1598 45.5083 80.2771 45.4302 80.4073 45.3779C80.5377 45.3258 80.6681 45.2998 80.8245 45.2998H80.8766ZM80.8766 45.7557H80.8505H80.3815V47.0067H80.616V46.4725H80.8505L80.8766 46.5245V46.3163H80.8114H80.616V45.8993H80.8114H80.8766V45.7557Z" fill="#4D4D4D"/>
</svg>
