<svg xmlns="http://www.w3.org/2000/svg" width="16" height="16" viewBox="0 0 16 16" fill="none">
  <g clip-path="url(#clip0_455_4572)">
    <path fill-rule="evenodd" clip-rule="evenodd" d="M0.857143 1.71429H2.45311L2.88523 3.36048C2.88864 3.37346 2.89233 3.3863 2.89629 3.39898L4.00359 8.9355C4.00635 8.96529 4.01072 8.99524 4.01672 9.02524L4.49672 11.4252L4.49738 11.4286C4.56326 11.7512 4.73858 12.0413 4.9937 12.2495C5.24878 12.4577 5.56794 12.5714 5.89721 12.5714H12.8573C13.3306 12.5714 13.7144 12.1877 13.7144 11.7143C13.7144 11.2409 13.3306 10.8571 12.8573 10.8571H6.13133L5.84561 9.42857H13.8303L13.8422 9.42873C13.8824 9.42945 13.997 9.43146 14.1021 9.41429C14.485 9.35171 14.8129 9.09132 14.9656 8.7422C15.0279 8.59985 15.0585 8.42034 15.0686 8.36171L15.0715 8.34463L15.9761 3.9319L15.9786 3.92002C16.0087 3.7556 16.0022 3.58656 15.9599 3.42486C15.8294 2.92651 15.3736 2.57333 14.8585 2.57143H14.8563H4.45047L4.06801 1.11444C3.99785 0.803176 3.82541 0.524041 3.57779 0.321913C3.32272 0.11369 3.00355 -2.68343e-05 2.67429 4.74977e-09H0.857143C0.383755 4.74977e-09 0 0.383755 0 0.857143C0 1.33053 0.383755 1.71429 0.857143 1.71429Z" fill="#666687" />
    <path opacity="0.4" fill-rule="evenodd" clip-rule="evenodd" d="M7.57641 14.6292C7.57641 13.9042 6.98868 13.3164 6.26369 13.3164C5.53868 13.3164 4.95096 13.9042 4.95096 14.6292C4.95096 15.3541 5.53868 15.9419 6.26369 15.9419C6.98868 15.9419 7.57641 15.3541 7.57641 14.6292ZM13.2907 14.6292C13.2907 13.9042 12.703 13.3164 11.9781 13.3164C11.253 13.3164 10.6653 13.9042 10.6653 14.6292C10.6653 15.3542 11.253 15.9419 11.9781 15.9419C12.703 15.9419 13.2907 15.3542 13.2907 14.6292Z" fill="#666687" />
  </g>
  <defs>
    <clipPath id="clip0_455_4572">
      <rect width="16" height="16" fill="white" />
    </clipPath>
  </defs>
</svg>
