<svg xmlns="http://www.w3.org/2000/svg" width="48.448" height="48.448" viewBox="0 0 48.448 48.448">
  <g id="Group_2154" data-name="Group 2154" transform="translate(-4045 -5592)">
    <path id="Path_253" data-name="Path 253" d="M31.484,22.538l3.98-3.981a5.316,5.316,0,0,1,7.519,0l3.981,3.981h5.629a5.317,5.317,0,0,1,5.317,5.316v5.629l3.981,3.981a5.316,5.316,0,0,1,0,7.519l-3.981,3.98v5.63a5.317,5.317,0,0,1-5.317,5.316h-5.63l-3.981,3.981a5.316,5.316,0,0,1-7.519,0l-3.98-3.981h-5.63a5.317,5.317,0,0,1-5.316-5.316v-5.63l-3.981-3.98a5.316,5.316,0,0,1,0-7.519l3.981-3.981V27.854a5.315,5.315,0,0,1,5.316-5.316Z" transform="translate(4030 5575)" fill="#dc8888" fill-rule="evenodd"/>
    <g id="Icon" transform="translate(4059 5618.63) rotate(-56)">
      <g id="Icon-2" data-name="Icon" transform="translate(0 0)">
        <ellipse id="Path" cx="1.927" cy="1.927" rx="1.927" ry="1.927" transform="translate(5.228 0)" fill="none" stroke="#fff" stroke-linecap="round" stroke-linejoin="round" stroke-width="1.2"/>
        <line id="Line" y1="0.808" x2="15.235" transform="translate(0 6.994)" fill="none" stroke="#fff" stroke-linecap="round" stroke-linejoin="round" stroke-width="1.5"/>
        <ellipse id="Path-2" data-name="Path" cx="1.927" cy="1.927" rx="1.927" ry="1.927" transform="translate(6.152 10.941)" fill="none" stroke="#fff" stroke-linecap="round" stroke-linejoin="round" stroke-width="1.2"/>
      </g>
    </g>
  </g>
</svg>
