<svg xmlns="http://www.w3.org/2000/svg" width="16" height="16" viewBox="0 0 16 16" fill="none">
  <g clip-path="url(#clip0_455_4683)">
    <path fill-rule="evenodd" clip-rule="evenodd" d="M11.4302 0.240732C11.6758 -0.00562458 12.0457 -0.0794559 12.3671 0.0537722L14.8023 1.06356C15.2385 1.24443 15.4467 1.74365 15.2682 2.18085L14.2746 4.61549C14.1434 4.93716 13.8311 5.14797 13.4837 5.14952C13.1363 5.15108 12.8221 4.94304 12.688 4.62255L12.2948 3.68325L2.40863 7.90869C1.9727 8.09501 1.46826 7.89267 1.28194 7.45673C1.09562 7.0208 1.29797 6.51637 1.73391 6.33004L11.632 2.09951L11.2464 1.17813C11.1121 0.857269 11.1847 0.487089 11.4302 0.240732Z" fill="#666687" />
    <path opacity="0.4" fill-rule="evenodd" clip-rule="evenodd" d="M14.5809 6.25977C14.8845 6.25977 15.1756 6.38035 15.3902 6.595C15.6048 6.80963 15.7255 7.10076 15.7255 7.4043V15.416C15.7255 15.732 15.4692 15.9883 15.1532 15.9883H12.2919C11.9759 15.9883 11.7196 15.732 11.7196 15.416V7.4043C11.7196 7.10076 11.8402 6.80963 12.0548 6.595C12.2694 6.38035 12.5606 6.25977 12.8641 6.25977H14.5809ZM8.85826 7.97657C9.16181 7.97657 9.45292 8.09715 9.66757 8.3118C9.88221 8.52643 10.0028 8.81756 10.0028 9.1211V15.416C10.0028 15.732 9.74658 15.9883 9.43053 15.9883H6.56919C6.25314 15.9883 5.99693 15.732 5.99693 15.416V9.1211C5.99693 8.81756 6.11751 8.52643 6.33215 8.3118C6.54679 8.09715 6.83791 7.97657 7.14146 7.97657H8.85826ZM3.9449 10.0286C3.73026 9.81395 3.43915 9.69337 3.13559 9.69337H1.41879C1.11525 9.69337 0.824129 9.81395 0.609487 10.0286C0.394845 10.2432 0.274261 10.5344 0.274261 10.8379V15.416C0.274261 15.732 0.530474 15.9883 0.846528 15.9883H3.70786C4.02391 15.9883 4.28013 15.732 4.28013 15.416V10.8379C4.28013 10.5344 4.15954 10.2432 3.9449 10.0286Z" fill="#666687" />
  </g>
  <defs>
    <clipPath id="clip0_455_4683">
      <rect width="16" height="16" fill="white" />
    </clipPath>
  </defs>
</svg>
