<svg width="16" height="16" viewBox="0 0 16 16" fill="none" xmlns="http://www.w3.org/2000/svg">
<path d="M4.04688 11.9069L8.40686 7.54688" stroke="#8E8EA9" stroke-linecap="round" stroke-linejoin="round"/>
<path d="M4.32001 8.63999C4.77288 8.63999 5.13999 8.27288 5.13999 7.82001C5.13999 7.36713 4.77288 7 4.32001 7C3.86713 7 3.5 7.36713 3.5 7.82001C3.5 8.27288 3.86713 8.63999 4.32001 8.63999Z" stroke="#8E8EA9" stroke-linecap="round" stroke-linejoin="round"/>
<path d="M8.68034 12.4525C9.13321 12.4525 9.50035 12.0854 9.50035 11.6325C9.50035 11.1796 9.13321 10.8125 8.68034 10.8125C8.22746 10.8125 7.86035 11.1796 7.86035 11.6325C7.86035 12.0854 8.22746 12.4525 8.68034 12.4525Z" stroke="#8E8EA9" stroke-linecap="round" stroke-linejoin="round"/>
<path d="M14.6663 6.66927V10.0026C14.6663 13.3359 13.333 14.6693 9.99967 14.6693H5.99967C2.66634 14.6693 1.33301 13.3359 1.33301 10.0026V6.0026C1.33301 2.66927 2.66634 1.33594 5.99967 1.33594H9.33301" stroke="#8E8EA9" stroke-linecap="round" stroke-linejoin="round"/>
<path d="M14.6663 6.66927H11.9997C9.99967 6.66927 9.33301 6.0026 9.33301 4.0026V1.33594L14.6663 6.66927Z" stroke="#8E8EA9" stroke-linecap="round" stroke-linejoin="round"/>
</svg>
