<svg xmlns="http://www.w3.org/2000/svg" xmlns:xlink="http://www.w3.org/1999/xlink" width="200" height="200" viewBox="0 0 200 200" fill="#001B5A">
  <defs>
    <clipPath id="clip-Custom_Size_3">
      <rect width="200" height="200"/>
    </clipPath>
  </defs>
  <g id="Custom_Size_3" data-name="Custom Size – 3" clip-path="url(#clip-Custom_Size_3)">
    <g id="noun-view-1339337" transform="translate(-78.261 -69.68)">
      <path id="Path_12" data-name="Path 12" d="M275.943,162.982c-10.922-13.6-49.871-57.7-97.682-57.7s-86.966,44.1-97.682,57.7a10.83,10.83,0,0,0,0,13.394c10.922,13.6,49.871,57.7,97.682,57.7s86.966-44.307,97.682-57.7a10.833,10.833,0,0,0,0-13.394Zm-97.682,57.7c-40.8,0-76.25-39.567-85.935-51.108,9.48-11.747,45.132-51.108,85.935-51.108s76.25,39.361,85.935,51.108C254.511,181.324,219.065,220.685,178.261,220.685Z" transform="translate(0 0)"/>
      <path id="Path_13" data-name="Path 13" d="M282.047,172.48a39.567,39.567,0,1,0,39.567,39.567,39.578,39.578,0,0,0-39.567-39.567Zm0,65.74a26.173,26.173,0,1,1,26.173-26.173A26.21,26.21,0,0,1,282.047,238.22Z" transform="translate(-103.786 -42.47)"/>
    </g>
  </g>
</svg>
