<svg width="16" height="16" viewBox="0 0 16 16" fill="none" xmlns="http://www.w3.org/2000/svg">
<path d="M5.8542 1.39385L1.9734 4.42201C1.3254 4.9267 0.799805 6.00097 0.799805 6.81569V12.1582C0.799805 13.8309 2.1606 15.2008 3.831 15.2008H12.1686C13.839 15.2008 15.1998 13.8309 15.1998 12.1654V6.91663C15.1998 6.04423 14.6166 4.9267 13.9038 4.42922L9.4542 1.30734C8.4462 0.600768 6.8262 0.636817 5.8542 1.39385Z" stroke="#8E8EA9" stroke-linecap="round" stroke-linejoin="round"/>
<path d="M4 14.6654V7.33203H12V14.6654" stroke="#8E8EA9" stroke-linecap="round" stroke-linejoin="round"/>
<path d="M8.40039 15.0164V12.8008H10.8004V15.2008" stroke="#8E8EA9" stroke-linecap="round" stroke-linejoin="round"/>
<path d="M6 15.0164V12.8008H8.4V15.2008" stroke="#8E8EA9" stroke-linecap="round" stroke-linejoin="round"/>
<path d="M8.40039 12.6141V10.3984H10.8004V12.7984" stroke="#8E8EA9" stroke-linecap="round" stroke-linejoin="round"/>
</svg>
