<svg width="99" height="80" viewBox="0 0 99 80" fill="none" xmlns="http://www.w3.org/2000/svg">
<path d="M1.39158 78.0911H2.03981L1.71733 75.9892L1.39158 78.0911ZM0 79.8852L1.05084 75.0665H2.39009L3.42825 79.8852H2.30257L2.16159 78.9625H1.2762L1.13523 79.8852H0ZM3.86926 79.8852V75.0665H5.04193L5.97858 78.0387C5.94119 77.5389 5.91346 77.1064 5.89526 76.7433C5.87707 76.3812 5.86854 76.0736 5.86854 75.8237V75.0665H6.87458V79.8852H5.69663L4.75358 76.8223C4.79524 77.2206 4.8273 77.6073 4.84869 77.9811C4.87109 78.3559 4.88176 78.719 4.88176 79.0714V79.8852H3.86926ZM10.4247 78.0911H11.0729L10.7503 75.9892L10.4247 78.0911ZM9.03303 79.8852L10.0839 75.0665H11.4232L12.4613 79.8852H11.3356L11.1946 78.9625H10.3092L10.1683 79.8852H9.03303ZM14.0366 77.1394C14.0537 77.1416 14.0729 77.1438 14.0942 77.1459C14.1167 77.148 14.1465 77.1491 14.1871 77.1491C14.4114 77.1491 14.5749 77.0968 14.6742 76.991C14.7746 76.8863 14.8248 76.7176 14.8248 76.4838C14.8248 76.2904 14.7714 76.1516 14.6657 76.0662C14.5588 75.9807 14.3815 75.938 14.1337 75.938H14.0366V77.1394ZM12.9023 79.8852V75.0665H14.012C14.42 75.0665 14.7212 75.0847 14.9166 75.1199C15.1109 75.1552 15.2754 75.2149 15.4089 75.2983C15.5862 75.4061 15.7208 75.5674 15.8137 75.782C15.9066 75.9956 15.9525 76.2509 15.9525 76.5467C15.9525 77.0348 15.8244 77.4064 15.567 77.6595C15.3096 77.9127 14.9315 78.0398 14.4339 78.0398H14.0366V79.8852H12.9023ZM17.2491 78.0911H17.8974L17.5749 75.9892L17.2491 78.0911ZM15.8575 79.8852L16.9084 75.0665H18.2477L19.2858 79.8852H18.1601L18.0191 78.9625H17.1337L16.9928 79.8852H15.8575ZM20.8418 77.0722C20.861 77.0722 20.8856 77.0732 20.9155 77.0754C20.9454 77.0775 20.9678 77.0786 20.9828 77.0786C21.2156 77.0786 21.3811 77.0316 21.4783 76.9376C21.5755 76.8437 21.6236 76.6856 21.6236 76.4623C21.6236 76.2562 21.5755 76.1099 21.4783 76.0234C21.3811 75.9369 21.2156 75.8931 20.9828 75.8931C20.9678 75.8931 20.9454 75.8942 20.9155 75.8964C20.8856 75.8984 20.861 75.8995 20.8418 75.8995V77.0722ZM19.7268 79.8852V75.0665H20.9946C21.41 75.0665 21.7112 75.0857 21.898 75.1241C22.086 75.1626 22.2377 75.2289 22.3551 75.3228C22.4919 75.436 22.5944 75.5738 22.6627 75.7393C22.73 75.9038 22.7642 76.1003 22.7642 76.3267C22.7642 76.6044 22.7161 76.8373 22.6189 77.0252C22.5229 77.2121 22.3722 77.367 22.1683 77.4876C22.5164 77.6425 22.7001 78.0088 22.7193 78.5865V78.6016C22.7215 78.6624 22.7236 78.75 22.7257 78.8653C22.7342 79.4079 22.824 79.7475 22.9949 79.8852H21.677C21.6471 79.7849 21.6257 79.6802 21.6119 79.5702C21.599 79.4612 21.5915 79.3438 21.5915 79.2189C21.5915 79.1409 21.5936 79.0479 21.5979 78.9379C21.6023 78.828 21.6043 78.7575 21.6043 78.7233C21.6043 78.4296 21.5659 78.2278 21.489 78.1189C21.4121 78.0109 21.2733 77.9565 21.0736 77.9565H20.8418V79.8852H19.7268ZM23.4819 79.8852V75.0665H24.6545L25.5912 78.0387C25.5538 77.5389 25.526 77.1064 25.5079 76.7433C25.4897 76.3812 25.4811 76.0736 25.4811 75.8237V75.0665H26.4872V79.8852H25.3092L24.3662 76.8223C24.4079 77.2206 24.4399 77.6073 24.4613 77.9811C24.4837 78.3559 24.4944 78.719 24.4944 79.0714V79.8852H23.4819ZM28.3199 78.0911H28.9682L28.6457 75.9892L28.3199 78.0911ZM26.9283 79.8852L27.9792 75.0665H29.3184L30.3565 79.8852H29.2309L29.0899 78.9625H28.2046L28.0636 79.8852H26.9283ZM32.5149 79.8852V75.0665H35.1358V76.0021H33.6364V76.8863H35.0205V77.8539H33.6364V78.9049H35.1358V79.8852H32.5149ZM35.8343 79.8852V75.0665H37.0069L37.9435 78.0387C37.9062 77.5389 37.8784 77.1064 37.8603 76.7433C37.8421 76.3812 37.8335 76.0736 37.8335 75.8237V75.0665H38.8396V79.8852H37.6616L36.7186 76.8223C36.7602 77.2206 36.7923 77.6073 36.8136 77.9811C36.8361 78.3559 36.8467 78.719 36.8467 79.0714V79.8852H35.8343ZM40.2162 79.8852V76.0021H39.3127V75.0665H42.2924V76.0021H41.344V79.8852H40.2162ZM42.7526 79.8852V75.0665H45.3735V76.0021H43.8741V76.8863H45.2582V77.8539H43.8741V78.9049H45.3735V79.8852H42.7526ZM47.1869 77.0722C47.2062 77.0722 47.2307 77.0732 47.2606 77.0754C47.2905 77.0775 47.313 77.0786 47.3279 77.0786C47.5607 77.0786 47.7263 77.0316 47.8235 76.9376C47.9207 76.8437 47.9687 76.6856 47.9687 76.4623C47.9687 76.2562 47.9207 76.1099 47.8235 76.0234C47.7263 75.9369 47.5607 75.8931 47.3279 75.8931C47.313 75.8931 47.2905 75.8942 47.2606 75.8964C47.2307 75.8984 47.2062 75.8995 47.1869 75.8995V77.0722ZM46.072 79.8852V75.0665H47.3397C47.7552 75.0665 48.0563 75.0857 48.2432 75.1241C48.4311 75.1626 48.5828 75.2289 48.7003 75.3228C48.837 75.436 48.9395 75.5738 49.0078 75.7393C49.0752 75.9038 49.1093 76.1003 49.1093 76.3267C49.1093 76.6044 49.0613 76.8373 48.9641 77.0252C48.868 77.2121 48.7174 77.367 48.5134 77.4876C48.8616 77.6425 49.0452 78.0088 49.0645 78.5865V78.6016C49.0667 78.6624 49.0688 78.75 49.0709 78.8653C49.0794 79.4079 49.1691 79.7475 49.34 79.8852H48.0221C47.9922 79.7849 47.9709 79.6802 47.957 79.5702C47.9442 79.4612 47.9367 79.3438 47.9367 79.2189C47.9367 79.1409 47.9388 79.0479 47.9431 78.9379C47.9474 78.828 47.9495 78.7575 47.9495 78.7233C47.9495 78.4296 47.911 78.2278 47.8342 78.1189C47.7572 78.0109 47.6185 77.9565 47.4187 77.9565H47.1869V79.8852H46.072ZM50.9613 77.1394C50.9784 77.1416 50.9976 77.1438 51.0189 77.1459C51.0414 77.148 51.0712 77.1491 51.1118 77.1491C51.3361 77.1491 51.4996 77.0968 51.5989 76.991C51.6993 76.8863 51.7495 76.7176 51.7495 76.4838C51.7495 76.2904 51.6961 76.1516 51.5903 76.0662C51.4835 75.9807 51.3062 75.938 51.0584 75.938H50.9613V77.1394ZM49.827 79.8852V75.0665H50.9367C51.3447 75.0665 51.6459 75.0847 51.8412 75.1199C52.0356 75.1552 52.2001 75.2149 52.3336 75.2983C52.5109 75.4061 52.6455 75.5674 52.7384 75.782C52.8313 75.9956 52.8772 76.2509 52.8772 76.5467C52.8772 77.0348 52.7491 77.4064 52.4917 77.6595C52.2343 77.9127 51.8562 78.0398 51.3586 78.0398H50.9613V79.8852H49.827ZM54.5935 77.0722C54.6127 77.0722 54.6373 77.0732 54.6672 77.0754C54.6971 77.0775 54.7195 77.0786 54.7345 77.0786C54.9673 77.0786 55.1328 77.0316 55.23 76.9376C55.3272 76.8437 55.3753 76.6856 55.3753 76.4623C55.3753 76.2562 55.3272 76.1099 55.23 76.0234C55.1328 75.9369 54.9673 75.8931 54.7345 75.8931C54.7195 75.8931 54.6971 75.8942 54.6672 75.8964C54.6373 75.8984 54.6127 75.8995 54.5935 75.8995V77.0722ZM53.4785 79.8852V75.0665H54.7462C55.1616 75.0665 55.4628 75.0857 55.6497 75.1241C55.8377 75.1626 55.9894 75.2289 56.1068 75.3228C56.2435 75.436 56.3461 75.5738 56.4144 75.7393C56.4817 75.9038 56.5159 76.1003 56.5159 76.3267C56.5159 76.6044 56.4678 76.8373 56.3706 77.0252C56.2745 77.2121 56.1239 77.367 55.9199 77.4876C56.2681 77.6425 56.4518 78.0088 56.471 78.5865V78.6016C56.4732 78.6624 56.4753 78.75 56.4774 78.8653C56.4859 79.4079 56.5757 79.7475 56.7465 79.8852H55.4287C55.3987 79.7849 55.3773 79.6802 55.3635 79.5702C55.3507 79.4612 55.3432 79.3438 55.3432 79.2189C55.3432 79.1409 55.3453 79.0479 55.3496 78.9379C55.3539 78.828 55.356 78.7575 55.356 78.7233C55.356 78.4296 55.3176 78.2278 55.2407 78.1189C55.1638 78.0109 55.025 77.9565 54.8252 77.9565H54.5935V79.8852H53.4785ZM57.2336 79.8852V75.0665H58.3613V79.8852H57.2336ZM58.9946 78.2512H60.0263V78.3922C60.0263 78.6582 60.0573 78.845 60.1203 78.9529C60.1822 79.0618 60.288 79.1163 60.4365 79.1163C60.555 79.1163 60.649 79.0747 60.7174 78.9925C60.7867 78.9102 60.8209 78.798 60.8209 78.656C60.8209 78.4221 60.6532 78.1968 60.319 77.9821C60.2645 77.9447 60.2228 77.9158 60.194 77.8977L60.1406 77.8636C59.6878 77.5581 59.407 77.3296 59.2959 77.1747C59.2168 77.0583 59.157 76.9269 59.1154 76.7806C59.0737 76.6354 59.0524 76.4752 59.0524 76.3022C59.0524 75.8814 59.1741 75.5503 59.4187 75.3111C59.6621 75.0708 59.9986 74.9512 60.4258 74.9512C60.8914 74.9512 61.246 75.0686 61.4916 75.3047C61.7362 75.5396 61.859 75.8803 61.859 76.3267C61.859 76.3449 61.858 76.3715 61.8558 76.4047C61.8537 76.4378 61.8526 76.4635 61.8526 76.4827H60.8401V76.4229C60.8401 76.2136 60.8071 76.0544 60.7419 75.9465C60.6757 75.8386 60.5806 75.7842 60.4557 75.7842C60.3499 75.7842 60.2645 75.8227 60.2004 75.8984C60.1352 75.9743 60.1033 76.0747 60.1033 76.1996C60.1033 76.4036 60.2858 76.6204 60.6522 76.849C60.7195 76.8928 60.7697 76.9259 60.8049 76.9494C60.8348 76.9654 60.8754 76.992 60.9277 77.0273C61.3218 77.2772 61.5738 77.4887 61.6849 77.6595C61.7533 77.7696 61.8067 77.8956 61.843 78.0366C61.8793 78.1775 61.8975 78.3302 61.8975 78.4947C61.8975 78.9775 61.7725 79.348 61.5216 79.6097C61.2717 79.8703 60.9139 80.0006 60.4493 80.0006C59.9612 80.0006 59.5949 79.8757 59.3492 79.6268C59.1047 79.3769 58.9818 79.0063 58.9818 78.514C58.9818 78.483 58.9829 78.4499 58.984 78.4157C58.985 78.3815 58.9882 78.326 58.9946 78.2512ZM62.5051 79.8852V75.0665H65.126V76.0021H63.6265V76.8863H65.0107V77.8539H63.6265V78.9049H65.126V79.8852H62.5051ZM65.6771 78.2512H66.7088V78.3922C66.7088 78.6582 66.7397 78.845 66.8028 78.9529C66.8647 79.0618 66.9705 79.1163 67.1189 79.1163C67.2374 79.1163 67.3314 79.0747 67.3998 78.9925C67.4691 78.9102 67.5033 78.798 67.5033 78.656C67.5033 78.4221 67.3357 78.1968 67.0014 77.9821C66.947 77.9447 66.9052 77.9158 66.8765 77.8977L66.8231 77.8636C66.3702 77.5581 66.0894 77.3296 65.9782 77.1747C65.8992 77.0583 65.8394 76.9269 65.7978 76.7806C65.7561 76.6354 65.7348 76.4752 65.7348 76.3022C65.7348 75.8814 65.8565 75.5503 66.1011 75.3111C66.3446 75.0708 66.681 74.9512 67.1082 74.9512C67.5739 74.9512 67.9284 75.0686 68.174 75.3047C68.4186 75.5396 68.5414 75.8803 68.5414 76.3267C68.5414 76.3449 68.5404 76.3715 68.5382 76.4047C68.5361 76.4378 68.535 76.4635 68.535 76.4827H67.5225V76.4229C67.5225 76.2136 67.4895 76.0544 67.4243 75.9465C67.3581 75.8386 67.263 75.7842 67.1381 75.7842C67.0324 75.7842 66.947 75.8227 66.8828 75.8984C66.8177 75.9743 66.7857 76.0747 66.7857 76.1996C66.7857 76.4036 66.9683 76.6204 67.3346 76.849C67.4019 76.8928 67.4521 76.9259 67.4873 76.9494C67.5172 76.9654 67.5578 76.992 67.6101 77.0273C68.0042 77.2772 68.2563 77.4887 68.3674 77.6595C68.4357 77.7696 68.4891 77.8956 68.5254 78.0366C68.5618 78.1775 68.5799 78.3302 68.5799 78.4947C68.5799 78.9775 68.4549 79.348 68.204 79.6097C67.9541 79.8703 67.5963 80.0006 67.1317 80.0006C66.6436 80.0006 66.2773 79.8757 66.0316 79.6268C65.7871 79.3769 65.6642 79.0063 65.6642 78.514C65.6642 78.483 65.6654 78.4499 65.6664 78.4157C65.6674 78.3815 65.6707 78.326 65.6771 78.2512ZM70.9049 79.8852V75.0665H72.0327V79.8852H70.9049ZM72.8134 79.8852V75.0665H73.986L74.9227 78.0387C74.8853 77.5389 74.8575 77.1064 74.8394 76.7433C74.8212 76.3812 74.8126 76.0736 74.8126 75.8237V75.0665H75.8187V79.8852H74.6407L73.6977 76.8223C73.7393 77.2206 73.7714 77.6073 73.7927 77.9811C73.8152 78.3559 73.8259 78.719 73.8259 79.0714V79.8852H72.8134ZM76.6058 79.8852V75.0665H77.7336V79.8852H76.6058ZM79.1038 79.8852V76.0021H78.2003V75.0665H81.18V76.0021H80.2316V79.8852H79.1038ZM81.6403 79.8852V75.0665H82.768V79.8852H81.6403ZM84.5943 78.0911H85.2426L84.9201 75.9892L84.5943 78.0911ZM83.2028 79.8852L84.2536 75.0665H85.5929L86.631 79.8852H85.5053L85.3644 78.9625H84.479L84.338 79.8852H83.2028ZM87.4331 79.8852V76.0021H86.5295V75.0665H89.5093V76.0021H88.5608V79.8852H87.4331ZM89.9695 79.8852V75.0665H91.0972V79.8852H89.9695ZM92.6149 79.8852L91.5384 75.0665H92.7302L93.1467 77.5976C93.165 77.7109 93.1863 77.8593 93.2108 78.0441C93.2343 78.2288 93.2578 78.4285 93.2813 78.6432L93.2909 78.5833C93.3465 78.0803 93.386 77.7547 93.4095 77.604L93.8345 75.0665H95.0243L93.9285 79.8852H92.6149ZM95.4664 79.8852V75.0665H98.0873V76.0021H96.5878V76.8863H97.9719V77.8539H96.5878V78.9049H98.0873V79.8852H95.4664Z" fill="#0073CF"/>
<path fill-rule="evenodd" clip-rule="evenodd" d="M0.0917969 57.1035H3.95477V62.8023C3.95477 63.6902 4.11086 64.3521 4.42523 64.786C4.74084 65.225 5.21936 65.4416 5.86469 65.4416C6.59399 65.4416 7.14486 65.1432 7.52252 64.5504C7.89834 63.9579 8.08483 63.0905 8.08483 61.9425V57.1035H11.9597V68.4037H8.43872V66.2895C7.99582 67.0408 7.42664 67.6137 6.72874 68.0058C6.03215 68.3998 5.23755 68.5969 4.35222 68.5969C2.96402 68.5969 1.90678 68.1731 1.17997 67.326C0.45375 66.4789 0.0917969 65.2416 0.0917969 63.6164V57.1035Z" fill="#4D4D4D"/>
<path fill-rule="evenodd" clip-rule="evenodd" d="M26.7469 61.7945V68.4027H22.9056V62.5958C22.9056 61.7119 22.7488 61.0507 22.4335 60.619C22.1191 60.1841 21.6415 59.9697 20.996 59.9697C20.3239 59.9697 19.7846 60.2405 19.3811 60.7846C18.9772 61.3283 18.7739 62.0584 18.7739 62.9717V68.4027H14.9023V57.103H18.42V59.1315C18.8654 58.3734 19.4375 57.7954 20.1372 57.3992C20.8389 57.0034 21.63 56.8047 22.5081 56.8047C23.8883 56.8047 24.9409 57.2263 25.6638 58.075C26.3847 58.9226 26.7469 60.1614 26.7469 61.7945Z" fill="#4D4D4D"/>
<path fill-rule="evenodd" clip-rule="evenodd" d="M29.5117 68.4036H33.3866V57.1035H29.5117V68.4036Z" fill="#4D4D4D"/>
<path fill-rule="evenodd" clip-rule="evenodd" d="M44.5894 57.3945L44.2143 60.1185C43.6982 59.8256 43.1787 59.6031 42.6525 59.4497C42.1261 59.2955 41.6251 59.2175 41.1455 59.2175C40.6729 59.2175 40.3076 59.3027 40.0513 59.4696C39.7945 59.6383 39.6657 59.8769 39.6657 60.1833C39.6661 60.5833 40.1908 60.9286 41.2408 61.2163C41.5705 61.3062 41.8324 61.3813 42.024 61.4388C43.2266 61.7961 44.0652 62.2331 44.5419 62.7482C45.0152 63.2636 45.2547 63.9704 45.2547 64.8616C45.2547 66.0554 44.7902 66.9973 43.8605 67.6818C42.9304 68.3708 41.6497 68.7115 40.0183 68.7115C39.3249 68.7115 38.6406 68.6599 37.9647 68.5534C37.2867 68.4449 36.6247 68.2848 35.9747 68.0704L36.2208 65.1744C36.7638 65.4528 37.3295 65.6643 37.9134 65.8134C38.5016 65.9591 39.0953 66.0304 39.6966 66.0304C40.2615 66.0304 40.687 65.9558 40.9751 65.7998C41.259 65.6477 41.4019 65.4172 41.4019 65.11C41.4019 64.6505 40.8238 64.2493 39.6657 63.9068C39.3775 63.8214 39.1529 63.7531 38.9885 63.701C37.8074 63.3179 36.9871 62.8856 36.5226 62.4115C36.0574 61.9351 35.8242 61.31 35.8242 60.5379C35.8242 59.3573 36.2888 58.4395 37.218 57.786C38.1486 57.1317 39.4555 56.8047 41.1455 56.8047C41.6938 56.8047 42.2608 56.8524 42.8388 56.9537C43.4186 57.0555 44.0025 57.2008 44.5894 57.3945Z" fill="#4D4D4D"/>
<path fill-rule="evenodd" clip-rule="evenodd" d="M53.6203 59.7002C52.8685 59.7002 52.2794 59.9718 51.8498 60.5168C51.421 61.0605 51.2057 61.8059 51.2057 62.7602C51.2061 63.681 51.4176 64.4104 51.8392 64.9528C52.2617 65.4931 52.8342 65.761 53.5571 65.761C54.2852 65.7605 54.8682 65.4842 55.2975 64.9257C55.7328 64.3683 55.9476 63.6078 55.9476 62.6407C55.9476 61.7533 55.7361 61.0423 55.3095 60.505C54.8852 59.9698 54.3215 59.7002 53.6203 59.7002ZM51.2061 66.8241V72.9962H47.332V57.1026H50.8095V59.26C51.254 58.468 51.8227 57.8586 52.5214 57.4365C53.2164 57.0165 54.0033 56.8047 54.8771 56.8047C56.4001 56.8047 57.6261 57.3399 58.5542 58.4129C59.4859 59.4854 59.95 60.9131 59.95 62.6937C59.95 64.4769 59.4801 65.9258 58.5388 67.0394C57.5994 68.1539 56.3917 68.7117 54.9165 68.7117C54.1313 68.7117 53.4284 68.5565 52.8109 68.2395C52.1904 67.9272 51.6574 67.4534 51.2061 66.8241Z" fill="#4D4D4D"/>
<path fill-rule="evenodd" clip-rule="evenodd" d="M68.5878 63.2647C67.4504 63.2647 66.6313 63.388 66.1325 63.6338C65.6304 63.88 65.3791 64.2762 65.3791 64.8195C65.3791 65.2145 65.5125 65.5314 65.7816 65.7751C66.0512 66.0175 66.4067 66.1395 66.8482 66.1395C67.5521 66.1395 68.1242 65.9022 68.5725 65.4292C69.0188 64.9585 69.2421 64.3428 69.2421 63.5863V63.2647H68.5878ZM72.8893 62.4917V68.4032H69.5319L69.4455 66.6446C68.9895 67.2968 68.4369 67.7727 67.7895 68.0764C67.1411 68.3799 66.3608 68.5321 65.4456 68.5321C64.2988 68.5321 63.3887 68.2088 62.7059 67.5565C62.0283 66.9053 61.6885 66.0366 61.6885 64.9483C61.6885 63.6961 62.183 62.7697 63.1688 62.1633C64.1568 61.5595 65.6748 61.2586 67.7305 61.2586H69.2421V61.1069C69.2421 60.4928 69.0064 60.0195 68.534 59.6911C68.0633 59.3631 67.3762 59.1983 66.4732 59.1983C66.0296 59.1983 65.524 59.2762 64.9625 59.4338C64.3964 59.5894 63.7874 59.819 63.1369 60.1191L63.0729 57.5662C63.7022 57.3024 64.3832 57.1036 65.118 56.9782C65.8507 56.8476 66.6563 56.7832 67.5351 56.7832C69.3798 56.7832 70.7346 57.2448 71.599 58.1609C72.4588 59.0813 72.8893 60.5246 72.8893 62.4917Z" fill="#4D4D4D"/>
<path fill-rule="evenodd" clip-rule="evenodd" d="M84.6503 57.3945L84.3825 60.2269C84.0037 60.0184 83.6295 59.8663 83.257 59.7659C82.8849 59.6663 82.5142 59.6137 82.1408 59.6137C81.1826 59.6137 80.4195 59.8963 79.855 60.4613C79.2898 61.0266 79.0083 61.7944 79.0083 62.7602C79.0083 63.701 79.3089 64.4565 79.9101 65.0235C80.5105 65.5883 81.3123 65.871 82.3239 65.871C82.7459 65.871 83.1498 65.8163 83.5417 65.7083C83.9299 65.6015 84.308 65.4392 84.672 65.215L84.7601 68.1877C84.2647 68.3598 83.7202 68.4903 83.1235 68.5789C82.5243 68.6682 81.8751 68.7115 81.1758 68.7115C79.3419 68.7115 77.8566 68.1665 76.7167 67.0719C75.5767 65.976 75.0059 64.5481 75.0059 62.7804C75.0059 60.9286 75.5813 59.4683 76.7327 58.4043C77.8846 57.3381 79.4698 56.8047 81.4857 56.8047C81.9713 56.8047 82.4782 56.8525 83.0058 56.9483C83.5303 57.0474 84.0795 57.1944 84.6503 57.3945Z" fill="#4D4D4D"/>
<path fill-rule="evenodd" clip-rule="evenodd" d="M94.6736 61.6097C94.5944 60.8546 94.3524 60.258 93.9439 59.8248C93.535 59.3915 93.0188 59.1752 92.3883 59.1752C91.7667 59.1752 91.2548 59.3915 90.8534 59.8248C90.4525 60.258 90.2097 60.8546 90.1237 61.6097H94.6736ZM98.0955 62.9522V63.8963H90.1666C90.2441 64.6337 90.5649 65.202 91.1233 65.6033C91.6789 66.0029 92.4319 66.2034 93.3758 66.2034C93.9414 66.2034 94.5377 66.1254 95.1687 65.9677C95.7954 65.8101 96.4441 65.5745 97.109 65.2596V68.0277C96.4802 68.2586 95.8255 68.4293 95.1415 68.5429C94.455 68.6544 93.7439 68.712 93.0006 68.712C90.9391 68.712 89.3309 68.1687 88.171 67.0844C87.0129 65.9965 86.4336 64.4854 86.4336 62.5574C86.4336 60.7953 86.9679 59.3968 88.0372 58.3602C89.1075 57.323 90.5508 56.8047 92.3689 56.8047C94.1974 56.8047 95.6098 57.3382 96.6036 58.4044C97.5993 59.4685 98.0955 60.9848 98.0955 62.9522Z" fill="#4D4D4D"/>
<path fill-rule="evenodd" clip-rule="evenodd" d="M31.7631 52.4677C17.2755 52.4677 5.5293 40.7228 5.5293 26.2331C5.52965 11.7429 17.2755 0 31.7631 0V52.4677Z" fill="white"/>
<path fill-rule="evenodd" clip-rule="evenodd" d="M18.917 47.1392C11.8271 40.0506 11.8271 28.5543 18.917 21.4669C26.005 14.3782 37.4982 14.3782 44.5898 21.4669C51.6777 28.5543 51.6777 40.0506 44.5898 47.1392C37.4982 54.228 26.005 54.228 18.917 47.1392Z" fill="#B3EAF7"/>
<path fill-rule="evenodd" clip-rule="evenodd" d="M17.7967 42.9595C12.6837 37.8455 12.6837 29.5538 17.7967 24.4445C22.9112 19.3288 31.2021 19.3288 36.3152 24.4424C41.4304 29.5559 41.4278 37.8455 36.3152 42.9595C31.2021 48.0735 22.9112 48.0735 17.7967 42.9595Z" fill="#FEFEFE"/>
<path fill-rule="evenodd" clip-rule="evenodd" d="M16.8699 39.6946C13.4236 36.2459 13.4236 30.6535 16.8699 27.2049C20.3199 23.7572 25.9109 23.7572 29.3556 27.2049C32.806 30.6548 32.806 36.2459 29.3556 39.6946C25.9093 43.1418 20.3199 43.1418 16.8699 39.6946Z" fill="#66D3E1"/>
</svg>
