<svg width="42" height="48" viewBox="0 0 42 48" fill="none" xmlns="http://www.w3.org/2000/svg">
<path fill-rule="evenodd" clip-rule="evenodd" d="M24.7011 48C11.4472 48 0.701172 37.2552 0.701172 23.9993C0.701497 10.743 11.4472 0 24.7011 0V48Z" fill="#66D3E1"/>
<path fill-rule="evenodd" clip-rule="evenodd" d="M12.9486 43.1255C6.46245 36.6404 6.46245 26.1231 12.9486 19.6392C19.433 13.1541 29.9476 13.1541 36.4353 19.6392C42.9196 26.1231 42.9196 36.6404 36.4353 43.1255C29.9476 49.6106 19.433 49.6106 12.9486 43.1255Z" fill="#B3EAF7"/>
<path fill-rule="evenodd" clip-rule="evenodd" d="M11.9233 39.3003C7.24562 34.6218 7.24562 27.0361 11.9233 22.3619C16.6022 17.6818 24.1872 17.6818 28.8649 22.36C33.5446 27.0381 33.5422 34.6218 28.8649 39.3003C24.1872 43.9789 16.6022 43.9789 11.9233 39.3003Z" fill="#FEFEFE"/>
<path fill-rule="evenodd" clip-rule="evenodd" d="M11.0756 36.3132C7.92271 33.1582 7.92271 28.042 11.0756 24.8871C14.2318 21.733 19.3467 21.733 22.4981 24.8871C25.6547 28.0432 25.6547 33.1582 22.4981 36.3132C19.3452 39.4669 14.2318 39.4669 11.0756 36.3132Z" fill="#66D3E1"/>
</svg>
