<svg width="67" height="54" viewBox="0 0 67 54" fill="none" xmlns="http://www.w3.org/2000/svg">
<path d="M0.93931 52.7112H1.37687L1.15919 51.2925L0.93931 52.7112ZM0 53.9223L0.709312 50.6697H1.6133L2.31405 53.9223H1.55422L1.45906 53.2994H0.861432L0.766273 53.9223H0ZM2.61173 53.9223V50.6697H3.40328L4.03552 52.6759C4.01028 52.3385 3.99156 52.0465 3.97928 51.8015C3.967 51.5571 3.96124 51.3494 3.96124 51.1808V50.6697H4.64031V53.9223H3.8452L3.20864 51.8548C3.23676 52.1237 3.2584 52.3847 3.27284 52.637C3.28796 52.89 3.29516 53.1351 3.29516 53.373V53.9223H2.61173ZM7.0366 52.7112H7.47416L7.25644 51.2925L7.0366 52.7112ZM6.09725 53.9223L6.8066 50.6697H7.71059L8.41131 53.9223H7.65148L7.55632 53.2994H6.95868L6.86352 53.9223H6.09725ZM9.47461 52.0689C9.48617 52.0703 9.49913 52.0718 9.51353 52.0732C9.52869 52.0747 9.54885 52.0754 9.57625 52.0754C9.72765 52.0754 9.83797 52.0401 9.90501 51.9687C9.97277 51.898 10.0066 51.7841 10.0066 51.6263C10.0066 51.4958 9.97061 51.4021 9.89925 51.3444C9.82713 51.2867 9.70745 51.2579 9.54021 51.2579H9.47461V52.0689ZM8.70902 53.9223V50.6697H9.45801C9.73341 50.6697 9.93673 50.6819 10.0686 50.7057C10.1998 50.7295 10.3108 50.7698 10.4009 50.8261C10.5206 50.8989 10.6115 51.0077 10.6742 51.1526C10.7369 51.2968 10.7679 51.4691 10.7679 51.6688C10.7679 51.9983 10.6814 52.2491 10.5076 52.4199C10.3339 52.5908 10.0787 52.6766 9.74281 52.6766H9.47461V53.9223H8.70902ZM11.6431 52.7112H12.0807L11.8629 51.2925L11.6431 52.7112ZM10.7038 53.9223L11.4131 50.6697H12.3171L13.0178 53.9223H12.258L12.1628 53.2994H11.5652L11.47 53.9223H10.7038ZM14.0681 52.0235C14.0811 52.0235 14.0977 52.0242 14.1179 52.0257C14.138 52.0271 14.1532 52.0278 14.1633 52.0278C14.3204 52.0278 14.4322 51.9961 14.4978 51.9327C14.5634 51.8692 14.5958 51.7625 14.5958 51.6118C14.5958 51.4727 14.5634 51.3739 14.4978 51.3155C14.4322 51.2572 14.3204 51.2276 14.1633 51.2276C14.1532 51.2276 14.138 51.2283 14.1179 51.2298C14.0977 51.2312 14.0811 51.2319 14.0681 51.2319V52.0235ZM13.3155 53.9223V50.6697H14.1712C14.4516 50.6697 14.655 50.6826 14.7811 50.7086C14.908 50.7345 15.0104 50.7792 15.0896 50.8427C15.1819 50.9191 15.2511 51.0121 15.2972 51.1238C15.3427 51.2348 15.3657 51.3675 15.3657 51.5203C15.3657 51.7077 15.3333 51.8649 15.2677 51.9918C15.2028 52.1179 15.1012 52.2225 14.9635 52.3039C15.1985 52.4085 15.3225 52.6557 15.3354 53.0456V53.0558C15.3369 53.0968 15.3383 53.156 15.3397 53.2338C15.3455 53.6 15.4061 53.8293 15.5214 53.9223H14.6319C14.6117 53.8545 14.5972 53.7838 14.5879 53.7096C14.5792 53.6361 14.5742 53.5568 14.5742 53.4725C14.5742 53.4198 14.5756 53.3571 14.5785 53.2828C14.5814 53.2086 14.5828 53.161 14.5828 53.138C14.5828 52.9397 14.5569 52.8035 14.505 52.73C14.4531 52.6571 14.3594 52.6204 14.2246 52.6204H14.0681V53.9223H13.3155ZM15.8502 53.9223V50.6697H16.6417L17.2739 52.6759C17.2487 52.3385 17.23 52.0465 17.2177 51.8015C17.2054 51.5571 17.1996 51.3494 17.1996 51.1808V50.6697H17.8788V53.9223H17.0836L16.4471 51.8548C16.4752 52.1237 16.4968 52.3847 16.5113 52.637C16.5264 52.89 16.5336 53.1351 16.5336 53.373V53.9223H15.8502ZM19.1158 52.7112H19.5534L19.3357 51.2925L19.1158 52.7112ZM18.1765 53.9223L18.8858 50.6697H19.7898L20.4905 53.9223H19.7307L19.6356 53.2994H19.0379L18.9428 53.9223H18.1765ZM21.9474 53.9223V50.6697H23.7165V51.3011H22.7044V51.898H23.6387V52.5511H22.7044V53.2605H23.7165V53.9223H21.9474ZM24.188 53.9223V50.6697H24.9795L25.6117 52.6759C25.5865 52.3385 25.5678 52.0465 25.5555 51.8015C25.5432 51.5571 25.5375 51.3494 25.5375 51.1808V50.6697H26.2165V53.9223H25.4214L24.7849 51.8548C24.813 52.1237 24.8346 52.3847 24.849 52.637C24.8642 52.89 24.8714 53.1351 24.8714 53.373V53.9223H24.188ZM27.1458 53.9223V51.3011H26.5359V50.6697H28.5472V51.3011H27.907V53.9223H27.1458ZM28.8578 53.9223V50.6697H30.6269V51.3011H29.6148V51.898H30.5491V52.5511H29.6148V53.2605H30.6269V53.9223H28.8578ZM31.851 52.0235C31.864 52.0235 31.8805 52.0242 31.9007 52.0257C31.9209 52.0271 31.936 52.0278 31.9461 52.0278C32.1033 52.0278 32.215 51.9961 32.2806 51.9327C32.3462 51.8692 32.3787 51.7625 32.3787 51.6118C32.3787 51.4727 32.3462 51.3739 32.2806 51.3155C32.215 51.2572 32.1033 51.2276 31.9461 51.2276C31.936 51.2276 31.9209 51.2283 31.9007 51.2298C31.8805 51.2312 31.864 51.2319 31.851 51.2319V52.0235ZM31.0984 53.9223V50.6697H31.9541C32.2345 50.6697 32.4378 50.6826 32.5639 50.7086C32.6908 50.7345 32.7932 50.7792 32.8725 50.8427C32.9647 50.9191 33.034 51.0121 33.0801 51.1238C33.1255 51.2348 33.1486 51.3675 33.1486 51.5203C33.1486 51.7077 33.1161 51.8649 33.0505 51.9918C32.9857 52.1179 32.884 52.2225 32.7463 52.3039C32.9813 52.4085 33.1053 52.6557 33.1183 53.0456V53.0558C33.1198 53.0968 33.1212 53.156 33.1226 53.2338C33.1284 53.6 33.1889 53.8293 33.3043 53.9223H32.4147C32.3945 53.8545 32.3801 53.7838 32.3708 53.7096C32.3621 53.6361 32.357 53.5568 32.357 53.4725C32.357 53.4198 32.3585 53.3571 32.3614 53.2828C32.3643 53.2086 32.3657 53.161 32.3657 53.138C32.3657 52.9397 32.3397 52.8035 32.2878 52.73C32.2359 52.6571 32.1422 52.6204 32.0074 52.6204H31.851V53.9223H31.0984ZM34.3986 52.0689C34.4102 52.0703 34.4231 52.0718 34.4375 52.0732C34.4527 52.0747 34.4729 52.0754 34.5003 52.0754C34.6516 52.0754 34.762 52.0401 34.829 51.9687C34.8968 51.898 34.9306 51.7841 34.9306 51.6263C34.9306 51.4958 34.8946 51.4021 34.8232 51.3444C34.7511 51.2867 34.6315 51.2579 34.4642 51.2579H34.3986V52.0689ZM33.633 53.9223V50.6697H34.382C34.6574 50.6697 34.8607 50.6819 34.9926 50.7057C35.1238 50.7295 35.2348 50.7698 35.3249 50.8261C35.4446 50.8989 35.5354 51.0077 35.5982 51.1526C35.6609 51.2968 35.6919 51.4691 35.6919 51.6688C35.6919 51.9983 35.6054 52.2491 35.4316 52.4199C35.2579 52.5908 35.0027 52.6766 34.6668 52.6766H34.3986V53.9223H33.633ZM36.8503 52.0235C36.8633 52.0235 36.8799 52.0242 36.9001 52.0257C36.9203 52.0271 36.9354 52.0278 36.9455 52.0278C37.1027 52.0278 37.2144 51.9961 37.28 51.9327C37.3456 51.8692 37.3781 51.7625 37.3781 51.6118C37.3781 51.4727 37.3456 51.3739 37.28 51.3155C37.2144 51.2572 37.1027 51.2276 36.9455 51.2276C36.9354 51.2276 36.9203 51.2283 36.9001 51.2298C36.8799 51.2312 36.8633 51.2319 36.8503 51.2319V52.0235ZM36.0978 53.9223V50.6697H36.9535C37.2339 50.6697 37.4371 50.6826 37.5633 50.7086C37.6902 50.7345 37.7926 50.7792 37.8718 50.8427C37.9641 50.9191 38.0333 51.0121 38.0795 51.1238C38.1249 51.2348 38.148 51.3675 38.148 51.5203C38.148 51.7077 38.1155 51.8649 38.0499 51.9918C37.985 52.1179 37.8834 52.2225 37.7457 52.3039C37.9807 52.4085 38.1047 52.6557 38.1177 53.0456V53.0558C38.1191 53.0968 38.1206 53.156 38.122 53.2338C38.1277 53.6 38.1883 53.8293 38.3036 53.9223H37.4141C37.3939 53.8545 37.3795 53.7838 37.3701 53.7096C37.3615 53.6361 37.3564 53.5568 37.3564 53.4725C37.3564 53.4198 37.3578 53.3571 37.3607 53.2828C37.3636 53.2086 37.3651 53.161 37.3651 53.138C37.3651 52.9397 37.3391 52.8035 37.2872 52.73C37.2353 52.6571 37.1416 52.6204 37.0068 52.6204H36.8503V53.9223H36.0978ZM38.6324 53.9223V50.6697H39.3936V53.9223H38.6324ZM39.8211 52.8193H40.5175V52.9145C40.5175 53.094 40.5384 53.2201 40.5809 53.293C40.6227 53.3665 40.6941 53.4032 40.7943 53.4032C40.8743 53.4032 40.9378 53.3752 40.9839 53.3196C41.0308 53.2641 41.0538 53.1884 41.0538 53.0925C41.0538 52.9347 40.9407 52.7826 40.7151 52.6376C40.6783 52.6124 40.6501 52.5929 40.6307 52.5807L40.5947 52.5576C40.289 52.3515 40.0994 52.1972 40.0244 52.0927C39.9711 52.0141 39.9307 51.9254 39.9026 51.8267C39.8745 51.7286 39.8601 51.6205 39.8601 51.5037C39.8601 51.2197 39.9422 50.9962 40.1073 50.8348C40.2717 50.6725 40.4988 50.5918 40.7871 50.5918C41.1014 50.5918 41.3408 50.6711 41.5065 50.8304C41.6716 50.989 41.7545 51.2189 41.7545 51.5203C41.7545 51.5325 41.7539 51.5505 41.7524 51.5729C41.751 51.5953 41.7502 51.6126 41.7502 51.6255H41.0668V51.5852C41.0668 51.4439 41.0445 51.3365 41.0005 51.2637C40.9558 51.1908 40.8917 51.1541 40.8073 51.1541C40.7359 51.1541 40.6783 51.1801 40.635 51.2312C40.591 51.2824 40.5694 51.3501 40.5694 51.4345C40.5694 51.5722 40.6927 51.7185 40.9399 51.8728C40.9854 51.9024 41.0193 51.9247 41.0431 51.9406C41.0632 51.9514 41.0906 51.9694 41.1259 51.9932C41.392 52.1619 41.5621 52.3046 41.6371 52.4199C41.6832 52.4942 41.7193 52.5793 41.7437 52.6745C41.7683 52.7696 41.7805 52.8727 41.7805 52.9837C41.7805 53.3095 41.6962 53.5596 41.5268 53.7363C41.3581 53.9122 41.1166 54.0001 40.803 54.0001C40.4735 54.0001 40.2263 53.9158 40.0605 53.7478C39.8954 53.5791 39.8125 53.329 39.8125 52.9967C39.8125 52.9758 39.8132 52.9534 39.8139 52.9303C39.8146 52.9073 39.8168 52.8698 39.8211 52.8193ZM42.1907 53.9223V50.6697H43.9597V51.3011H42.9476V51.898H43.8819V52.5511H42.9476V53.2605H43.9597V53.9223H42.1907ZM44.3317 52.8193H45.0281V52.9145C45.0281 53.094 45.049 53.2201 45.0916 53.293C45.1334 53.3665 45.2048 53.4032 45.3049 53.4032C45.3849 53.4032 45.4484 53.3752 45.4946 53.3196C45.5414 53.2641 45.5644 53.1884 45.5644 53.0925C45.5644 52.9347 45.4513 52.7826 45.2257 52.6376C45.1889 52.6124 45.1607 52.5929 45.1413 52.5807L45.1053 52.5576C44.7996 52.3515 44.61 52.1972 44.535 52.0927C44.4817 52.0141 44.4413 51.9254 44.4132 51.8267C44.3851 51.7286 44.3707 51.6205 44.3707 51.5037C44.3707 51.2197 44.4529 50.9962 44.6179 50.8348C44.7823 50.6725 45.0094 50.5918 45.2977 50.5918C45.612 50.5918 45.8514 50.6711 46.0172 50.8304C46.1822 50.989 46.2652 51.2189 46.2652 51.5203C46.2652 51.5325 46.2644 51.5505 46.263 51.5729C46.2616 51.5953 46.2608 51.6126 46.2608 51.6255H45.5774V51.5852C45.5774 51.4439 45.5551 51.3365 45.5111 51.2637C45.4664 51.1908 45.4022 51.1541 45.3179 51.1541C45.2466 51.1541 45.1889 51.1801 45.1456 51.2312C45.1017 51.2824 45.0801 51.3501 45.0801 51.4345C45.0801 51.5722 45.2033 51.7185 45.4505 51.8728C45.496 51.9024 45.5299 51.9247 45.5537 51.9406C45.5738 51.9514 45.6012 51.9694 45.6365 51.9932C45.9026 52.1619 46.0727 52.3046 46.1477 52.4199C46.1938 52.4942 46.2298 52.5793 46.2543 52.6745C46.2789 52.7696 46.2911 52.8727 46.2911 52.9837C46.2911 53.3095 46.2068 53.5596 46.0374 53.7363C45.8687 53.9122 45.6272 54.0001 45.3136 54.0001C44.9841 54.0001 44.7369 53.9158 44.5711 53.7478C44.406 53.5791 44.3231 53.329 44.3231 52.9967C44.3231 52.9758 44.3238 52.9534 44.3245 52.9303C44.3252 52.9073 44.3274 52.8698 44.3317 52.8193ZM47.8605 53.9223V50.6697H48.6217V53.9223H47.8605ZM49.1487 53.9223V50.6697H49.9402L50.5725 52.6759C50.5472 52.3385 50.5285 52.0465 50.5162 51.8015C50.5039 51.5571 50.4982 51.3494 50.4982 51.1808V50.6697H51.1773V53.9223H50.3822L49.7456 51.8548C49.7737 52.1237 49.7954 52.3847 49.8098 52.637C49.8249 52.89 49.8321 53.1351 49.8321 53.373V53.9223H49.1487ZM51.7086 53.9223V50.6697H52.4698V53.9223H51.7086ZM53.3947 53.9223V51.3011H52.7848V50.6697H54.7961V51.3011H54.156V53.9223H53.3947ZM55.1068 53.9223V50.6697H55.868V53.9223H55.1068ZM57.1008 52.7112H57.5384L57.3207 51.2925L57.1008 52.7112ZM56.1615 53.9223L56.8708 50.6697H57.7748L58.4755 53.9223H57.7157L57.6206 53.2994H57.0229L56.9278 53.9223H56.1615ZM59.0169 53.9223V51.3011H58.407V50.6697H60.4184V51.3011H59.7782V53.9223H59.0169ZM60.729 53.9223V50.6697H61.4902V53.9223H60.729ZM62.5147 53.9223L61.788 50.6697H62.5925L62.8736 52.3781C62.8859 52.4546 62.9003 52.5548 62.9169 52.6795C62.9327 52.8042 62.9486 52.939 62.9645 53.0839L62.9709 53.0435C63.0085 52.704 63.0351 52.4841 63.051 52.3825L63.3379 50.6697H64.141L63.4013 53.9223H62.5147ZM64.4394 53.9223V50.6697H66.2085V51.3011H65.1963V51.898H66.1306V52.5511H65.1963V53.2605H66.2085V53.9223H64.4394Z" fill="#0073CF"/>
<path fill-rule="evenodd" clip-rule="evenodd" d="M0.0625 38.5449H2.66999V42.3916C2.66999 42.9909 2.77535 43.4377 2.98755 43.7305C3.20058 44.0269 3.52358 44.1731 3.95918 44.1731C4.45145 44.1731 4.82329 43.9717 5.0782 43.5715C5.33188 43.1716 5.45776 42.5861 5.45776 41.8112V38.5449H8.07329V46.1725H5.69664V44.7454C5.39768 45.2526 5.01348 45.6392 4.54241 45.9039C4.07221 46.1699 3.53586 46.3029 2.93827 46.3029C2.00124 46.3029 1.28761 46.0168 0.797011 45.445C0.306817 44.8733 0.0625 44.0381 0.0625 42.9411V38.5449Z" fill="#4D4D4D"/>
<path fill-rule="evenodd" clip-rule="evenodd" d="M18.0546 41.7119V46.1723H15.4617V42.2527C15.4617 41.6561 15.3559 41.2098 15.1431 40.9184C14.9308 40.6248 14.6084 40.4801 14.1728 40.4801C13.7191 40.4801 13.3551 40.6629 13.0827 41.0302C12.8101 41.3972 12.6729 41.89 12.6729 42.5064V46.1723H10.0596V38.5451H12.434V39.9143C12.7346 39.4027 13.1208 39.0125 13.5931 38.7451C14.0667 38.4779 14.6007 38.3438 15.1934 38.3438C16.1251 38.3438 16.8356 38.6283 17.3235 39.2012C17.8101 39.7733 18.0546 40.6095 18.0546 41.7119Z" fill="#4D4D4D"/>
<path fill-rule="evenodd" clip-rule="evenodd" d="M19.9209 46.1724H22.5364V38.5449H19.9209V46.1724Z" fill="#4D4D4D"/>
<path fill-rule="evenodd" clip-rule="evenodd" d="M30.0981 38.7419L29.8449 40.5805C29.4965 40.3828 29.1459 40.2327 28.7907 40.1291C28.4354 40.025 28.0972 39.9724 27.7735 39.9724C27.4545 39.9724 27.2079 40.0299 27.0349 40.1426C26.8615 40.2564 26.7747 40.4175 26.7747 40.6243C26.7749 40.8943 27.129 41.1274 27.8378 41.3216C28.0604 41.3822 28.2371 41.4329 28.3664 41.4718C29.1782 41.7129 29.7443 42.0079 30.066 42.3556C30.3855 42.7035 30.5472 43.1806 30.5472 43.7821C30.5472 44.5879 30.2336 45.2238 29.6061 45.6857C28.9783 46.1508 28.1138 46.3808 27.0126 46.3808C26.5446 46.3808 26.0827 46.3459 25.6264 46.2741C25.1688 46.2009 24.722 46.0928 24.2832 45.948L24.4494 43.9932C24.8158 44.1812 25.1977 44.3239 25.5918 44.4246C25.9889 44.5229 26.3896 44.571 26.7955 44.571C27.1768 44.571 27.464 44.5207 27.6585 44.4154C27.8501 44.3127 27.9465 44.1571 27.9465 43.9498C27.9465 43.6397 27.5564 43.3689 26.7747 43.1377C26.5801 43.08 26.4285 43.0339 26.3175 42.9987C25.5203 42.7401 24.9666 42.4483 24.653 42.1283C24.339 41.8067 24.1816 41.3848 24.1816 40.8636C24.1816 40.0668 24.4952 39.4473 25.1224 39.0061C25.7506 38.5645 26.6327 38.3438 27.7735 38.3438C28.1436 38.3438 28.5263 38.376 28.9165 38.4443C29.3078 38.513 29.7019 38.6111 30.0981 38.7419Z" fill="#4D4D4D"/>
<path fill-rule="evenodd" clip-rule="evenodd" d="M36.1938 40.2982C35.6863 40.2982 35.2887 40.4816 34.9987 40.8494C34.7092 41.2164 34.5639 41.7196 34.5639 42.3637C34.5642 42.9852 34.7069 43.4776 34.9915 43.8437C35.2767 44.2084 35.6632 44.3892 36.1511 44.3892C36.6426 44.3889 37.0361 44.2024 37.3259 43.8254C37.6197 43.4492 37.7647 42.9358 37.7647 42.2831C37.7647 41.6841 37.622 41.2041 37.334 40.8414C37.0476 40.4802 36.6671 40.2982 36.1938 40.2982ZM34.5642 45.1068V49.2729H31.9492V38.5448H34.2965V40.0011C34.5965 39.4665 34.9804 39.0551 35.452 38.7702C35.9211 38.4867 36.4523 38.3438 37.0421 38.3438C38.0701 38.3438 38.8977 38.705 39.5241 39.4293C40.153 40.1532 40.4663 41.1169 40.4663 42.3188C40.4663 43.5225 40.1491 44.5004 39.5138 45.2522C38.8797 46.0044 38.0645 46.3809 37.0687 46.3809C36.5387 46.3809 36.0642 46.2761 35.6475 46.0622C35.2286 45.8514 34.8688 45.5316 34.5642 45.1068Z" fill="#4D4D4D"/>
<path fill-rule="evenodd" clip-rule="evenodd" d="M46.2966 42.7031C45.5289 42.7031 44.976 42.7863 44.6394 42.9522C44.3004 43.1184 44.1308 43.3859 44.1308 43.7526C44.1308 44.0192 44.2209 44.2331 44.4025 44.3976C44.5845 44.5612 44.8244 44.6436 45.1224 44.6436C45.5976 44.6436 45.9838 44.4834 46.2864 44.1641C46.5876 43.8464 46.7383 43.4308 46.7383 42.9202V42.7031H46.2966ZM49.2002 42.1814V46.1716H46.9339L46.8756 44.9845C46.5678 45.4247 46.1948 45.746 45.7578 45.951C45.3201 46.1558 44.7935 46.2586 44.1757 46.2586C43.4016 46.2586 42.7873 46.0403 42.3264 45.6001C41.869 45.1605 41.6396 44.5741 41.6396 43.8395C41.6396 42.9943 41.9734 42.369 42.6388 41.9597C43.3058 41.5521 44.3304 41.349 45.718 41.349H46.7383V41.2466C46.7383 40.8321 46.5792 40.5126 46.2604 40.2909C45.9426 40.0695 45.4788 39.9583 44.8693 39.9583C44.5699 39.9583 44.2286 40.0109 43.8496 40.1173C43.4675 40.2223 43.0564 40.3773 42.6173 40.5798L42.5741 38.8567C42.9989 38.6786 43.4585 38.5444 43.9545 38.4597C44.4491 38.3716 44.9929 38.3281 45.5861 38.3281C46.8312 38.3281 47.7457 38.6397 48.3292 39.2581C48.9096 39.8793 49.2002 40.8536 49.2002 42.1814Z" fill="#4D4D4D"/>
<path fill-rule="evenodd" clip-rule="evenodd" d="M57.1388 38.7419L56.9581 40.6537C56.7024 40.513 56.4498 40.4103 56.1984 40.3425C55.9472 40.2753 55.697 40.2398 55.445 40.2398C54.7982 40.2398 54.2831 40.4306 53.9021 40.8119C53.5205 41.1935 53.3306 41.7118 53.3306 42.3637C53.3306 42.9987 53.5334 43.5087 53.9392 43.8914C54.3445 44.2726 54.8857 44.4634 55.5686 44.4634C55.8534 44.4634 56.126 44.4265 56.3906 44.3536C56.6526 44.2816 56.9078 44.172 57.1535 44.0206L57.213 46.0273C56.8786 46.1434 56.5111 46.2315 56.1083 46.2913C55.7038 46.3516 55.2656 46.3808 54.7936 46.3808C53.5557 46.3808 52.5531 46.0129 51.7837 45.2741C51.0142 44.5344 50.6289 43.5705 50.6289 42.3773C50.6289 41.1274 51.0173 40.1417 51.7945 39.4235C52.572 38.7038 53.6421 38.3438 55.0027 38.3438C55.3306 38.3438 55.6727 38.376 56.0288 38.4407C56.3828 38.5076 56.7536 38.6068 57.1388 38.7419Z" fill="#4D4D4D"/>
<path fill-rule="evenodd" clip-rule="evenodd" d="M63.9047 41.5871C63.8513 41.0774 63.688 40.6747 63.4122 40.3823C63.1362 40.0898 62.7878 39.9438 62.3622 39.9438C61.9426 39.9438 61.5971 40.0898 61.3261 40.3823C61.0555 40.6747 60.8916 41.0774 60.8336 41.5871H63.9047ZM66.2145 42.4933V43.1306H60.8625C60.9148 43.6283 61.1314 44.0119 61.5083 44.2828C61.8833 44.5525 62.3916 44.6878 63.0287 44.6878C63.4105 44.6878 63.813 44.6352 64.2389 44.5287C64.6619 44.4224 65.0998 44.2633 65.5486 44.0508V45.9192C65.1242 46.0751 64.6823 46.1903 64.2206 46.267C63.7572 46.3423 63.2772 46.3811 62.7755 46.3811C61.3839 46.3811 60.2984 46.0144 59.5155 45.2825C58.7338 44.5482 58.3428 43.5282 58.3428 42.2268C58.3428 41.0374 58.7034 40.0934 59.4252 39.3937C60.1477 38.6936 61.1219 38.3438 62.3491 38.3438C63.5833 38.3438 64.5367 38.7039 65.2075 39.4235C65.8796 40.1418 66.2145 41.1653 66.2145 42.4933Z" fill="#4D4D4D"/>
<path fill-rule="evenodd" clip-rule="evenodd" d="M21.4401 35.4155C11.6611 35.4155 3.73242 27.4877 3.73242 17.7072C3.73266 7.92639 11.6611 0 21.4401 0V35.4155Z" fill="#66D3E1"/>
<path fill-rule="evenodd" clip-rule="evenodd" d="M12.7689 31.8197C7.98328 27.0349 7.98328 19.2749 12.7689 14.491C17.5533 9.70613 25.3111 9.70613 30.0979 14.491C34.8822 19.2749 34.8822 27.0349 30.0979 31.8197C25.3111 36.6045 17.5533 36.6045 12.7689 31.8197Z" fill="#B3EAF7"/>
<path fill-rule="evenodd" clip-rule="evenodd" d="M12.0133 28.9977C8.56198 25.5458 8.56198 19.9489 12.0133 16.5001C15.4655 13.0471 21.0618 13.0471 24.5132 16.4987C27.9659 19.9503 27.9642 25.5458 24.5132 28.9977C21.0618 32.4496 15.4655 32.4496 12.0133 28.9977Z" fill="#FEFEFE"/>
<path fill-rule="evenodd" clip-rule="evenodd" d="M11.3873 26.795C9.061 24.4671 9.061 20.6923 11.3873 18.3645C13.716 16.0373 17.4899 16.0373 19.8151 18.3645C22.1441 20.6932 22.1441 24.4671 19.8151 26.795C17.4888 29.1219 13.716 29.1219 11.3873 26.795Z" fill="#66D3E1"/>
</svg>
