<svg width="16" height="16" viewBox="0 0 16 16" fill="none" xmlns="http://www.w3.org/2000/svg">
<path d="M14.6667 7.26536V2.73203C14.6667 1.73203 14.24 1.33203 13.18 1.33203H10.4867C9.42667 1.33203 9 1.73203 9 2.73203V7.26536C9 8.26536 9.42667 8.66536 10.4867 8.66536H13.18C14.24 8.66536 14.6667 8.26536 14.6667 7.26536Z" stroke="#666687" stroke-width="0.8" stroke-linecap="round" stroke-linejoin="round"/>
<path d="M14.6667 13.268V12.068C14.6667 11.068 14.24 10.668 13.18 10.668H10.4867C9.42667 10.668 9 11.068 9 12.068V13.268C9 14.268 9.42667 14.668 10.4867 14.668H13.18C14.24 14.668 14.6667 14.268 14.6667 13.268Z" stroke="#666687" stroke-width="0.8" stroke-linecap="round" stroke-linejoin="round"/>
<path d="M7.00004 8.73203V13.2654C7.00004 14.2654 6.57337 14.6654 5.51337 14.6654H2.82004C1.76004 14.6654 1.33337 14.2654 1.33337 13.2654V8.73203C1.33337 7.73203 1.76004 7.33203 2.82004 7.33203H5.51337C6.57337 7.33203 7.00004 7.73203 7.00004 8.73203Z" stroke="#666687" stroke-width="0.8" stroke-linecap="round" stroke-linejoin="round"/>
<path d="M7.00004 2.73203V3.93203C7.00004 4.93203 6.57337 5.33203 5.51337 5.33203H2.82004C1.76004 5.33203 1.33337 4.93203 1.33337 3.93203V2.73203C1.33337 1.73203 1.76004 1.33203 2.82004 1.33203H5.51337C6.57337 1.33203 7.00004 1.73203 7.00004 2.73203Z" stroke="#666687" stroke-width="0.8" stroke-linecap="round" stroke-linejoin="round"/>
</svg>
