<svg width="16" height="16" viewBox="0 0 16 16" fill="none" xmlns="http://www.w3.org/2000/svg">
<path d="M5.33398 1.33203V3.33203" stroke="#666687" stroke-width="0.8" stroke-miterlimit="10" stroke-linecap="round" stroke-linejoin="round"/>
<path d="M10.666 1.33203V3.33203" stroke="#666687" stroke-width="0.8" stroke-miterlimit="10" stroke-linecap="round" stroke-linejoin="round"/>
<path d="M2.33398 6.05859H13.6673" stroke="#666687" stroke-width="0.8" stroke-miterlimit="10" stroke-linecap="round" stroke-linejoin="round"/>
<path d="M14.6673 12.6667C14.6673 13.1667 14.5273 13.64 14.2806 14.04C13.8206 14.8133 12.974 15.3333 12.0007 15.3333C11.3273 15.3333 10.714 15.0867 10.2473 14.6667C10.0407 14.4933 9.86065 14.28 9.72065 14.04C9.47399 13.64 9.33398 13.1667 9.33398 12.6667C9.33398 11.1933 10.5273 10 12.0007 10C12.8007 10 13.514 10.3533 14.0007 10.9067C14.414 11.38 14.6673 11.9933 14.6673 12.6667Z" stroke="#666687" stroke-width="0.8" stroke-miterlimit="10" stroke-linecap="round" stroke-linejoin="round"/>
<path d="M10.9609 12.6651L11.6209 13.3251L13.0409 12.0117" stroke="#666687" stroke-width="0.8" stroke-linecap="round" stroke-linejoin="round"/>
<path d="M14 5.66536V10.9054C13.5133 10.352 12.8 9.9987 12 9.9987C10.5267 9.9987 9.33333 11.192 9.33333 12.6654C9.33333 13.1654 9.47333 13.6387 9.72 14.0387C9.86 14.2787 10.04 14.492 10.2467 14.6654H5.33333C3 14.6654 2 13.332 2 11.332V5.66536C2 3.66536 3 2.33203 5.33333 2.33203H10.6667C13 2.33203 14 3.66536 14 5.66536Z" stroke="#666687" stroke-width="0.8" stroke-miterlimit="10" stroke-linecap="round" stroke-linejoin="round"/>
<path d="M7.99764 9.13411H8.00363" stroke="#666687" stroke-width="1.33333" stroke-linecap="round" stroke-linejoin="round"/>
<path d="M5.52889 9.13411H5.53488" stroke="#666687" stroke-width="1.33333" stroke-linecap="round" stroke-linejoin="round"/>
<path d="M5.52889 11.1341H5.53488" stroke="#666687" stroke-width="1.33333" stroke-linecap="round" stroke-linejoin="round"/>
</svg>
