<svg width="33" height="32" viewBox="0 0 33 32" fill="none" xmlns="http://www.w3.org/2000/svg">
<path d="M4.72656 9.92188L16.4999 16.7352L28.1932 9.96183" stroke="#666687" stroke-width="1.2" stroke-linecap="round" stroke-linejoin="round"/>
<path d="M16.5 28.816V16.7227" stroke="#666687" stroke-width="1.2" stroke-linecap="round" stroke-linejoin="round"/>
<path d="M13.7408 3.30797L6.62081 7.26801C5.00748 8.16134 3.6875 10.4013 3.6875 12.2413V19.7747C3.6875 21.6147 5.00748 23.8547 6.62081 24.748L13.7408 28.708C15.2608 29.548 17.7541 29.548 19.2741 28.708L26.3942 24.748C28.0075 23.8547 29.3275 21.6147 29.3275 19.7747V12.2413C29.3275 10.4013 28.0075 8.16134 26.3942 7.26801L19.2741 3.30797C17.7408 2.45464 15.2608 2.45464 13.7408 3.30797Z" stroke="#666687" stroke-width="1.2" stroke-linecap="round" stroke-linejoin="round"/>
<path d="M23.167 26.6693V12.7755L10.5137 5.46875" stroke="#666687" stroke-width="1.2" stroke-linecap="round" stroke-linejoin="round"/>
</svg>
