<svg width="33" height="32" viewBox="0 0 33 32" fill="none" xmlns="http://www.w3.org/2000/svg">
<path d="M24.6666 12.5026C24.6666 14.1943 24.1649 15.746 23.3016 17.041C22.0416 18.9076 20.0466 20.2259 17.7249 20.5643C17.3283 20.6343 16.9199 20.6693 16.4999 20.6693C16.0799 20.6693 15.6716 20.6343 15.2749 20.5643C12.9533 20.2259 10.9583 18.9076 9.69825 17.041C8.83492 15.746 8.33325 14.1943 8.33325 12.5026C8.33325 7.9876 11.9849 4.33594 16.4999 4.33594C21.0149 4.33594 24.6666 7.9876 24.6666 12.5026Z" stroke="#666687" stroke-width="1.2" stroke-linecap="round" stroke-linejoin="round"/>
<path d="M27.2917 23.5491L25.3667 24.0041C24.935 24.1091 24.5967 24.4358 24.5033 24.8675L24.095 26.5825C23.8733 27.5158 22.6833 27.7958 22.065 27.0608L16.5 20.6675L10.935 27.0724C10.3167 27.8074 9.12668 27.5274 8.90501 26.5941L8.49668 24.8791C8.39168 24.4474 8.05334 24.1091 7.63334 24.0158L5.70834 23.5608C4.82168 23.3508 4.50668 22.2424 5.14834 21.6008L9.69834 17.0508C10.9583 18.9174 12.9533 20.2358 15.275 20.5741C15.6717 20.6441 16.08 20.6791 16.5 20.6791C16.92 20.6791 17.3283 20.6441 17.725 20.5741C20.0467 20.2358 22.0417 18.9174 23.3017 17.0508L27.8517 21.6008C28.4933 22.2308 28.1783 23.3391 27.2917 23.5491Z" stroke="#666687" stroke-width="1.2" stroke-linecap="round" stroke-linejoin="round"/>
</svg>
