<svg xmlns="http://www.w3.org/2000/svg" xmlns:xlink="http://www.w3.org/1999/xlink" width="50" height="50" viewBox="0 0 50 50">
  <defs>
    <clipPath id="clip-Collection_Fees">
      <rect width="50" height="50"/>
    </clipPath>
  </defs>
  <g id="Collection_Fees" data-name="Collection Fees" clip-path="url(#clip-Collection_Fees)">
    <g id="Group_110" data-name="Group 110" transform="translate(7 5.059)">
      <path id="Subtraction_8" data-name="Subtraction 8" d="M1518.781,2868.485h-.141v-.562l-.139-.011a1.282,1.282,0,0,1-.788-.358,1.482,1.482,0,0,1-.374-.713l.519-.057a1.222,1.222,0,0,0,.182.363.938.938,0,0,0,.369.332l.218.112v-1.667l-.114-.027a1.591,1.591,0,0,1-.8-.481,1.2,1.2,0,0,1-.248-.758v-.006a1.066,1.066,0,0,1,.282-.75,1.144,1.144,0,0,1,.758-.352l.141-.008v-.3h.141v.3l.14.01a1.07,1.07,0,0,1,.992.8l-.495.064a.769.769,0,0,0-.425-.47l-.212-.094v1.562l.123.022a1.838,1.838,0,0,1,.932.475,1.1,1.1,0,0,1,.23.718v.011a1.207,1.207,0,0,1-.3.843,1.336,1.336,0,0,1-.85.426l-.135.013v.559Zm-.014-2.522h0v1.582l.176-.031a.809.809,0,0,0,.469-.266.762.762,0,0,0,.182-.5.7.7,0,0,0-.158-.459l-.007-.008a.964.964,0,0,0-.477-.272Zm-.15-2.119h0l-.2.067a.765.765,0,0,0-.368.266.7.7,0,0,0-.135.416.655.655,0,0,0,.126.4.808.808,0,0,0,.373.281l.2.077v-1.5Z" transform="translate(-1504.406 -2851.767)" fill="#050605"/>
      <path id="Subtraction_10" data-name="Subtraction 10" d="M1519.571,2870.958h-.338v-.819l-.138-.011a1.9,1.9,0,0,1-1.182-.535,2.247,2.247,0,0,1-.577-1.138l.882-.1a1.7,1.7,0,0,0,.268.561,1.313,1.313,0,0,0,.509.457l.218.111v-2.247l-.115-.028a2.339,2.339,0,0,1-1.2-.716,1.767,1.767,0,0,1-.373-1.139v-.009a1.588,1.588,0,0,1,.424-1.131,1.724,1.724,0,0,1,1.141-.528l.14-.009v-.437h.338v.436l.139.011a1.623,1.623,0,0,1,1.515,1.287l-.847.109a1.065,1.065,0,0,0-.6-.693l-.211-.094v2.1l.123.023a2.744,2.744,0,0,1,1.386.708,1.641,1.641,0,0,1,.351,1.086v.013a1.819,1.819,0,0,1-.452,1.266,2.012,2.012,0,0,1-1.273.636l-.134.013v.814Zm-.019-3.629h0v2.125l.176-.031a1.109,1.109,0,0,0,.639-.364,1.045,1.045,0,0,0,.247-.684.955.955,0,0,0-.213-.619l-.008-.01a1.327,1.327,0,0,0-.656-.374Zm-.351-3.054h0l-.2.067a1.056,1.056,0,0,0-.5.356l0,0a.963.963,0,0,0-.182.565.893.893,0,0,0,.17.531,1.107,1.107,0,0,0,.51.383l.2.074v-1.982Z" transform="translate(-1490.475 -2857.072)" fill="#050605"/>
      <path id="Subtraction_16" data-name="Subtraction 16" d="M1517.8,2867.67a.5.5,0,0,1-.5-.5v-3.428a.5.5,0,1,1,1,0v3.428A.5.5,0,0,1,1517.8,2867.67Z" transform="translate(-1487.281 -2829.908)" fill="#040504"/>
      <path id="Subtraction_17" data-name="Subtraction 17" d="M1517.8,2871.1a.5.5,0,0,1-.5-.5v-6.856a.5.5,0,0,1,1,0v6.856A.5.5,0,0,1,1517.8,2871.1Z" transform="translate(-1484.418 -2833.335)" fill="#040504"/>
      <path id="Subtraction_18" data-name="Subtraction 18" d="M1517.8,2867.67a.5.5,0,0,1-.5-.5v-3.428a.5.5,0,1,1,1,0v3.428A.5.5,0,0,1,1517.8,2867.67Z" transform="translate(-1481.519 -2829.908)" fill="#040504"/>
      <path id="Subtraction_13" data-name="Subtraction 13" d="M1528.222,2870.92a1.988,1.988,0,0,1-1.366-.569l-2.4-2.333a.5.5,0,0,1,.7-.717l2.4,2.333a.972.972,0,0,0,.665.285.9.9,0,0,0,.122-.009.615.615,0,0,0,.535-.465,1.142,1.142,0,0,0-.245-1.123l-3.561-4.081H1517.8a.5.5,0,0,1,0-1h7.5a.5.5,0,0,1,.377.172l3.711,4.251a2.151,2.151,0,0,1,.436,2.113,1.627,1.627,0,0,1-1.324,1.122A1.79,1.79,0,0,1,1528.222,2870.92Z" transform="translate(-1512.065 -2839.664)" fill="#040504"/>
      <path id="Subtraction_14" data-name="Subtraction 14" d="M1524.329,2874.015a2.02,2.02,0,0,1-1.088-.283l-5.663-2.814a.5.5,0,0,1-.225-.67.493.493,0,0,1,.446-.277.506.506,0,0,1,.223.052l5.69,2.826a.61.61,0,0,1,.084.053l.04.03h.015a1.153,1.153,0,0,0,.469.085,2.7,2.7,0,0,0,1.227-.354c1.489-.778,11.126-6.193,11.216-6.244a.638.638,0,0,0,.27-.895l-.464-.889c-.051-.1-.094-.2-.127-.278-.046-.116-.194-.116-.25-.116a1.542,1.542,0,0,0-.345.049c-1.04.25-8.336,2.56-8.646,2.658l-.1.031a.512.512,0,0,1-.151.023.5.5,0,0,1-.149-.979l.07-.022.039-.012c1.794-.567,7.725-2.437,8.7-2.672a2.537,2.537,0,0,1,.587-.075,1.139,1.139,0,0,1,1.129.644l.012.028c.051.121.083.194.119.262l.482.933a1.636,1.636,0,0,1-.722,2.2l-.013.007c-.424.243-9.718,5.463-11.194,6.236A3.671,3.671,0,0,1,1524.329,2874.015Z" transform="translate(-1508.411 -2839.083)" fill="#040504"/>
      <path id="Subtraction_12" data-name="Subtraction 12" d="M1520.324,2875.164a3.027,3.027,0,0,1-3.024-3.024v-5.876a3.024,3.024,0,0,1,6.047,0v5.876A3.027,3.027,0,0,1,1520.324,2875.164Zm0-10.922a2.025,2.025,0,0,0-2.024,2.022v5.876a2.024,2.024,0,0,0,4.048,0v-5.876A2.026,2.026,0,0,0,1520.324,2864.242Z" transform="translate(-1517.113 -2841.886)" fill="#040504"/>
      <path id="Subtraction_11" data-name="Subtraction 11" d="M1522.6,2869.224a.5.5,0,0,1-.248-.067l-4.8-2.75a.5.5,0,0,1,.252-.933.474.474,0,0,1,.1.011.878.878,0,0,0,.187.017,10.113,10.113,0,0,0,2.729-.711.5.5,0,0,1,.181-.034.5.5,0,0,1,.179.967c-.027.011-.683.27-1.453.484l-.346.1,3.318,1.9.052-.008c.84-.13,5.324-.974,11.153-4.874a.5.5,0,0,1,.279-.084.5.5,0,0,1,.278.915,36.016,36.016,0,0,1-8.38,4.226,16.793,16.793,0,0,1-3.434.839h-.007A.31.31,0,0,1,1522.6,2869.224Z" transform="translate(-1511.049 -2846.868)" fill="#040504"/>
      <path id="Subtraction_15" data-name="Subtraction 15" d="M1520.959,2868.236a13.258,13.258,0,0,1-3.293-.323.5.5,0,0,1,.13-.983.509.509,0,0,1,.14.02,13.1,13.1,0,0,0,3,.274,34.536,34.536,0,0,0,11.436-2.244l.267-.1-.229-.167a3.3,3.3,0,0,1-.692-.674.5.5,0,0,1,.8-.605,3,3,0,0,0,1.581.98.5.5,0,0,1,.4.449.5.5,0,0,1-.316.508A36.878,36.878,0,0,1,1520.959,2868.236Z" transform="translate(-1502.423 -2844.86)" fill="#040504"/>
      <path id="Subtraction_9" data-name="Subtraction 9" d="M1524.842,2878.324a7.542,7.542,0,1,1,7.542-7.542A7.551,7.551,0,0,1,1524.842,2878.324Zm0-14.083a6.542,6.542,0,1,0,6.542,6.541A6.549,6.549,0,0,0,1524.842,2864.241Z" transform="translate(-1495.943 -2860.756)" fill="#040504"/>
      <path id="Subtraction_4" data-name="Subtraction 4" d="M1517.8,2867.668a.5.5,0,0,1-.5-.5v-3.428a.5.5,0,1,1,1,0v3.428A.5.5,0,0,1,1517.8,2867.668Z" transform="translate(-1517.15 -2863.091)" fill="#040504"/>
      <path id="Subtraction_5" data-name="Subtraction 5" d="M1517.8,2871.1a.5.5,0,0,1-.5-.5v-6.854a.5.5,0,1,1,1,0v6.854A.5.5,0,0,1,1517.8,2871.1Z" transform="translate(-1514.287 -2863.091)" fill="#040504"/>
      <path id="Subtraction_6" data-name="Subtraction 6" d="M1517.8,2867.668a.5.5,0,0,1-.5-.5v-3.428a.5.5,0,1,1,1,0v3.428A.5.5,0,0,1,1517.8,2867.668Z" transform="translate(-1511.387 -2863.091)" fill="#040504"/>
      <path id="Subtraction_7" data-name="Subtraction 7" d="M1522.469,2873.579a5.169,5.169,0,1,1,5.169-5.169A5.174,5.174,0,0,1,1522.469,2873.579Zm0-9.338a4.169,4.169,0,1,0,4.169,4.169A4.174,4.174,0,0,0,1522.469,2864.241Z" transform="translate(-1508.184 -2854.616)" fill="#040504"/>
    </g>
  </g>
</svg>
