<svg width="33" height="32" viewBox="0 0 33 32" fill="none" xmlns="http://www.w3.org/2000/svg">
<path d="M29.9875 17.3475L22.2092 26.0777C20.1509 28.3875 17.1955 29.7132 14.1029 29.7132H7.28577C5.08005 29.7132 3.28577 27.9189 3.28577 25.7132V19.9989C3.28577 17.7932 5.08005 15.9989 7.28577 15.9989H18.5521C19.9326 15.9989 21.0995 16.9292 21.4572 18.1955L25.7223 13.5075C26.2378 12.9406 26.9441 12.608 27.7098 12.5726C28.4709 12.5429 29.2092 12.8023 29.7772 13.3177C30.9326 14.3715 31.0263 16.1795 29.9875 17.3475ZM29.0081 14.1623C28.6675 13.8515 28.2206 13.6983 27.7646 13.7132C27.3041 13.7349 26.8789 13.9349 26.5681 14.2755L21.4309 19.9212C21.0869 21.0012 20.1463 21.8389 18.9783 22.0057L11.9246 22.8503C11.6012 22.8892 11.3269 22.6629 11.2892 22.3509C11.2515 22.0377 11.4755 21.7532 11.7886 21.7155L18.8298 20.8732C19.7349 20.744 20.4286 19.9452 20.4286 19.0172C20.4286 17.9829 19.5863 17.1406 18.5521 17.1406H7.28577C5.71091 17.1406 4.42862 18.4229 4.42862 19.9977V25.712C4.42862 27.2869 5.71091 28.5692 7.28577 28.5692H14.1029C16.8709 28.5692 19.5143 27.384 21.3555 25.3166L29.1338 16.5863C29.7601 15.8835 29.7029 14.7955 29.0081 14.1612V14.1623Z" fill="#666687"/>
<path d="M18.4166 11.9596H12.5833C10.8333 11.9596 9.66663 11.0846 9.66663 9.04297V4.95964C9.66663 2.91797 10.8333 2.04297 12.5833 2.04297H18.4166C20.1666 2.04297 21.3333 2.91797 21.3333 4.95964V9.04297C21.3333 11.0846 20.1666 11.9596 18.4166 11.9596Z" stroke="#666687" stroke-miterlimit="10" stroke-linecap="round" stroke-linejoin="round"/>
<path d="M15.4066 9.19922L14.3266 7.31522V6.87122H14.6866C14.8986 6.87122 15.0766 6.82522 15.2206 6.73322C15.3646 6.63722 15.4566 6.50522 15.4966 6.33722H14.3266V5.89322H15.4906C15.4546 5.74122 15.3806 5.61522 15.2686 5.51522C15.1566 5.41122 15.0006 5.35922 14.8006 5.35922H14.3266V4.91522H17.0326V5.35922H16.0906C16.2306 5.51122 16.3186 5.68922 16.3546 5.89322H17.0326V6.33722H16.3666C16.3266 6.63322 16.2106 6.86522 16.0186 7.03322C15.8306 7.19722 15.5906 7.30922 15.2986 7.36922L16.4746 9.19922H15.4066Z" fill="#666687"/>
<path d="M9.66663 5.2487H10.25C12 5.2487 12.5833 4.66536 12.5833 2.91536V2.33203" stroke="#666687" stroke-miterlimit="10" stroke-linecap="round" stroke-linejoin="round"/>
<path d="M21.3333 5.2487H20.75C19 5.2487 18.4166 4.66536 18.4166 2.91536V2.33203" stroke="#666687" stroke-miterlimit="10" stroke-linecap="round" stroke-linejoin="round"/>
<path d="M9.66663 8.75H10.25C12 8.75 12.5833 9.33333 12.5833 11.0833V11.6667" stroke="#666687" stroke-miterlimit="10" stroke-linecap="round" stroke-linejoin="round"/>
<path d="M21.3333 8.75H20.75C19 8.75 18.4166 9.33333 18.4166 11.0833V11.6667" stroke="#666687" stroke-miterlimit="10" stroke-linecap="round" stroke-linejoin="round"/>
</svg>
