<svg width="33" height="32" viewBox="0 0 33 32" fill="none" xmlns="http://www.w3.org/2000/svg">
<path d="M16.5 19.25C18.2949 19.25 19.75 17.7949 19.75 16C19.75 14.2051 18.2949 12.75 16.5 12.75C14.7051 12.75 13.25 14.2051 13.25 16C13.25 17.7949 14.7051 19.25 16.5 19.25Z" stroke="#666687" stroke-width="1.2" stroke-miterlimit="10" stroke-linecap="round" stroke-linejoin="round"/>
<path d="M5.66602 16.9562V15.0495C5.66602 13.9228 6.58685 12.9912 7.72435 12.9912C9.68518 12.9912 10.4868 11.6045 9.50102 9.90365C8.93768 8.92865 9.27352 7.66115 10.2593 7.09782L12.1335 6.02532C12.9893 5.51615 14.0943 5.81949 14.6035 6.67532L14.7227 6.88115C15.6977 8.58199 17.301 8.58199 18.2868 6.88115L18.406 6.67532C18.9152 5.81949 20.0202 5.51615 20.876 6.02532L22.7502 7.09782C23.736 7.66115 24.0718 8.92865 23.5085 9.90365C22.5227 11.6045 23.3243 12.9912 25.2852 12.9912C26.4118 12.9912 27.3435 13.912 27.3435 15.0495V16.9562C27.3435 18.0828 26.4227 19.0145 25.2852 19.0145C23.3243 19.0145 22.5227 20.4012 23.5085 22.102C24.0718 23.0878 23.736 24.3445 22.7502 24.9078L20.876 25.9803C20.0202 26.4895 18.9152 26.1862 18.406 25.3303L18.2868 25.1245C17.3118 23.4237 15.7085 23.4237 14.7227 25.1245L14.6035 25.3303C14.0943 26.1862 12.9893 26.4895 12.1335 25.9803L10.2593 24.9078C9.27352 24.3445 8.93768 23.077 9.50102 22.102C10.4868 20.4012 9.68518 19.0145 7.72435 19.0145C6.58685 19.0145 5.66602 18.0828 5.66602 16.9562Z" stroke="#666687" stroke-width="1.2" stroke-miterlimit="10" stroke-linecap="round" stroke-linejoin="round"/>
</svg>
