<svg width="33" height="32" viewBox="0 0 33 32" fill="none" xmlns="http://www.w3.org/2000/svg">
<path d="M23.75 30H9.25C4.9 30 2 27.5294 2 21.7647V10.2353C2 4.47059 4.9 2 9.25 2H23.75C28.1 2 31 4.47059 31 10.2353V21.7647C31 27.5294 28.1 30 23.75 30Z" stroke="#666687" stroke-width="1.2" stroke-miterlimit="10" stroke-linecap="round" stroke-linejoin="round"/>
<path d="M23.0001 11.16C22.9401 11.15 22.8701 11.15 22.8101 11.16C21.4301 11.11 20.3301 9.98 20.3301 8.58C20.3301 7.15 21.4801 6 22.9101 6C24.3401 6 25.4901 7.16 25.4901 8.58C25.4801 9.98 24.3801 11.11 23.0001 11.16Z" stroke="#666687" stroke-width="1.2" stroke-linecap="round" stroke-linejoin="round"/>
<path d="M21.9699 18.4402C23.3399 18.6702 24.8499 18.4302 25.9099 17.7202C27.3199 16.7802 27.3199 15.2402 25.9099 14.3002C24.8399 13.5902 23.3099 13.3502 21.9399 13.5902" stroke="#666687" stroke-width="1.2" stroke-linecap="round" stroke-linejoin="round"/>
<path d="M10.97 11.16C11.03 11.15 11.1 11.15 11.16 11.16C12.54 11.11 13.64 9.98 13.64 8.58C13.64 7.15 12.49 6 11.06 6C9.62998 6 8.47998 7.16 8.47998 8.58C8.48998 9.98 9.58998 11.11 10.97 11.16Z" stroke="#666687" stroke-width="1.2" stroke-linecap="round" stroke-linejoin="round"/>
<path d="M11.9999 18.4402C10.6299 18.6702 9.11994 18.4302 8.05994 17.7202C6.64994 16.7802 6.64994 15.2402 8.05994 14.3002C9.12994 13.5902 10.6599 13.3502 12.0299 13.5902" stroke="#666687" stroke-width="1.2" stroke-linecap="round" stroke-linejoin="round"/>
<path d="M17.0001 18.6288C16.9401 18.6188 16.8701 18.6188 16.8101 18.6288C15.4301 18.5788 14.3301 17.4488 14.3301 16.0488C14.3301 14.6188 15.4801 13.4688 16.9101 13.4688C18.3401 13.4688 19.4901 14.6288 19.4901 16.0488C19.4801 17.4488 18.3801 18.5888 17.0001 18.6288Z" stroke="#666687" stroke-width="1.2" stroke-linecap="round" stroke-linejoin="round"/>
<path d="M14.0902 21.7794C12.6802 22.7194 12.6802 24.2594 14.0902 25.1994C15.6902 26.2694 18.3102 26.2694 19.9102 25.1994C21.3202 24.2594 21.3202 22.7194 19.9102 21.7794C18.3202 20.7194 15.6902 20.7194 14.0902 21.7794Z" stroke="#666687" stroke-width="1.2" stroke-linecap="round" stroke-linejoin="round"/>
</svg>
