<svg width="32" height="32" viewBox="0 0 32 32" fill="none" xmlns="http://www.w3.org/2000/svg">
<path d="M22.3343 12.1619L19.8676 9.69526C18.9343 8.76193 17.6543 8.81526 17.0276 9.80193L15.6543 11.9753L20.041 16.3619L22.2143 14.9886C23.161 14.4019 23.2143 13.0286 22.3343 12.1619Z" stroke="#666687" stroke-width="1.2" stroke-linecap="round" stroke-linejoin="round"/>
<path d="M15.6526 11.9768L12.466 11.7901C10.6793 11.6835 10.066 12.2301 9.86597 13.9235L9.06597 20.6835C8.89263 22.1101 9.9193 23.1235 11.346 22.9635L18.106 22.1635C19.7993 21.9635 20.4126 21.3501 20.2393 19.5635L20.0526 16.3768" stroke="#666687" stroke-width="1.2" stroke-linecap="round" stroke-linejoin="round"/>
<path d="M9.98633 22.0292L12.453 19.5625" stroke="#666687" stroke-width="1.2" stroke-linecap="round" stroke-linejoin="round"/>
<path d="M11.9993 29.3346H19.9993C26.666 29.3346 29.3327 26.668 29.3327 20.0013V12.0013C29.3327 5.33464 26.666 2.66797 19.9993 2.66797H11.9993C5.33268 2.66797 2.66602 5.33464 2.66602 12.0013V20.0013C2.66602 26.668 5.33268 29.3346 11.9993 29.3346Z" stroke="#666687" stroke-width="1.2" stroke-linecap="round" stroke-linejoin="round"/>
</svg>
