<svg width="28" height="26" viewBox="0 0 28 26" fill="none" xmlns="http://www.w3.org/2000/svg">
<path d="M0.599609 24.6016H26.5996M4.59961 24.6016V1.60156C4.59961 1.33635 4.70497 1.08199 4.8925 0.894456C5.08004 0.70692 5.33439 0.601562 5.59961 0.601562H21.5996C21.8648 0.601562 22.1192 0.70692 22.3067 0.894456C22.4943 1.08199 22.5996 1.33635 22.5996 1.60156V24.6016M18.5996 12.6016C18.5996 13.43 17.928 14.1016 17.0996 14.1016C16.2712 14.1016 15.5996 13.43 15.5996 12.6016C15.5996 11.7731 16.2712 11.1016 17.0996 11.1016C17.928 11.1016 18.5996 11.7731 18.5996 12.6016Z" stroke="#666687" stroke-width="1.2" stroke-linecap="round" stroke-linejoin="round"/>
</svg>
