<svg width="33" height="32" viewBox="0 0 33 32" fill="none" xmlns="http://www.w3.org/2000/svg">
<path d="M4.00745 17.3475L11.7857 26.0777C13.844 28.3875 16.7995 29.7132 19.892 29.7132H26.7092C28.9149 29.7132 30.7092 27.9189 30.7092 25.7132V19.9989C30.7092 17.7932 28.9149 15.9989 26.7092 15.9989H15.4429C14.0623 15.9989 12.8955 16.9292 12.5377 18.1955L8.2726 13.5075C7.75717 12.9406 7.05088 12.608 6.28517 12.5726C5.52402 12.5429 4.78574 12.8023 4.21774 13.3177C3.06231 14.3715 2.9686 16.1795 4.00745 17.3475ZM4.98688 14.1623C5.32746 13.8515 5.77431 13.6983 6.23031 13.7132C6.69088 13.7349 7.11603 13.9349 7.42688 14.2755L12.564 19.9212C12.908 21.0012 13.8486 21.8389 15.0166 22.0057L22.0703 22.8503C22.3937 22.8892 22.668 22.6629 22.7057 22.3509C22.7435 22.0377 22.5195 21.7532 22.2063 21.7155L15.1652 20.8732C14.26 20.744 13.5663 19.9452 13.5663 19.0172C13.5663 17.9829 14.4086 17.1406 15.4429 17.1406H26.7092C28.284 17.1406 29.5663 18.4229 29.5663 19.9977V25.712C29.5663 27.2869 28.284 28.5692 26.7092 28.5692H19.892C17.124 28.5692 14.4806 27.384 12.6395 25.3166L4.86117 16.5863C4.23488 15.8835 4.29203 14.7955 4.98688 14.1612V14.1623Z" fill="#666687"/>
<path d="M17.5366 12.8346C20.7582 12.8346 23.3699 10.223 23.3699 7.0013C23.3699 3.77964 20.7582 1.16797 17.5366 1.16797C14.3149 1.16797 11.7032 3.77964 11.7032 7.0013C11.7032 10.223 14.3149 12.8346 17.5366 12.8346Z" stroke="#666687" stroke-linecap="round" stroke-linejoin="round"/>
<path d="M16.96 10L15.52 7.488V6.896H16C16.2827 6.896 16.52 6.83467 16.712 6.712C16.904 6.584 17.0267 6.408 17.08 6.184H15.52V5.592H17.072C17.024 5.38933 16.9253 5.22133 16.776 5.088C16.6267 4.94933 16.4187 4.88 16.152 4.88H15.52V4.288H19.128V4.88H17.872C18.0587 5.08267 18.176 5.32 18.224 5.592H19.128V6.184H18.24C18.1867 6.57867 18.032 6.888 17.776 7.112C17.5253 7.33067 17.2053 7.48 16.816 7.56L18.384 10H16.96Z" fill="#666687"/>
</svg>
