<svg width="33" height="32" viewBox="0 0 33 32" fill="none" xmlns="http://www.w3.org/2000/svg">
<path d="M23.5294 28H9.41179C5.1765 28 2.35297 25.8824 2.35297 20.9412V11.0588C2.35297 6.11765 5.1765 4 9.41179 4H23.5294C27.7647 4 30.5883 6.11765 30.5883 11.0588V20.9412C30.5883 25.8824 27.7647 28 23.5294 28Z" stroke="#666687" stroke-width="1.2" stroke-miterlimit="10" stroke-linecap="round" stroke-linejoin="round"/>
<path d="M11.824 20H10.42V16.508H6.256V20H4.852V11.996H6.256V15.272H10.42V11.996H11.824V20ZM16.2599 20.144C14.7839 20.144 13.7159 19.628 13.0079 18.872L13.7879 17.792C14.3399 18.38 15.2039 18.896 16.3199 18.896C17.4719 18.896 17.9279 18.332 17.9279 17.804C17.9279 16.124 13.2599 17.168 13.2599 14.216C13.2599 12.896 14.4239 11.876 16.1759 11.876C17.4239 11.876 18.4319 12.272 19.1759 12.992L18.3719 14.036C17.7479 13.412 16.8959 13.124 16.0559 13.124C15.2279 13.124 14.6999 13.52 14.6999 14.12C14.6999 15.608 19.3559 14.684 19.3559 17.672C19.3559 19.004 18.4199 20.144 16.2599 20.144ZM27.5849 20H26.2289L22.0529 14.288V20H20.6489V11.996H22.0889L26.1809 17.552V11.996H27.5849V20Z" fill="#666687"/>
</svg>
