<svg width="16" height="16" viewBox="0 0 16 16" fill="none" xmlns="http://www.w3.org/2000/svg">
<path d="M5.33337 1.33203V3.33203" stroke="#666687" stroke-width="0.8" stroke-miterlimit="10" stroke-linecap="round" stroke-linejoin="round"/>
<path d="M10.6666 1.33203V3.33203" stroke="#666687" stroke-width="0.8" stroke-miterlimit="10" stroke-linecap="round" stroke-linejoin="round"/>
<path d="M14 5.66536V11.332C14 13.332 13 14.6654 10.6667 14.6654H5.33333C3 14.6654 2 13.332 2 11.332V5.66536C2 3.66536 3 2.33203 5.33333 2.33203H10.6667C13 2.33203 14 3.66536 14 5.66536Z" stroke="#666687" stroke-width="0.8" stroke-miterlimit="10" stroke-linecap="round" stroke-linejoin="round"/>
<path d="M8.15997 10V9.79004C8.15997 9.11004 8.58 8.75002 9 8.46002C9.41 8.18002 9.81995 7.82003 9.81995 7.16003C9.81995 6.24003 9.07997 5.5 8.15997 5.5C7.23997 5.5 6.5 6.24003 6.5 7.16003" stroke="#666687" stroke-width="0.8" stroke-linecap="round" stroke-linejoin="round"/>
<path d="M8.15566 11.5H8.16466" stroke="#666687" stroke-width="0.8" stroke-linecap="round" stroke-linejoin="round"/>
</svg>
