<svg width="34" height="33" viewBox="0 0 34 33" fill="none" xmlns="http://www.w3.org/2000/svg">
<path d="M29.55 6.92024C29.55 6.43686 29.358 5.97328 29.0162 5.63148C28.6744 5.28968 28.2108 5.09766 27.7275 5.09766H16.8081C16.5611 5.0975 16.3166 5.14712 16.0892 5.24353C15.8618 5.33994 15.6562 5.48118 15.4846 5.65881C15.313 5.83644 15.1789 6.04683 15.0904 6.27741C15.0019 6.50799 14.9607 6.75405 14.9694 7.00088V11.2428C14.9735 11.3998 15.0377 11.5492 15.1487 11.6603C15.2597 11.7713 15.4092 11.8355 15.5662 11.8396C15.7287 11.8396 15.8846 11.775 15.9996 11.6601C16.1145 11.5451 16.1791 11.3892 16.1791 11.2267V7.00088C16.1832 6.83534 16.2507 6.67771 16.3678 6.56062C16.4849 6.44353 16.6426 6.37594 16.8081 6.37185H27.7275C27.89 6.37185 28.0459 6.43642 28.1608 6.55137C28.2758 6.66631 28.3404 6.8222 28.3404 6.98475V18.2751C27.466 17.315 26.3266 16.6358 25.0662 16.3235H22.2113C22.1316 16.3234 22.0526 16.3394 21.9792 16.3704C21.9057 16.4014 21.8392 16.4468 21.7835 16.5039C21.7279 16.5611 21.6843 16.6288 21.6553 16.703C21.6262 16.7773 21.6124 16.8567 21.6146 16.9364C21.6186 17.0934 21.6828 17.2428 21.7939 17.3538C21.9049 17.4649 22.0543 17.5291 22.2113 17.5331H25.0662C25.8242 17.5331 27.5823 18.9848 28.5984 20.017C28.6532 20.0782 28.7203 20.1272 28.7954 20.1605C28.8705 20.1939 28.9518 20.2109 29.0339 20.2106C29.1084 20.2258 29.1852 20.2258 29.2597 20.2106C29.3701 20.1632 29.464 20.0844 29.53 19.984C29.5959 19.8837 29.631 19.7661 29.6307 19.646L29.55 6.92024Z" fill="#666687"/>
<path d="M15.3882 16.6251L11.8559 20.6896L10.5495 19.6089C10.4233 19.5106 10.2632 19.4663 10.1044 19.486C9.9456 19.5056 9.80111 19.5876 9.70272 19.7138C9.60434 19.84 9.56011 20.0001 9.57977 20.1589C9.59943 20.3177 9.68137 20.4622 9.80756 20.5606L11.6301 21.996C11.7374 22.0766 11.867 22.1217 12.0011 22.1251C12.0761 22.1118 12.1476 22.0836 12.2113 22.042C12.2751 22.0004 12.3297 21.9464 12.3721 21.8831L16.3559 17.4315C16.4629 17.3032 16.5145 17.1376 16.4993 16.9713C16.4842 16.8049 16.4036 16.6514 16.2753 16.5444C16.2118 16.4915 16.1384 16.4516 16.0594 16.427C15.9805 16.4023 15.8974 16.3935 15.8151 16.401C15.6487 16.4161 15.4951 16.4967 15.3882 16.6251Z" fill="#666687"/>
<path d="M22.0319 12.4808L23.6448 14.0937C23.7566 14.2045 23.9068 14.2681 24.0642 14.2712C24.2265 14.2689 24.382 14.2056 24.4996 14.0937C24.6073 13.9774 24.6672 13.8248 24.6672 13.6663C24.6672 13.5078 24.6073 13.3552 24.4996 13.2389L22.8867 11.626L24.4996 10.0937C24.6073 9.97745 24.6672 9.8248 24.6672 9.66631C24.6672 9.50782 24.6073 9.35517 24.4996 9.23889C24.444 9.18183 24.3776 9.13648 24.3042 9.10551C24.2308 9.07455 24.1519 9.05859 24.0722 9.05859C23.9925 9.05859 23.9137 9.07455 23.8403 9.10551C23.7669 9.13648 23.7004 9.18183 23.6448 9.23889L22.0319 10.8518L20.4996 9.23889C20.3863 9.12553 20.2325 9.06185 20.0722 9.06185C19.9119 9.06185 19.7582 9.12553 19.6448 9.23889C19.5314 9.35225 19.4678 9.506 19.4678 9.66631C19.4678 9.82663 19.5314 9.98037 19.6448 10.0937L21.1771 11.626L20.1125 12.7066C19.8176 12.5189 19.478 12.4131 19.1287 12.4002H6.45125C5.93866 12.3954 5.44412 12.5892 5.07128 12.941C4.69843 13.2928 4.47624 13.7753 4.45125 14.2873L4.37061 28.1421C4.37034 28.2622 4.40535 28.3797 4.4713 28.4801C4.53725 28.5805 4.63124 28.6592 4.74157 28.7066C4.81608 28.7218 4.89288 28.7218 4.96738 28.7066C5.04953 28.707 5.13082 28.69 5.20589 28.6566C5.28096 28.6232 5.3481 28.5743 5.40286 28.5131C6.54803 27.3518 8.5319 25.7066 9.40286 25.7066H19.0803C19.6036 25.7024 20.1041 25.4915 20.4727 25.1199C20.8412 24.7483 21.048 24.2461 21.048 23.7228V14.2873C21.046 14.0107 20.9912 13.737 20.8867 13.4808L22.0319 12.4808ZM19.8222 23.7712C19.8223 23.9737 19.7429 24.1682 19.6012 24.313C19.4595 24.4577 19.2667 24.5411 19.0642 24.5453H9.38674C7.93217 24.883 6.60866 25.6401 5.58028 26.7228L5.70932 14.3034C5.70932 14.2017 5.72934 14.1011 5.76825 14.0071C5.80716 13.9132 5.86418 13.8279 5.93607 13.756C6.00796 13.6841 6.09331 13.6271 6.18724 13.5881C6.28117 13.5492 6.38184 13.5292 6.48351 13.5292H19.1771C19.3796 13.5334 19.5724 13.6169 19.7141 13.7616C19.8558 13.9063 19.9352 14.1008 19.9351 14.3034L19.8222 23.7712Z" fill="#666687"/>
</svg>
