<svg width="33" height="32" viewBox="0 0 33 32" fill="none" xmlns="http://www.w3.org/2000/svg">
<path d="M18.6662 8.41667C18.6662 7.225 17.6912 6.25 16.4995 6.25C15.3079 6.25 14.3329 7.225 14.3329 8.41667C14.3329 9.60833 15.3079 10.5833 16.4995 10.5833C17.6912 10.5833 18.6662 9.60833 18.6662 8.41667Z" stroke="#666687" stroke-width="0.975"/>
<path d="M18.6662 23.5846C18.6662 22.393 17.6912 21.418 16.4995 21.418C15.3079 21.418 14.3329 22.393 14.3329 23.5846C14.3329 24.7763 15.3079 25.7513 16.4995 25.7513C17.6912 25.7513 18.6662 24.7763 18.6662 23.5846Z" stroke="#666687" stroke-width="0.975"/>
<path d="M18.6662 15.9987C18.6662 14.807 17.6912 13.832 16.4995 13.832C15.3079 13.832 14.3329 14.807 14.3329 15.9987C14.3329 17.1904 15.3079 18.1654 16.4995 18.1654C17.6912 18.1654 18.6662 17.1904 18.6662 15.9987Z" stroke="#666687" stroke-width="0.975"/>
</svg>
