<svg width="33" height="32" viewBox="0 0 33 32" fill="none" xmlns="http://www.w3.org/2000/svg">
<g clip-path="url(#clip0_1021_96996)">
<path d="M29.5 23.5833H9.45833C8.56242 23.5833 7.83333 22.8542 7.83333 21.9583V5.70833C7.83333 4.2155 6.61892 3 5.125 3H3.5V4.08333H5.125C6.02092 4.08333 6.75 4.81242 6.75 5.70833V21.9583C6.75 23.4523 7.96442 24.6667 9.45833 24.6667H10V25.75C10 27.5418 11.4582 29 13.25 29C15.0418 29 16.5 27.5418 16.5 25.75V24.6667H20.8333V25.75C20.8333 27.5418 22.2915 29 24.0833 29C25.8752 29 27.3333 27.5418 27.3333 25.75V24.6667H29.5V23.5833ZM15.4167 25.75C15.4167 26.9449 14.4449 27.9167 13.25 27.9167C12.0551 27.9167 11.0833 26.9449 11.0833 25.75V24.6667H15.4167V25.75ZM26.25 25.75C26.25 26.9449 25.2783 27.9167 24.0833 27.9167C22.8884 27.9167 21.9167 26.9449 21.9167 25.75V24.6667H26.25V25.75ZM28.4167 8.95833C28.4167 7.4655 27.2023 6.25 25.7083 6.25H12.7083C11.2144 6.25 10 7.4655 10 8.95833V21.4167H28.4167V8.95833ZM17.5833 7.33333H20.8333V12.75H17.5833V7.33333ZM27.3333 20.3333H11.0833V8.95833C11.0833 8.06242 11.8124 7.33333 12.7083 7.33333H16.5V13.8333H21.9167V7.33333H25.7083C26.6042 7.33333 27.3333 8.06242 27.3333 8.95833V20.3333Z" fill="#666687"/>
</g>
<defs>
<clipPath id="clip0_1021_96996">
<rect width="26" height="26" fill="white" transform="translate(3.5 3)"/>
</clipPath>
</defs>
</svg>
