<svg width="32" height="32" viewBox="0 0 32 32" fill="none" xmlns="http://www.w3.org/2000/svg">
<g clip-path="url(#clip0_1021_96959)">
<path d="M24.125 3H7.875C5.18725 3 3 5.18725 3 7.875V16.5417C3 16.8407 3.24267 17.0833 3.54167 17.0833C3.84067 17.0833 4.08333 16.8407 4.08333 16.5417V11.6667H27.9167V15.4583C27.9167 15.7573 28.1593 16 28.4583 16C28.7573 16 29 15.7573 29 15.4583V7.875C29 5.18725 26.8127 3 24.125 3ZM4.08333 10.5833V7.875C4.08333 5.78417 5.78417 4.08333 7.875 4.08333H24.125C26.2158 4.08333 27.9167 5.78417 27.9167 7.875V10.5833H4.08333ZM8.41667 7.33333C8.41667 7.93133 7.93133 8.41667 7.33333 8.41667C6.73533 8.41667 6.25 7.93133 6.25 7.33333C6.25 6.73533 6.73533 6.25 7.33333 6.25C7.93133 6.25 8.41667 6.73533 8.41667 7.33333ZM11.6667 7.33333C11.6667 7.93133 11.1813 8.41667 10.5833 8.41667C9.98533 8.41667 9.5 7.93133 9.5 7.33333C9.5 6.73533 9.98533 6.25 10.5833 6.25C11.1813 6.25 11.6667 6.73533 11.6667 7.33333ZM14.9167 7.33333C14.9167 7.93133 14.4313 8.41667 13.8333 8.41667C13.2353 8.41667 12.75 7.93133 12.75 7.33333C12.75 6.73533 13.2353 6.25 13.8333 6.25C14.4313 6.25 14.9167 6.73533 14.9167 7.33333ZM9.5 20.3333C8.30508 20.3333 7.33333 21.3051 7.33333 22.5C7.33333 23.6949 8.30508 24.6667 9.5 24.6667C10.6949 24.6667 11.6667 23.6949 11.6667 22.5C11.6667 21.3051 10.6949 20.3333 9.5 20.3333ZM9.5 23.5833C8.902 23.5833 8.41667 23.098 8.41667 22.5C8.41667 21.902 8.902 21.4167 9.5 21.4167C10.098 21.4167 10.5833 21.902 10.5833 22.5C10.5833 23.098 10.098 23.5833 9.5 23.5833ZM15.2807 20.4514C15.3912 20.0311 15.3305 19.5934 15.1117 19.2197C14.8928 18.8448 14.5418 18.5773 14.1215 18.4678C13.699 18.3573 13.2624 18.418 12.8887 18.6368L12.6449 18.7788C12.2008 18.4061 11.6851 18.1158 11.125 17.9186V17.625C11.125 16.7291 10.3959 16 9.5 16C8.60408 16 7.875 16.7291 7.875 17.625V17.9186C7.31383 18.1158 6.79925 18.4061 6.35508 18.7788L6.11133 18.6368C5.73758 18.418 5.301 18.3573 4.8785 18.4678C4.45817 18.5783 4.10717 18.8459 3.88833 19.2186C3.6695 19.5934 3.60883 20.0311 3.71933 20.4514C3.82983 20.8717 4.09633 21.2228 4.47117 21.4427L4.72358 21.5911C4.65642 21.9118 4.62392 22.2064 4.62392 22.5C4.62392 22.7936 4.65533 23.0883 4.72358 23.4089L4.47008 23.5573C4.09525 23.7773 3.82875 24.1283 3.71933 24.5486C3.60883 24.9689 3.6695 25.4066 3.88833 25.7803C4.10717 26.1552 4.45817 26.4228 4.8785 26.5322C5.301 26.6438 5.73758 26.5831 6.11133 26.3632L6.35508 26.2213C6.79925 26.5939 7.31492 26.8843 7.875 27.0814V27.375C7.875 28.2709 8.60408 29 9.5 29C10.3959 29 11.125 28.2709 11.125 27.375V27.0814C11.6862 26.8843 12.2008 26.5939 12.6449 26.2213L12.8887 26.3632C13.2624 26.5831 13.699 26.6438 14.1215 26.5322C14.5418 26.4217 14.8928 26.1541 15.1117 25.7814C15.3305 25.4066 15.3912 24.9689 15.2807 24.5486C15.1702 24.1283 14.9037 23.7773 14.5288 23.5573L14.2764 23.4089C14.3436 23.0883 14.3761 22.7936 14.3761 22.5C14.3761 22.2064 14.3447 21.9118 14.2764 21.5911L14.5299 21.4427C14.9047 21.2228 15.1713 20.8717 15.2807 20.4514ZM13.1313 21.4741C13.2418 21.8619 13.2917 22.1869 13.2917 22.4989C13.2917 22.8109 13.2408 23.1359 13.1313 23.5238C13.0642 23.761 13.166 24.0134 13.3794 24.138L13.9818 24.4901C14.2396 24.6418 14.3273 24.9732 14.1768 25.2322C14.0348 25.4867 13.6838 25.5799 13.4347 25.4261L12.8475 25.0838C12.6373 24.9603 12.3654 24.9949 12.191 25.1693C11.723 25.6406 11.1207 25.9807 10.449 26.1541C10.2096 26.2169 10.0428 26.4325 10.0428 26.6784V27.3739C10.0428 27.6718 9.799 27.9156 9.50108 27.9156C9.20317 27.9156 8.95942 27.6718 8.95942 27.3739V26.6784C8.95942 26.4314 8.79258 26.2158 8.55317 26.1541C7.8815 25.9807 7.27808 25.6395 6.81117 25.1693C6.70608 25.0643 6.56742 25.0101 6.42767 25.0101C6.33342 25.0101 6.23917 25.0339 6.15467 25.0838L5.5675 25.4261C5.314 25.5778 4.9695 25.4878 4.82542 25.2311C4.67375 24.9743 4.7615 24.6418 5.01933 24.4901L5.62275 24.138C5.83617 24.0134 5.938 23.7599 5.87083 23.5238C5.76033 23.1359 5.7105 22.8109 5.7105 22.4989C5.7105 22.1869 5.76142 21.8619 5.87083 21.4741C5.938 21.2368 5.83617 20.9844 5.62275 20.8598L5.02042 20.5077C4.76258 20.3561 4.67483 20.0246 4.82542 19.7657C4.96733 19.51 5.31942 19.4212 5.5675 19.5718L6.15467 19.9141C6.36592 20.0376 6.63675 20.004 6.81117 19.8285C7.27917 19.3573 7.8815 19.0171 8.55317 18.8438C8.79258 18.7809 8.95942 18.5653 8.95942 18.3194V17.6239C8.95942 17.326 9.20317 17.0822 9.50108 17.0822C9.799 17.0822 10.0428 17.326 10.0428 17.6239V18.3194C10.0428 18.5664 10.2096 18.782 10.449 18.8438C11.1207 19.0171 11.7241 19.3583 12.191 19.8285C12.3654 20.004 12.6373 20.0376 12.8475 19.9141L13.4347 19.5718C13.6871 19.419 14.0338 19.51 14.1768 19.7668C14.3284 20.0235 14.2407 20.3561 13.9828 20.5077L13.3794 20.8598C13.166 20.9844 13.0642 21.2379 13.1313 21.4741ZM25.9667 22.2909L28.0662 21.2412C28.6241 20.9617 28.9762 20.3799 28.9632 19.7613C28.9534 19.1373 28.5797 18.5664 27.9632 18.2913L18.4473 15.0163C17.7604 14.7856 17.0194 14.9589 16.5168 15.4659C15.9978 15.9848 15.8353 16.7193 16.0813 17.4322C16.0813 17.4322 19.354 26.9417 19.3594 26.9579C19.6173 27.5278 20.1947 27.9026 20.8393 27.9123C21.4578 27.9123 22.0147 27.5689 22.2931 27.0142L23.358 24.8822L25.8616 27.3761C26.5452 28.0868 27.7834 28.0857 28.4627 27.3761C29.1755 26.6925 29.1744 25.4553 28.4605 24.775L25.9656 22.2931L25.9667 22.2909ZM27.6968 26.6091C27.4151 26.8897 26.9113 26.894 26.6264 26.6069L23.592 23.5844C23.4707 23.462 23.2984 23.4013 23.1218 23.4338C22.9507 23.4609 22.8033 23.5703 22.7253 23.7263L21.3246 26.5278C21.2325 26.7131 21.0462 26.8279 20.849 26.8279C20.6378 26.8247 20.4471 26.7087 20.3572 26.53L17.1061 17.0779C16.9967 16.7616 17.0617 16.4528 17.2859 16.2297C17.4972 16.0152 17.8124 15.9426 18.0995 16.0412L27.5646 19.2955C27.7542 19.3811 27.8777 19.5707 27.8809 19.7798C27.8853 19.9856 27.7682 20.1784 27.583 20.2716L24.8086 21.6572C24.6526 21.7352 24.5443 21.8836 24.5161 22.0558C24.4879 22.227 24.5443 22.4025 24.6688 22.526L27.6978 25.5398C27.8398 25.6818 27.9177 25.8713 27.9177 26.0728C27.9177 26.2743 27.8398 26.4661 27.6968 26.6091Z" fill="#666687"/>
</g>
<defs>
<clipPath id="clip0_1021_96959">
<rect width="26" height="26" fill="white" transform="translate(3 3)"/>
</clipPath>
</defs>
</svg>
