<svg width="33" height="32" viewBox="0 0 33 32" fill="none" xmlns="http://www.w3.org/2000/svg">
<g clip-path="url(#clip0_1021_97063)">
<path d="M29.1117 13.4542C28.57 12.9667 27.8767 12.7067 27.1508 12.75C26.425 12.7825 25.7533 13.0967 25.2658 13.6383L21.225 18.08C20.8892 16.8775 19.7842 16 18.4733 16H7.79167C5.70083 16 4 17.7008 4 19.7917V25.2083C4 27.2992 5.70083 29 7.79167 29H14.2483C17.1842 29 19.9792 27.7433 21.9292 25.555L29.3067 17.2783C30.2925 16.1733 30.2058 14.4617 29.1117 13.4542ZM28.505 16.5525L21.1275 24.8292C19.3833 26.79 16.8808 27.9167 14.2483 27.9167H7.79167C6.29667 27.9167 5.08333 26.7033 5.08333 25.2083V19.7917C5.08333 18.2967 6.29667 17.0833 7.79167 17.0833H18.4733C19.4592 17.0833 20.25 17.885 20.25 18.86C20.25 19.7375 19.5892 20.4958 18.7333 20.615L12.06 21.4167C11.7675 21.4492 11.5508 21.72 11.5833 22.0233C11.6158 22.3158 11.8758 22.5433 12.19 22.5L18.8742 21.6983C19.9792 21.5358 20.8783 20.745 21.2033 19.7267L26.0675 14.375C26.36 14.05 26.7608 13.8658 27.205 13.8442C27.6383 13.8225 28.0608 13.9742 28.3858 14.2667C29.0467 14.8733 29.1008 15.9025 28.505 16.5633V16.5525ZM9.41667 6.51C9.41667 5.16667 10.5108 4.08333 11.8433 4.08333H12.6667V3.54167C12.6667 3.23833 12.905 3 13.2083 3C13.5117 3 13.75 3.23833 13.75 3.54167V4.08333H14.3458C15.4075 4.08333 16.3933 4.6575 16.9242 5.57833C17.0758 5.83833 16.9892 6.16333 16.7292 6.315C16.4692 6.46667 16.1333 6.38 15.9925 6.12C15.6567 5.535 15.0283 5.16667 14.3458 5.16667H11.8433C11.0958 5.16667 10.5 5.77333 10.5 6.51C10.5 7.095 10.8683 7.60417 11.4208 7.78833L15.3425 9.09917C16.3392 9.435 17 10.3558 17 11.4067C17 12.75 15.9058 13.8333 14.5733 13.8333H13.75V14.375C13.75 14.6783 13.5117 14.9167 13.2083 14.9167C12.905 14.9167 12.6667 14.6783 12.6667 14.375V13.8333H12.0708C11.0092 13.8333 10.0233 13.2592 9.4925 12.3383C9.34083 12.0783 9.4275 11.7533 9.6875 11.6017C9.9475 11.45 10.2833 11.5367 10.4242 11.7967C10.76 12.3817 11.3883 12.75 12.0708 12.75H14.5733C15.3208 12.75 15.9167 12.1433 15.9167 11.4067C15.9167 10.8217 15.5483 10.3125 14.9958 10.1283L11.0742 8.8175C10.0775 8.48167 9.41667 7.56083 9.41667 6.51Z" fill="#666687"/>
</g>
<defs>
<clipPath id="clip0_1021_97063">
<rect width="26" height="26" fill="white" transform="translate(4 3)"/>
</clipPath>
</defs>
</svg>
