<svg width="33" height="32" viewBox="0 0 33 32" fill="none" xmlns="http://www.w3.org/2000/svg">
<g clip-path="url(#clip0_1021_97034)">
<path d="M12.6667 16C16.2514 16 19.1667 13.0848 19.1667 9.5C19.1667 5.91525 16.2514 3 12.6667 3C9.08192 3 6.16667 5.91525 6.16667 9.5C6.16667 13.0848 9.08192 16 12.6667 16ZM12.6667 4.08333C15.6534 4.08333 18.0833 6.51325 18.0833 9.5C18.0833 12.4868 15.6534 14.9167 12.6667 14.9167C9.67992 14.9167 7.25 12.4868 7.25 9.5C7.25 6.51325 9.67992 4.08333 12.6667 4.08333ZM13.75 18.7083C13.75 19.0073 13.5073 19.25 13.2083 19.25C8.72767 19.25 5.08333 22.8943 5.08333 27.375V28.4583C5.08333 28.7573 4.84067 29 4.54167 29C4.24267 29 4 28.7573 4 28.4583V27.375C4 22.2974 8.13075 18.1667 13.2083 18.1667C13.5073 18.1667 13.75 18.4093 13.75 18.7083ZM22.4167 19.25C21.2218 19.25 20.25 20.2218 20.25 21.4167C20.25 22.6116 21.2218 23.5833 22.4167 23.5833C23.6116 23.5833 24.5833 22.6116 24.5833 21.4167C24.5833 20.2218 23.6116 19.25 22.4167 19.25ZM22.4167 22.5C21.8197 22.5 21.3333 22.0136 21.3333 21.4167C21.3333 20.8197 21.8197 20.3333 22.4167 20.3333C23.0136 20.3333 23.5 20.8197 23.5 21.4167C23.5 22.0136 23.0136 22.5 22.4167 22.5ZM28.3815 23.0178L27.6817 22.6094C27.7835 22.1923 27.8333 21.8002 27.8333 21.4177C27.8333 21.0353 27.7835 20.6432 27.6817 20.225L28.3815 19.8166C28.7563 19.5977 29.0239 19.2457 29.1344 18.8253C29.2449 18.405 29.1843 17.9673 28.9654 17.5936C28.7466 17.2188 28.3956 16.9512 27.9753 16.8407C27.5538 16.7302 27.1173 16.7898 26.7424 17.0086L26.048 17.4138C25.4662 16.8851 24.7838 16.4908 24.0406 16.2568V15.4572C24.0406 14.5613 23.3115 13.8322 22.4156 13.8322C21.5197 13.8322 20.7906 14.5613 20.7906 15.4572V16.2568C20.0463 16.4908 19.3649 16.8851 18.7832 17.4138L18.0888 17.0086C17.7139 16.7898 17.2762 16.7302 16.8559 16.8407C16.4367 16.9512 16.0846 17.2188 15.8658 17.5925C15.6469 17.9673 15.5873 18.405 15.6968 18.8243C15.8062 19.2435 16.0748 19.5967 16.4497 19.8155L17.1495 20.2239C17.0477 20.641 16.9978 21.0343 16.9978 21.4167C16.9978 21.7991 17.0477 22.1913 17.1495 22.6083L16.4497 23.0168C16.0748 23.2356 15.8073 23.5877 15.6968 24.008C15.5863 24.4283 15.6469 24.866 15.8658 25.2397C16.0846 25.6146 16.4356 25.8822 16.8559 25.9927C17.2762 26.1032 17.7139 26.0436 18.0877 25.8237L18.7821 25.4185C19.3638 25.9483 20.0463 26.3415 20.7895 26.5755V27.375C20.7895 28.2709 21.5186 29 22.4145 29C23.3104 29 24.0395 28.2709 24.0395 27.375V26.5755C24.7838 26.3404 25.4652 25.9472 26.0469 25.4185L26.7402 25.8237C27.1151 26.0436 27.5527 26.1021 27.9731 25.9927C28.3934 25.8822 28.7444 25.6146 28.9632 25.2408C29.1821 24.866 29.2417 24.4283 29.1322 24.0091C29.0228 23.5898 28.7542 23.2367 28.3793 23.0178H28.3815ZM28.0305 24.6938C27.9579 24.8183 27.8398 24.9083 27.7001 24.944C27.5603 24.9808 27.4141 24.9603 27.2895 24.8877L26.2376 24.2734C26.0198 24.1456 25.7425 24.1857 25.5692 24.3709C24.9744 25.0058 24.2161 25.4423 23.3798 25.633C23.1328 25.6893 22.9583 25.9082 22.9583 26.1606V27.3739C22.9583 27.6729 22.7157 27.9156 22.4167 27.9156C22.1177 27.9156 21.875 27.6729 21.875 27.3739V26.1606C21.875 25.9082 21.7006 25.6883 21.4536 25.633C20.6162 25.4423 19.8589 25.0058 19.2642 24.3709C19.1591 24.2582 19.015 24.1998 18.8688 24.1998C18.7756 24.1998 18.6813 24.2236 18.5957 24.2734L17.5438 24.8877C17.4193 24.9603 17.273 24.9808 17.1333 24.944C16.9935 24.9072 16.8765 24.8183 16.8028 24.6927C16.7303 24.5681 16.7097 24.4218 16.7465 24.2832C16.7833 24.1434 16.8722 24.0253 16.9967 23.9528L18.0573 23.3331C18.2762 23.2052 18.3769 22.9442 18.3011 22.7026C18.1516 22.227 18.0822 21.8175 18.0822 21.4156C18.0822 21.0137 18.1516 20.6053 18.3011 20.1286C18.3769 19.887 18.2762 19.6259 18.0573 19.4992L16.9967 18.8806C16.8722 18.808 16.7823 18.6899 16.7465 18.5502C16.7097 18.4104 16.7292 18.2653 16.8028 18.1396C16.8754 18.015 16.9935 17.9251 17.1333 17.8893C17.2719 17.8514 17.4182 17.8709 17.5438 17.9446L18.5957 18.5588C18.8135 18.6856 19.0919 18.6466 19.2642 18.4624C19.8589 17.8276 20.6173 17.391 21.4536 17.2003C21.7006 17.144 21.875 16.9252 21.875 16.6728V15.4594C21.875 15.1604 22.1177 14.9178 22.4167 14.9178C22.7157 14.9178 22.9583 15.1604 22.9583 15.4594V16.6728C22.9583 16.9252 23.1328 17.1451 23.3798 17.2003C24.2172 17.391 24.9744 17.8276 25.5692 18.4624C25.7425 18.6466 26.0198 18.6867 26.2376 18.5588L27.2895 17.9446C27.4141 17.8709 27.5603 17.8514 27.7001 17.8893C27.8398 17.9262 27.9568 18.015 28.0305 18.1407C28.1031 18.2653 28.1237 18.4115 28.0868 18.5502C28.05 18.6899 27.9612 18.808 27.8366 18.8806L26.776 19.4992C26.5572 19.6259 26.4564 19.887 26.5323 20.1286C26.6818 20.6053 26.7511 21.0148 26.7511 21.4156C26.7511 21.8164 26.6818 22.2259 26.5323 22.7026C26.4564 22.9442 26.5572 23.2052 26.776 23.3331L27.8366 23.9528C27.9612 24.0253 28.0511 24.1434 28.0868 24.2832C28.1237 24.4229 28.1042 24.5681 28.0305 24.6938Z" fill="#666687"/>
</g>
<defs>
<clipPath id="clip0_1021_97034">
<rect width="26" height="26" fill="white" transform="translate(4 3)"/>
</clipPath>
</defs>
</svg>
