<svg width="33" height="32" viewBox="0 0 33 32" fill="none" xmlns="http://www.w3.org/2000/svg">
<g clip-path="url(#clip0_1021_97029)">
<path d="M12.6667 3C9.08192 3 6.16667 5.91525 6.16667 9.5C6.16667 13.0848 9.08192 16 12.6667 16C16.2514 16 19.1667 13.0848 19.1667 9.5C19.1667 5.91525 16.2514 3 12.6667 3ZM12.6667 14.9167C9.67992 14.9167 7.25 12.4868 7.25 9.5C7.25 6.51325 9.67992 4.08333 12.6667 4.08333C15.6534 4.08333 18.0833 6.51325 18.0833 9.5C18.0833 12.4868 15.6534 14.9167 12.6667 14.9167ZM16.9372 19.8989C16.7985 20.1643 16.4703 20.2651 16.2059 20.1243C15.1226 19.5522 13.8995 19.25 12.6667 19.25C8.485 19.25 5.08333 22.6517 5.08333 26.8333V28.4583C5.08333 28.7573 4.84067 29 4.54167 29C4.24267 29 4 28.7573 4 28.4583V26.8333C4 22.0548 7.88808 18.1667 12.6667 18.1667C14.075 18.1667 15.4736 18.5123 16.7118 19.1666C16.9762 19.3063 17.078 19.6335 16.9372 19.8978V19.8989ZM27.8333 19.6173V17.6261C27.8333 15.5353 26.1325 13.8344 24.0417 13.8344C21.9508 13.8344 20.25 15.5353 20.25 17.6261V19.6173C18.9706 20.2272 18.0833 21.5337 18.0833 23.0427V25.2094C18.0833 27.3003 19.7842 29.0011 21.875 29.0011H26.2083C28.2992 29.0011 30 27.3003 30 25.2094V23.0427C30 21.5337 29.1128 20.2272 27.8333 19.6173ZM21.3333 17.6261C21.3333 16.1333 22.5488 14.9178 24.0417 14.9178C25.5345 14.9178 26.75 16.1333 26.75 17.6261V19.2901C26.5734 19.2652 26.3925 19.2511 26.2083 19.2511H21.875C21.6908 19.2511 21.5099 19.2641 21.3333 19.2901V17.6261ZM28.9167 25.2094C28.9167 26.7022 27.7012 27.9177 26.2083 27.9177H21.875C20.3822 27.9177 19.1667 26.7022 19.1667 25.2094V23.0427C19.1667 21.5499 20.3822 20.3344 21.875 20.3344H26.2083C27.7012 20.3344 28.9167 21.5499 28.9167 23.0427V25.2094ZM25.125 24.1261C25.125 24.7241 24.6397 25.2094 24.0417 25.2094C23.4437 25.2094 22.9583 24.7241 22.9583 24.1261C22.9583 23.5281 23.4437 23.0427 24.0417 23.0427C24.6397 23.0427 25.125 23.5281 25.125 24.1261Z" fill="#666687"/>
</g>
<defs>
<clipPath id="clip0_1021_97029">
<rect width="26" height="26" fill="white" transform="translate(4 3)"/>
</clipPath>
</defs>
</svg>
