<svg xmlns="http://www.w3.org/2000/svg" xmlns:xlink="http://www.w3.org/1999/xlink" width="50" height="50" viewBox="0 0 50 50">
  <defs>
    <clipPath id="clip-Manage_Homepage">
      <rect width="50" height="50"/>
    </clipPath>
  </defs>
  <g id="Manage_Homepage" data-name="Manage Homepage" clip-path="url(#clip-Manage_Homepage)">
    <g id="MANAGE_HOMEPAGE-2" data-name="MANAGE HOMEPAGE" transform="translate(-34.888 -24.476)">
      <path id="Path_56" data-name="Path 56" d="M59.437,63.6V86.452H71.171V73.44h8.67V86.452H91.575V63.6L75.506,51.085ZM90.462,85.338H80.954V72.327h-10.9V85.338H60.55v-21.2L75.506,52.5,90.462,64.142Z" transform="translate(-16.081 -17.775)"/>
      <path id="Path_56_-_Outline" data-name="Path 56 - Outline" d="M75.506,50.935a.15.15,0,0,1,.092.032L91.668,63.479a.15.15,0,0,1,.058.118V86.452a.15.15,0,0,1-.15.15H79.841a.15.15,0,0,1-.15-.15V73.59h-8.37V86.452a.15.15,0,0,1-.15.15H59.437a.15.15,0,0,1-.15-.15V63.6a.15.15,0,0,1,.058-.118L75.414,50.967A.15.15,0,0,1,75.506,50.935ZM91.425,63.671l-15.919-12.4-15.919,12.4V86.3H71.021V73.44a.15.15,0,0,1,.15-.15h8.67a.15.15,0,0,1,.15.15V86.3H91.425ZM75.506,52.346a.15.15,0,0,1,.092.032L90.555,64.024a.15.15,0,0,1,.058.118v21.2a.15.15,0,0,1-.15.15H80.954a.15.15,0,0,1-.15-.15V72.477h-10.6V85.338a.15.15,0,0,1-.15.15H60.55a.15.15,0,0,1-.15-.15v-21.2a.15.15,0,0,1,.058-.118L75.414,52.378A.15.15,0,0,1,75.506,52.346ZM90.312,64.215,75.506,52.686,60.7,64.215V85.188h9.208V72.327a.15.15,0,0,1,.15-.15h10.9a.15.15,0,0,1,.15.15V85.188h9.208Z" transform="translate(-16.081 -17.775)"/>
      <path id="Path_57" data-name="Path 57" d="M39.888,44.58l.681.88L59.426,30.883,78.283,45.461l.681-.88-19.538-15.1Z" transform="translate(0 0)"/>
      <path id="Path_57_-_Outline" data-name="Path 57 - Outline" d="M78.283,45.611a.15.15,0,0,1-.092-.031L59.426,31.073,40.66,45.58a.15.15,0,0,1-.21-.027l-.681-.88a.15.15,0,0,1,.027-.21l19.538-15.1a.15.15,0,0,1,.183,0l19.538,15.1a.15.15,0,0,1,.027.21l-.681.88a.15.15,0,0,1-.1.057ZM59.426,30.733a.15.15,0,0,1,.092.031L78.256,45.251l.5-.643L59.426,29.666,40.1,44.607l.5.643L59.334,30.764A.15.15,0,0,1,59.426,30.733Z" transform="translate(0 0)"/>
      <path id="Path_58" data-name="Path 58" d="M202.567,36.2h2.62v5.289l1.113.86V35.091h-4.846v3.516l1.113.86Z" transform="translate(-132.898 -4.618)"/>
      <path id="Path_58_-_Outline" data-name="Path 58 - Outline" d="M201.454,34.941H206.3a.15.15,0,0,1,.15.15v7.263a.15.15,0,0,1-.242.119l-1.113-.86a.15.15,0,0,1-.058-.119V36.354h-2.32v3.114a.15.15,0,0,1-.242.119l-1.113-.86a.15.15,0,0,1-.058-.119V35.091A.15.15,0,0,1,201.454,34.941Zm4.7.3H201.6v3.293l.813.629V36.2a.15.15,0,0,1,.15-.15h2.62a.15.15,0,0,1,.15.15v5.215l.813.629Z" transform="translate(-132.898 -4.618)"/>
    </g>
  </g>
</svg>
