<svg width="33" height="32" viewBox="0 0 33 32" fill="none" xmlns="http://www.w3.org/2000/svg">
<path d="M13.0228 5.31124L6.73443 10.2112C5.68443 11.0279 4.83276 12.7662 4.83276 14.0846V22.7296C4.83276 25.4362 7.03776 27.6529 9.74443 27.6529H23.2544C25.9611 27.6529 28.1661 25.4362 28.1661 22.7412V14.2479C28.1661 12.8362 27.2211 11.0279 26.0661 10.2229L18.8561 5.17124C17.2228 4.02791 14.5978 4.08624 13.0228 5.31124Z" stroke="#666687" stroke-width="1.2" stroke-linecap="round" stroke-linejoin="round"/>
<path d="M14.75 23H18.25C20.175 23 21.75 21.425 21.75 19.5V16C21.75 14.075 20.175 12.5 18.25 12.5H14.75C12.825 12.5 11.25 14.075 11.25 16V19.5C11.25 21.425 12.825 23 14.75 23Z" stroke="#666687" stroke-width="1.2" stroke-linecap="round" stroke-linejoin="round"/>
<path d="M16.5 12.5V23" stroke="#666687" stroke-width="1.2" stroke-linecap="round" stroke-linejoin="round"/>
<path d="M11.25 17.75H21.75" stroke="#666687" stroke-width="1.2" stroke-linecap="round" stroke-linejoin="round"/>
</svg>
