<svg width="16" height="16" viewBox="0 0 16 16" fill="none" xmlns="http://www.w3.org/2000/svg">
<path d="M7.63993 9.15291C8.67455 9.15291 9.51327 8.31419 9.51327 7.27958C9.51327 6.24497 8.67455 5.40625 7.63993 5.40625C6.60532 5.40625 5.7666 6.24497 5.7666 7.27958C5.7666 8.31419 6.60532 9.15291 7.63993 9.15291Z" stroke="#666687" stroke-width="0.8" stroke-linecap="round" stroke-linejoin="round"/>
<path d="M11.0997 13.4646C11.0997 11.9112 9.55302 10.6445 7.63969 10.6445C5.72635 10.6445 4.17969 11.9046 4.17969 13.4646" stroke="#666687" stroke-width="0.8" stroke-linecap="round" stroke-linejoin="round"/>
<path d="M9.97779 2.86198C10.1814 2.94771 10.4159 2.85215 10.5017 2.64855C10.5874 2.44495 10.4918 2.2104 10.2882 2.12467L9.97779 2.86198ZM13.9997 8.33333H13.5997C13.5997 11.6124 10.9454 14.2667 7.66634 14.2667V14.6667V15.0667C11.3873 15.0667 14.3997 12.0542 14.3997 8.33333H13.9997ZM7.66634 14.6667V14.2667C4.38726 14.2667 1.73301 11.6124 1.73301 8.33333H1.33301H0.933008C0.933008 12.0542 3.94543 15.0667 7.66634 15.0667V14.6667ZM1.33301 8.33333H1.73301C1.73301 5.05425 4.38726 2.4 7.66634 2.4V2V1.6C3.94543 1.6 0.933008 4.61242 0.933008 8.33333H1.33301ZM7.66634 2V2.4C8.48632 2.4 9.26688 2.56265 9.97779 2.86198L10.133 2.49333L10.2882 2.12467C9.47913 1.784 8.59303 1.6 7.66634 1.6V2ZM13.5 6L13.1313 6.15522C13.4353 6.8772 13.5997 7.52418 13.5997 8.33333H13.9997H14.3997C14.3997 7.39582 14.2047 6.6428 13.8687 5.84478L13.5 6Z" fill="#666687"/>
<path d="M12.5 4.375C12.9832 4.375 13.375 3.98325 13.375 3.5C13.375 3.01675 12.9832 2.625 12.5 2.625C12.0168 2.625 11.625 3.01675 11.625 3.5C11.625 3.98325 12.0168 4.375 12.5 4.375Z" stroke="#666687" stroke-width="0.6" stroke-miterlimit="10" stroke-linecap="round" stroke-linejoin="round"/>
<path d="M9.58447 3.75577V3.24244C9.58447 2.93911 9.83239 2.68827 10.1386 2.68827C10.6666 2.68827 10.8824 2.31494 10.617 1.85702C10.4653 1.59452 10.5557 1.25327 10.8211 1.10161L11.3257 0.812857C11.5561 0.675773 11.8536 0.75744 11.9907 0.987857L12.0228 1.04327C12.2853 1.50119 12.717 1.50119 12.9824 1.04327L13.0145 0.987857C13.1516 0.75744 13.4491 0.675773 13.6795 0.812857L14.1841 1.10161C14.4495 1.25327 14.5399 1.59452 14.3882 1.85702C14.1228 2.31494 14.3386 2.68827 14.8666 2.68827C15.1699 2.68827 15.4207 2.93619 15.4207 3.24244V3.75577C15.4207 4.05911 15.1728 4.30994 14.8666 4.30994C14.3386 4.30994 14.1228 4.68327 14.3882 5.14119C14.5399 5.40661 14.4495 5.74494 14.1841 5.89661L13.6795 6.18536C13.4491 6.32244 13.1516 6.24077 13.0145 6.01036L12.9824 5.95494C12.7199 5.49702 12.2882 5.49702 12.0228 5.95494L11.9907 6.01036C11.8536 6.24077 11.5561 6.32244 11.3257 6.18536L10.8211 5.89661C10.5557 5.74494 10.4653 5.40369 10.617 5.14119C10.8824 4.68327 10.6666 4.30994 10.1386 4.30994C9.83239 4.30994 9.58447 4.05911 9.58447 3.75577Z" stroke="#666687" stroke-width="0.7" stroke-miterlimit="10" stroke-linecap="round" stroke-linejoin="round"/>
</svg>
