<svg width="33" height="32" viewBox="0 0 33 32" fill="none" xmlns="http://www.w3.org/2000/svg">
<path d="M7.63642 19.5455H17.091C18.0683 19.5455 18.8637 18.7501 18.8637 17.7727V16.5909C18.8637 15.6135 18.0683 14.8182 17.091 14.8182H7.63642C6.65906 14.8182 5.86369 15.6135 5.86369 16.5909V17.7727C5.86369 18.7501 6.65906 19.5455 7.63642 19.5455ZM7.04551 16.5909C7.04551 16.2647 7.31024 16 7.63642 16H17.091C17.4171 16 17.6819 16.2647 17.6819 16.5909V17.7727C17.6819 18.0989 17.4171 18.3636 17.091 18.3636H7.63642C7.31024 18.3636 7.04551 18.0989 7.04551 17.7727V16.5909ZM21.8182 25.4545H25.3637C26.3411 25.4545 27.1364 24.6592 27.1364 23.6818V16.5909C27.1364 15.6135 26.3411 14.8182 25.3637 14.8182H21.8182C20.8409 14.8182 20.0455 15.6135 20.0455 16.5909V23.6818C20.0455 24.6592 20.8409 25.4545 21.8182 25.4545ZM21.2273 16.5909C21.2273 16.2647 21.4921 16 21.8182 16H25.3637C25.6899 16 25.9546 16.2647 25.9546 16.5909V23.6818C25.9546 24.008 25.6899 24.2727 25.3637 24.2727H21.8182C21.4921 24.2727 21.2273 24.008 21.2273 23.6818V16.5909ZM7.63642 25.4545H17.091C18.0683 25.4545 18.8637 24.6592 18.8637 23.6818V22.5C18.8637 21.5226 18.0683 20.7273 17.091 20.7273H7.63642C6.65906 20.7273 5.86369 21.5226 5.86369 22.5V23.6818C5.86369 24.6592 6.65906 25.4545 7.63642 25.4545ZM7.04551 22.5C7.04551 22.1738 7.31024 21.9091 7.63642 21.9091H17.091C17.4171 21.9091 17.6819 22.1738 17.6819 22.5V23.6818C17.6819 24.008 17.4171 24.2727 17.091 24.2727H7.63642C7.31024 24.2727 7.04551 24.008 7.04551 23.6818V22.5ZM25.3637 3H7.63642C4.70433 3 2.31824 5.38609 2.31824 8.31818V23.6818C2.31824 26.6139 4.70433 29 7.63642 29H25.3637C28.2958 29 30.6819 26.6139 30.6819 23.6818V8.31818C30.6819 5.38609 28.2958 3 25.3637 3ZM29.5001 23.6818C29.5001 25.9627 27.6446 27.8182 25.3637 27.8182H7.63642C5.35551 27.8182 3.50006 25.9627 3.50006 23.6818V12.4545H29.5001V23.6818ZM29.5001 11.2727H3.50006V8.31818C3.50006 6.03727 5.35551 4.18182 7.63642 4.18182H25.3637C27.6446 4.18182 29.5001 6.03727 29.5001 8.31818V11.2727ZM15.3182 7.72727C15.3182 8.37964 14.7888 8.90909 14.1364 8.90909C13.4841 8.90909 12.9546 8.37964 12.9546 7.72727C12.9546 7.07491 13.4841 6.54545 14.1364 6.54545C14.7888 6.54545 15.3182 7.07491 15.3182 7.72727ZM8.22733 7.72727C8.22733 8.37964 7.69787 8.90909 7.04551 8.90909C6.39315 8.90909 5.86369 8.37964 5.86369 7.72727C5.86369 7.07491 6.39315 6.54545 7.04551 6.54545C7.69787 6.54545 8.22733 7.07491 8.22733 7.72727ZM11.7728 7.72727C11.7728 8.37964 11.2433 8.90909 10.591 8.90909C9.9386 8.90909 9.40915 8.37964 9.40915 7.72727C9.40915 7.07491 9.9386 6.54545 10.591 6.54545C11.2433 6.54545 11.7728 7.07491 11.7728 7.72727Z" fill="#666687"/>
</svg>
