<svg width="33" height="32" viewBox="0 0 33 32" fill="none" xmlns="http://www.w3.org/2000/svg">
<path d="M27.3333 12.2313V7.31297C27.3333 5.78547 26.64 5.16797 24.9175 5.16797H20.5408C18.8183 5.16797 18.125 5.78547 18.125 7.31297V12.2205C18.125 13.7588 18.8183 14.3655 20.5408 14.3655H24.9175C26.64 14.3763 27.3333 13.7588 27.3333 12.2313Z" stroke="#666687" stroke-width="0.975" stroke-linecap="round" stroke-linejoin="round"/>
<path d="M27.3333 24.4175V20.0408C27.3333 18.3183 26.64 17.625 24.9175 17.625H20.5408C18.8183 17.625 18.125 18.3183 18.125 20.0408V24.4175C18.125 26.14 18.8183 26.8333 20.5408 26.8333H24.9175C26.64 26.8333 27.3333 26.14 27.3333 24.4175Z" stroke="#666687" stroke-width="0.975" stroke-linecap="round" stroke-linejoin="round"/>
<path d="M14.8745 12.2313V7.31297C14.8745 5.78547 14.1811 5.16797 12.4586 5.16797H8.08197C6.35947 5.16797 5.66614 5.78547 5.66614 7.31297V12.2205C5.66614 13.7588 6.35947 14.3655 8.08197 14.3655H12.4586C14.1811 14.3763 14.8745 13.7588 14.8745 12.2313Z" stroke="#666687" stroke-width="0.975" stroke-linecap="round" stroke-linejoin="round"/>
<path d="M14.8745 24.4175V20.0408C14.8745 18.3183 14.1811 17.625 12.4586 17.625H8.08197C6.35947 17.625 5.66614 18.3183 5.66614 20.0408V24.4175C5.66614 26.14 6.35947 26.8333 8.08197 26.8333H12.4586C14.1811 26.8333 14.8745 26.14 14.8745 24.4175Z" stroke="#666687" stroke-width="0.975" stroke-linecap="round" stroke-linejoin="round"/>
</svg>
