<svg width="32" height="32" viewBox="0 0 32 32" fill="none" xmlns="http://www.w3.org/2000/svg">
<path d="M28.182 15H24.182C23.6515 15 23.1428 15.2107 22.7678 15.5858C22.3927 15.9609 22.182 16.4696 22.182 17V22C22.182 22.5304 22.3927 23.0391 22.7678 23.4142C23.1428 23.7893 23.6515 24 24.182 24H26.182C26.7124 24 27.2211 23.7893 27.5962 23.4142C27.9713 23.0391 28.182 22.5304 28.182 22M28.182 15V22M28.182 15C28.182 13.4165 27.8686 11.8486 27.2598 10.3868C26.651 8.92497 25.759 7.59808 24.635 6.48262C23.5111 5.36715 22.1775 4.48517 20.7111 3.88751C19.2447 3.28986 17.6745 2.98834 16.091 3.00034C14.5075 2.98834 12.9373 3.28986 11.4709 3.88751C10.0045 4.48517 8.6709 5.36715 7.54695 6.48262C6.423 7.59808 5.53093 8.92497 4.92217 10.3868C4.31341 11.8486 4 13.4165 4 15M28.182 22V25C28.182 26.0609 27.7605 27.0783 27.0104 27.8284C26.2603 28.5786 25.2428 29 24.182 29H17M4 15V22C4 22.5304 4.21071 23.0391 4.58579 23.4142C4.96086 23.7893 5.46957 24 6 24H8C8.53043 24 9.03914 23.7893 9.41421 23.4142C9.78929 23.0391 10 22.5304 10 22V17C10 16.4696 9.78929 15.9609 9.41421 15.5858C9.03914 15.2107 8.53043 15 8 15H4Z" stroke="#666687" stroke-width="1.2" stroke-linecap="round" stroke-linejoin="round"/>
</svg>
