<svg width="16" height="16" viewBox="0 0 16 16" fill="none" xmlns="http://www.w3.org/2000/svg">
<g clip-path="url(#clip0_1030_10583)">
<path d="M15.3847 10.9108V5.09261C15.3845 4.83754 15.3207 4.58702 15.1997 4.36619C15.0787 4.14535 14.9048 3.96197 14.6954 3.83443L9.86999 0.925341C9.6604 0.797678 9.42265 0.730469 9.18064 0.730469C8.93863 0.730469 8.70089 0.797678 8.4913 0.925341L3.6659 3.83443C3.45653 3.96197 3.28262 4.14535 3.16162 4.36619C3.04063 4.58702 2.97681 4.83754 2.97656 5.09261V10.9108C2.97681 11.1659 3.04063 11.4164 3.16162 11.6372C3.28262 11.8581 3.45653 12.0414 3.6659 12.169L8.4913 15.0781C8.70089 15.2057 8.93863 15.2729 9.18064 15.2729C9.42265 15.2729 9.6604 15.2057 9.86999 15.0781L14.6954 12.169C14.9048 12.0414 15.0787 11.8581 15.1997 11.6372C15.3207 11.4164 15.3845 11.1659 15.3847 10.9108Z" stroke="#666687" stroke-width="0.8" stroke-linecap="round" stroke-linejoin="round"/>
<path d="M3.16113 4.33594L9.17909 8.00867L15.1971 4.33594" stroke="#666687" stroke-width="0.8" stroke-linecap="round" stroke-linejoin="round"/>
<path d="M9.17896 15.3309V8" stroke="#666687" stroke-width="0.8" stroke-linecap="round" stroke-linejoin="round"/>
<g clip-path="url(#clip1_1030_10583)">
<path d="M7.18223 4.14364C7.18223 6.74364 3.99132 8.97221 3.99132 8.97221C3.99132 8.97221 0.800415 6.74364 0.800415 4.14364C0.800415 3.25706 1.1366 2.40679 1.73501 1.77988C2.33342 1.15297 3.14504 0.800781 3.99132 0.800781C4.83761 0.800781 5.64923 1.15297 6.24764 1.77988C6.84605 2.40679 7.18223 3.25706 7.18223 4.14364Z" fill="white" stroke="#666687" stroke-width="0.8" stroke-linecap="round" stroke-linejoin="round"/>
<path d="M3.99528 5.25982C4.58271 5.25982 5.05891 4.76094 5.05891 4.14554C5.05891 3.53013 4.58271 3.03125 3.99528 3.03125C3.40785 3.03125 2.93164 3.53013 2.93164 4.14554C2.93164 4.76094 3.40785 5.25982 3.99528 5.25982Z" stroke="#666687" stroke-width="0.8" stroke-linecap="round" stroke-linejoin="round"/>
</g>
</g>
<defs>
<clipPath id="clip0_1030_10583">
<rect width="16" height="16" fill="white"/>
</clipPath>
<clipPath id="clip1_1030_10583">
<rect width="8" height="9.6" fill="white" transform="translate(0.000366211)"/>
</clipPath>
</defs>
</svg>
