<svg xmlns="http://www.w3.org/2000/svg" xmlns:xlink="http://www.w3.org/1999/xlink" width="50" height="50" viewBox="0 0 50 50">
  <defs>
    <clipPath id="clip-path">
      <rect id="Rectangle_17" data-name="Rectangle 17" width="38.963" height="34.971" transform="translate(0 0)" fill="none"/>
    </clipPath>
    <clipPath id="clip-Shipping_Charges">
      <rect width="50" height="50"/>
    </clipPath>
  </defs>
  <g id="Shipping_Charges" data-name="Shipping Charges" clip-path="url(#clip-Shipping_Charges)">
    <g id="Group_108" data-name="Group 108" transform="translate(6 8)">
      <g id="Group_107" data-name="Group 107" clip-path="url(#clip-path)">
        <path id="Path_100" data-name="Path 100" d="M11.822,15.478H7.96a.5.5,0,0,1,0-1h3.862a.5.5,0,0,1,0,1" fill="#1a1818"/>
        <path id="Path_101" data-name="Path 101" d="M26.875,29.045a.5.5,0,0,1-.5-.5v-12.3a.764.764,0,0,0-.763-.763H21.774a.5.5,0,0,1,0-1h3.838a1.765,1.765,0,0,1,1.763,1.763v12.3a.5.5,0,0,1-.5.5" fill="#1a1818"/>
        <path id="Path_102" data-name="Path 102" d="M36.844,32.165H34.5a.5.5,0,0,1,0-1h2.344c1.048,0,1.115-.49,1.118-.588L37.9,28.561a8.253,8.253,0,0,0-.39-2.28,1.61,1.61,0,0,0-.75-.9l-1.21-.67a.5.5,0,0,1-.205-.214s-1.058-2.115-1.851-3.734A2.472,2.472,0,0,0,31.2,19.554H26.875a.5.5,0,0,1,0-1h4.291a3.463,3.463,0,0,1,3.223,1.765c.67,1.368,1.53,3.093,1.777,3.588l1.074.595a2.6,2.6,0,0,1,1.215,1.465,9.2,9.2,0,0,1,.441,2.56l.066,2.031a1.486,1.486,0,0,1-.426,1.022,2.266,2.266,0,0,1-1.692.584" fill="#1a1818"/>
        <path id="Path_103" data-name="Path 103" d="M28.691,32.165H17.1a.5.5,0,0,1,0-1H28.691a.5.5,0,1,1,0,1" fill="#1a1818"/>
        <path id="Path_104" data-name="Path 104" d="M11.525,32.165H8.869a2.22,2.22,0,0,1-1.57-.64,2.055,2.055,0,0,1-.6-1.478V21.365a.5.5,0,0,1,1,0v8.682a1.042,1.042,0,0,0,.308.773,1.214,1.214,0,0,0,.86.345h2.656a.5.5,0,1,1,0,1" fill="#1a1818"/>
        <path id="Path_105" data-name="Path 105" d="M10.172,19.291H4.494a.5.5,0,0,1,0-1h5.678a.5.5,0,0,1,0,1" fill="#1a1818"/>
        <path id="Path_106" data-name="Path 106" d="M2.645,19.291H.5a.5.5,0,0,1,0-1H2.645a.5.5,0,0,1,0,1" fill="#1a1818"/>
        <path id="Path_107" data-name="Path 107" d="M5.442,15.478H3.23a.5.5,0,0,1,0-1H5.442a.5.5,0,0,1,0,1" fill="#1a1818"/>
        <path id="Path_108" data-name="Path 108" d="M26.875,26.421H7.333a.5.5,0,0,1,0-1H26.875a.5.5,0,0,1,0,1" fill="#1a1818"/>
        <path id="Path_109" data-name="Path 109" d="M34.467,25.858H31.5a1.738,1.738,0,0,1-1.783-1.527l0-1.778a1.879,1.879,0,0,1,.6-1.477,2.508,2.508,0,0,1,1.839-.5.5.5,0,0,1,.435.557.493.493,0,0,1-.555.435,1.564,1.564,0,0,0-1.06.263.916.916,0,0,0-.263.726V24.27a.741.741,0,0,0,.787.588h2.971a.5.5,0,0,1,0,1" fill="#1a1818"/>
        <path id="Path_110" data-name="Path 110" d="M38.3,28.006H36.547a.5.5,0,0,1,0-1H38.3a.5.5,0,0,1,0,1" fill="#1a1818"/>
        <path id="Path_111" data-name="Path 111" d="M14.3,34.97A3.306,3.306,0,1,1,17.6,31.665,3.309,3.309,0,0,1,14.3,34.97m0-5.612A2.306,2.306,0,1,0,16.6,31.665,2.31,2.31,0,0,0,14.3,29.358" fill="#1a1818"/>
        <path id="Path_112" data-name="Path 112" d="M31.5,34.97A3.306,3.306,0,1,1,34.8,31.665,3.31,3.31,0,0,1,31.5,34.97m0-5.612A2.306,2.306,0,1,0,33.8,31.665,2.31,2.31,0,0,0,31.5,29.358" fill="#1a1818"/>
        <path id="Path_113" data-name="Path 113" d="M31.5,32.857a1.191,1.191,0,1,1,1.191-1.192A1.193,1.193,0,0,1,31.5,32.857m0-1.684a.492.492,0,1,0,.492.492.493.493,0,0,0-.492-.492" fill="#1a1818"/>
        <path id="Path_114" data-name="Path 114" d="M14.3,32.857a1.191,1.191,0,1,1,1.192-1.192A1.194,1.194,0,0,1,14.3,32.857m0-1.684a.492.492,0,1,0,.492.492.493.493,0,0,0-.492-.492" fill="#1a1818"/>
        <path id="Path_115" data-name="Path 115" d="M16.807,17.109a8.554,8.554,0,1,1,8.555-8.554,8.564,8.564,0,0,1-8.555,8.554M16.807,1a7.554,7.554,0,1,0,7.555,7.555A7.563,7.563,0,0,0,16.807,1" fill="#1a1818"/>
        <path id="Path_116" data-name="Path 116" d="M15.872,10.677a1.885,1.885,0,0,1-.336-.781l-1.431.156a2.9,2.9,0,0,0,.782,1.681,2.513,2.513,0,0,0,1.564.711v1.017h.781V12.444a2.642,2.642,0,0,0,1.673-.836,2.426,2.426,0,0,0,.6-1.681,2.2,2.2,0,0,0-.477-1.462,3.544,3.544,0,0,0-1.8-.923V5.408a1.124,1.124,0,0,1,.657.883l1.4-.18a2.353,2.353,0,0,0-.665-1.321A2.344,2.344,0,0,0,17.232,4.2V3.649H16.45V4.2a2.288,2.288,0,0,0-1.516.7,2.14,2.14,0,0,0-.571,1.517,2.345,2.345,0,0,0,.5,1.517,3.058,3.058,0,0,0,1.564.938v2.307A1.432,1.432,0,0,1,15.872,10.677Zm1.337-1.61a1.442,1.442,0,0,1,.712.406.971.971,0,0,1,.218.641,1.083,1.083,0,0,1-.258.72,1.149,1.149,0,0,1-.672.383ZM15.872,6.854a.9.9,0,0,1-.172-.54,1.009,1.009,0,0,1,.187-.586,1.12,1.12,0,0,1,.524-.375V7.261A1.189,1.189,0,0,1,15.872,6.854Z" fill="#050605"/>
      </g>
    </g>
  </g>
</svg>
