<svg width="33" height="32" viewBox="0 0 33 32" fill="none" xmlns="http://www.w3.org/2000/svg">
<path d="M26.8853 15.4211V21.1906C26.8853 25.2293 24.5775 26.9602 21.1157 26.9602H9.57667C6.11494 26.9602 3.80713 25.2293 3.80713 21.1906V13.1133C3.80713 9.07461 6.11494 7.34375 9.57667 7.34375H17.654" stroke="#666687" stroke-width="1.2" stroke-miterlimit="10" stroke-linecap="round" stroke-linejoin="round"/>
<path d="M9.57666 13.6953L13.1884 16.5801C14.3769 17.5263 16.327 17.5263 17.5156 16.5801L18.8772 15.4954" stroke="#666687" stroke-width="1.2" stroke-miterlimit="10" stroke-linecap="round" stroke-linejoin="round"/>
<path d="M24.5894 2.67578C22.6797 2.67578 21.1277 4.22779 21.1277 6.13751V7.8049C21.1277 8.15685 20.9777 8.69341 20.7988 8.99343L20.1353 10.0954C19.7257 10.7762 20.0084 11.532 20.7584 11.7859C23.2451 12.6167 25.928 12.6167 28.4146 11.7859C29.1127 11.5551 29.4185 10.7301 29.0377 10.0954L28.3742 8.99343C28.2012 8.69341 28.0511 8.15685 28.0511 7.8049V6.13751C28.0511 4.23356 26.4934 2.67578 24.5894 2.67578Z" stroke="#666687" stroke-width="1.28578" stroke-miterlimit="10" stroke-linecap="round"/>
<path d="M25.6562 2.84415C25.4774 2.79222 25.2927 2.75184 25.1023 2.72876C24.5485 2.65952 24.0177 2.69991 23.5215 2.84415C23.6888 2.4172 24.1042 2.11719 24.5888 2.11719C25.0735 2.11719 25.4889 2.4172 25.6562 2.84415Z" stroke="#666687" stroke-width="1.28578" stroke-miterlimit="10" stroke-linecap="round" stroke-linejoin="round"/>
<path d="M26.3196 12C26.3196 12.952 25.5407 13.7309 24.5888 13.7309C24.1157 13.7309 23.6772 13.5347 23.3656 13.2231C23.0541 12.9116 22.8579 12.4731 22.8579 12" stroke="#666687" stroke-width="1.28578" stroke-miterlimit="10"/>
</svg>
