<svg width="33" height="32" viewBox="0 0 33 32" fill="none" xmlns="http://www.w3.org/2000/svg">
<path d="M7.25 5.06641C7.69919 5.51559 8.59756 6.41397 9.94512 6.86315C11.2927 7.31234 21.624 7.31234 22.9715 6.86315C24.3191 6.41397 25.3073 5.42576 25.6667 5.06641" stroke="#666687" stroke-width="0.898374" stroke-linecap="round"/>
<path fill-rule="evenodd" clip-rule="evenodd" d="M29.0783 23.3804L27.3219 12.2582C26.97 10.0337 25.0802 8.41797 22.8283 8.41797H14.9919H11.1748C8.92192 8.41797 7.03106 10.0337 6.68019 12.2582L4.92381 23.3804C4.71551 24.6969 5.09267 26.0325 5.95923 27.0457C6.82478 28.0598 8.08569 28.6402 9.4184 28.6402H24.5837C25.9164 28.6402 27.1773 28.0588 28.0439 27.0457C28.9084 26.0325 29.2866 24.6969 29.0783 23.3804ZM24.5837 27.6291C25.6201 27.6291 26.601 27.1761 27.2744 26.3884C27.9478 25.6008 28.241 24.5624 28.0793 23.5381L26.3229 12.4159C26.0509 10.6849 24.5797 9.42908 22.8283 9.42908H11.1748C9.42244 9.42908 7.95222 10.6849 7.6782 12.4159L5.92182 23.5381C5.76004 24.5614 6.05428 25.6008 6.72771 26.3884C7.40114 27.1771 8.38196 27.6291 9.4184 27.6291H24.5837Z" fill="#666687"/>
<circle cx="17" cy="18.168" r="6.06667" stroke="#666687" stroke-width="0.866667"/>
<circle cx="16.9992" cy="18.1667" r="0.8125" stroke="#666687" stroke-width="0.541667"/>
<rect x="16.7821" y="13.5096" width="0.433333" height="3.9" rx="0.216667" stroke="#666687" stroke-width="0.433333"/>
</svg>
