<svg xmlns="http://www.w3.org/2000/svg" xmlns:xlink="http://www.w3.org/1999/xlink" width="50" height="50" viewBox="0 0 50 50">
  <defs>
    <clipPath id="clip-Assign_Roles">
      <rect width="50" height="50"/>
    </clipPath>
  </defs>
  <g id="Assign_Roles" data-name="Assign Roles" clip-path="url(#clip-Assign_Roles)">
    <g id="Group_2260" data-name="Group 2260" transform="translate(-5.321 -5.281)">
      <path id="Path_397" data-name="Path 397" d="M12.356,25.476A12.565,12.565,0,0,1,0,12.738a.62.62,0,1,1,1.239,0,11.325,11.325,0,0,0,11.117,11.5,11.325,11.325,0,0,0,11.117-11.5,11.325,11.325,0,0,0-11.117-11.5.62.62,0,1,1,0-1.239A12.565,12.565,0,0,1,24.712,12.738,12.565,12.565,0,0,1,12.356,25.476Z" transform="translate(12.321 27.832) rotate(-39)"/>
      <path id="Path_397_-_Outline" data-name="Path 397 - Outline" d="M12.356,25.576a12.188,12.188,0,0,1-8.8-3.765A12.952,12.952,0,0,1-.1,12.738a.72.72,0,1,1,1.439,0,11.225,11.225,0,0,0,11.017,11.4,11.225,11.225,0,0,0,11.017-11.4A11.523,11.523,0,0,0,20.141,4.68a10.76,10.76,0,0,0-7.785-3.341.72.72,0,1,1,0-1.439,12.188,12.188,0,0,1,8.8,3.765,12.952,12.952,0,0,1,3.651,9.073A12.666,12.666,0,0,1,12.356,25.576ZM.62,12.218a.52.52,0,0,0-.52.52,12.753,12.753,0,0,0,3.595,8.933,11.99,11.99,0,0,0,8.661,3.7A12.465,12.465,0,0,0,24.612,12.738,12.753,12.753,0,0,0,21.017,3.8,11.99,11.99,0,0,0,12.356.1a.52.52,0,1,0,0,1.039,10.958,10.958,0,0,1,7.929,3.4,11.722,11.722,0,0,1,3.288,8.2,11.426,11.426,0,0,1-11.217,11.6,11.425,11.425,0,0,1-11.217-11.6.52.52,0,0,0-.52-.52Z" transform="translate(12.321 27.832) rotate(-39)"/>
      <path id="Line_1" data-name="Line 1" d="M4.821.739H.12A.62.62,0,0,1,.12-.5h4.7a.62.62,0,0,1,0,1.239Z" transform="translate(17.633 29.836)"/>
      <path id="Line_1_-_Outline" data-name="Line 1 - Outline" d="M4.821.839H.12A.72.72,0,0,1-.6.12.72.72,0,0,1,.12-.6h4.7a.72.72,0,0,1,.72.72A.72.72,0,0,1,4.821.839ZM.12-.4A.52.52,0,0,0,.12.639h4.7a.52.52,0,0,0,0-1.039Z" transform="translate(17.633 29.836)"/>
      <g id="Group_2259" data-name="Group 2259" transform="translate(24.185 23.416)">
        <path id="Line_2" data-name="Line 2" d="M9.369.739H.12A.62.62,0,0,1,.12-.5H9.369a.62.62,0,0,1,0,1.239Z" transform="translate(0.5 6.42)"/>
        <path id="Line_2_-_Outline" data-name="Line 2 - Outline" d="M9.369.839H.12A.72.72,0,0,1-.6.12.72.72,0,0,1,.12-.6H9.369a.72.72,0,0,1,.72.72A.72.72,0,0,1,9.369.839ZM.12-.4A.52.52,0,1,0,.12.639H9.369a.52.52,0,1,0,0-1.039Z" transform="translate(0.5 6.42)"/>
        <path id="Path_398" data-name="Path 398" d="M298.8,188.576a.62.62,0,0,1-.452-1.043l5-5.339-5.016-5.667a.62.62,0,1,1,.928-.821l5.39,6.089a.619.619,0,0,1-.012.834l-5.39,5.751A.618.618,0,0,1,298.8,188.576Z" transform="translate(-293.421 -175.497)"/>
        <path id="Path_398_-_Outline" data-name="Path 398 - Outline" d="M298.8,188.676a.72.72,0,0,1-.525-1.212l4.942-5.273-4.956-5.6a.72.72,0,1,1,1.078-.954l5.39,6.089a.716.716,0,0,1-.014.969l-5.39,5.751A.722.722,0,0,1,298.8,188.676Zm0-13.079a.52.52,0,0,0-.389.864l5.076,5.735-5.067,5.406a.52.52,0,0,0,.379.875.515.515,0,0,0,.379-.164l5.39-5.751a.517.517,0,0,0,.01-.7l-5.39-6.089A.52.52,0,0,0,298.8,175.6Z" transform="translate(-293.421 -175.497)"/>
      </g>
    </g>
  </g>
</svg>
