<svg xmlns="http://www.w3.org/2000/svg" xmlns:xlink="http://www.w3.org/1999/xlink" width="50" height="50" viewBox="0 0 50 50">
  <defs>
    <clipPath id="clip-path">
      <rect id="Rectangle_20" data-name="Rectangle 20" width="39.68" height="37.807" transform="translate(0 0)" fill="none"/>
    </clipPath>
    <clipPath id="clip-Categary_Landing_Page">
      <rect width="50" height="50"/>
    </clipPath>
  </defs>
  <g id="Categary_Landing_Page" data-name="Categary Landing Page" clip-path="url(#clip-Categary_Landing_Page)">
    <g id="Group_114" data-name="Group 114" transform="translate(6 7)">
      <g id="Group_113" data-name="Group 113" clip-path="url(#clip-path)">
        <path id="Path_144" data-name="Path 144" d="M30.137,37.807H23.585a2.958,2.958,0,0,1-2.99-2.926V28.265a2.958,2.958,0,0,1,2.926-2.99h6.616a2.958,2.958,0,0,1,2.99,2.926v6.616a2.958,2.958,0,0,1-2.926,2.99h-.064M23.585,26.574a1.672,1.672,0,0,0-1.69,1.654v6.588a1.672,1.672,0,0,0,1.654,1.69h6.588a1.672,1.672,0,0,0,1.69-1.654V28.265a1.672,1.672,0,0,0-1.654-1.69H23.585ZM16.1,35.935H2.99A2.958,2.958,0,0,1,0,33.009V19.84a2.958,2.958,0,0,1,2.926-2.99H16.095a2.958,2.958,0,0,1,2.99,2.926V32.948a2.958,2.958,0,0,1-2.929,2.987H16.1M2.99,18.148A1.672,1.672,0,0,0,1.3,19.8V32.948a1.672,1.672,0,0,0,1.654,1.69H16.095a1.672,1.672,0,0,0,1.69-1.654V19.84a1.672,1.672,0,0,0-1.654-1.69h-.036Zm33.7,5.617H23.584a2.958,2.958,0,0,1-2.99-2.926V12.348a2.958,2.958,0,0,1,2.926-2.99H36.69a2.958,2.958,0,0,1,2.99,2.926v8.489a2.958,2.958,0,0,1-2.923,2.993H36.69Zm-13.106-13.1a1.672,1.672,0,0,0-1.69,1.654v8.461a1.672,1.672,0,0,0,1.654,1.69H36.69a1.672,1.672,0,0,0,1.69-1.654V12.348a1.672,1.672,0,0,0-1.654-1.69H36.69Zm-7.489,4.68H9.543a2.958,2.958,0,0,1-2.99-2.926V5.8a2.958,2.958,0,0,1,2.926-2.99h6.616a2.958,2.958,0,0,1,2.99,2.926v6.613a2.958,2.958,0,0,1-2.923,2.993h-.067ZM9.543,4.108a1.672,1.672,0,0,0-1.69,1.654v6.586a1.672,1.672,0,0,0,1.654,1.69h6.588a1.672,1.672,0,0,0,1.69-1.654V5.8a1.672,1.672,0,0,0-1.654-1.69H9.543Zm20.594,3.74H23.585a2.958,2.958,0,0,1-2.99-2.926V2.99A2.958,2.958,0,0,1,23.521,0h6.616a2.958,2.958,0,0,1,2.99,2.926V4.862A2.958,2.958,0,0,1,30.2,7.848h-.06M23.585,1.3A1.672,1.672,0,0,0,21.9,2.95V4.858a1.672,1.672,0,0,0,1.654,1.69h6.588a1.672,1.672,0,0,0,1.69-1.654V2.99A1.672,1.672,0,0,0,30.173,1.3h-.036Z" fill="#050605"/>
      </g>
    </g>
  </g>
</svg>
