<svg fill="#001b5a" xmlns="http://www.w3.org/2000/svg" xmlns:xlink="http://www.w3.org/1999/xlink" width="50" height="50" viewBox="0 0 50 50">
  <defs>
    <clipPath id="clip-_Category_Attributes_Comarison">
      <rect width="50" height="50"/>
    </clipPath>
  </defs>
  <g id="_Category_Attributes_Comarison" data-name=" Category Attributes Comarison" clip-path="url(#clip-_Category_Attributes_Comarison)">
    <g id="MANAGE_CATEGORY_COMPARE" data-name="MANAGE CATEGORY COMPARE" transform="translate(-0.282)">
      <g id="MANAGE_CATEGORY_COMPARE-2" data-name="MANAGE CATEGORY COMPARE" transform="translate(-33.722 -21.276)">
        <path id="Path_76" data-name="Path 76" d="M69.285,39.481H65.108v-5.7h.777V38.7h2.622V33.782h.777Z" transform="translate(-19.752 -3.806)" fill="none"/>
        <path id="Path_77" data-name="Path 77" d="M90.665,76.456a.711.711,0,0,1-.711-.71v-.9H84.048a1.07,1.07,0,0,1-1.069-1.069V71.306a1.07,1.07,0,0,1,1.069-1.069h5.906V69.57a.71.71,0,0,1,1.215-.5l3.6,3.643-3.607,3.538A.709.709,0,0,1,90.665,76.456Zm-6.617-5.442a.293.293,0,0,0-.292.292v2.466a.293.293,0,0,0,.292.292h5.974a.71.71,0,0,1,.71.71v.811l2.936-2.88-2.936-2.972v.57a.711.711,0,0,1-.71.71Z" transform="translate(-34.845 -33.431)" fill="none"/>
        <path id="Path_78" data-name="Path 78" d="M187.437,39.481h-4.176v-5.7h.777V38.7h2.622V33.782h.777Z" transform="translate(-119.54 -3.806)" fill="none"/>
        <path id="Path_79" data-name="Path 79" d="M150.508,106.349a.708.708,0,0,1-.5-.2l-3.607-3.538,3.6-3.643a.71.71,0,0,1,1.215.5v.666h5.906a1.071,1.071,0,0,1,1.069,1.069v2.466a1.071,1.071,0,0,1-1.069,1.069h-5.906v.9a.711.711,0,0,1-.71.71Zm-3-3.75,2.936,2.88v-.811a.711.711,0,0,1,.71-.71h5.974a.293.293,0,0,0,.292-.292V101.2a.293.293,0,0,0-.292-.292h-5.974a.711.711,0,0,1-.71-.71v-.57Z" transform="translate(-88.412 -58.679)" fill="none"/>
        <g id="Group_93" data-name="Group 93" transform="translate(58.79 53.145)">
          <path id="Path_80" data-name="Path 80" d="M179.9,199.913l-.754-.189,1.105-4.4a1.743,1.743,0,0,1,1.412-1.25l9.579-1.425a1.344,1.344,0,0,0,.126-.684,1.389,1.389,0,0,0-.149-.686l-6.455-.087.011-.777,6.563.089.027,0c.442.069.732.564.775,1.322.037.658-.12,1.416-.673,1.569l-.046.01-9.643,1.434a.96.96,0,0,0-.777.683Z" transform="translate(-174.859 -189.238)" fill="none"/>
          <path id="Path_81" data-name="Path 81" d="M152.289,193.448l-.752-.2,2.361-9.071a1.826,1.826,0,0,1,1.733-1.311l4.948-.019h.016a1.141,1.141,0,0,1,.395,2.169l-.054.026-2.677.371a3.239,3.239,0,0,0-1.04.529l-.791,1.522-.69-.358.868-1.67.064-.051a4.016,4.016,0,0,1,1.4-.726l.055-.012,2.578-.357a.365.365,0,0,0-.157-.667l-4.913.019a1.04,1.04,0,0,0-.988.742Z" transform="translate(-151.537 -182.851)" fill="none"/>
        </g>
        <g id="Group_94" data-name="Group 94" transform="translate(41.94 53.145)">
          <path id="Path_82" data-name="Path 82" d="M55.368,199.913l-1.1-4.4a.957.957,0,0,0-.774-.671L43.823,193.4,43.8,193.4c-.553-.153-.71-.911-.673-1.569.043-.758.333-1.252.776-1.322l.055,0,6.535-.088.011.777-6.455.087a1.39,1.39,0,0,0-.149.686,1.344,1.344,0,0,0,.127.684l9.578,1.425a1.74,1.74,0,0,1,1.409,1.238l1.108,4.414Z" transform="translate(-43.122 -189.238)" fill="none"/>
          <path id="Path_83" data-name="Path 83" d="M98.7,193.448l-2.36-9.071a1.038,1.038,0,0,0-.985-.73l-4.913-.019a.365.365,0,0,0-.157.667l2.633.369a4.015,4.015,0,0,1,1.4.726l.064.051.868,1.67-.69.358-.791-1.522a3.239,3.239,0,0,0-1.04-.529l-2.677-.371L90,185.022a1.141,1.141,0,0,1,.395-2.169h.033l4.931.019a1.823,1.823,0,0,1,1.73,1.3l2.364,9.082Z" transform="translate(-82.158 -182.851)" fill="none"/>
        </g>
        <path id="Path_84" data-name="Path 84" d="M171.862,29.276H159.756a2.114,2.114,0,0,0-2.112,2.112v6.384h.752V31.388a1.361,1.361,0,0,1,1.36-1.36h12.106a1.361,1.361,0,0,1,1.36,1.36V49.527a1.361,1.361,0,0,1-1.36,1.36H159.756a1.361,1.361,0,0,1-1.36-1.36V48.81h-.752v.717a2.114,2.114,0,0,0,2.112,2.112h12.106a2.114,2.114,0,0,0,2.112-2.112V31.388A2.114,2.114,0,0,0,171.862,29.276Z" transform="translate(-97.905 0)" fill="none"/>
        <path id="Path_85" data-name="Path 85" d="M57.172,44.876v4.666A1.356,1.356,0,0,1,55.818,50.9H43.825a1.356,1.356,0,0,1-1.354-1.354V31.389a1.356,1.356,0,0,1,1.354-1.354H55.818a1.356,1.356,0,0,1,1.354,1.354v3.092h.749V31.389a2.105,2.105,0,0,0-2.1-2.1H43.825a2.105,2.105,0,0,0-2.1,2.1V49.543a2.105,2.105,0,0,0,2.1,2.1H55.818a2.105,2.105,0,0,0,2.1-2.1V44.876Z" transform="translate(0 -0.008)" fill="none"/>
      </g>
      <path id="Path_95" data-name="Path 95"/>
      <g id="Group_98" data-name="Group 98" transform="translate(25 22.541)">
        <path id="Path_96" data-name="Path 96" d="M31.477,31.084l-7.171-6.564,7.171-6.564v4.232h-1.3V20.907l-3.946,3.612,3.946,3.612v-.777h1.3Z" transform="translate(-25.268 -19.431)"/>
        <path id="Path_97" data-name="Path 97" d="M40.711,23.508H28.695v-1.3H40.711Z" transform="translate(-22.993 -17.77)"/>
      </g>
      <g id="Group_99" data-name="Group 99" transform="translate(7.282 14.431)">
        <path id="Path_96-2" data-name="Path 96" d="M24.618,31.084V27.355h1.3v.777l3.946-3.612-3.946-3.612v1.279h-1.3V17.955l7.171,6.564Z" transform="translate(-13.109 -19.431)"/>
        <path id="Path_97-2" data-name="Path 97" d="M40.711,23.508H28.695v-1.3H40.711Z" transform="translate(-28.695 -17.77)"/>
      </g>
    </g>
  </g>
</svg>
