<svg xmlns="http://www.w3.org/2000/svg" xmlns:xlink="http://www.w3.org/1999/xlink" width="50" height="50" viewBox="0 0 50 50">
  <defs>
    <clipPath id="clip-Commission_Chrges">
      <rect width="50" height="50"/>
    </clipPath>
  </defs>
  <g id="Commission_Chrges" data-name="Commission Chrges" clip-path="url(#clip-Commission_Chrges)">
    <g id="Group_96" data-name="Group 96" transform="translate(-0.726 1)">
      <path id="Path_95" data-name="Path 95" d="M20.817,38.291,7.423,37.01l3.586-7.976a8.958,8.958,0,0,1,1.832-2.381A8.559,8.559,0,0,1,18.8,24.286h8.962a3.123,3.123,0,0,1,2.4.825,2.336,2.336,0,0,1,.437,2.127l-.006.028-.009.028a3.337,3.337,0,0,1-.878,1.637,2.175,2.175,0,0,1-1.388.46.6.6,0,0,1-.075-1.2c.628-.039.821-.051,1.185-1.223a1.211,1.211,0,0,0-.165-1.063,1.994,1.994,0,0,0-1.436-.423l-.049,0H18.8a7.738,7.738,0,0,0-6.711,4.063L9.2,35.975l10.179.974a1.885,1.885,0,0,1,.382-.79c.805-1,2.654-1.393,5.495-1.158,5.525.253,8.691-.326,10.924-2,2.374-1.858,5.952-5.157,6.386-5.559a1.534,1.534,0,0,0,.254-1.09,1.978,1.978,0,0,0-1.073-1.208c-.461-.188-.953-.143-4,2.171l-.014.01-.591.425C34.716,29.5,32.62,31.01,29.015,31.01a58.6,58.6,0,0,1-6.49-.339.6.6,0,0,1,.146-1.191,58.583,58.583,0,0,0,6.344.33c3.218,0,4.983-1.272,7.426-3.032l.588-.422c3.144-2.385,4.073-2.793,5.223-2.3l.031.013.029.017A3.108,3.108,0,0,1,44,26.133a2.771,2.771,0,0,1-.511,2.082l-.029.037-.034.032c-.039.036-3.954,3.667-6.511,5.668l-.01.007c-3.068,2.3-7.443,2.436-11.715,2.24h-.022c-3.3-.275-4.225.407-4.471.712a.656.656,0,0,0-.152.52Z"/>
      <path id="Path_96" data-name="Path 96" d="M7.726,41.2a.6.6,0,0,1-.6-.6V38.017L20.27,39.191a.6.6,0,0,1-.107,1.2L8.326,39.329V40.6A.6.6,0,0,1,7.726,41.2Z"/>
      <path id="Ellipse_2" data-name="Ellipse 2" d="M7.5,1.2a6.3,6.3,0,1,0,6.3,6.3A6.307,6.307,0,0,0,7.5,1.2M7.5,0A7.5,7.5,0,1,1,0,7.5,7.5,7.5,0,0,1,7.5,0Z" transform="translate(26 8)"/>
      <path id="Path_97" data-name="Path 97" d="M30.639,19.981a.6.6,0,0,1-.492-.943l5.316-7.627a.6.6,0,0,1,.984.686l-5.316,7.627A.6.6,0,0,1,30.639,19.981Z"/>
      <path id="Ellipse_3" data-name="Ellipse 3" d="M2,1.2a.8.8,0,1,0,.8.8A.8.8,0,0,0,2,1.2M2,0A2,2,0,1,1,0,2,2,2,0,0,1,2,0Z" transform="translate(29 11)"/>
      <path id="Ellipse_4" data-name="Ellipse 4" d="M2,1.2a.8.8,0,1,0,.8.8A.8.8,0,0,0,2,1.2M2,0A2,2,0,1,1,0,2,2,2,0,0,1,2,0Z" transform="translate(34 16)"/>
    </g>
  </g>
</svg>
