<svg xmlns="http://www.w3.org/2000/svg" xmlns:xlink="http://www.w3.org/1999/xlink" width="50" height="50" viewBox="0 0 50 50">
  <defs>
    <clipPath id="clip-Config">
      <rect width="50" height="50"/>
    </clipPath>
  </defs>
  <g id="Config" clip-path="url(#clip-Config)">
    <g id="Group_2218" data-name="Group 2218" transform="translate(-183.004 -221.014)">
      <path id="Subtraction_19" data-name="Subtraction 19" d="M16.353,30.052H13.7a1.289,1.289,0,0,1-1.269-1.1l-.36-2.515-.082-.022a11.673,11.673,0,0,1-2.863-1.191l-.074-.042L7.014,26.708a1.286,1.286,0,0,1-1.674-.119L3.462,24.712a1.288,1.288,0,0,1-.12-1.675L4.87,21l-.043-.074a11.627,11.627,0,0,1-1.191-2.864l-.022-.083L1.1,17.622A1.287,1.287,0,0,1,0,16.354V13.7A1.288,1.288,0,0,1,1.1,12.43l2.514-.358.022-.082A11.642,11.642,0,0,1,4.827,9.125L4.87,9.05,3.343,7.016a1.288,1.288,0,0,1,.12-1.676L5.34,3.462a1.288,1.288,0,0,1,1.674-.119L9.05,4.87l.073-.042a11.717,11.717,0,0,1,2.864-1.19l.082-.022.36-2.515A1.29,1.29,0,0,1,13.7,0h2.655a1.286,1.286,0,0,1,1.268,1.1l.36,2.513.083.022a11.745,11.745,0,0,1,2.863,1.191L21,4.87l2.037-1.526a1.287,1.287,0,0,1,1.674.12L26.588,5.34a1.288,1.288,0,0,1,.117,1.677L25.18,9.05l.043.073a11.652,11.652,0,0,1,1.191,2.865l.022.082,2.516.359a1.286,1.286,0,0,1,1.1,1.269v2.655a1.287,1.287,0,0,1-1.1,1.268l-2.515.359-.022.082a11.651,11.651,0,0,1-1.191,2.865L25.18,21l1.528,2.036a1.287,1.287,0,0,1-.12,1.675l-1.877,1.877a1.289,1.289,0,0,1-1.674.12L21,25.182l-.074.042a11.7,11.7,0,0,1-2.864,1.191l-.083.022-.359,2.514A1.288,1.288,0,0,1,16.353,30.052Zm-2.5-1.313v.137h.008v-.137h2.461l.417-2.93a.662.662,0,0,1,.512-.549,10.382,10.382,0,0,0,3.427-1.424.657.657,0,0,1,.355-.1.666.666,0,0,1,.394.131L23.8,25.641,25.641,23.8,23.862,21.43a.656.656,0,0,1-.027-.748,10.4,10.4,0,0,0,1.424-3.427.66.66,0,0,1,.549-.512l2.93-.418v-2.6l-2.93-.418a.662.662,0,0,1-.549-.512,10.4,10.4,0,0,0-1.424-3.427.656.656,0,0,1,.027-.748L25.64,6.247,23.8,4.41,21.43,6.188a.664.664,0,0,1-.4.131.647.647,0,0,1-.354-.105,10.422,10.422,0,0,0-3.427-1.424.661.661,0,0,1-.512-.549l-.417-2.93h-2.6l-.418,2.93a.659.659,0,0,1-.511.549A10.378,10.378,0,0,0,9.368,6.215a.647.647,0,0,1-.354.105.659.659,0,0,1-.394-.132L6.248,4.409,4.41,6.249l1.779,2.37a.658.658,0,0,1,.027.749A10.392,10.392,0,0,0,4.792,12.8a.659.659,0,0,1-.549.512l-2.93.419v2.6l2.93.418a.658.658,0,0,1,.549.511,10.367,10.367,0,0,0,1.424,3.427.658.658,0,0,1-.027.749L4.41,23.8l1.839,1.838L8.62,23.863a.657.657,0,0,1,.749-.027A10.4,10.4,0,0,0,12.8,25.26a.66.66,0,0,1,.512.55l.418,2.929Z" transform="translate(193.004 231.014)"/>
      <path id="Subtraction_20" data-name="Subtraction 20" d="M7.587,15.174a7.587,7.587,0,1,1,7.588-7.587A7.6,7.6,0,0,1,7.587,15.174Zm0-13.82a6.234,6.234,0,1,0,6.234,6.234A6.241,6.241,0,0,0,7.588,1.353Z" transform="translate(200.442 238.453)"/>
    </g>
  </g>
</svg>
