<svg xmlns="http://www.w3.org/2000/svg" xmlns:xlink="http://www.w3.org/1999/xlink" width="50" height="50" viewBox="0 0 50 50">
  <defs>
    <clipPath id="clip-csc">
      <rect width="50" height="50"/>
    </clipPath>
  </defs>
  <g id="csc" clip-path="url(#clip-csc)">
    <g id="Group_2258" data-name="Group 2258" transform="translate(-678.981 -629)">
      <path id="Path_353" data-name="Path 353" d="M213.034,103.393l-3.626-9.335h0a.553.553,0,0,0-.515-.352h-5.313l1.148-1.664c.5-.728,1.053-1.46,1.587-2.171,2.151-2.856,4.375-5.809,4.375-9.7h0a11.379,11.379,0,0,0-22.758,0c0,3.892,2.224,6.848,4.376,9.706.531.706,1.08,1.435,1.579,2.16l1.148,1.664h-5.312a.553.553,0,0,0-.515.352l-3.626,9.338a.552.552,0,0,0,.515.752h26.423a.552.552,0,0,0,.515-.752ZM193.19,89.217c-2.137-2.838-4.154-5.519-4.154-9.041h0a10.274,10.274,0,1,1,20.548,0c0,3.519-2.018,6.2-4.154,9.033-.543.718-1.1,1.46-1.614,2.206l-4.51,6.539L194.8,91.415c-.513-.744-1.069-1.483-1.607-2.2ZM186.9,103.041l3.2-8.233h5.667c.009,0,.017,0,.026,0l3.059,4.435a.554.554,0,0,0,.91,0l3.056-4.43h5.7l3.2,8.231Zm17.894-23.1a5.493,5.493,0,1,0-1.609,3.878,5.489,5.489,0,0,0,1.609-3.878Zm-9.873,0a4.388,4.388,0,1,1,1.286,3.1,4.383,4.383,0,0,1-1.286-3.1Z" transform="translate(504.438 567.206)"/>
      <path id="Path_353_-_Outline" data-name="Path 353 - Outline" d="M212.519,104.244H186.1a.652.652,0,0,1-.608-.888l3.626-9.338a.649.649,0,0,1,.608-.416h5.121L193.8,92.1c-.5-.729-1.048-1.455-1.576-2.157-2.161-2.871-4.4-5.84-4.4-9.766a11.479,11.479,0,0,1,22.957-.1h0v.1c0,3.921-2.233,6.887-4.393,9.755l-.044.058c-.519.69-1.055,1.4-1.543,2.112l-1.04,1.507h5.123a.657.657,0,0,1,.608.416l.025.063h0l3.6,9.272h0a.652.652,0,0,1-.607.887ZM189.722,93.8a.45.45,0,0,0-.422.288l-3.626,9.338a.452.452,0,0,0,.421.615h26.425a.452.452,0,0,0,.421-.615h0l-3.633-9.352a.456.456,0,0,0-.415-.271h-5.5l1.256-1.821c.49-.711,1.027-1.426,1.548-2.118l.042-.056c2.132-2.831,4.334-5.755,4.355-9.582v-.055a11.279,11.279,0,0,0-22.558,0c0,3.86,2.214,6.8,4.355,9.646.53.7,1.077,1.432,1.581,2.164l1.256,1.82Zm-2.965,9.338,3.276-8.433h5.726a.141.141,0,0,1,.032,0l.055,0,3.09,4.48a.454.454,0,0,0,.745,0l3.085-4.473h5.818l3.276,8.431Zm3.413-8.233-3.12,8.033,24.518,0-3.12-8.031H202.87l-3.026,4.387a.654.654,0,0,1-1.074,0l-3.026-4.387Zm9.138,3.221-4.593-6.657c-.5-.732-1.053-1.461-1.583-2.166l-.054-.072h0c-2.135-2.835-4.142-5.519-4.142-9.059a10.374,10.374,0,1,1,20.748,0c0,3.55-2.026,6.241-4.172,9.09-.535.708-1.1,1.459-1.613,2.205ZM193.3,89.2c.528.7,1.074,1.428,1.577,2.159l4.428,6.419,4.427-6.42c.517-.75,1.082-1.5,1.616-2.21,2.127-2.824,4.133-5.489,4.133-8.973a10.174,10.174,0,1,0-20.348,0c0,3.492,2.008,6.159,4.134,8.982l.032.043Zm6.006-3.677h0a5.593,5.593,0,1,1,3.95-1.638A5.552,5.552,0,0,1,199.308,85.523Zm0-10.977a5.388,5.388,0,1,0,3.81,1.58A5.354,5.354,0,0,0,199.309,74.545Zm0,9.873a4.488,4.488,0,0,1-4.484-4.482h0a4.484,4.484,0,1,1,4.484,4.482Zm-4.285-4.482a4.285,4.285,0,1,0,1.254-3.03,4.261,4.261,0,0,0-1.254,3.03Z" transform="translate(504.438 567.206)"/>
    </g>
  </g>
</svg>
