<svg xmlns="http://www.w3.org/2000/svg" xmlns:xlink="http://www.w3.org/1999/xlink" width="50" height="50" viewBox="0 0 50 50">
  <defs>
    <clipPath id="clip-Extra_Charges">
      <rect width="50" height="50"/>
    </clipPath>
  </defs>
  <g id="Extra_Charges" data-name="Extra Charges" clip-path="url(#clip-Extra_Charges)">
    <g id="EXTRA_CHARGES-2" data-name="EXTRA CHARGES">
      <g id="Group_97" data-name="Group 97" transform="translate(6.54 9)">
        <path id="Path_95" data-name="Path 95" d="M30.653,38.291,44.046,37.01,40.46,29.034a8.958,8.958,0,0,0-1.832-2.381,8.559,8.559,0,0,0-5.963-2.367H23.7a3.123,3.123,0,0,0-2.4.825,2.336,2.336,0,0,0-.437,2.127l.006.028.009.028a3.337,3.337,0,0,0,.878,1.637,2.175,2.175,0,0,0,1.388.46.6.6,0,0,0,.075-1.2c-.628-.039-.821-.051-1.185-1.223a1.211,1.211,0,0,1,.165-1.063,1.994,1.994,0,0,1,1.436-.423l.049,0h8.984a7.738,7.738,0,0,1,6.711,4.063l2.889,6.425-10.179.974a1.885,1.885,0,0,0-.382-.79c-.805-1-2.654-1.393-5.495-1.158-5.525.253-8.691-.326-10.924-2-2.374-1.858-5.952-5.157-6.386-5.559a1.534,1.534,0,0,1-.254-1.09,1.978,1.978,0,0,1,1.073-1.208c.461-.188.953-.143,4,2.171l.014.01.591.425c2.427,1.748,4.523,3.258,8.127,3.258a58.6,58.6,0,0,0,6.49-.339A.6.6,0,0,0,28.8,29.48a58.583,58.583,0,0,1-6.344.33c-3.218,0-4.983-1.272-7.426-3.032l-.588-.422c-3.144-2.385-4.073-2.793-5.223-2.3l-.031.013-.029.017a3.108,3.108,0,0,0-1.69,2.047,2.771,2.771,0,0,0,.511,2.082l.029.037.034.032c.039.036,3.954,3.667,6.511,5.668l.01.007C17.629,36.26,22,36.4,26.276,36.2H26.3c3.3-.275,4.225.407,4.471.712a.656.656,0,0,1,.152.52Z" transform="translate(-7.423 -8)"/>
        <path id="Path_96" data-name="Path 96" d="M20.216,41.2a.6.6,0,0,0,.6-.6V38.017L7.673,39.191a.6.6,0,0,0,.107,1.2l11.837-1.058V40.6A.6.6,0,0,0,20.216,41.2Z" transform="translate(16.104 -8)"/>
        <path id="Ellipse_2" data-name="Ellipse 2" d="M7.5,1.2A6.3,6.3,0,1,1,1.2,7.5,6.307,6.307,0,0,1,7.5,1.2M7.5,0A7.5,7.5,0,1,0,15,7.5,7.5,7.5,0,0,0,7.5,0Z" transform="translate(3.046)"/>
      </g>
      <text id="_" data-name="₹" transform="translate(14 20)" font-size="10" font-family="SegoeUI-Semibold, Segoe UI" font-weight="600"><tspan x="0" y="0">₹</tspan></text>
    </g>
  </g>
</svg>
