<svg xmlns="http://www.w3.org/2000/svg" xmlns:xlink="http://www.w3.org/1999/xlink" width="50" height="50" viewBox="0 0 50 50">
  <defs>
    <clipPath id="clip-Fix_Charges">
      <rect width="50" height="50"/>
    </clipPath>
  </defs>
  <g id="Fix_Charges" data-name="Fix  Charges" clip-path="url(#clip-Fix_Charges)">
    <g id="MANAGE_FIX_CHARGES" data-name="MANAGE FIX CHARGES" transform="translate(-47.202 -22.76)">
      <g id="Group_32" data-name="Group 32" transform="translate(57.202 28.76)">
        <path id="Path_39" data-name="Path 39" d="M61.128,148.4a3.923,3.923,0,0,1-3.923-3.921l0-15.457a3.923,3.923,0,0,1,3.921-3.926H83.288a3.926,3.926,0,0,1,3.681,3.91l0,15.457a3.923,3.923,0,0,1-3.921,3.925L61.13,148.4Zm0-22.5A3.122,3.122,0,0,0,58,129.024l0,15.457a3.121,3.121,0,0,0,3.121,3.12h0l21.921-.011a3.122,3.122,0,0,0,3.12-3.123l0-15.457a3.123,3.123,0,0,0-2.916-3.109Z" transform="translate(-57.202 -109.646)"/>
        <path id="Path_39_-_Outline" data-name="Path 39 - Outline" d="M61.131,148.6h0a4.123,4.123,0,0,1-4.123-4.121l0-15.457a4.123,4.123,0,0,1,4.121-4.126H83.3a4.127,4.127,0,0,1,3.869,4.109l0,15.457a4.123,4.123,0,0,1-4.121,4.125Zm-.007-23.3a3.723,3.723,0,0,0-3.721,3.725l0,15.457a3.723,3.723,0,0,0,3.723,3.721l0,.2v-.2l21.921-.011a3.723,3.723,0,0,0,3.722-3.725l0-15.457a3.726,3.726,0,0,0-3.487-3.71Zm.007,22.5a3.321,3.321,0,0,1-3.323-3.32l0-15.457a3.322,3.322,0,0,1,3.319-3.323H83.264a3.326,3.326,0,0,1,3.1,3.308l0,15.457a3.322,3.322,0,0,1-3.32,3.323Zm-.006-21.7a2.922,2.922,0,0,0-2.92,2.923l0,15.457a2.921,2.921,0,0,0,2.921,2.92l21.923-.011a2.922,2.922,0,0,0,2.92-2.923l0-15.457a2.925,2.925,0,0,0-2.723-2.909H61.124Z" transform="translate(-57.202 -109.646)"/>
        <path id="Path_40" data-name="Path 40" d="M103.086,43.44h-1.044a1.772,1.772,0,0,1-1.769-1.768l0-2.258A6.083,6.083,0,0,0,94.2,33.342h0a6.083,6.083,0,0,0-6.072,6.078l0,2.249a1.771,1.771,0,0,1-1.368,1.725v.046H85.309a1.771,1.771,0,0,1-1.769-1.768l0-2.25A10.67,10.67,0,0,1,94.19,28.76H94.2a10.671,10.671,0,0,1,10.658,10.652l0,2.258a1.769,1.769,0,0,1-1.769,1.77ZM94.2,32.54a6.885,6.885,0,0,1,6.877,6.874l0,2.258a.969.969,0,0,0,.967.966h1.044a.967.967,0,0,0,.967-.968l0-2.258A9.869,9.869,0,0,0,94.2,29.562H94.19a9.867,9.867,0,0,0-9.85,9.86l0,2.25a.969.969,0,0,0,.967.966h1.044a.967.967,0,0,0,.967-.968l0-2.249a6.885,6.885,0,0,1,6.874-6.881Z" transform="translate(-79.314 -28.76)"/>
        <path id="Path_40_-_Outline" data-name="Path 40 - Outline" d="M103.086,43.64h-1.044a1.972,1.972,0,0,1-1.969-1.967l0-2.258a5.875,5.875,0,0,0-11.75.005l0,2.249a1.972,1.972,0,0,1-1.368,1.878v.094H85.309a1.972,1.972,0,0,1-1.969-1.967l0-2.25A10.87,10.87,0,0,1,94.19,28.56H94.2a10.873,10.873,0,0,1,10.858,10.852l0,2.258a1.969,1.969,0,0,1-1.969,1.971Zm-8.894-10.5a6.283,6.283,0,0,1,6.278,6.272l0,2.258a1.572,1.572,0,0,0,1.569,1.568h1.044a1.569,1.569,0,0,0,1.569-1.57l0-2.258A10.472,10.472,0,0,0,94.2,28.96H94.19A10.469,10.469,0,0,0,83.738,39.423l0,2.25a1.571,1.571,0,0,0,1.569,1.568h1.245v-.005l.155-.036a1.571,1.571,0,0,0,1.213-1.53l0-2.249a6.283,6.283,0,0,1,6.272-6.278Zm8.894,9.7h-1.044a1.169,1.169,0,0,1-1.167-1.166l0-2.258A6.685,6.685,0,0,0,94.2,32.74l0-.2v.2a6.685,6.685,0,0,0-6.674,6.681l0,2.249a1.167,1.167,0,0,1-1.167,1.168H85.309a1.169,1.169,0,0,1-1.167-1.166l0-2.25a10.067,10.067,0,0,1,10.05-10.06H94.2a10.07,10.07,0,0,1,10.056,10.051l0,2.257a1.167,1.167,0,0,1-1.167,1.168Zm-8.894-10.5h0a7.085,7.085,0,0,1,7.077,7.074l0,2.258a.768.768,0,0,0,.767.766h1.044a.767.767,0,0,0,.767-.768l0-2.257A9.669,9.669,0,0,0,94.2,29.762H94.19a9.666,9.666,0,0,0-9.65,9.66l0,2.25a.768.768,0,0,0,.767.766h1.044a.767.767,0,0,0,.767-.768l0-2.249a7.085,7.085,0,0,1,7.074-7.081Z" transform="translate(-79.314 -28.76)"/>
      </g>
      <g id="Group_34" data-name="Group 34" transform="translate(67.913 50.084)">
        <g id="Group_33" data-name="Group 33" transform="translate(0 0)">
          <path id="Path_41" data-name="Path 41" d="M128.377,167.485a3.693,3.693,0,0,0,1.236-1.025,3.433,3.433,0,0,0,.542-1.326h1.416s.271-.362.754-1.085a.03.03,0,0,0-.03-.03h-2.17a2.632,2.632,0,0,0-.573-1.205h2.019a9.072,9.072,0,0,0,.754-1.115h-7.595a10.807,10.807,0,0,0-.754,1.085v.03h1.989a3.483,3.483,0,0,1,1.115.211,2.131,2.131,0,0,1,1.206.964h-3.556s-.271.362-.754,1.085a.03.03,0,0,0,.03.03h4.521a1.249,1.249,0,0,1-.09.482c-.392,1.085-1.447,1.627-3.1,1.627a4.879,4.879,0,0,1-.934-.06v1.085c0,.03,1.477,1.748,4.46,5.214h1.627c.03,0,.03,0,.03-.03v-.211l-3.737-4.521a3.862,3.862,0,0,1-.512-.663h0A4.312,4.312,0,0,0,128.377,167.485Z" transform="translate(-123.977 -161.699)"/>
          <path id="Path_41_-_Outline" data-name="Path 41 - Outline" d="M124.731,161.5h7.93l-.159.295a9.269,9.269,0,0,1-.769,1.14l-.06.08h-1.728a2.824,2.824,0,0,1,.341.805h2.01a.228.228,0,0,1,.23.23v.061l-.034.05c-.48.72-.749,1.079-.76,1.094l-.06.08h-1.354a3.576,3.576,0,0,1-.541,1.24l-.007.01a3.9,3.9,0,0,1-1.3,1.078,4.465,4.465,0,0,1-1.836.551,3.077,3.077,0,0,0,.286.336l.013.014,3.783,4.576v.283a.216.216,0,0,1-.23.23h-1.719l-.06-.07c-1.583-1.839-2.639-3.066-3.349-3.9-.382-.446-.655-.766-.835-.98-.324-.385-.324-.385-.324-.469V166.91l.239.048a4.754,4.754,0,0,0,.9.056c1.577,0,2.558-.5,2.916-1.5l0-.006a1.032,1.032,0,0,0,.06-.208h-4.3a.228.228,0,0,1-.23-.23v-.061l.034-.05c.48-.72.749-1.079.76-1.094l.06-.08H127.9a1.85,1.85,0,0,0-.871-.572l-.007,0a3.307,3.307,0,0,0-1.052-.2h-2.189v-.291l.034-.05C124.593,161.5,124.593,161.5,124.731,161.5Zm7.246.4h-7.158c-.081.108-.255.367-.488.715h1.635a3.727,3.727,0,0,1,1.175.22,2.32,2.32,0,0,1,1.317,1.052l.182.3h-3.808c-.084.115-.255.355-.5.715h4.4v.2a1.451,1.451,0,0,1-.1.553c-.423,1.165-1.53,1.756-3.291,1.756a6.692,6.692,0,0,1-.734-.028v.787c.251.313,1.838,2.158,4.352,5.079h1.34l-3.66-4.427a4.082,4.082,0,0,1-.534-.692l-.191-.306h.361a4.109,4.109,0,0,0,2.01-.516l.01-.005a3.493,3.493,0,0,0,1.164-.965,3.22,3.22,0,0,0,.507-1.244l.031-.163h1.481c.084-.115.255-.355.5-.715h-2.009l-.032-.161a2.419,2.419,0,0,0-.53-1.117l-.273-.328h2.346C131.646,162.381,131.821,162.144,131.976,161.9Z" transform="translate(-123.977 -161.699)"/>
        </g>
      </g>
    </g>
  </g>
</svg>
