<svg xmlns="http://www.w3.org/2000/svg" xmlns:xlink="http://www.w3.org/1999/xlink" width="50" height="50" viewBox="0 0 50 50">
  <defs>
    <clipPath id="clip-HSN">
      <rect width="50" height="50"/>
    </clipPath>
  </defs>
  <g id="HSN" clip-path="url(#clip-HSN)">
    <g id="MANAGE_HSN_CODE" data-name="MANAGE HSN CODE" transform="translate(-11.649 -6.223)">
      <text id="HSN-2" data-name="HSN" transform="translate(17.649 39.223)" font-size="19" font-family="SegoeUI, Segoe UI"><tspan x="0" y="0">HSN</tspan></text>
      <path id="HSN_-_Outline" data-name="HSN - Outline" d="M17.942.423a7.565,7.565,0,0,1-.8-.052C16.827.336,16.5.285,16.177.219a7.96,7.96,0,0,1-.937-.248,3.052,3.052,0,0,1-.74-.344l-.088-.06V-2.818l.332.293a3.385,3.385,0,0,0,.714.472,5.952,5.952,0,0,0,.9.363,7.218,7.218,0,0,0,.952.23,5.283,5.283,0,0,0,.876.081,3.393,3.393,0,0,0,2.028-.493,1.6,1.6,0,0,0,.63-1.376,1.615,1.615,0,0,0-.209-.835,2.479,2.479,0,0,0-.606-.673,6.322,6.322,0,0,0-.958-.611c-.377-.2-.79-.413-1.226-.634-.466-.236-.907-.479-1.311-.721a5.854,5.854,0,0,1-1.085-.826A3.543,3.543,0,0,1,14.7-8.6a3.27,3.27,0,0,1-.274-1.378,3.254,3.254,0,0,1,.427-1.684,3.636,3.636,0,0,1,1.109-1.173,4.974,4.974,0,0,1,1.541-.677,7.008,7.008,0,0,1,1.743-.22,6.6,6.6,0,0,1,2.96.5l.107.056v2.256L22-11.135a5.026,5.026,0,0,0-2.911-.781,4.8,4.8,0,0,0-.98.1,2.7,2.7,0,0,0-.847.323,1.825,1.825,0,0,0-.586.56,1.462,1.462,0,0,0-.218.818,1.722,1.722,0,0,0,.168.79,1.972,1.972,0,0,0,.511.614,5.418,5.418,0,0,0,.872.572c.352.19.763.4,1.223.628.479.237.94.489,1.37.751a6.42,6.42,0,0,1,1.159.891,4.051,4.051,0,0,1,.8,1.1,3.158,3.158,0,0,1,.3,1.406,3.552,3.552,0,0,1-.411,1.764,3.372,3.372,0,0,1-1.1,1.178,4.758,4.758,0,0,1-1.573.645A8.5,8.5,0,0,1,17.942.423ZM14.812-.648a2.961,2.961,0,0,0,.554.241,7.559,7.559,0,0,0,.89.235c.314.063.627.112.929.146a7.176,7.176,0,0,0,.757.05A8.1,8.1,0,0,0,19.7-.163,4.36,4.36,0,0,0,21.14-.752a2.976,2.976,0,0,0,.974-1.039,3.161,3.161,0,0,0,.359-1.567,2.763,2.763,0,0,0-.262-1.229,3.653,3.653,0,0,0-.726-.994A6.02,6.02,0,0,0,20.4-6.416c-.42-.255-.87-.5-1.339-.734s-.88-.442-1.236-.634a5.814,5.814,0,0,1-.937-.616,2.368,2.368,0,0,1-.612-.74,2.116,2.116,0,0,1-.212-.973,1.853,1.853,0,0,1,.283-1.038,2.222,2.222,0,0,1,.713-.683,3.1,3.1,0,0,1,.972-.373,5.2,5.2,0,0,1,1.061-.111,5.666,5.666,0,0,1,2.824.655v-1.267a6.768,6.768,0,0,0-2.667-.4,6.607,6.607,0,0,0-1.643.207,4.575,4.575,0,0,0-1.418.622,3.239,3.239,0,0,0-.988,1.045,2.861,2.861,0,0,0-.371,1.48,2.875,2.875,0,0,0,.237,1.21,3.144,3.144,0,0,0,.659.929,5.455,5.455,0,0,0,1.011.769c.4.238.829.476,1.286.707.438.222.853.437,1.232.637a6.72,6.72,0,0,1,1.018.651,2.876,2.876,0,0,1,.7.783,2.008,2.008,0,0,1,.265,1.039,2,2,0,0,1-.79,1.7,3.763,3.763,0,0,1-2.268.574,5.683,5.683,0,0,1-.943-.086,7.622,7.622,0,0,1-1.005-.243,6.356,6.356,0,0,1-.958-.388,4.2,4.2,0,0,1-.466-.273ZM36.252.2h-2.22L27.126-10.5l-.052-.082c.008.27.012.591.012.966V.2H25.127V-13.5h2.332l6.72,10.529.136.214c-.015-.325-.022-.714-.022-1.173V-13.5h1.959Zm-2-.4h1.6V-13.1H34.693v9.17a13.989,13.989,0,0,0,.09,1.926l.037.232h-.4l-.055-.111c-.077-.154-.254-.447-.527-.872L27.24-13.1H25.527V-.2h1.159V-9.611a13.679,13.679,0,0,0-.071-1.793l-.041-.234H27l.049.128a4.251,4.251,0,0,0,.408.8Zm-22.3.4H9.987V-5.867H3.5V.2H1.544V-13.5H3.5v5.835H9.987V-13.5h1.959ZM10.387-.2h1.159V-13.1H10.387v5.835H3.1V-13.1H1.944V-.2H3.1V-6.267h7.284Z" transform="translate(17.649 39.223)"/>
    </g>
  </g>
</svg>
