<svg xmlns="http://www.w3.org/2000/svg" xmlns:xlink="http://www.w3.org/1999/xlink" width="50" height="50" viewBox="0 0 50 50">
  <defs>
    <clipPath id="clip-Issue_And_Rejection">
      <rect width="50" height="50"/>
    </clipPath>
  </defs>
  <g id="Issue_And_Rejection" data-name="Issue And Rejection" clip-path="url(#clip-Issue_And_Rejection)">
    <g id="Group_122" data-name="Group 122" transform="translate(-4.518 -5.573)">
      <path id="Path_147" data-name="Path 147" d="M356.242,329.612l-3.556,3.556-1.543-1.543a.664.664,0,0,0-.939.939l2.013,2.013a.648.648,0,0,0,.939,0l4.025-4.026a.664.664,0,0,0-.939-.939Z" transform="translate(-317.02 -293.489)"/>
      <path id="Path_148" data-name="Path 148" d="M193.549,100.7a.752.752,0,0,0-1.089,0l-2.1,2.1-2.1-2.1a.77.77,0,0,0-1.089,1.089l2.1,2.1-2.1,2.1a.77.77,0,0,0,1.089,1.089l2.1-2.1,2.1,2.1a.77.77,0,1,0,1.089-1.089l-2.1-2.1,2.1-2.1A.752.752,0,0,0,193.549,100.7Z" transform="translate(-167.973 -80.577)"/>
      <g id="Group_121" data-name="Group 121" transform="translate(11.518 12.573)">
        <path id="Subtraction_24" data-name="Subtraction 24" d="M1537.131,2797.306h-17.817a2.1,2.1,0,0,1-1.913-2.25v-13.1h7.048a2.5,2.5,0,0,0,2.314-2.651v-1.9h10.369a2.106,2.106,0,0,1,1.914,2.251v15.405A2.1,2.1,0,0,1,1537.131,2797.306Zm-18.621-14v11.754a.857.857,0,0,0,.8.9h17.817a.857.857,0,0,0,.8-.9v-15.405a.857.857,0,0,0-.8-.9h-9.259v.551a3.751,3.751,0,0,1-3.424,4Z" transform="translate(-1504.123 -2762.157)"/>
        <path id="Subtraction_25" data-name="Subtraction 25" d="M1538.474,2797.945h-19.018a2.207,2.207,0,0,1-2.057-2.327v-15.89a2.207,2.207,0,0,1,2.057-2.327h19.018a2.207,2.207,0,0,1,2.056,2.327v15.89A2.207,2.207,0,0,1,1538.474,2797.945Zm-19.018-19.139a.887.887,0,0,0-.845.922v15.89a.887.887,0,0,0,.845.922h19.018a.887.887,0,0,0,.845-.922v-15.89a.887.887,0,0,0-.845-.922Z" transform="translate(-1517.2 -2777.2)"/>
      </g>
    </g>
  </g>
</svg>
