<svg xmlns="http://www.w3.org/2000/svg" xmlns:xlink="http://www.w3.org/1999/xlink" width="50" height="50" viewBox="0 0 50 50">
  <defs>
    <clipPath id="clip-Manage_Roles">
      <rect width="50" height="50"/>
    </clipPath>
  </defs>
  <g id="Manage_Roles" data-name="Manage Roles" clip-path="url(#clip-Manage_Roles)">
    <g id="MANAGE_ROLES-2" data-name="MANAGE ROLES" transform="translate(10 6)">
      <g id="Group_56" data-name="Group 56" transform="translate(0)">
        <path id="Path_51" data-name="Path 51" d="M76.891,79.127h-.023a.507.507,0,0,1-.49-.5A5.376,5.376,0,0,0,74.8,77.4l.5-.877a9.281,9.281,0,0,1,1.264.852c.536-2.748,1.837-4.321,3.723-4.464l.169-.013.142.091a5.654,5.654,0,0,1,.769.715,14.886,14.886,0,0,0,5.54,3.908c-.613-1.155-1.294-2.7-1.4-2.93l-1.071-2.433,1.889,1.87c1.527,1.512,3.963,3.6,5.044,3.949a15.652,15.652,0,0,1,2.206-2.083l.633.788a11.765,11.765,0,0,0-2.12,2.031l-.13.324h-.353c-.978-.022-2.709-1.333-4.08-2.521a10.549,10.549,0,0,0,.84,1.48l.833,1.041L87.886,78.9c-3.409-.589-6-3.223-7.241-4.489-.167-.171-.351-.357-.474-.471-1.978.31-2.581,3-2.765,4.608C77.352,79.022,77.1,79.127,76.891,79.127Zm-.515-.527h0Z" transform="translate(-69.146 -65.37)"/>
        <path id="Path_51_-_Outline" data-name="Path 51 - Outline" d="M76.891,79.227h-.028a.6.6,0,0,1-.584-.571,5.668,5.668,0,0,0-1.533-1.172.1.1,0,0,1-.037-.137l.5-.877a.1.1,0,0,1,.137-.037,9.812,9.812,0,0,1,1.149.758A7.051,7.051,0,0,1,77.842,74.1a3.418,3.418,0,0,1,2.437-1.291l.169-.013a.1.1,0,0,1,.061.015l.142.091a5.662,5.662,0,0,1,.787.729,15.076,15.076,0,0,0,5.262,3.8c-.573-1.109-1.163-2.44-1.282-2.711l-1.071-2.433a.1.1,0,0,1,.162-.111l1.889,1.87a21.7,21.7,0,0,0,4.938,3.9A16.554,16.554,0,0,1,93.515,75.9a.1.1,0,0,1,.141.015l.633.788a.1.1,0,0,1-.015.141,11.78,11.78,0,0,0-2.09,1.99l-.13.324a.1.1,0,0,1-.092.063h-.353c-.768-.017-2.032-.763-3.763-2.218a7.381,7.381,0,0,0,.6,1.014l.833,1.041a.1.1,0,0,1-.1.161L87.869,79c-3.441-.595-6.044-3.244-7.3-4.517-.164-.167-.32-.326-.435-.435-1.88.337-2.457,2.966-2.633,4.512C77.439,79.14,77.092,79.227,76.891,79.227Zm-.415-.619a.1.1,0,0,1,0,.012.408.408,0,0,0,.394.406h.019c.242,0,.379-.161.416-.492.184-1.616.8-4.374,2.849-4.7a.1.1,0,0,1,.084.026c.12.112.294.288.477.475,1.237,1.258,3.809,3.877,7.187,4.46l1.054.182-.668-.835a10.188,10.188,0,0,1-.851-1.5.1.1,0,0,1,.155-.12c1.866,1.617,3.255,2.48,4.017,2.5h.283L92,78.764a11.472,11.472,0,0,1,2.072-2.009l-.508-.632a15.177,15.177,0,0,0-2.111,2,.1.1,0,0,1-.111.035c-1.161-.377-3.734-2.637-5.083-3.973l-1.515-1.5.859,1.952c.127.288.79,1.784,1.394,2.923a.1.1,0,0,1-.12.142A14.885,14.885,0,0,1,81.3,73.771a5.648,5.648,0,0,0-.752-.7L80.429,73l-.135.01c-1.844.14-3.1,1.655-3.632,4.383a.1.1,0,0,1-.162.058,8.817,8.817,0,0,0-1.164-.793l-.4.7a6.093,6.093,0,0,1,1.493,1.154.1.1,0,0,1,.05.087h0S76.476,78.606,76.475,78.608Z" transform="translate(-69.146 -65.37)"/>
        <g id="Group_55" data-name="Group 55" transform="translate(0)">
          <path id="Path_52" data-name="Path 52" d="M57.92,66.224c-4.67,0-13.034-.28-16.31-2.167l-.227-.131-.024-.261c-.006-.064-.013-.132-.02-.2-.191-1.884-.633-6.251,8.7-11.083a17.925,17.925,0,0,1-.993-2.021c-.166-.376-.323-.732-.458-1-.1-.093-.2-.187-.3-.283-1.088-1-2.575-2.375-1.617-5.733,0-.137-.007-.281-.012-.431-.061-2.017-.162-5.369,2.517-8.019,0-.835-1.418-1.521-1.433-1.528L45.457,32.3l2.523.106a5.015,5.015,0,0,1,2.565.814,10.86,10.86,0,0,1,8.18-1.607l.055.011c3.507.916,7.693,3.578,7.747,11.057.027.132.076.3.132.489a5.227,5.227,0,0,1-1.539,5.957c-.1.252-.195.493-.285.724a11.612,11.612,0,0,1-1.248,2.611,21.5,21.5,0,0,1,4.427,2.917l.517.4-.615.8-.519-.4a16.787,16.787,0,0,0-4.827-3.013L61.72,52.9l.656-.6a7.455,7.455,0,0,0,1.517-2.826c.1-.265.212-.544.33-.837l.042-.105.083-.077a4.258,4.258,0,0,0,1.34-5.008,6.222,6.222,0,0,1-.165-.636l-.008-.086c-.033-6.853-3.8-9.288-6.964-10.123A9.8,9.8,0,0,0,51,34.126c-.088.057-.17.111-.247.159l-.376.238-.283-.343a1.071,1.071,0,0,0-.106-.111,1.783,1.783,0,0,1,.169,1.157l-.031.16-.118.112c-2.489,2.358-2.4,5.384-2.338,7.386.005.182.011.355.014.518l0,.078-.022.074c-.825,2.811.31,3.858,1.311,4.782.133.123.262.242.383.361l.055.054.036.068c.16.3.337.7.526,1.13a11.761,11.761,0,0,0,1.2,2.3l.4.489-.566.283c-9.15,4.575-8.851,8.544-8.676,10.285C46.9,65.646,61,65.169,61.14,65.164l.036,1.01C61.005,66.181,59.745,66.224,57.92,66.224Z" transform="translate(-41.269 -31.443)"/>
          <path id="Path_52_-_Outline" data-name="Path 52 - Outline" d="M57.92,66.324c-4.7,0-13.067-.283-16.36-2.181l-.227-.131a.1.1,0,0,1-.05-.078l-.024-.261c-.006-.064-.013-.131-.02-.2-.191-1.885-.638-6.289,8.663-11.133a19.285,19.285,0,0,1-.944-1.941l0-.007c-.161-.366-.314-.711-.445-.969-.091-.087-.186-.175-.286-.267-1.107-1.021-2.619-2.415-1.652-5.822,0-.13-.007-.266-.011-.408v-.007c-.061-2.017-.162-5.387,2.516-8.062-.042-.627-1-1.219-1.374-1.4l-2.288-1.069a.1.1,0,0,1,.047-.191l2.523.106a5.226,5.226,0,0,1,2.566.791,10.278,10.278,0,0,1,5.985-1.751,15.309,15.309,0,0,1,2.2.167h.005l.055.011H58.8c3.537.924,7.764,3.607,7.821,11.143.026.125.073.283.127.466l0,.006a5.314,5.314,0,0,1-1.55,6.042c-.094.235-.182.461-.266.677l-.01.026a12.488,12.488,0,0,1-1.188,2.531,22.2,22.2,0,0,1,4.335,2.88l.517.4a.1.1,0,0,1,.018.14l-.615.8a.1.1,0,0,1-.14.018l-.519-.4a16.731,16.731,0,0,0-4.8-3L61.691,53a.1.1,0,0,1-.038-.17l.656-.6A7.4,7.4,0,0,0,63.8,49.444c.093-.238.209-.535.33-.838l.043-.106a.1.1,0,0,1,.025-.036l.083-.077a4.172,4.172,0,0,0,1.312-4.907,6.287,6.287,0,0,1-.167-.647v-.008l-.008-.086s0-.006,0-.009c-.033-6.79-3.76-9.2-6.884-10.025a14.2,14.2,0,0,0-2.016-.152,9.107,9.107,0,0,0-5.458,1.657l-.006,0c-.086.056-.167.108-.242.156l-.376.238a.1.1,0,0,1-.13-.021l-.047-.057a1.836,1.836,0,0,1,0,.715l-.031.16a.1.1,0,0,1-.029.054l-.118.112c-2.456,2.327-2.366,5.326-2.306,7.31V42.9c.005.174.01.339.013.5l0,.077a.1.1,0,0,1,0,.03l-.022.074c-.807,2.752.3,3.776,1.282,4.68.135.125.263.243.385.363l.055.054a.1.1,0,0,1,.018.024l.036.068c.16.3.337.7.525,1.128l0,.008a11.707,11.707,0,0,0,1.19,2.274l.4.489a.1.1,0,0,1-.033.153l-.566.283c-3.918,1.959-6.54,4.034-7.793,6.167a6.068,6.068,0,0,0-.833,3.965c3.242,1.626,11.159,1.869,15.605,1.869,1.81,0,3.047-.041,3.1-.043a.1.1,0,0,1,.1.1l.036,1.01a.1.1,0,0,1-.1.1C60.949,66.283,59.707,66.324,57.92,66.324ZM41.477,63.865l.182.105c3.252,1.874,11.583,2.154,16.26,2.154,1.6,0,2.768-.033,3.154-.045l-.029-.811c-.333.01-1.462.04-3.006.04-4.486,0-12.5-.249-15.745-1.916a.1.1,0,0,1-.054-.079,6.275,6.275,0,0,1,.854-4.141C44.367,57,47.017,54.9,50.97,52.928l.454-.227-.321-.393a11.8,11.8,0,0,1-1.218-2.32l0-.008c-.186-.422-.362-.82-.519-1.115l-.029-.055-.044-.044c-.119-.118-.246-.235-.38-.358-1.022-.943-2.181-2.012-1.339-4.883l.018-.06V43.4c0-.156-.008-.321-.013-.494v-.023c-.061-2.02-.153-5.073,2.369-7.461l.095-.09.025-.128a1.687,1.687,0,0,0-.16-1.093.1.1,0,0,1,.157-.118,1.178,1.178,0,0,1,.116.121l.227.275.3-.191.239-.154.006,0a9.288,9.288,0,0,1,5.568-1.689,14.408,14.408,0,0,1,2.05.155l.011,0c3.192.842,7,3.3,7.039,10.215l.007.078a6.186,6.186,0,0,0,.161.619,4.346,4.346,0,0,1-1.367,5.112l-.067.062-.034.085c-.121.3-.237.6-.33.836a7.507,7.507,0,0,1-1.543,2.863l-.526.48.681.207A16.844,16.844,0,0,1,67.457,56.1l.439.338.494-.643-.438-.337a21.29,21.29,0,0,0-4.4-2.9.1.1,0,0,1-.042-.151,11.541,11.541,0,0,0,1.235-2.586l.011-.028c.087-.223.178-.456.275-.7a.1.1,0,0,1,.024-.035,5.141,5.141,0,0,0,1.512-5.856l0-.006c-.056-.192-.1-.357-.132-.492a.1.1,0,0,1,0-.019c-.053-7.415-4.2-10.053-7.669-10.96l-.049-.01a15.107,15.107,0,0,0-2.173-.165A10.108,10.108,0,0,0,50.6,33.3a.1.1,0,0,1-.116-.005,4.93,4.93,0,0,0-2.508-.792l-2.024-.085,1.836.858c.015.007,1.488.713,1.491,1.618a.1.1,0,0,1-.03.071C46.6,37.584,46.7,40.918,46.761,42.91v.008c0,.147.009.289.012.424a.1.1,0,0,1,0,.03c-.941,3.3.521,4.648,1.589,5.633.108.1.208.192.3.284a.1.1,0,0,1,.02.026c.135.264.292.618.457.994l0,.007a17.933,17.933,0,0,0,.986,2.009.1.1,0,0,1-.039.141c-9.277,4.8-8.838,9.134-8.651,10.984.007.072.014.141.02.205Z" transform="translate(-41.269 -31.443)"/>
          <path id="Path_53" data-name="Path 53" d="M102.249,158.959c-3.4,0-5.841-2.828-5.948-2.954l.77-.655c.024.028,2.429,2.8,5.53,2.585a8.738,8.738,0,0,0,5.518-2.618l.709.721a9.707,9.707,0,0,1-6.081,2.9l-.048.006Q102.472,158.96,102.249,158.959Z" transform="translate(-87.027 -134.443)"/>
          <path id="Path_53_-_Outline" data-name="Path 53 - Outline" d="M102.249,159.059c-3.449,0-5.921-2.867-6.024-2.989a.1.1,0,0,1,.011-.141l.77-.655a.1.1,0,0,1,.141.011c.022.026,2.223,2.562,5.117,2.562.108,0,.218,0,.325-.011a8.63,8.63,0,0,0,5.46-2.59.1.1,0,0,1,.141,0l.709.721a.1.1,0,0,1,0,.141,9.791,9.791,0,0,1-6.134,2.925l-.053.007Q102.477,159.06,102.249,159.059Zm-5.806-3.043a8.505,8.505,0,0,0,5.806,2.843c.147,0,.3-.005.444-.016l.043-.005a9.612,9.612,0,0,0,5.951-2.8l-.568-.578a8.792,8.792,0,0,1-5.5,2.576h-.01c-.114.008-.229.012-.344.012a7.79,7.79,0,0,1-5.2-2.558Z" transform="translate(-87.027 -134.443)"/>
        </g>
      </g>
      <g id="Group_57" data-name="Group 57" transform="translate(20.798 24.888)">
        <path id="Path_54" data-name="Path 54" d="M166.157,214a1.471,1.471,0,0,1-1.471-1.47v-4.606a1.471,1.471,0,0,1,1.47-1.471h6.623a1.472,1.472,0,0,1,1.38,1.466v4.606a1.47,1.47,0,0,1-1.47,1.471l-6.531,0Zm0-6.7a.629.629,0,0,0-.628.629v4.606a.629.629,0,0,0,.628.628h0l6.531,0a.628.628,0,0,0,.628-.629v-4.606a.628.628,0,0,0-.578-.625Z" transform="translate(-164.685 -201.85)"/>
        <path id="Path_54_-_Outline" data-name="Path 54 - Outline" d="M166.158,214.051h0a1.521,1.521,0,0,1-1.521-1.52v-4.606a1.521,1.521,0,0,1,1.52-1.521h6.623a1.523,1.523,0,0,1,1.43,1.516v4.606a1.52,1.52,0,0,1-1.52,1.521Zm0-7.547a1.421,1.421,0,0,0-1.42,1.421v4.606a1.421,1.421,0,0,0,1.421,1.42v0l6.531,0a1.42,1.42,0,0,0,1.42-1.421v-4.606a1.422,1.422,0,0,0-1.333-1.416Zm0,6.7a.679.679,0,0,1-.679-.678v-4.606a.679.679,0,0,1,.678-.679h6.582a.681.681,0,0,1,.628.674v4.606a.678.678,0,0,1-.678.679Zm0-5.862a.579.579,0,0,0-.578.579v4.606a.579.579,0,0,0,.578.578l6.532,0a.578.578,0,0,0,.578-.579v-4.606a.58.58,0,0,0-.532-.575h-6.578Z" transform="translate(-164.685 -201.85)"/>
        <path id="Path_89" data-name="Path 89" d="M2.242,4.893a.5.5,0,0,1-.5-.454,4.54,4.54,0,0,1,.894-3.13A2.7,2.7,0,0,1,4.748.468a.5.5,0,1,1-.01,1,1.725,1.725,0,0,0-1.362.515,3.582,3.582,0,0,0-.635,2.366.5.5,0,0,1-.454.542Z"/>
        <path id="Path_90" data-name="Path 90" d="M4.733,4.893l-.046,0a.5.5,0,0,1-.453-.542h0A3.582,3.582,0,0,0,3.6,1.984a1.725,1.725,0,0,0-1.362-.515.5.5,0,1,1-.01-1,2.7,2.7,0,0,1,2.109.84,4.54,4.54,0,0,1,.894,3.13A.5.5,0,0,1,4.733,4.893Z" transform="translate(2.504 0)"/>
      </g>
    </g>
  </g>
</svg>
