<svg xmlns="http://www.w3.org/2000/svg" xmlns:xlink="http://www.w3.org/1999/xlink" width="50" height="50" viewBox="0 0 50 50">
  <defs>
    <clipPath id="clip-Manage_Admin_">
      <rect width="50" height="50"/>
    </clipPath>
  </defs>
  <g id="Manage_Admin_" data-name="Manage Admin " clip-path="url(#clip-Manage_Admin_)">
    <g id="MANAGE_ADMIN" data-name="MANAGE ADMIN" transform="translate(10 6)">
      <path id="Path_7" data-name="Path 7" d="M86.808,84.051h-.023a.517.517,0,0,1-.5-.508,5.482,5.482,0,0,0-1.613-1.257l.514-.894a9.465,9.465,0,0,1,1.29.87c.547-2.8,1.874-4.408,3.8-4.554l.172-.013.145.093a5.772,5.772,0,0,1,.785.729A15.185,15.185,0,0,0,97.026,82.5c-.625-1.179-1.32-2.75-1.426-2.989l-1.092-2.482,1.927,1.908c1.558,1.543,4.043,3.67,5.146,4.028a15.968,15.968,0,0,1,2.251-2.125l.646.8a12,12,0,0,0-2.163,2.072l-.133.331h-.36c-1-.022-2.764-1.36-4.163-2.572a10.768,10.768,0,0,0,.856,1.509l.85,1.062-1.34-.232c-3.478-.6-6.118-3.288-7.387-4.58-.171-.174-.358-.364-.484-.481-2.017.317-2.633,3.059-2.821,4.7C87.278,83.944,87.022,84.051,86.808,84.051Zm-.525-.537h0Z" transform="translate(-78.907 -70.016)"/>
      <path id="Path_7_-_Outline" data-name="Path 7 - Outline" d="M99.608,84.193l-1.6-.277c-3.51-.607-6.165-3.309-7.441-4.608l0,0c-.15-.153-.318-.324-.44-.44-1.92.344-2.509,3.027-2.689,4.606-.068.592-.421.681-.626.681h-.023a.614.614,0,0,1-.6-.581,5.776,5.776,0,0,0-1.565-1.2l-.087-.05.613-1.068.087.05a9.994,9.994,0,0,1,1.174.775,7.2,7.2,0,0,1,1.371-3.156,3.485,3.485,0,0,1,2.485-1.316l.205-.016.173.111a5.784,5.784,0,0,1,.8.743,15.37,15.37,0,0,0,5.374,3.878c-.6-1.167-1.236-2.6-1.311-2.77l-1.092-2.482.162-.111,1.927,1.908c1.673,1.657,3.981,3.588,5.04,3.981a16.877,16.877,0,0,1,2.224-2.085l.078-.063.771.96-.078.063a12.016,12.016,0,0,0-2.132,2.031l-.158.393-.427,0c-.784-.017-2.075-.78-3.845-2.269a7.593,7.593,0,0,0,.617,1.044Zm-13.227-.68,0,0v.017a.418.418,0,0,0,.4.416h.02c.248,0,.388-.165.427-.5.188-1.648.815-4.461,2.9-4.788l.048-.008.036.033c.126.118.315.31.482.48l0,0c1.261,1.284,3.886,3.955,7.333,4.551l1.08.187-.685-.856a10.4,10.4,0,0,1-.868-1.527l.155-.12c1.9,1.65,3.322,2.531,4.1,2.548h.29l.108-.269a11.714,11.714,0,0,1,2.115-2.05l-.521-.648a15.5,15.5,0,0,0-2.156,2.044l-.043.057-.068-.022c-1.184-.384-3.809-2.689-5.185-4.052l-1.554-1.538.88,2c.079.18.79,1.79,1.422,2.982l.117.221-.238-.08A15.18,15.18,0,0,1,91.3,78.586a5.768,5.768,0,0,0-.767-.715l-.117-.075-.139.011c-1.882.143-3.164,1.689-3.707,4.473l-.032.165-.13-.107a9,9,0,0,0-1.189-.81l-.414.721A5.256,5.256,0,0,1,86.376,83.5l0,.011h0Z" transform="translate(-78.907 -70.016)"/>
      <g id="Group_5" data-name="Group 5">
        <path id="Path_8" data-name="Path 8" d="M197.235,192h-.714l-.268-.669.491-.491a.431.431,0,0,0,0-.625l-2.275-2.275a.337.337,0,0,0-.312-.178.405.405,0,0,0-.312.134l-.491.491-.669-.268v-.714a.421.421,0,0,0-.446-.446h-3.212a.421.421,0,0,0-.446.446v.714l-.669.268-.491-.491a.431.431,0,0,0-.625,0l-2.275,2.275a.431.431,0,0,0,0,.625l.491.491-.268.669h-.714a.422.422,0,0,0-.446.446v3.212a.421.421,0,0,0,.446.446h.714l.268.669-.491.491a.431.431,0,0,0,0,.625l2.275,2.275a.431.431,0,0,0,.625,0l.491-.491.669.268v.8a.421.421,0,0,0,.446.446h3.212a.421.421,0,0,0,.446-.446v-.714l.669-.268.491.491a.431.431,0,0,0,.625,0l2.275-2.275a.431.431,0,0,0,0-.625l-.491-.491.268-.669h.714a.422.422,0,0,0,.446-.446v-3.212A.435.435,0,0,0,197.235,192Zm-.446,3.212h-.58a.537.537,0,0,0-.446.312,8.328,8.328,0,0,1-.446,1.115.474.474,0,0,0,.089.535l.4.4-1.651,1.651-.4-.4a.474.474,0,0,0-.535-.089,4.858,4.858,0,0,1-1.115.446.443.443,0,0,0-.312.446v.625h-2.32v-.58a.537.537,0,0,0-.312-.446,8.284,8.284,0,0,1-1.115-.446.475.475,0,0,0-.535.089l-.4.4-1.651-1.651.4-.4a.475.475,0,0,0,.089-.536,4.863,4.863,0,0,1-.446-1.115.443.443,0,0,0-.446-.312h-.58v-2.32h.536a.537.537,0,0,0,.446-.312,8.314,8.314,0,0,1,.446-1.115.474.474,0,0,0-.089-.535l-.4-.4,1.651-1.651.4.4a.474.474,0,0,0,.535.089,4.856,4.856,0,0,1,1.115-.446.443.443,0,0,0,.312-.446v-.58h2.32v.58a.537.537,0,0,0,.312.446,8.312,8.312,0,0,1,1.115.446.475.475,0,0,0,.536-.089l.4-.4,1.651,1.651-.4.4a.475.475,0,0,0-.089.535,4.855,4.855,0,0,1,.446,1.115.444.444,0,0,0,.446.312h.58v2.275Zm-6.157-4.373a3.212,3.212,0,1,0,3.212,3.212A3.2,3.2,0,0,0,190.631,190.843Zm0,5.533a2.32,2.32,0,1,1,2.32-2.32A2.333,2.333,0,0,1,190.631,196.375Z" transform="translate(-160.814 -161.048)"/>
        <path id="Path_8_-_Outline" data-name="Path 8 - Outline" d="M189.025,186.861h3.212a.523.523,0,0,1,.546.546v.646l.545.218.444-.444a.5.5,0,0,1,.383-.163.433.433,0,0,1,.39.215l2.269,2.269a.53.53,0,0,1,0,.766l-.444.444.218.545h.646a.534.534,0,0,1,.546.591v3.212a.523.523,0,0,1-.546.546h-.646l-.218.545.444.444a.53.53,0,0,1,0,.766l-2.275,2.275a.531.531,0,0,1-.766,0l-.444-.444-.545.218v.646a.523.523,0,0,1-.546.546h-3.212a.523.523,0,0,1-.546-.546v-.735l-.545-.218-.444.444a.531.531,0,0,1-.766,0l-2.275-2.275a.531.531,0,0,1,0-.766l.444-.444-.218-.545h-.646a.523.523,0,0,1-.546-.546V192.4a.523.523,0,0,1,.546-.546h.646l.218-.545-.444-.444a.53.53,0,0,1,0-.766l2.275-2.275a.531.531,0,0,1,.766,0l.444.444.545-.218v-.646A.523.523,0,0,1,189.025,186.861Zm4.352,1.645-.793-.317v-.782a.321.321,0,0,0-.346-.346h-3.212a.321.321,0,0,0-.346.346v.782l-.793.317-.537-.537a.331.331,0,0,0-.483,0l-2.275,2.275a.331.331,0,0,0,0,.483l.537.537-.317.793h-.782a.321.321,0,0,0-.346.346v3.212a.321.321,0,0,0,.346.346h.782l.317.793-.537.537a.331.331,0,0,0,0,.483l2.275,2.275a.331.331,0,0,0,.483,0l.537-.537.793.317v.871a.321.321,0,0,0,.346.346h3.212a.321.321,0,0,0,.346-.346v-.782l.793-.317.537.537a.332.332,0,0,0,.483,0l2.275-2.275a.33.33,0,0,0,0-.483l-.537-.537.317-.793h.781a.321.321,0,0,0,.346-.346v-3.212c0-.248-.126-.391-.346-.391h-.781l-.317-.793.537-.537a.33.33,0,0,0,0-.483L194.385,188a.238.238,0,0,0-.229-.134.306.306,0,0,0-.242.1Zm-4.05-.663h2.52v.68a.436.436,0,0,0,.251.354,8.5,8.5,0,0,1,1.121.449.35.35,0,0,0,.156.036.38.38,0,0,0,.264-.106l.472-.472,1.792,1.792-.472.472a.373.373,0,0,0-.07.42,4.959,4.959,0,0,1,.454,1.138.345.345,0,0,0,.349.234h.68v2.376h-.055v.1h-.58a.436.436,0,0,0-.354.251,8.521,8.521,0,0,1-.449,1.121.373.373,0,0,0,.07.42l.472.472-1.792,1.792-.472-.472a.379.379,0,0,0-.264-.106.345.345,0,0,0-.156.036,4.959,4.959,0,0,1-1.138.454.344.344,0,0,0-.234.348v.725h-2.52v-.68a.436.436,0,0,0-.251-.354,8.464,8.464,0,0,1-1.121-.449.35.35,0,0,0-.156-.036.381.381,0,0,0-.264.106l-.472.472-1.792-1.792.472-.472a.374.374,0,0,0,.07-.42,4.965,4.965,0,0,1-.454-1.138.344.344,0,0,0-.348-.234h-.68v-2.52h.636a.436.436,0,0,0,.354-.251,8.5,8.5,0,0,1,.449-1.121.373.373,0,0,0-.07-.42l-.472-.472,1.792-1.792.472.472a.379.379,0,0,0,.264.106.35.35,0,0,0,.156-.036,4.959,4.959,0,0,1,1.138-.454.344.344,0,0,0,.234-.348Zm2.32.2h-2.12v.48a.543.543,0,0,1-.388.543,4.808,4.808,0,0,0-1.1.439.551.551,0,0,1-.245.057.575.575,0,0,1-.406-.165l-.331-.331-1.509,1.509.331.331a.578.578,0,0,1,.108.651,8.349,8.349,0,0,0-.441,1.1l-.005.013a.634.634,0,0,1-.536.368h-.436v2.12h.48a.543.543,0,0,1,.543.388,4.815,4.815,0,0,0,.439,1.095.571.571,0,0,1-.108.651l-.331.331,1.509,1.509.331-.331a.577.577,0,0,1,.406-.165.551.551,0,0,1,.245.057,8.112,8.112,0,0,0,1.1.441l.013.005a.634.634,0,0,1,.367.536v.48h2.12v-.525a.543.543,0,0,1,.388-.543,4.807,4.807,0,0,0,1.095-.439.55.55,0,0,1,.245-.057.575.575,0,0,1,.406.165l.331.331,1.509-1.509-.331-.331a.571.571,0,0,1-.108-.651,8.364,8.364,0,0,0,.441-1.1l.005-.013a.634.634,0,0,1,.536-.368h.436V193.04h-.48a.543.543,0,0,1-.543-.388,4.807,4.807,0,0,0-.439-1.095.578.578,0,0,1,.108-.651l.331-.331-1.509-1.509-.331.331a.576.576,0,0,1-.406.165.551.551,0,0,1-.245-.057,8.351,8.351,0,0,0-1.1-.441l-.013-.005a.634.634,0,0,1-.368-.536Zm-1.015,2.7a3.3,3.3,0,1,1-2.346.966A3.316,3.316,0,0,1,190.631,190.743Zm0,6.425a3.112,3.112,0,1,0-3.112-3.112A3.116,3.116,0,0,0,190.631,197.167Zm0-5.532a2.394,2.394,0,0,1,2.42,2.42,2.423,2.423,0,0,1-2.42,2.42,2.42,2.42,0,0,1,0-4.84Zm0,4.64a2.223,2.223,0,0,0,2.22-2.22,2.22,2.22,0,1,0-2.22,2.22Z" transform="translate(-160.814 -161.048)"/>
        <path id="Path_9" data-name="Path 9" d="M68.131,71.71c-4.764,0-13.3-.285-16.639-2.211l-.232-.134-.024-.267c-.006-.065-.013-.135-.02-.208-.195-1.922-.646-6.377,8.88-11.307a18.292,18.292,0,0,1-1.013-2.062c-.169-.383-.33-.747-.467-1.015-.1-.095-.2-.19-.308-.288-1.11-1.024-2.627-2.423-1.65-5.849,0-.14-.008-.287-.012-.44-.062-2.057-.165-5.478,2.568-8.181,0-.852-1.446-1.552-1.462-1.559L55.417,37.1l2.574.108a5.116,5.116,0,0,1,2.617.83A11.077,11.077,0,0,1,68.952,36.4l.056.011c3.578.934,7.848,3.65,7.9,11.28.028.134.078.3.135.5a5.332,5.332,0,0,1-1.57,6.077c-.1.257-.2.5-.29.739a11.852,11.852,0,0,1-1.273,2.663,21.928,21.928,0,0,1,4.517,2.976l.527.405-.628.818L77.8,61.46a17.132,17.132,0,0,0-4.926-3.075l-.866-.264.669-.611a7.6,7.6,0,0,0,1.548-2.882c.105-.27.216-.555.337-.854l.043-.108.085-.079a4.344,4.344,0,0,0,1.367-5.109,6.358,6.358,0,0,1-.168-.649l-.008-.088c-.034-6.991-3.875-9.475-7.1-10.327-4.353-.629-6.531.788-7.7,1.55-.09.059-.174.113-.252.162l-.384.242-.289-.35a1.085,1.085,0,0,0-.108-.112,1.819,1.819,0,0,1,.172,1.179l-.031.163-.121.114c-2.539,2.405-2.446,5.492-2.385,7.535.006.186.011.362.014.529l0,.079-.022.076c-.842,2.868.316,3.936,1.337,4.878.136.125.268.247.39.368l.056.056.037.07c.163.306.344.717.536,1.152a12.008,12.008,0,0,0,1.229,2.344l.408.5-.577.288c-9.335,4.668-9.03,8.717-8.851,10.493,4.656,2.39,19.034,1.9,19.181,1.9l.037,1.031C71.278,71.667,69.992,71.71,68.131,71.71Z" transform="translate(-51.144 -36.228)"/>
        <path id="Path_9_-_Outline" data-name="Path 9 - Outline" d="M68.131,71.81c-4.791,0-13.331-.289-16.689-2.224l-.277-.16-.029-.318c-.006-.065-.013-.134-.02-.207-.195-1.922-.65-6.415,8.839-11.357a19.664,19.664,0,0,1-.964-1.982c-.166-.377-.323-.731-.457-1-.081-.077-.164-.155-.252-.236l-.042-.039c-1.126-1.039-2.668-2.461-1.682-5.935,0-.134-.007-.273-.012-.419v-.005c-.062-2.057-.165-5.5,2.567-8.224-.049-.763-1.389-1.422-1.4-1.428l-2.334-1.091L55.421,37l2.574.108a5.328,5.328,0,0,1,2.617.808,10.483,10.483,0,0,1,6.105-1.786,15.613,15.613,0,0,1,2.249.171h.005l.061.012c3.608.942,7.919,3.679,7.977,11.366.027.127.074.289.129.475l0,.007a5.42,5.42,0,0,1-1.581,6.162c-.1.245-.189.479-.277.7l-.005.014a12.728,12.728,0,0,1-1.213,2.584,22.632,22.632,0,0,1,4.425,2.94l.606.466-.75.977-.608-.467a17.076,17.076,0,0,0-4.894-3.058l-1.034-.315.8-.729a7.55,7.55,0,0,0,1.522-2.845c.116-.3.221-.566.337-.855l.052-.129.1-.094a4.258,4.258,0,0,0,1.339-5.008l0-.005a6.367,6.367,0,0,1-.169-.655v-.008l-.008-.1c-.033-6.928-3.837-9.387-7.025-10.23a14.5,14.5,0,0,0-2.057-.155,9.293,9.293,0,0,0-5.57,1.691c-.093.061-.176.114-.253.163l-.458.289-.109-.132a1.87,1.87,0,0,1,0,.737l-.037.195-.144.136c-2.507,2.375-2.414,5.434-2.353,7.459v.025c.005.177.01.346.013.505l0,.094-.027.091c-.824,2.808.309,3.854,1.309,4.776.138.127.269.248.392.37l.067.067.044.083c.165.31.347.722.539,1.159a11.956,11.956,0,0,0,1.215,2.321l.488.6-.689.344c-4,2-6.673,4.116-7.951,6.292a6.193,6.193,0,0,0-.85,4.047c3.307,1.659,11.387,1.908,15.923,1.908,1.9,0,3.148-.043,3.16-.044l.1,0,.044,1.231-.1,0C71.316,71.766,70.026,71.81,68.131,71.81ZM51.355,69.305l.187.108c3.318,1.912,11.818,2.2,16.59,2.2,1.664,0,2.859-.035,3.219-.046l-.03-.831c-.333.01-1.472.041-3.067.041-4.577,0-12.75-.254-16.063-1.955l-.048-.025-.005-.054a6.4,6.4,0,0,1,.871-4.223c1.3-2.21,4-4.353,8.034-6.37l.465-.233-.329-.4a12.045,12.045,0,0,1-1.243-2.367c-.191-.433-.372-.842-.533-1.146l-.03-.056-.045-.045c-.122-.12-.251-.239-.388-.365-1.043-.962-2.224-2.052-1.365-4.98l.018-.061v-.064c0-.159-.008-.327-.013-.5V47.9c-.062-2.06-.156-5.174,2.416-7.61l.1-.092.025-.131a1.723,1.723,0,0,0-.164-1.116l.157-.119a1.187,1.187,0,0,1,.118.123l.233.282.309-.2c.076-.048.159-.1.247-.159A9.478,9.478,0,0,1,66.7,37.158a14.7,14.7,0,0,1,2.091.158l.011,0c3.256.859,7.144,3.363,7.179,10.419l.007.079a6.3,6.3,0,0,0,.163.629l0,.005a4.43,4.43,0,0,1-1.395,5.211l-.069.063-.035.087c-.116.288-.221.556-.336.853a7.655,7.655,0,0,1-1.573,2.92l-.539.492.7.212a17.189,17.189,0,0,1,4.957,3.091l.449.345.506-.66-.448-.344a21.718,21.718,0,0,0-4.495-2.963l-.116-.049.074-.1a11.782,11.782,0,0,0,1.26-2.639l.006-.015c.09-.231.185-.473.285-.725l.008-.02.016-.015a5.246,5.246,0,0,0,1.543-5.976l0-.007c-.057-.2-.107-.364-.135-.5l0-.019c-.054-7.566-4.284-10.257-7.825-11.183l-.05-.01a15.408,15.408,0,0,0-2.218-.168,10.313,10.313,0,0,0-6.056,1.793l-.06.039-.056-.044a5.032,5.032,0,0,0-2.559-.809l-2.075-.087,1.882.88c.015.007,1.517.732,1.52,1.649v.042l-.03.029c-2.7,2.672-2.6,6.074-2.539,8.106v.005c0,.151.009.3.012.435v.015l0,.015c-.96,3.367.532,4.743,1.622,5.748l.042.039c.093.086.182.168.267.251l.012.012.008.015c.139.271.3.634.469,1.019a18.317,18.317,0,0,0,1.007,2.052l.056.092-.1.049c-9.466,4.9-9.018,9.32-8.826,11.208.008.074.015.144.021.209Z" transform="translate(-51.144 -36.228)"/>
        <path id="Path_10" data-name="Path 10" d="M112.244,163.817c-3.469,0-5.959-2.885-6.068-3.014l.786-.668c.024.029,2.475,2.858,5.642,2.638a8.912,8.912,0,0,0,5.63-2.671l.723.736a9.9,9.9,0,0,1-6.2,2.956l-.049.006Q112.471,163.818,112.244,163.817Z" transform="translate(-96.715 -138.806)"/>
        <path id="Path_10_-_Outline" data-name="Path 10 - Outline" d="M112.244,163.917c-3.517,0-6.038-2.924-6.144-3.049l-.065-.076.938-.8.065.076c.022.026,2.264,2.615,5.212,2.615.114,0,.229,0,.342-.012a8.8,8.8,0,0,0,5.571-2.643l.071-.07.863.879-.071.07a9.986,9.986,0,0,1-6.256,2.983l-.054.007Q112.477,163.917,112.244,163.917Zm-5.926-3.1a8.68,8.68,0,0,0,5.926,2.9c.151,0,.3-.006.453-.017l.044-.006a9.807,9.807,0,0,0,6.074-2.859l-.583-.593a8.964,8.964,0,0,1-5.611,2.629h-.01c-.119.008-.24.013-.36.013a7.938,7.938,0,0,1-5.3-2.611Z" transform="translate(-96.715 -138.806)"/>
      </g>
    </g>
  </g>
</svg>
