<svg xmlns="http://www.w3.org/2000/svg" xmlns:xlink="http://www.w3.org/1999/xlink" width="50" height="50" viewBox="0 0 50 50">
  <defs>
    <clipPath id="clip-Manage_Delivery">
      <rect width="50" height="50"/>
    </clipPath>
  </defs>
  <g id="Manage_Delivery" data-name="Manage Delivery" clip-path="url(#clip-Manage_Delivery)">
    <path id="MANAGE_DELIVERY-2" data-name="MANAGE DELIVERY" d="M47.864,58.336l-14.6,4.7a1.954,1.954,0,0,1-.444.089,5,5,0,0,1-9.982-.71,5.056,5.056,0,0,1,2.351-3.9,2.718,2.718,0,0,1-.222-.532l-7.009-18.81a3.339,3.339,0,0,0-2-1.952l-1.774-.4c-.843-.266-.488-1.109.31-.932l2.44.621a2.924,2.924,0,0,1,1.819,1.863l7.009,18.544c.044.222.266,1.065.311,1.242,3.46-1.42,6.655,1.819,6.7,4.037.089-.044,1.686-.577,1.819-.621l13-4.17C48.308,57.271,48.663,58.07,47.864,58.336Zm-19.919.444a4.038,4.038,0,1,0,3.948,4.037A4.005,4.005,0,0,0,27.945,58.78Zm10.47-2.618-.4-1.153,1.153-.4.4,1.153Zm-.577.222-1.153.4-.4-1.153,1.153-.4Zm-6.122-6.7-.8-2.351,1.153-.4.8,2.351Zm9.139,7.941-7.276,2.529c-.133-.311-.266-.577-.4-.843l7.409-2.573a.646.646,0,0,0,.4-.8l-3.46-10.248a.617.617,0,0,0-.754-.4L26.658,48.8a.646.646,0,0,0-.4.8l2.218,6.743c-.178,0-.355-.044-.577-.044h-.4l-2.174-6.433a1.533,1.533,0,0,1,.932-1.952l10.115-3.5a1.521,1.521,0,0,1,1.952.976l3.46,10.292A1.533,1.533,0,0,1,40.855,57.626ZM18.762,53.589v.177a.4.4,0,0,1-.4.4H9.09a.4.4,0,0,1-.4-.4v-.177a.4.4,0,0,1,.4-.4h9.272A.468.468,0,0,1,18.762,53.589Zm-7.276,2.129h9.272a.4.4,0,0,1,.4.4v.133a.4.4,0,0,1-.4.4H11.486a.4.4,0,0,1-.4-.4v-.133C11.131,55.9,11.264,55.719,11.486,55.719Zm2.484,2.751h6.211a.4.4,0,0,1,.4.4v.177a.4.4,0,0,1-.4.4H13.97a.4.4,0,0,1-.4-.4v-.177A.4.4,0,0,1,13.97,58.469Z" transform="translate(-3.191 -26.364)" fill-rule="evenodd"/>
    <path id="MANAGE_DELIVERY_-_Outline" data-name="MANAGE DELIVERY - Outline" d="M27.834,67.852c-.112,0-.226,0-.339-.011a5.11,5.11,0,0,1-4.751-5.43,5.172,5.172,0,0,1,2.321-3.934,2.443,2.443,0,0,1-.188-.466L17.868,39.2a3.236,3.236,0,0,0-1.927-1.885l-1.778-.4c-.458-.145-.584-.439-.549-.666a.635.635,0,0,1,.677-.485,1.083,1.083,0,0,1,.234.027l2.449.623a3.006,3.006,0,0,1,1.883,1.926L25.869,56.9c.033.163.167.683.247.993l.034.134a4.614,4.614,0,0,1,1.659-.313,5.165,5.165,0,0,1,3.564,1.53,4.7,4.7,0,0,1,1.5,2.813c.245-.088.8-.277,1.668-.565l.027-.009L47.58,57.306a.946.946,0,0,1,.174-.017.634.634,0,0,1,.66.485c.036.222-.081.511-.518.656l-14.6,4.7-.105.027a2.007,2.007,0,0,1-.271.059,5.1,5.1,0,0,1-5.083,4.63ZM18.058,39.138l7.012,18.819a2.661,2.661,0,0,0,.214.512l.041.082-.077.048a4.967,4.967,0,0,0-2.3,3.827,4.91,4.91,0,0,0,4.565,5.216c.108.007.218.011.326.011a4.884,4.884,0,0,0,4.892-4.533l.007-.092h.092a1.272,1.272,0,0,0,.312-.058l.1-.027,14.593-4.7c.269-.09.412-.252.383-.434a.435.435,0,0,0-.463-.317.742.742,0,0,0-.131.012L34.6,61.678c-1.243.415-1.734.585-1.78.607l-.14.066,0-.154a4.377,4.377,0,0,0-1.446-2.813,4.967,4.967,0,0,0-3.425-1.474,4.435,4.435,0,0,0-1.69.341l-.107.044-.028-.112c-.011-.045-.034-.133-.062-.243-.085-.328-.212-.82-.248-1L18.666,38.4a2.84,2.84,0,0,0-1.751-1.8l-2.437-.62a.878.878,0,0,0-.188-.021.438.438,0,0,0-.48.316c-.028.184.128.354.408.443l1.778.4A3.457,3.457,0,0,1,18.058,39.138Zm9.887,27.816a4.138,4.138,0,1,1,4.048-4.137A4.1,4.1,0,0,1,27.945,66.954Zm0-8.074a3.938,3.938,0,1,0,3.848,3.937A3.9,3.9,0,0,0,27.945,58.88Zm5.579,1.4-.037-.086c-.132-.308-.267-.577-.4-.838l-.051-.1,7.522-2.612a.549.549,0,0,0,.331-.674L37.433,45.724a.512.512,0,0,0-.495-.354.5.5,0,0,0-.135.018l-4.61,1.6.8,2.362-1.342.465-.8-2.362-4.166,1.443a.549.549,0,0,0-.331.675l2.26,6.871h-.138a2.261,2.261,0,0,1-.268-.021A2.554,2.554,0,0,0,27.9,56.4h-.471l-2.2-6.5a1.632,1.632,0,0,1,.995-2.079l10.114-3.5a1.685,1.685,0,0,1,.534-.087,1.612,1.612,0,0,1,1.546,1.128l3.46,10.291a1.68,1.68,0,0,1-.071,1.25,1.56,1.56,0,0,1-.924.829Zm-.2-.911c.1.207.209.422.314.661l7.188-2.5a1.362,1.362,0,0,0,.807-.724,1.481,1.481,0,0,0,.062-1.1l-3.46-10.292a1.414,1.414,0,0,0-1.356-.99,1.483,1.483,0,0,0-.47.077l-10.114,3.5a1.432,1.432,0,0,0-.869,1.826L27.573,56.2H27.9a2.754,2.754,0,0,1,.332.025l.1.012-2.174-6.611a.742.742,0,0,1,.466-.918L36.746,45.2a.72.72,0,0,1,.878.468l3.461,10.251a.741.741,0,0,1-.466.918ZM31.044,47.4l.734,2.162.964-.334-.734-2.162ZM20.181,59.545H13.97a.5.5,0,0,1-.5-.5v-.177a.5.5,0,0,1,.5-.5h6.211a.5.5,0,0,1,.5.5v.177A.5.5,0,0,1,20.181,59.545Zm-6.211-.976a.3.3,0,0,0-.3.3v.177a.3.3,0,0,0,.3.3h6.211a.3.3,0,0,0,.3-.3v-.177a.3.3,0,0,0-.3-.3Zm22.652-1.659-.465-1.342L37.5,55.1l.465,1.342Zm-.21-1.219.334.964.964-.334-.334-.964ZM20.758,56.75H11.486a.5.5,0,0,1-.5-.5l0-.153a.525.525,0,0,1,.5-.48h9.272a.5.5,0,0,1,.5.5v.133A.5.5,0,0,1,20.758,56.75Zm-9.571-.622v.123a.3.3,0,0,0,.3.3h9.272a.3.3,0,0,0,.3-.3v-.133a.3.3,0,0,0-.3-.3H11.486C11.278,55.819,11.208,56.028,11.187,56.128Zm27.166.161-.465-1.342,1.342-.465.465,1.342Zm-.21-1.219.334.964.964-.334-.334-.964Zm-19.78-.8H9.09a.5.5,0,0,1-.5-.5v-.177a.5.5,0,0,1,.5-.5l9.292,0a.566.566,0,0,1,.48.5v.177A.5.5,0,0,1,18.362,54.266ZM9.09,53.29a.3.3,0,0,0-.3.3v.177a.3.3,0,0,0,.3.3h9.272a.3.3,0,0,0,.3-.3v-.177c0-.126-.141-.262-.31-.3Z" transform="translate(-3.191 -26.364)"/>
  </g>
</svg>
