<svg xmlns="http://www.w3.org/2000/svg" xmlns:xlink="http://www.w3.org/1999/xlink" width="50" height="50" viewBox="0 0 50 50">
  <defs>
    <clipPath id="clip-Manage_Layout">
      <rect width="50" height="50"/>
    </clipPath>
  </defs>
  <g id="Manage_Layout" data-name="Manage Layout" clip-path="url(#clip-Manage_Layout)">
    <g id="Group_2219" data-name="Group 2219" transform="translate(534.736 -556.585)">
      <path id="Path_268" data-name="Path 268" d="M151.355,198.006H149.11a2.2,2.2,0,0,1-2.2-2.2V183.016a2.2,2.2,0,0,1,2.2-2.2h2.245a2.2,2.2,0,0,1,2.2,2.2V195.8a2.214,2.214,0,0,1-2.2,2.2Zm-2.245-16.494a1.514,1.514,0,0,0-1.511,1.511v12.786a1.514,1.514,0,0,0,1.511,1.511h2.245a1.514,1.514,0,0,0,1.511-1.511V183.015a1.514,1.514,0,0,0-1.511-1.511H149.11Z" transform="translate(-667.973 395.197)"/>
      <path id="Path_268_-_Outline" data-name="Path 268 - Outline" d="M151.355,198.156H149.11a2.356,2.356,0,0,1-2.354-2.354V183.016a2.356,2.356,0,0,1,2.354-2.354h2.245a2.356,2.356,0,0,1,2.354,2.354V195.8a2.368,2.368,0,0,1-2.2,2.349v0Zm-2.245-17.194a2.056,2.056,0,0,0-2.054,2.054V195.8a2.056,2.056,0,0,0,2.054,2.054h2.245a2.065,2.065,0,0,0,2.054-2.054V183.016a2.056,2.056,0,0,0-2.054-2.054Zm2.245,16.508H149.11a1.663,1.663,0,0,1-1.661-1.661V183.023a1.663,1.663,0,0,1,1.511-1.654v-.014h2.4a1.663,1.663,0,0,1,1.661,1.661v12.793A1.663,1.663,0,0,1,151.355,197.469Zm-2.245-15.808a1.362,1.362,0,0,0-1.361,1.361v12.786a1.362,1.362,0,0,0,1.361,1.361h2.245a1.362,1.362,0,0,0,1.361-1.361V183.015a1.362,1.362,0,0,0-1.361-1.361h-2.1v.007Z" transform="translate(-667.973 395.197)"/>
      <path id="Path_269" data-name="Path 269" d="M304.735,187.475H294.59a2.2,2.2,0,0,1-2.2-2.2v-2.245a2.2,2.2,0,0,1,2.2-2.2h10.153a2.205,2.205,0,0,1,2.2,2.2v2.245a2.216,2.216,0,0,1-2.211,2.2Zm-10.145-5.953a1.514,1.514,0,0,0-1.511,1.511v2.245a1.514,1.514,0,0,0,1.511,1.511h10.153a1.514,1.514,0,0,0,1.511-1.511v-2.245a1.514,1.514,0,0,0-1.511-1.511Z" transform="translate(-805.351 395.187)"/>
      <path id="Path_269_-_Outline" data-name="Path 269 - Outline" d="M304.735,187.625H294.59a2.356,2.356,0,0,1-2.354-2.354v-2.245a2.356,2.356,0,0,1,2.354-2.354h10.153a2.356,2.356,0,0,1,2.354,2.354v2.245A2.37,2.37,0,0,1,304.735,187.625Zm-10.145-6.653a2.056,2.056,0,0,0-2.054,2.054v2.245a2.056,2.056,0,0,0,2.054,2.054h10.145a2.069,2.069,0,0,0,2.061-2.055v-2.244a2.056,2.056,0,0,0-2.054-2.054Zm10.153,5.967H294.59a1.663,1.663,0,0,1-1.661-1.661v-2.245a1.663,1.663,0,0,1,1.661-1.661h10.153a1.663,1.663,0,0,1,1.661,1.661v2.245A1.663,1.663,0,0,1,304.742,186.939Zm-10.153-5.267a1.362,1.362,0,0,0-1.361,1.361v2.245a1.362,1.362,0,0,0,1.361,1.361h10.153a1.362,1.362,0,0,0,1.361-1.361v-2.245a1.362,1.362,0,0,0-1.361-1.361Z" transform="translate(-805.351 395.187)"/>
      <path id="Path_270" data-name="Path 270" d="M445.52,332.21h-2.1a2.085,2.085,0,0,1-2.079-2.079V325.01a2.085,2.085,0,0,1,2.079-2.079h2.1a2.085,2.085,0,0,1,2.079,2.079v5.121A2.085,2.085,0,0,1,445.52,332.21Zm-2.1-8.593A1.39,1.39,0,0,0,442.034,325v5.121a1.39,1.39,0,0,0,1.386,1.386h2.1a1.39,1.39,0,0,0,1.386-1.386V325a1.39,1.39,0,0,0-1.386-1.386Z" transform="translate(-946.011 260.992)"/>
      <path id="Path_270_-_Outline" data-name="Path 270 - Outline" d="M445.52,332.36h-2.1a2.231,2.231,0,0,1-2.229-2.229V325.01a2.231,2.231,0,0,1,2.229-2.229h2.1a2.231,2.231,0,0,1,2.229,2.229v5.121A2.231,2.231,0,0,1,445.52,332.36Zm-2.1-9.279a1.931,1.931,0,0,0-1.929,1.929v5.121a1.931,1.931,0,0,0,1.929,1.929h2.1a1.931,1.931,0,0,0,1.929-1.929V325.01a1.931,1.931,0,0,0-1.929-1.929Zm2.1,8.58h-2.1a1.538,1.538,0,0,1-1.536-1.536V325a1.538,1.538,0,0,1,1.536-1.536h2.1A1.538,1.538,0,0,1,447.056,325v5.121A1.538,1.538,0,0,1,445.52,331.661Zm-2.1-7.894A1.238,1.238,0,0,0,442.184,325v5.121a1.238,1.238,0,0,0,1.236,1.236h2.1a1.238,1.238,0,0,0,1.236-1.236V325a1.238,1.238,0,0,0-1.236-1.236Z" transform="translate(-946.011 260.992)"/>
      <path id="Path_271" data-name="Path 271" d="M296.835,330.444H294.59a2.205,2.205,0,0,1-2.2-2.2v-4.976a2.205,2.205,0,0,1,2.2-2.2h2.245a2.2,2.2,0,0,1,2.2,2.2v4.976A2.214,2.214,0,0,1,296.835,330.444Zm-2.245-8.69a1.514,1.514,0,0,0-1.511,1.511v4.976a1.514,1.514,0,0,0,1.511,1.511h2.245a1.514,1.514,0,0,0,1.511-1.511v-4.976a1.514,1.514,0,0,0-1.511-1.511Z" transform="translate(-805.351 262.759)"/>
      <path id="Path_271_-_Outline" data-name="Path 271 - Outline" d="M296.835,330.594H294.59a2.356,2.356,0,0,1-2.354-2.354v-4.976a2.356,2.356,0,0,1,2.354-2.354h2.245a2.356,2.356,0,0,1,2.354,2.354v4.976A2.366,2.366,0,0,1,296.835,330.594Zm-2.245-9.384a2.056,2.056,0,0,0-2.054,2.054v4.976a2.056,2.056,0,0,0,2.054,2.054h2.245a2.065,2.065,0,0,0,2.054-2.055v-4.975a2.056,2.056,0,0,0-2.054-2.054Zm2.245,8.691H294.59a1.663,1.663,0,0,1-1.661-1.661v-4.976a1.663,1.663,0,0,1,1.661-1.661h2.245a1.663,1.663,0,0,1,1.661,1.661v4.976A1.663,1.663,0,0,1,296.835,329.9Zm-2.245-8a1.362,1.362,0,0,0-1.361,1.361v4.976a1.362,1.362,0,0,0,1.361,1.361h2.245a1.362,1.362,0,0,0,1.361-1.361v-4.976a1.362,1.362,0,0,0-1.361-1.361Z" transform="translate(-805.351 262.759)"/>
      <path id="Path_272" data-name="Path 272" d="M104.028,48.211H77.3a1.949,1.949,0,0,1-1.947-1.947V20.989A1.949,1.949,0,0,1,77.3,19.042h26.737a1.949,1.949,0,0,1,1.947,1.947V46.264a1.955,1.955,0,0,1-1.954,1.948ZM77.3,19.735a1.254,1.254,0,0,0-1.254,1.254V46.264A1.254,1.254,0,0,0,77.3,47.518h26.737a1.254,1.254,0,0,0,1.254-1.254V20.989a1.254,1.254,0,0,0-1.254-1.254Z" transform="translate(-600.402 547.958)"/>
      <path id="Path_272_-_Outline" data-name="Path 272 - Outline" d="M104.028,48.361H77.3a2.1,2.1,0,0,1-2.1-2.1V20.989a2.1,2.1,0,0,1,2.1-2.1h26.737a2.1,2.1,0,0,1,2.1,2.1V46.264A2.1,2.1,0,0,1,104.028,48.361ZM77.3,19.192a1.8,1.8,0,0,0-1.8,1.8V46.264a1.8,1.8,0,0,0,1.8,1.8h26.759a1.8,1.8,0,0,0,1.775-1.8V20.989a1.8,1.8,0,0,0-1.8-1.8Zm26.737,28.476H77.3a1.406,1.406,0,0,1-1.4-1.4V20.99a1.406,1.406,0,0,1,1.4-1.4h26.737a1.406,1.406,0,0,1,1.4,1.4V46.264A1.406,1.406,0,0,1,104.035,47.668ZM77.3,19.885a1.106,1.106,0,0,0-1.1,1.1V46.264a1.106,1.106,0,0,0,1.1,1.1h26.737a1.106,1.106,0,0,0,1.1-1.1V20.99a1.106,1.106,0,0,0-1.1-1.1Z" transform="translate(-600.402 547.958)"/>
      <path id="Path_273" data-name="Path 273" d="M105.632,128.248H75.694a.347.347,0,1,1,0-.693h29.938a.343.343,0,0,1,.347.347.348.348,0,0,1-.347.347Z" transform="translate(-600.399 445.488)"/>
      <path id="Path_273_-_Outline" data-name="Path 273 - Outline" d="M105.632,128.4H75.694a.5.5,0,1,1,0-.993h29.938a.491.491,0,0,1,.5.5.5.5,0,0,1-.5.5ZM75.694,127.7a.2.2,0,1,0,0,.393h29.938a.2.2,0,0,0,.2-.2.192.192,0,0,0-.2-.2Z" transform="translate(-600.399 445.488)"/>
      <path id="Path_274" data-name="Path 274" d="M121.862,52.314a1.7,1.7,0,1,1,1.7-1.7A1.7,1.7,0,0,1,121.862,52.314Zm0-2.724a1.012,1.012,0,1,0,1.012,1.012A1.013,1.013,0,0,0,121.862,49.59Z" transform="translate(-642.713 519.759)"/>
      <path id="Path_274_-_Outline" data-name="Path 274 - Outline" d="M121.862,52.464a1.855,1.855,0,1,1,1.855-1.855A1.857,1.857,0,0,1,121.862,52.464Zm0-3.41a1.555,1.555,0,1,0,1.555,1.555A1.557,1.557,0,0,0,121.862,49.054Zm0,2.71a1.162,1.162,0,1,1,1.162-1.162A1.163,1.163,0,0,1,121.862,51.764Zm0-2.023a.862.862,0,1,0,.862.862A.863.863,0,0,0,121.862,49.74Z" transform="translate(-642.713 519.759)"/>
      <path id="Path_275" data-name="Path 275" d="M199.262,52.314a1.7,1.7,0,1,1,1.7-1.7A1.7,1.7,0,0,1,199.262,52.314Zm0-2.724a1.012,1.012,0,1,0,1.012,1.012A1.013,1.013,0,0,0,199.262,49.59Z" transform="translate(-715.803 519.759)"/>
      <path id="Path_275_-_Outline" data-name="Path 275 - Outline" d="M199.262,52.464a1.855,1.855,0,1,1,1.855-1.855A1.857,1.857,0,0,1,199.262,52.464Zm0-3.41a1.555,1.555,0,1,0,1.555,1.555A1.557,1.557,0,0,0,199.262,49.054Zm0,2.71a1.162,1.162,0,1,1,1.162-1.162A1.163,1.163,0,0,1,199.262,51.764Zm0-2.023a.862.862,0,1,0,.862.862A.863.863,0,0,0,199.262,49.74Z" transform="translate(-715.803 519.759)"/>
      <path id="Path_276" data-name="Path 276" d="M276.792,52.314a1.7,1.7,0,1,1,1.7-1.7A1.7,1.7,0,0,1,276.792,52.314Zm0-2.724a1.012,1.012,0,1,0,1.012,1.019A1.023,1.023,0,0,0,276.792,49.59Z" transform="translate(-789.015 519.759)"/>
      <path id="Path_276_-_Outline" data-name="Path 276 - Outline" d="M276.792,52.464a1.855,1.855,0,1,1,1.855-1.855A1.857,1.857,0,0,1,276.792,52.464Zm0-3.41a1.555,1.555,0,1,0,1.555,1.555A1.557,1.557,0,0,0,276.792,49.054Zm0,2.71a1.162,1.162,0,1,1,1.162-1.155A1.163,1.163,0,0,1,276.792,51.764Zm0-2.023a.862.862,0,1,0,.862.869A.877.877,0,0,0,276.792,49.74Z" transform="translate(-789.015 519.759)"/>
      <path id="Path_277" data-name="Path 277" d="M360.991,73.99h-8.157a.347.347,0,1,1,0-.693H361a.343.343,0,0,1,.347.347.349.349,0,0,1-.353.347Z" transform="translate(-862.105 496.725)"/>
      <path id="Path_277_-_Outline" data-name="Path 277 - Outline" d="M360.99,74.14h-8.157a.5.5,0,1,1,0-.993H361a.491.491,0,0,1,.5.5A.5.5,0,0,1,360.99,74.14Zm-8.157-.693a.2.2,0,1,0,0,.393h8.157a.2.2,0,0,0,.2-.2.192.192,0,0,0-.2-.2Z" transform="translate(-862.105 496.725)"/>
      <path id="Path_278" data-name="Path 278" d="M530.311,73.99h-2.252a.347.347,0,1,1,0-.693h2.252a.343.343,0,0,1,.346.347A.348.348,0,0,1,530.311,73.99Z" transform="translate(-1027.572 496.725)"/>
      <path id="Path_278_-_Outline" data-name="Path 278 - Outline" d="M530.311,74.14h-2.252a.5.5,0,1,1,0-.993h2.252a.491.491,0,0,1,.5.5A.5.5,0,0,1,530.311,74.14Zm-2.252-.693a.2.2,0,0,0,0,.393h2.252a.2.2,0,0,0,.2-.2.192.192,0,0,0-.2-.2Z" transform="translate(-1027.572 496.725)"/>
      <path id="Path_279" data-name="Path 279" d="M548.214,55.955a.343.343,0,0,1-.347-.347V53.356a.347.347,0,0,1,.693,0v2.252A.343.343,0,0,1,548.214,55.955Z" transform="translate(-1046.605 515.882)"/>
      <path id="Path_279_-_Outline" data-name="Path 279 - Outline" d="M548.214,56.1a.491.491,0,0,1-.5-.5V53.356a.5.5,0,0,1,.993,0v2.252A.491.491,0,0,1,548.214,56.1Zm0-2.945a.192.192,0,0,0-.2.2v2.252a.2.2,0,0,0,.393,0V53.356A.192.192,0,0,0,548.214,53.16Z" transform="translate(-1046.605 515.882)"/>
    </g>
  </g>
</svg>
