<svg xmlns="http://www.w3.org/2000/svg" xmlns:xlink="http://www.w3.org/1999/xlink" width="50" height="50" viewBox="0 0 50 50">
  <defs>
    <clipPath id="clip-Manage_Static_Pages">
      <rect width="50" height="50"/>
    </clipPath>
  </defs>
  <g id="Manage_Static_Pages" data-name="Manage Static Pages" clip-path="url(#clip-Manage_Static_Pages)">
    <g id="Group_2257" data-name="Group 2257">
      <path id="Path_317" data-name="Path 317" d="M175,192.5h9.421v.428H175Z" transform="translate(-161.434 -169.798)"/>
      <path id="Path_317_-_Outline" data-name="Path 317 - Outline" d="M174.95,192.45h9.521v.528H174.95Zm9.421.1H175.05v.328h9.321Z" transform="translate(-161.434 -169.798)"/>
      <path id="Path_318" data-name="Path 318" d="M175,213.5h9.421v.428H175Z" transform="translate(-161.434 -189.426)"/>
      <path id="Path_318_-_Outline" data-name="Path 318 - Outline" d="M174.95,213.45h9.521v.528H174.95Zm9.421.1H175.05v.328h9.321Z" transform="translate(-161.434 -189.426)"/>
      <path id="Path_319" data-name="Path 319" d="M175,234.5h9.421v.428H175Z" transform="translate(-161.434 -209.113)"/>
      <path id="Path_319_-_Outline" data-name="Path 319 - Outline" d="M174.95,234.45h9.521v.528H174.95Zm9.421.1H175.05v.328h9.321Z" transform="translate(-161.434 -209.113)"/>
      <path id="Path_320" data-name="Path 320" d="M175,255.5h9.421v.428H175Z" transform="translate(-161.434 -228.799)"/>
      <path id="Path_320_-_Outline" data-name="Path 320 - Outline" d="M174.95,255.45h9.521v.528H174.95Zm9.421.1H175.05v.328h9.321Z" transform="translate(-161.434 -228.799)"/>
      <path id="Path_321" data-name="Path 321" d="M175,276.5h9.421v.428H175Z" transform="translate(-161.434 -248.485)"/>
      <path id="Path_321_-_Outline" data-name="Path 321 - Outline" d="M174.95,276.45h9.521v.528H174.95Zm9.421.1H175.05v.328h9.321Z" transform="translate(-161.434 -248.485)"/>
      <path id="Path_322" data-name="Path 322" d="M175,171.5h9.421v.428H175Z" transform="translate(-161.434 -150.083)"/>
      <path id="Path_322_-_Outline" data-name="Path 322 - Outline" d="M174.95,171.45h9.521v.528H174.95Zm9.421.1H175.05v.328h9.321Z" transform="translate(-161.434 -150.083)"/>
      <path id="Path_323" data-name="Path 323" d="M175,150.5h9.421v.428H175Z" transform="translate(-161.434 -130.368)"/>
      <path id="Path_323_-_Outline" data-name="Path 323 - Outline" d="M174.95,150.45h9.521v.528H174.95Zm9.421.1H175.05v.328h9.321Z" transform="translate(-161.434 -130.368)"/>
      <path id="Path_324" data-name="Path 324" d="M175,339.5h22.14v.428H175Z" transform="translate(-161.434 -307.544)"/>
      <path id="Path_324_-_Outline" data-name="Path 324 - Outline" d="M174.95,339.45h22.24v.528H174.95Zm22.14.1H175.05v.328h22.04Z" transform="translate(-161.434 -307.544)"/>
      <path id="Path_325" data-name="Path 325" d="M175,360.5h22.14v.428H175Z" transform="translate(-161.434 -327.173)"/>
      <path id="Path_325_-_Outline" data-name="Path 325 - Outline" d="M174.95,360.45h22.24v.528H174.95Zm22.14.1H175.05v.328h22.04Z" transform="translate(-161.434 -327.173)"/>
      <path id="Path_326" data-name="Path 326" d="M175,381.5h22.14v.428H175Z" transform="translate(-161.434 -346.888)"/>
      <path id="Path_326_-_Outline" data-name="Path 326 - Outline" d="M174.95,381.45h22.24v.528H174.95Zm22.14.1H175.05v.328h22.04Z" transform="translate(-161.434 -346.888)"/>
      <path id="Path_327" data-name="Path 327" d="M175,402.5h22.14v.428H175Z" transform="translate(-161.434 -366.603)"/>
      <path id="Path_327_-_Outline" data-name="Path 327 - Outline" d="M174.95,402.45h22.24v.528H174.95Zm22.14.1H175.05v.328h22.04Z" transform="translate(-161.434 -366.603)"/>
      <path id="Path_328" data-name="Path 328" d="M175,318.5h22.14v.428H175Z" transform="translate(-161.434 -287.858)"/>
      <path id="Path_328_-_Outline" data-name="Path 328 - Outline" d="M174.95,318.45h22.24v.528H174.95Zm22.14.1H175.05v.328h22.04Z" transform="translate(-161.434 -287.858)"/>
      <path id="Path_329" data-name="Path 329" d="M175,297.5h22.14v.428H175Z" transform="translate(-161.434 -268.172)"/>
      <path id="Path_329_-_Outline" data-name="Path 329 - Outline" d="M174.95,297.45h22.24v.528H174.95Zm22.14.1H175.05v.328h22.04Z" transform="translate(-161.434 -268.172)"/>
      <path id="Path_330" data-name="Path 330" d="M380.421,150.5H371v7.581h9.421Zm-.428,7.107h-8.565v-6.634h8.565Z" transform="translate(-346 -130.368)"/>
      <path id="Path_330_-_Outline" data-name="Path 330 - Outline" d="M370.9,150.4h9.621v7.781H370.9Zm9.421.2H371.1v7.381h9.221Zm-8.993.274h8.765v6.834h-8.765Zm8.565.2h-8.365v6.434h8.365Z" transform="translate(-346 -130.368)"/>
      <path id="Path_272" data-name="Path 272" d="M104.028,48.211H77.3a1.949,1.949,0,0,1-1.947-1.947V20.989A1.949,1.949,0,0,1,77.3,19.042h26.737a1.949,1.949,0,0,1,1.947,1.947V46.264a1.955,1.955,0,0,1-1.954,1.948ZM77.3,19.735a1.254,1.254,0,0,0-1.254,1.254V46.264A1.254,1.254,0,0,0,77.3,47.518h26.737a1.254,1.254,0,0,0,1.254-1.254V20.989a1.254,1.254,0,0,0-1.254-1.254Z" transform="translate(-65.667 -7.627)"/>
      <path id="Path_272_-_Outline" data-name="Path 272 - Outline" d="M104.028,48.261H77.3a2,2,0,0,1-2-2V20.989a2,2,0,0,1,2-2h26.737a2,2,0,0,1,2,2V46.264A2,2,0,0,1,104.028,48.261ZM77.3,19.092a1.9,1.9,0,0,0-1.9,1.9V46.264a1.9,1.9,0,0,0,1.9,1.9h26.748a1.9,1.9,0,0,0,1.886-1.9V20.989a1.9,1.9,0,0,0-1.9-1.9Zm26.737,28.476H77.3a1.306,1.306,0,0,1-1.3-1.3V20.99a1.306,1.306,0,0,1,1.3-1.3h26.737a1.306,1.306,0,0,1,1.3,1.3V46.264A1.306,1.306,0,0,1,104.035,47.568ZM77.3,19.785a1.206,1.206,0,0,0-1.2,1.2V46.264a1.206,1.206,0,0,0,1.2,1.2h26.737a1.206,1.206,0,0,0,1.2-1.2V20.99a1.206,1.206,0,0,0-1.2-1.2Z" transform="translate(-65.667 -7.627)"/>
      <path id="Path_273" data-name="Path 273" d="M105.632,128.248H75.694a.347.347,0,1,1,0-.693h29.938a.343.343,0,0,1,.347.347.348.348,0,0,1-.347.347Z" transform="translate(-65.663 -110.096)"/>
      <path id="Path_273_-_Outline" data-name="Path 273 - Outline" d="M105.632,128.3H75.694a.4.4,0,1,1,0-.793h29.938a.392.392,0,0,1,.4.4.4.4,0,0,1-.4.4ZM75.694,127.6a.3.3,0,1,0,0,.593h29.938a.3.3,0,0,0,.3-.3.293.293,0,0,0-.3-.3Z" transform="translate(-65.663 -110.096)"/>
      <path id="Path_278" data-name="Path 278" d="M530.311,73.99h-2.252a.347.347,0,1,1,0-.693h2.252a.343.343,0,0,1,.346.347A.348.348,0,0,1,530.311,73.99Z" transform="translate(-492.836 -58.86)"/>
      <path id="Path_278_-_Outline" data-name="Path 278 - Outline" d="M530.311,74.04h-2.252a.4.4,0,1,1,0-.793h2.252a.392.392,0,0,1,.4.4A.4.4,0,0,1,530.311,74.04Zm-2.252-.693a.3.3,0,1,0,0,.593h2.252a.3.3,0,0,0,.3-.3.293.293,0,0,0-.3-.3Z" transform="translate(-492.836 -58.86)"/>
    </g>
  </g>
</svg>
