<svg xmlns="http://www.w3.org/2000/svg" xmlns:xlink="http://www.w3.org/1999/xlink" width="50" height="50" viewBox="0 0 50 50">
  <defs>
    <clipPath id="clip-Manage_Charges_Paid_By">
      <rect width="50" height="50"/>
    </clipPath>
  </defs>
  <g id="Manage_Charges_Paid_By" data-name="Manage Charges Paid By" clip-path="url(#clip-Manage_Charges_Paid_By)">
    <g id="Group_120" data-name="Group 120" transform="translate(-275.47 -289)">
      <path id="Subtraction_23" data-name="Subtraction 23" d="M1763.6,3087.171a79.327,79.327,0,0,1-18.471-2.614.623.623,0,0,1-.454-.6V3075.1a.626.626,0,0,1,.431-.592,28.657,28.657,0,0,1,7.939-1.312c.265,0,.521.006.763.017h.02a5.621,5.621,0,0,1,3.9,1.523,3.959,3.959,0,0,0,3.093,1.122h3.708a2.585,2.585,0,0,1,2.582,2.582,2.775,2.775,0,0,1-.077.642l-.039.157,10.011-2.335a2.246,2.246,0,0,1,.52-.06,2.287,2.287,0,0,1,1.191,4.243C1774.974,3083.362,1768.032,3087.171,1763.6,3087.171Zm-10.49-12.729a28.314,28.314,0,0,0-7.109,1.1l-.073.021v7.916l.075.02a76.463,76.463,0,0,0,17.6,2.425c4.317,0,11.558-4.12,14.471-5.891a1.018,1.018,0,0,0,.49-.707,1.051,1.051,0,0,0-1.04-1.23,1.047,1.047,0,0,0-.23.026l-12.113,2.826-.134.028a3,3,0,0,1-.51.05h-6.058a.623.623,0,0,1,0-1.246h6.058a1.5,1.5,0,0,0,.27-.031l.065-.016a1.334,1.334,0,0,0-.336-2.625h-3.7a5.217,5.217,0,0,1-3.885-1.411l-.013-.011a4.44,4.44,0,0,0-3.175-1.231C1753.55,3074.447,1753.332,3074.442,1753.106,3074.442Z" transform="translate(-1462.1 -2755.632)"/>
      <path id="Subtraction_22" data-name="Subtraction 22" d="M1754.813,3093.486a10.143,10.143,0,1,1,10.143-10.143A10.154,10.154,0,0,1,1754.813,3093.486Zm0-19.041a8.9,8.9,0,1,0,8.9,8.9A8.908,8.908,0,0,0,1754.813,3074.445Z" transform="translate(-1447.838 -2776.1)"/>
      <path id="Subtraction_21" data-name="Subtraction 21" d="M1748.366,3086.741a.623.623,0,0,1-.623-.623v-.663l-.085-.014a3.284,3.284,0,0,1-2.988-3.017.623.623,0,1,1,1.246,0c0,.991,1.121,1.828,2.449,1.828a2.9,2.9,0,0,0,1.711-.534,1.649,1.649,0,0,0,.739-1.294c0-.823-.872-1.445-2.593-1.847-2.935-.686-3.551-2.043-3.551-3.061a3.287,3.287,0,0,1,2.988-3.018l.084-.012v-.663a.623.623,0,0,1,1.246,0v.663l.085.012a3.287,3.287,0,0,1,2.988,3.018.623.623,0,0,1-1.246,0c0-.991-1.121-1.828-2.449-1.828s-2.45.837-2.45,1.828c0,1.028,1.41,1.571,2.593,1.846,2.357.552,3.551,1.582,3.551,3.062a3.284,3.284,0,0,1-2.988,3.017l-.084.014v.663A.623.623,0,0,1,1748.366,3086.741Z" transform="translate(-1441.39 -2772.724)"/>
    </g>
  </g>
</svg>
