<svg xmlns="http://www.w3.org/2000/svg" xmlns:xlink="http://www.w3.org/1999/xlink" width="50" height="50" viewBox="0 0 50 50">
  <defs>
    <clipPath id="clip-Order_Settings">
      <rect width="50" height="50"/>
    </clipPath>
  </defs>
  <g id="Order_Settings" data-name="Order Settings" clip-path="url(#clip-Order_Settings)">
    <g id="ORDER_SETTINGS-2" data-name="ORDER SETTINGS" transform="translate(-23.679 -24.639)">
      <path id="Path_24" data-name="Path 24" d="M47.572,67.59a1.3,1.3,0,0,1-.609-.152L32.447,59.727a1.445,1.445,0,0,1-.768-1.278V41.661a1.444,1.444,0,0,1,.773-1.281l14.393-7.574a1.446,1.446,0,0,1,1.346,0l14.5,7.6a1.443,1.443,0,0,1,.775,1.281V52.6h-.747V41.688a.7.7,0,0,0-.375-.62l-14.495-7.6a.7.7,0,0,0-.651,0L32.8,41.041a.7.7,0,0,0-.374.619V58.449a.7.7,0,0,0,.372.618l14.515,7.711a.55.55,0,0,0,.516,0l7.656-4.04.349.661-7.656,4.04A1.3,1.3,0,0,1,47.572,67.59Z" transform="translate(0)"/>
      <path id="Path_24_-_Outline" data-name="Path 24 - Outline" d="M47.572,67.79a1.506,1.506,0,0,1-.7-.175L32.353,59.9a1.644,1.644,0,0,1-.874-1.455V41.661a1.643,1.643,0,0,1,.88-1.458l14.393-7.574a1.646,1.646,0,0,1,1.532,0l14.5,7.6a1.642,1.642,0,0,1,.882,1.458V52.8H62.514V41.688a.5.5,0,0,0-.268-.443l-14.495-7.6a.508.508,0,0,0-.465,0L32.893,41.218a.5.5,0,0,0-.267.442V58.449a.5.5,0,0,0,.265.441L47.407,66.6a.356.356,0,0,0,.329,0l7.833-4.134.536,1.015-7.833,4.134A1.5,1.5,0,0,1,47.572,67.79Zm-.053-34.95a1.251,1.251,0,0,0-.581.144L32.545,40.557a1.244,1.244,0,0,0-.666,1.1V58.449a1.245,1.245,0,0,0,.662,1.1l14.515,7.711a1.116,1.116,0,0,0,1.028,0l7.48-3.947-.162-.307-7.48,3.947a.763.763,0,0,1-.7,0L32.7,59.244a.9.9,0,0,1-.478-.795V41.661a.9.9,0,0,1,.481-.8L47.1,33.29a.915.915,0,0,1,.837,0l14.495,7.6a.9.9,0,0,1,.482.8V52.4h.347V41.688a1.243,1.243,0,0,0-.668-1.1l-14.5-7.6A1.252,1.252,0,0,0,47.519,32.839Z" transform="translate(0)"/>
      <path id="Path_25" data-name="Path 25" d="M67.076,67.918a1,1,0,0,1-.711-.3l-.909-.909a.266.266,0,0,0-.251-.071l-1.022.242a1.015,1.015,0,0,1-1.248-.988V58.026a1.01,1.01,0,0,1,.552-.9l15.368-7.864.34.665L63.828,57.788a.267.267,0,0,0-.146.238v7.865a.268.268,0,0,0,.329.26l1.022-.242a1.008,1.008,0,0,1,.951.27l.909.909a.267.267,0,0,0,.457-.189V60.31a1.008,1.008,0,0,1,.567-.91l15.627-7.687.33.67L68.247,60.07a.269.269,0,0,0-.15.24V66.9a1,1,0,0,1-.626.938A1.029,1.029,0,0,1,67.076,67.918Z" transform="translate(-26.585 -14.136)"/>
      <path id="Path_25_-_Outline" data-name="Path 25 - Outline" d="M67.076,68.118a1.2,1.2,0,0,1-.853-.359l-.909-.909a.067.067,0,0,0-.063-.018l-1.022.242a1.225,1.225,0,0,1-1.033-.23,1.208,1.208,0,0,1-.461-.953V58.026a1.21,1.21,0,0,1,.661-1.081L78.943,48.99l.523,1.021L63.919,57.966a.067.067,0,0,0-.037.06v7.865a.062.062,0,0,0,.025.053.067.067,0,0,0,.058.013l1.022-.242a1.23,1.23,0,0,1,.282-.033,1.2,1.2,0,0,1,.856.357l.909.909a.054.054,0,0,0,.042.021.091.091,0,0,0,.032-.007.058.058,0,0,0,.041-.062V60.31a1.207,1.207,0,0,1,.679-1.09l15.807-7.775.506,1.029L68.336,60.249a.07.07,0,0,0-.038.061V66.9a1.2,1.2,0,0,1-.75,1.122A1.226,1.226,0,0,1,67.076,68.118ZM65.268,66.43a.463.463,0,0,1,.33.137l.909.909a.8.8,0,0,0,.57.241.828.828,0,0,0,.318-.065.8.8,0,0,0,.5-.753V60.31a.471.471,0,0,1,.261-.419l15.448-7.6-.153-.312-15.448,7.6a.809.809,0,0,0-.455.731V66.9a.455.455,0,0,1-.289.432.493.493,0,0,1-.184.037.453.453,0,0,1-.325-.138l-.909-.909a.806.806,0,0,0-.573-.239.828.828,0,0,0-.19.022l-1.022.242a.468.468,0,0,1-.575-.455V58.026a.466.466,0,0,1,.254-.416l15.19-7.773-.158-.309L63.579,57.3a.811.811,0,0,0-.444.725v7.865a.815.815,0,0,0,.813.815.828.828,0,0,0,.19-.022l1.022-.242A.47.47,0,0,1,65.268,66.43Z" transform="translate(-26.585 -14.136)"/>
      <rect id="Rectangle_3" data-name="Rectangle 3" width="0.747" height="4.956" transform="translate(32.228 41.185) rotate(-60.46)"/>
      <path id="Rectangle_3_-_Outline" data-name="Rectangle 3 - Outline" d="M-.2-.2H.947V5.156H-.2ZM.547.2H.2V4.756H.547Z" transform="translate(32.228 41.185) rotate(-60.46)"/>
      <path id="Path_26" data-name="Path 26" d="M102.214,94.886l-5.994-3.13.346-.662,5.655,2.953,15.062-7.53.334.668Z" transform="translate(-54.896 -45.826)"/>
      <path id="Path_26_-_Outline" data-name="Path 26 - Outline" d="M102.212,95.11,95.95,91.84l.531-1.017,5.742,3,15.15-7.573.513,1.026ZM96.49,91.671l5.726,2.99L117.349,87.1l-.155-.311-14.975,7.486-5.568-2.908Z" transform="translate(-54.896 -45.826)"/>
      <rect id="Rectangle_4" data-name="Rectangle 4" width="0.747" height="18.357" transform="translate(46.948 48.64)"/>
      <path id="Rectangle_4_-_Outline" data-name="Rectangle 4 - Outline" d="M-.2-.2H.947V18.557H-.2ZM.547.2H.2V18.157H.547Z" transform="translate(46.948 48.64)"/>
      <path id="Path_27" data-name="Path 27" d="M201.54,174.59h-.569l-.213-.533.391-.391a.344.344,0,0,0,0-.5l-1.813-1.813a.268.268,0,0,0-.249-.142.323.323,0,0,0-.249.107l-.391.391-.533-.213v-.569a.336.336,0,0,0-.356-.355H195a.336.336,0,0,0-.356.355v.569l-.533.213-.391-.391a.344.344,0,0,0-.5,0l-1.813,1.813a.344.344,0,0,0,0,.5l.391.391-.213.533h-.569a.336.336,0,0,0-.356.355v2.559a.336.336,0,0,0,.356.355h.569l.213.533-.391.391a.344.344,0,0,0,0,.5l1.813,1.813a.343.343,0,0,0,.5,0l.391-.391.533.213v.64a.336.336,0,0,0,.356.356h2.559a.336.336,0,0,0,.356-.356v-.569l.533-.213.391.391a.344.344,0,0,0,.5,0l1.813-1.813a.344.344,0,0,0,0-.5l-.391-.391.213-.533h.569a.336.336,0,0,0,.356-.356V174.98A.347.347,0,0,0,201.54,174.59Zm-.355,2.559h-.462a.428.428,0,0,0-.355.249,6.616,6.616,0,0,1-.356.889.378.378,0,0,0,.071.427l.32.32-1.315,1.315-.32-.32a.378.378,0,0,0-.427-.071,3.868,3.868,0,0,1-.889.356.353.353,0,0,0-.249.355v.5h-1.848V180.7a.428.428,0,0,0-.249-.355,6.608,6.608,0,0,1-.889-.356.378.378,0,0,0-.427.071l-.32.32-1.315-1.315.32-.32a.378.378,0,0,0,.071-.426,3.871,3.871,0,0,1-.355-.889.353.353,0,0,0-.356-.249h-.462v-1.848h.427a.428.428,0,0,0,.356-.249,6.616,6.616,0,0,1,.355-.889.378.378,0,0,0-.071-.427l-.32-.32,1.315-1.315.32.32a.378.378,0,0,0,.427.071,3.872,3.872,0,0,1,.889-.356.353.353,0,0,0,.249-.355v-.462h1.848v.462a.428.428,0,0,0,.249.355,6.632,6.632,0,0,1,.889.356.378.378,0,0,0,.427-.071l.32-.32,1.315,1.315-.32.32a.378.378,0,0,0-.071.427,3.873,3.873,0,0,1,.356.889.353.353,0,0,0,.355.249h.462v1.813Zm-4.905-3.483a2.559,2.559,0,1,0,2.559,2.559A2.549,2.549,0,0,0,196.279,173.665Zm0,4.408a1.848,1.848,0,1,1,1.848-1.848A1.858,1.858,0,0,1,196.279,178.073Z" transform="translate(-135.224 -117.32)"/>
      <path id="Path_27_-_Outline" data-name="Path 27 - Outline" d="M195,170.373h2.559a.537.537,0,0,1,.556.555v.433l.285.114.3-.3a.522.522,0,0,1,.39-.165.462.462,0,0,1,.4.214l1.8,1.8a.546.546,0,0,1,0,.78l-.3.3.114.285h.433a.543.543,0,0,1,.556.591v2.559a.537.537,0,0,1-.556.556h-.433l-.114.285.3.3a.546.546,0,0,1,0,.781l-1.813,1.813a.543.543,0,0,1-.78,0l-.3-.3-.285.114v.433a.537.537,0,0,1-.556.556H195a.537.537,0,0,1-.556-.556v-.5l-.285-.114-.3.3a.543.543,0,0,1-.781,0l-1.813-1.813a.544.544,0,0,1,0-.781l.3-.3-.114-.285h-.433a.537.537,0,0,1-.556-.555v-2.559a.537.537,0,0,1,.556-.555h.433l.114-.285-.3-.3a.546.546,0,0,1,0-.78l1.813-1.813a.544.544,0,0,1,.78,0l.3.3.285-.114v-.433A.537.537,0,0,1,195,170.373Zm3.5,1.572-.122-.049-.533-.213-.126-.05v-.7a.138.138,0,0,0-.156-.155H195a.138.138,0,0,0-.156.155v.7l-.126.05-.533.213-.122.049-.484-.484a.146.146,0,0,0-.215,0l-1.813,1.813a.144.144,0,0,0,0,.215l.484.484-.313.781h-.7a.138.138,0,0,0-.156.155v2.559a.138.138,0,0,0,.156.155h.7l.312.781-.484.484a.144.144,0,0,0,0,.215l1.813,1.813a.146.146,0,0,0,.215,0l.484-.484.781.313v.775a.138.138,0,0,0,.156.156h2.559a.138.138,0,0,0,.156-.156v-.7l.126-.05.533-.213.122-.049.484.484a.146.146,0,0,0,.215,0l1.813-1.813a.144.144,0,0,0,0-.215l-.484-.484.313-.781h.7a.138.138,0,0,0,.156-.156V174.98c0-.191-.109-.191-.156-.191h-.7l-.313-.781.484-.484a.144.144,0,0,0,0-.215l-1.827-1.827-.011-.017c-.035-.053-.045-.053-.082-.053a.126.126,0,0,0-.107.048Zm-3.376-.79h2.248v.662a.231.231,0,0,0,.127.171,6.848,6.848,0,0,1,.9.361.181.181,0,0,0,.2-.034l.461-.461,1.6,1.6-.461.461a.179.179,0,0,0-.034.2,4.057,4.057,0,0,1,.371.931.158.158,0,0,0,.161.1h.662v2.013h-.164v.2h-.462a.231.231,0,0,0-.171.127,6.844,6.844,0,0,1-.361.9.179.179,0,0,0,.034.2l.461.461-1.6,1.6-.461-.461a.182.182,0,0,0-.2-.034,4.053,4.053,0,0,1-.931.371.158.158,0,0,0-.1.161v.7h-2.248V180.7a.231.231,0,0,0-.127-.171,6.835,6.835,0,0,1-.9-.361.181.181,0,0,0-.2.034l-.461.461-1.6-1.6.461-.461a.179.179,0,0,0,.034-.2,4.059,4.059,0,0,1-.371-.931.158.158,0,0,0-.161-.1h-.662v-2.248h.627a.231.231,0,0,0,.171-.127,6.83,6.83,0,0,1,.361-.9.179.179,0,0,0-.034-.2l-.461-.461,1.6-1.6.461.461a.182.182,0,0,0,.2.034,4.058,4.058,0,0,1,.931-.371.158.158,0,0,0,.1-.161Zm1.848.4h-1.448v.262a.552.552,0,0,1-.4.549h0a3.683,3.683,0,0,0-.842.339.561.561,0,0,1-.25.058.58.58,0,0,1-.408-.167l-.178-.178-1.032,1.032.178.178a.576.576,0,0,1,.109.657,6.366,6.366,0,0,0-.344.862l-.011.026a.628.628,0,0,1-.534.359h-.227v1.448h.262a.552.552,0,0,1,.55.4v.005a3.677,3.677,0,0,0,.338.841.577.577,0,0,1-.108.659l-.178.178,1.032,1.032.178-.178a.58.58,0,0,1,.408-.167.56.56,0,0,1,.249.058,6.53,6.53,0,0,0,.862.345l.026.011a.627.627,0,0,1,.36.534v.262H197v-.3a.552.552,0,0,1,.4-.549h.005a3.681,3.681,0,0,0,.843-.339.56.56,0,0,1,.249-.058.58.58,0,0,1,.408.167l.178.179,1.032-1.032-.178-.178a.577.577,0,0,1-.109-.657,6.534,6.534,0,0,0,.345-.863l.011-.026a.627.627,0,0,1,.534-.359h.227v-1.413h-.262a.552.552,0,0,1-.549-.4v-.005a3.685,3.685,0,0,0-.339-.843.577.577,0,0,1,.108-.657l.179-.179-1.032-1.032-.179.178a.58.58,0,0,1-.408.167.559.559,0,0,1-.249-.058,6.381,6.381,0,0,0-.862-.345l-.026-.011a.627.627,0,0,1-.359-.534Zm-.689,1.91a2.749,2.749,0,1,1-1.954.805A2.762,2.762,0,0,1,196.279,173.465Zm0,5.118a2.359,2.359,0,1,0-2.359-2.359A2.362,2.362,0,0,0,196.279,178.584Zm0-4.408a2.026,2.026,0,0,1,2.048,2.048,2.051,2.051,0,0,1-2.048,2.048,2.048,2.048,0,1,1,0-4.1Zm0,3.7a1.65,1.65,0,0,0,1.648-1.648,1.648,1.648,0,1,0-1.648,1.648Z" transform="translate(-135.224 -117.32)"/>
    </g>
  </g>
</svg>
