<svg xmlns="http://www.w3.org/2000/svg" xmlns:xlink="http://www.w3.org/1999/xlink" width="50" height="50" viewBox="0 0 50 50">
  <defs>
    <clipPath id="clip-Tax">
      <rect width="50" height="50"/>
    </clipPath>
  </defs>
  <g id="Tax" clip-path="url(#clip-Tax)">
    <g id="noun-tax-4299103" transform="translate(-150.894 -37.859)">
      <path id="Path_400" data-name="Path 400" d="M162.714,46.027h17.154l9.764,9.764V80.106h-27.01Zm16.7,1.1h-15.6l-.086,31.879h24.807V56.247Z"/>
      <path id="Line_1" data-name="Line 1" d="M0,13.55a.548.548,0,0,1-.389-.161.55.55,0,0,1,0-.778l13-13a.55.55,0,0,1,.778,0,.55.55,0,0,1,0,.778l-13,13A.548.548,0,0,1,0,13.55Z" transform="translate(169.394 59.359)"/>
      <path id="Ellipse_16" data-name="Ellipse 16" d="M3,1.1A1.9,1.9,0,1,0,4.9,3,1.9,1.9,0,0,0,3,1.1M3,0A3,3,0,1,1,0,3,3,3,0,0,1,3,0Z" transform="translate(169.894 58.859)"/>
      <path id="Ellipse_17" data-name="Ellipse 17" d="M3,1.1A1.9,1.9,0,1,0,4.9,3,1.9,1.9,0,0,0,3,1.1M3,0A3,3,0,1,1,0,3,3,3,0,0,1,3,0Z" transform="translate(175.894 67.859)"/>
    </g>
    <path id="Path_401" data-name="Path 401" d="M-1375.757-2765.285h-10.014v-10h1v9h9.014Z" transform="translate(1414 2784)"/>
  </g>
</svg>
