<svg xmlns="http://www.w3.org/2000/svg" xmlns:xlink="http://www.w3.org/1999/xlink" width="50" height="50" viewBox="0 0 50 50">
  <defs>
    <clipPath id="clip-Weight_Slab">
      <rect width="50" height="50"/>
    </clipPath>
  </defs>
  <g id="Weight_Slab" data-name="Weight Slab" clip-path="url(#clip-Weight_Slab)">
    <g id="Group_104" data-name="Group 104" transform="translate(1.603 1.871)">
      <path id="Path_138" data-name="Path 138" d="M130.414,24.425h0c-3.822,0-6.493-.041-7.938-.122a4.576,4.576,0,0,1-3.459-1.621,7.118,7.118,0,0,1-1.143-4.992c.014-.094,1.41-9.763,2.149-14.785V2.9a6.111,6.111,0,0,1,2.781-4.543,5.8,5.8,0,0,1,2.884-.795c.1,0,.168,0,.206.005h15.615a5.888,5.888,0,0,1,4.475,2.111,5.54,5.54,0,0,1,1.058,1.994l.011.053c.016.1,1.6,10.412,2.338,15.979a5.974,5.974,0,0,1-1.07,4.77A5.482,5.482,0,0,1,144.7,24.3h-.025C144.594,24.3,136.907,24.425,130.414,24.425ZM121.257,3.092c-.739,5.023-2.135,14.683-2.149,14.78a5.945,5.945,0,0,0,.879,4.026,3.383,3.383,0,0,0,2.557,1.158c1.422.08,4.069.12,7.868.12,6.337,0,13.815-.114,14.222-.121a4.261,4.261,0,0,0,2.734-1.391,4.8,4.8,0,0,0,.786-3.8c-.718-5.4-2.231-15.28-2.33-15.922a4.5,4.5,0,0,0-4.356-3.131l-15.646,0s-.047,0-.133,0C124.814-1.193,121.906-.884,121.257,3.092Z" transform="translate(-108.951 15.379)"/>
      <path id="Path_139" data-name="Path 139" d="M143.9-5.221H119.243c-2.87,0-4.385-1.034-5.15-1.9a4.063,4.063,0,0,1-1.005-2.024l1.239-.158V-9.31c.017.116.467,2.839,4.917,2.839H143.9a7.164,7.164,0,0,0,2.1-.4,4.259,4.259,0,0,0,2.775-2.568l1.174.425a5.53,5.53,0,0,1-3.572,3.334A8.3,8.3,0,0,1,143.9-5.221Z" transform="translate(-107.69 16.566)"/>
      <path id="Ellipse_2" data-name="Ellipse 2" d="M9.446,1.249a8.2,8.2,0,1,0,8.2,8.2,8.207,8.207,0,0,0-8.2-8.2M9.446,0A9.446,9.446,0,1,1,0,9.446,9.446,9.446,0,0,1,9.446,0Z" transform="translate(15.099 16.386)"/>
      <path id="Ellipse_3" data-name="Ellipse 3" d="M2.024,1.249a.775.775,0,1,0,.775.775.776.776,0,0,0-.775-.775M2.024,0A2.024,2.024,0,1,1,0,2.024,2.024,2.024,0,0,1,2.024,0Z" transform="translate(22.521 23.808)"/>
      <path id="Path_140" data-name="Path 140" d="M139.6,11.4H138.35V7.274H139.6Z" transform="translate(-114.429 12.671)"/>
    </g>
  </g>
</svg>
