<svg xmlns="http://www.w3.org/2000/svg" width="16" height="16" viewBox="0 0 16 16" fill="none">
  <path opacity="0.4" fill-rule="evenodd" clip-rule="evenodd" d="M15.0801 12.4561C15.7232 12.1653 15.9517 11.3669 15.5597 10.78L8.93288 0.857735C8.48047 0.180345 7.48487 0.180211 7.03228 0.857473L0.403912 10.7762C0.0117763 11.363 0.239968 12.1615 0.882963 12.4524L7.27609 15.3455C7.72516 15.5487 8.23996 15.5487 8.68908 15.3457L15.0801 12.4561Z" fill="#666687" />
  <path d="M15.0801 12.456C15.7232 12.1652 15.9517 11.3668 15.5597 10.7799L8.93288 0.857602C8.71029 0.524319 8.35621 0.354983 8 0.349609V15.4977C8.23515 15.4953 8.46993 15.4446 8.68907 15.3456L15.0801 12.456Z" fill="#666687" />
</svg>
