<svg xmlns="http://www.w3.org/2000/svg" width="16" height="16" viewBox="0 0 16 16" fill="none">
  <path opacity="0.4" fill-rule="evenodd" clip-rule="evenodd" d="M7.143 8.85693V13.1426H8.85728V8.85693H12.5716C12.7294 8.85693 12.8573 8.98485 12.8573 9.14265V13.1426C12.8573 13.616 13.2411 13.9998 13.7144 13.9998C14.1878 13.9998 14.5716 13.616 14.5716 13.1426V9.14265C14.5716 8.03808 13.6761 7.14265 12.5716 7.14265H8.85728V2.85693H7.143V7.14265H3.42871C2.32414 7.14265 1.42871 8.03808 1.42871 9.14265V13.1426C1.42871 13.616 1.81247 13.9998 2.28585 13.9998C2.75924 13.9998 3.143 13.616 3.143 13.1426V9.14265C3.143 8.98485 3.27092 8.85693 3.42871 8.85693H7.143Z" fill="#666687" />
  <path fill-rule="evenodd" clip-rule="evenodd" d="M5.71429 2.28557C5.71429 1.3388 6.48179 0.571289 7.42857 0.571289H8.57143C9.51821 0.571289 10.2857 1.3388 10.2857 2.28557V3.42843C10.2857 4.37521 9.51821 5.14272 8.57143 5.14272H7.42857C6.48179 5.14272 5.71429 4.37521 5.71429 3.42843V2.28557ZM5.71429 12.5713C5.71429 11.6245 6.48179 10.857 7.42857 10.857H8.57143C9.51821 10.857 10.2857 11.6245 10.2857 12.5713V13.7141C10.2857 14.6609 9.51821 15.4284 8.57143 15.4284H7.42857C6.48179 15.4284 5.71429 14.6609 5.71429 13.7141V12.5713ZM1.71429 10.857C0.767512 10.857 0 11.6245 0 12.5713V13.7141C0 14.6609 0.767512 15.4284 1.71429 15.4284H2.85714C3.80392 15.4284 4.57143 14.6609 4.57143 13.7141V12.5713C4.57143 11.6245 3.80392 10.857 2.85714 10.857H1.71429ZM11.4286 12.5713C11.4286 11.6245 12.1961 10.857 13.1429 10.857H14.2857C15.2325 10.857 16 11.6245 16 12.5713V13.7141C16 14.6609 15.2325 15.4284 14.2857 15.4284H13.1429C12.1961 15.4284 11.4286 14.6609 11.4286 13.7141V12.5713Z" fill="#666687" />
</svg>
