<svg width="16" height="16" viewBox="0 0 16 16" fill="none" xmlns="http://www.w3.org/2000/svg">
<path opacity="0.4" d="M12.0003 2H4.00032C2.52698 2 1.33365 3.18667 1.33365 4.64667V11.3533C1.33365 12.8133 2.52698 14 4.00032 14H12.0003C13.4736 14 14.667 12.8133 14.667 11.3533V4.64667C14.667 3.18667 13.4736 2 12.0003 2Z" fill="#666687"/>
<path d="M12.667 5.83398H9.33365C9.06032 5.83398 8.83365 5.60732 8.83365 5.33398C8.83365 5.06065 9.06032 4.83398 9.33365 4.83398H12.667C12.9403 4.83398 13.167 5.06065 13.167 5.33398C13.167 5.60732 12.9403 5.83398 12.667 5.83398Z" fill="#666687"/>
<path d="M12.667 8.5H10.0003C9.72699 8.5 9.50032 8.27333 9.50032 8C9.50032 7.72667 9.72699 7.5 10.0003 7.5H12.667C12.9403 7.5 13.167 7.72667 13.167 8C13.167 8.27333 12.9403 8.5 12.667 8.5Z" fill="#666687"/>
<path d="M12.667 11.166H11.3336C11.0603 11.166 10.8336 10.9393 10.8336 10.666C10.8336 10.3927 11.0603 10.166 11.3336 10.166H12.667C12.9403 10.166 13.167 10.3927 13.167 10.666C13.167 10.9393 12.9403 11.166 12.667 11.166Z" fill="#666687"/>
<path d="M5.66727 7.8593C6.51779 7.8593 7.20727 7.16982 7.20727 6.3193C7.20727 5.46878 6.51779 4.7793 5.66727 4.7793C4.81675 4.7793 4.12727 5.46878 4.12727 6.3193C4.12727 7.16982 4.81675 7.8593 5.66727 7.8593Z" fill="#666687"/>
<path d="M6.20002 8.73984C5.84668 8.70651 5.48002 8.70651 5.12668 8.73984C4.00668 8.84651 3.10668 9.73318 3.00002 10.8532C2.99335 10.9465 3.02002 11.0398 3.08668 11.1065C3.15335 11.1732 3.24002 11.2198 3.33335 11.2198H8.00002C8.09335 11.2198 8.18668 11.1798 8.24668 11.1132C8.30668 11.0465 8.34002 10.9532 8.33335 10.8598C8.22002 9.73318 7.32668 8.84651 6.20002 8.73984Z" fill="#666687"/>
</svg>
