<svg width="22" height="22" viewBox="0 0 22 22" fill="none" xmlns="http://www.w3.org/2000/svg">
<path d="M18.4884 9.35328C18.551 9.03652 18.5819 8.71482 18.5808 8.39251C18.5808 7.19019 18.159 6.02235 17.3824 5.07456C16.6058 4.12677 15.519 3.45339 14.2947 3.16142C13.0703 2.86945 11.7786 2.97563 10.6249 3.4631C9.47115 3.95057 8.52151 4.79136 7.92687 5.85187C7.1403 5.77692 6.35445 6.00064 5.74004 6.47445C5.12563 6.94826 4.73229 7.63388 4.64548 8.38236C3.67253 8.38819 2.74187 8.76197 2.05823 9.42146C1.37458 10.081 0.993951 10.9722 1.00007 11.899C1.00619 12.8258 1.39857 13.7124 2.09087 14.3636C2.78317 15.0149 3.7187 15.3775 4.69164 15.3716H11.4554V17.6349L10.6137 16.8331C10.5139 16.7375 10.3783 16.6837 10.2368 16.6834C10.0953 16.683 9.9594 16.7363 9.85909 16.8314C9.75878 16.9265 9.70224 17.0557 9.7019 17.1905C9.70157 17.3253 9.75747 17.4547 9.85731 17.5503L11.6081 19.2181C11.6578 19.2659 11.717 19.3038 11.7821 19.3297C11.908 19.3749 12.0469 19.3749 12.1728 19.3297C12.2379 19.3038 12.297 19.2659 12.3468 19.2181L14.1189 17.5503C14.1712 17.5038 14.2132 17.4478 14.2423 17.3856C14.2714 17.3233 14.2871 17.2561 14.2883 17.188C14.2896 17.1198 14.2764 17.0522 14.2496 16.989C14.2228 16.9258 14.183 16.8684 14.1324 16.8202C14.0818 16.772 14.0215 16.734 13.9552 16.7085C13.8889 16.683 13.8178 16.6705 13.7463 16.6717C13.6748 16.6729 13.6043 16.6878 13.5389 16.7155C13.4736 16.7432 13.4148 16.7832 13.366 16.8331L12.5208 17.6349V15.3716H17.7533C18.5456 15.3836 19.3143 15.1147 19.9103 14.6172C20.5063 14.1197 20.887 13.429 20.9786 12.6792C21.0702 11.9294 20.8661 11.1739 20.406 10.5594C19.9458 9.94479 19.2624 9.51497 18.4884 9.35328ZM17.7533 14.3567H12.5208V12.9627C12.5208 12.8282 12.4647 12.6991 12.3648 12.6039C12.2649 12.5088 12.1294 12.4553 11.9881 12.4553C11.8468 12.4553 11.7113 12.5088 11.6114 12.6039C11.5115 12.6991 11.4554 12.8282 11.4554 12.9627V14.3567H4.69164C4.00126 14.3567 3.33915 14.0955 2.85097 13.6304C2.3628 13.1654 2.08854 12.5347 2.08854 11.877C2.08854 11.2193 2.3628 10.5886 2.85097 10.1236C3.33915 9.65852 4.00126 9.39726 4.69164 9.39726C4.82481 9.39852 4.95772 9.40869 5.08939 9.42771C5.16945 9.44002 5.2514 9.43464 5.32893 9.41198C5.40646 9.38932 5.47748 9.34999 5.53652 9.29702C5.59555 9.24405 5.64101 9.17887 5.6694 9.1065C5.69778 9.03414 5.70832 8.95652 5.70021 8.87966C5.70021 8.82215 5.70021 8.76126 5.70021 8.70374C5.70021 8.21355 5.90438 7.74338 6.26792 7.39644C6.63145 7.0495 7.12463 6.85414 7.63922 6.85324C7.79743 6.85298 7.95501 6.87231 8.10799 6.91075C8.22952 6.93854 8.35743 6.92501 8.4696 6.87251C8.58178 6.82 8.67118 6.73182 8.72236 6.6232C9.19517 5.60656 10.0564 4.79943 11.1312 4.36565C12.2059 3.93187 13.4137 3.90396 14.5093 4.28758C15.6049 4.67121 16.5062 5.43762 17.0302 6.43121C17.5542 7.42481 17.6616 8.57113 17.3307 9.63745C17.3076 9.71233 17.303 9.79127 17.3172 9.86813C17.3313 9.945 17.3639 10.0177 17.4124 10.0806C17.4602 10.1427 17.522 10.1938 17.5933 10.2301C17.6646 10.2664 17.7436 10.287 17.8243 10.2904C18.3894 10.2984 18.928 10.52 19.3217 10.9064C19.7153 11.2928 19.9316 11.8123 19.9231 12.3506C19.9147 12.889 19.682 13.402 19.2765 13.777C18.8709 14.1519 18.3255 14.358 17.7604 14.35L17.7533 14.3567Z" fill="white" stroke="white" stroke-width="0.6"/>
<path d="M14.3909 9.81817C14.3909 11.1888 13.2798 12.3 11.9091 12.3C10.5384 12.3 9.42726 11.1888 9.42726 9.81817C9.42726 8.4475 10.5384 7.33635 11.9091 7.33635C13.2798 7.33635 14.3909 8.4475 14.3909 9.81817Z" stroke="white" stroke-width="1.4"/>
</svg>
