<svg xmlns="http://www.w3.org/2000/svg" width="14" height="14" viewBox="0 0 14 14" fill="none">
  <path opacity="0.4" d="M9.79397 0.333984H4.2073C1.78064 0.333984 0.333969 1.78065 0.333969 4.20732V9.79398C0.333969 12.2207 1.78064 13.6673 4.2073 13.6673H9.79397C12.2206 13.6673 13.6673 12.2207 13.6673 9.79398V4.20732C13.6673 1.78065 12.2206 0.333984 9.79397 0.333984Z" fill="#666687" />
  <path d="M11.207 4.91406C11.207 5.1874 10.987 5.41406 10.707 5.41406H7.20702C6.93368 5.41406 6.70702 5.1874 6.70702 4.91406C6.70702 4.64073 6.93368 4.41406 7.20702 4.41406H10.707C10.987 4.41406 11.207 4.64073 11.207 4.91406Z" fill="#666687" />
  <path d="M5.64703 4.26768L4.14703 5.76768C4.04703 5.86768 3.92036 5.91435 3.79369 5.91435C3.66703 5.91435 3.53369 5.86768 3.44036 5.76768L2.94036 5.26768C2.74036 5.07435 2.74036 4.75435 2.94036 4.56102C3.13369 4.36768 3.44703 4.36768 3.64703 4.56102L3.79369 4.70768L4.94036 3.56102C5.13369 3.36768 5.44703 3.36768 5.64703 3.56102C5.84036 3.75435 5.84036 4.07435 5.64703 4.26768Z" fill="#666687" />
  <path d="M11.207 9.58008C11.207 9.85341 10.987 10.0801 10.707 10.0801H7.20702C6.93368 10.0801 6.70702 9.85341 6.70702 9.58008C6.70702 9.30674 6.93368 9.08008 7.20702 9.08008H10.707C10.987 9.08008 11.207 9.30674 11.207 9.58008Z" fill="#666687" />
  <path d="M5.64703 8.9337L4.14703 10.4337C4.04703 10.5337 3.92036 10.5804 3.79369 10.5804C3.66703 10.5804 3.53369 10.5337 3.44036 10.4337L2.94036 9.9337C2.74036 9.74036 2.74036 9.42036 2.94036 9.22703C3.13369 9.0337 3.44703 9.0337 3.64703 9.22703L3.79369 9.3737L4.94036 8.22703C5.13369 8.0337 5.44703 8.0337 5.64703 8.22703C5.84036 8.42036 5.84036 8.74036 5.64703 8.9337Z" fill="#666687" />
</svg>
