<svg xmlns="http://www.w3.org/2000/svg" width="16" height="14" viewBox="0 0 16 14" fill="none">
  <path fill-rule="evenodd" clip-rule="evenodd" d="M1.14286 2.99861C1.77403 2.99861 2.28571 2.48694 2.28571 1.85575C2.28571 1.22457 1.77403 0.712891 1.14286 0.712891C0.511674 0.712891 0 1.22457 0 1.85575C0 2.48694 0.511674 2.99861 1.14286 2.99861ZM2.28571 6.99917C2.28571 7.63034 1.77403 8.14202 1.14286 8.14202C0.511674 8.14202 0 7.63034 0 6.99917C0 6.36799 0.511674 5.85631 1.14286 5.85631C1.77403 5.85631 2.28571 6.36799 2.28571 6.99917ZM2.28571 12.1426C2.28571 12.7738 1.77403 13.2855 1.14286 13.2855C0.511674 13.2855 0 12.7738 0 12.1426C0 11.5114 0.511674 10.9997 1.14286 10.9997C1.77403 10.9997 2.28571 11.5114 2.28571 12.1426Z" fill="#666687" />
  <path opacity="0.4" fill-rule="evenodd" clip-rule="evenodd" d="M4.57143 1.85714C4.57143 1.38376 4.95519 1 5.42857 1H15.1429C15.6162 1 16 1.38376 16 1.85714C16 2.33053 15.6162 2.71429 15.1429 2.71429H5.42857C4.95519 2.71429 4.57143 2.33053 4.57143 1.85714ZM4.57143 7C4.57143 6.52662 4.95519 6.14286 5.42857 6.14286H15.1429C15.6162 6.14286 16 6.52662 16 7C16 7.47338 15.6162 7.85714 15.1429 7.85714H5.42857C4.95519 7.85714 4.57143 7.47338 4.57143 7ZM5.42857 11.2857C4.95519 11.2857 4.57143 11.6695 4.57143 12.1429C4.57143 12.6162 4.95519 13 5.42857 13H15.1429C15.6162 13 16 12.6162 16 12.1429C16 11.6695 15.6162 11.2857 15.1429 11.2857H5.42857Z" fill="#666687" />
</svg>
