<!DOCTYPE svg PUBLIC "-//W3C//DTD SVG 1.1//EN" "http://www.w3.org/Graphics/SVG/1.1/DTD/svg11.dtd">
<!-- Uploaded to: SVG Repo, www.svgrepo.com, Transformed by: SVG Repo Mixer Tools -->
<svg fill="#666687" width="64px" height="64px" viewBox="0 0 32.00 32.00" id="Outlined" xmlns="http://www.w3.org/2000/svg" stroke="#666687" stroke-width="0.00032">
<g id="SVGRepo_bgCarrier" stroke-width="0"/>
<g id="SVGRepo_tracerCarrier" stroke-linecap="round" stroke-linejoin="round" stroke="#CCCCCC" stroke-width="0.704"/>
<g id="SVGRepo_iconCarrier"> <title/> <g id="Fill"> <path d="M28.61,11.67H20l-2.66-8.2a1.39,1.39,0,0,0-2.64,0L12,11.67H3.39a1.39,1.39,0,0,0-.82,2.51l7,5.07L6.89,27.46a1.39,1.39,0,0,0,1.32,1.82A1.43,1.43,0,0,0,9,29l7-5.07L23,29a1.43,1.43,0,0,0,.81.27,1.39,1.39,0,0,0,1.32-1.82l-2.66-8.21,7-5.07A1.39,1.39,0,0,0,28.61,11.67Zm-7.34,6-1.17.86.44,1.38,2.09,6.41-5.45-4L16,21.46l-1.18.86-5.45,4,2.09-6.41.44-1.38-1.17-.86-5.45-4h8.19l.45-1.38L16,5.89l2.08,6.4.45,1.38h8.19Z"/> </g> </g>
</svg>
