<svg width="16" height="16" viewBox="0 0 16 16" fill="none" xmlns="http://www.w3.org/2000/svg">
<path fill-rule="evenodd" clip-rule="evenodd" d="M0.666667 14C0.298477 14 3.23597e-07 13.5523 2.91409e-07 13L0 8C-3.21882e-08 7.44772 0.298477 7 0.666667 7H3.66667C3.85076 7 4 7.22386 4 7.5V13.5C4 13.7762 3.85076 14 3.66667 14H0.666667Z" fill="#666687"/>
<path opacity="0.4" fill-rule="evenodd" clip-rule="evenodd" d="M6.26986 15.0898C5.84452 15.0898 5.42454 14.9948 5.04058 14.8118L4.81266 14.7032C4.21596 14.4188 3.83594 13.8166 3.83594 13.1557L3.83595 6.93578C3.83595 6.64251 3.91118 6.35416 4.05445 6.09827L6.42855 1.85818C6.75703 1.27154 7.37689 0.908203 8.04923 0.908203C9.07506 0.908203 9.90666 1.7398 9.90666 2.76563V5.46005L13.6595 5.46004C15.0626 5.46004 16.1345 6.71252 15.9178 8.09881L15.2025 12.674C14.9851 14.0646 13.7872 15.0898 12.3796 15.0898H6.26986Z" fill="#666687"/>
</svg>
