<svg width="22" height="22" viewBox="0 0 22 22" fill="none" xmlns="http://www.w3.org/2000/svg">
<path d="M16.1111 10.2791C15.4511 10.2791 14.82 10.4094 14.2444 10.648C13.5067 9.80628 12.5844 9.13023 11.54 8.68174C12.4333 7.87314 13 6.71105 13 5.4186C13 2.98174 11.0067 1 8.55555 1C6.10444 1 4.11111 2.98174 4.11111 5.4186C4.11111 6.71105 4.67555 7.87314 5.56889 8.68174C2.88444 9.835 1 12.4928 1 15.5814V16.4651C1 17.1964 1.59778 17.7907 2.33333 17.7907H12.0156C12.8889 19.1185 14.3978 20 16.1111 20C18.8067 20 21 17.8194 21 15.1395C21 12.4597 18.8067 10.2791 16.1111 10.2791ZM5 5.4186C5 3.47 6.59555 1.88372 8.55555 1.88372C10.5156 1.88372 12.1111 3.47 12.1111 5.4186C12.1111 7.36721 10.5156 8.95349 8.55555 8.95349C6.59555 8.95349 5 7.36721 5 5.4186ZM11.5578 16.907H2.33333C2.08667 16.907 1.88889 16.7081 1.88889 16.4651V15.5814C1.88889 12.6629 3.79333 10.1819 6.43333 9.30035C7.06444 9.64279 7.78667 9.83721 8.55555 9.83721C9.32222 9.83721 10.0467 9.64279 10.6778 9.30035C11.7422 9.65605 12.6867 10.2724 13.4356 11.0722C12.1044 11.9427 11.2222 13.4406 11.2222 15.1395C11.2222 15.7626 11.3422 16.3591 11.5578 16.907ZM16.1111 19.1163C13.9044 19.1163 12.1111 17.3312 12.1111 15.1395C12.1111 12.9457 13.9044 11.1628 16.1111 11.1628C18.3156 11.1628 20.1111 12.9457 20.1111 15.1395C20.1111 17.3312 18.3156 19.1163 16.1111 19.1163Z" fill="white" stroke="white" stroke-width="0.6"/>
<path d="M16.1111 12.4884C15.8644 12.4884 15.6667 12.685 15.6667 12.9302V15.5814C15.6667 15.8244 15.8644 16.0233 16.1111 16.0233C16.3556 16.0233 16.5556 15.8244 16.5556 15.5814V12.9302C16.5556 12.685 16.3556 12.4884 16.1111 12.4884Z" fill="white" stroke="white" stroke-width="0.6"/>
<path d="M16.1111 17.7907C16.3566 17.7907 16.5556 17.5929 16.5556 17.3488C16.5556 17.1048 16.3566 16.907 16.1111 16.907C15.8656 16.907 15.6667 17.1048 15.6667 17.3488C15.6667 17.5929 15.8656 17.7907 16.1111 17.7907Z" fill="white" stroke="white" stroke-width="0.6"/>
</svg>
