<svg xmlns="http://www.w3.org/2000/svg" width="16" height="16" viewBox="0 0 16 16" fill="none">
  <g clip-path="url(#clip0_455_4596)">
    <path opacity="0.4" fill-rule="evenodd" clip-rule="evenodd" d="M3.45386 8.62074L2.93301 8.19141L2.59551 8.77597L0.0765592 13.1389C-0.0390014 13.3391 -0.0226115 13.5891 0.118086 13.7725C0.258784 13.9559 0.496081 14.0364 0.719328 13.9767L2.88917 13.3952L3.47058 15.565C3.53039 15.7883 3.7188 15.9536 3.94795 15.9836C4.17709 16.0138 4.40184 15.9031 4.51741 15.7028L6.70299 11.9173L6.94486 11.4984L6.57157 11.1907L3.45386 8.62074ZM12.5466 8.62074L13.0675 8.19141L13.405 8.77597L15.9239 13.1389C16.0395 13.3391 16.023 13.5891 15.8823 13.7725C15.7417 13.9559 15.5044 14.0364 15.2811 13.9767L13.1113 13.3952L12.5299 15.565C12.4701 15.7883 12.2817 15.9536 12.0525 15.9836C11.8234 16.0138 11.5986 15.9031 11.483 15.7028L9.29748 11.9173L9.0556 11.4984L9.42889 11.1907L12.5466 8.62074Z" fill="#666687" />
    <path d="M7.99707 0.00976562C11.2316 0.00976562 13.8534 2.63176 13.8535 5.86621C13.8535 9.10078 11.2317 11.7236 7.99707 11.7236C4.76254 11.7236 2.14062 9.10075 2.14062 5.86621C2.14078 2.63179 4.76264 0.00981524 7.99707 0.00976562ZM7.99023 2.6377C7.94115 2.63864 7.89275 2.65298 7.85156 2.67969C7.81043 2.7064 7.77769 2.74468 7.75684 2.78906L6.97656 4.3584C6.95911 4.39809 6.93155 4.4325 6.89648 4.45801C6.86146 4.48347 6.82041 4.49952 6.77734 4.50391L5.04395 4.75781C4.99639 4.76558 4.95165 4.78605 4.91504 4.81738C4.8784 4.84876 4.85093 4.88969 4.83594 4.93555C4.82094 4.98146 4.81899 5.03111 4.83008 5.07812C4.84119 5.12504 4.86554 5.16784 4.89941 5.20215L6.17871 6.42676C6.20508 6.4592 6.22252 6.49802 6.23047 6.53906C6.23839 6.58022 6.23611 6.62307 6.22363 6.66309L5.93359 8.38672C5.92315 8.43655 5.92692 8.48866 5.94531 8.53613C5.96372 8.58354 5.99584 8.62455 6.03711 8.6543C6.07839 8.68404 6.12789 8.70166 6.17871 8.7041C6.22933 8.70645 6.27946 8.69347 6.32324 8.66797L7.86621 7.85156C7.90605 7.83359 7.94944 7.82422 7.99316 7.82422C8.03689 7.82425 8.08027 7.83355 8.12012 7.85156L9.66211 8.66797C9.70609 8.69363 9.75677 8.70656 9.80762 8.7041C9.85847 8.70166 9.90793 8.68407 9.94922 8.6543C9.99031 8.6246 10.0217 8.58338 10.04 8.53613C10.0584 8.48866 10.0632 8.43655 10.0527 8.38672L9.80762 6.66309C9.78854 6.6267 9.77832 6.58601 9.77832 6.54492C9.77834 6.50388 9.78856 6.46311 9.80762 6.42676L11.0869 5.21094C11.1234 5.17697 11.1495 5.13316 11.1621 5.08496C11.1747 5.03673 11.1734 4.98596 11.1582 4.93848C11.143 4.8909 11.1145 4.84841 11.0762 4.81641C11.0378 4.78444 10.9909 4.76425 10.9414 4.75781L9.20898 4.49414C9.16584 4.48977 9.12393 4.47473 9.08887 4.44922C9.05388 4.42374 9.02621 4.38924 9.00879 4.34961L8.22852 2.78027C8.20597 2.73672 8.17201 2.69991 8.12988 2.6748C8.08774 2.64972 8.03927 2.63677 7.99023 2.6377Z" fill="#666687" />
    <path opacity="0.4" d="M8.22881 2.77886L9.00907 4.34845C9.02651 4.38815 9.05419 4.42251 9.08925 4.448C9.12432 4.47351 9.16553 4.48925 9.20867 4.49361L10.9416 4.75672C10.9911 4.76317 11.0378 4.78359 11.0762 4.81559C11.1145 4.84759 11.143 4.88987 11.1582 4.93744C11.1734 4.98503 11.1748 5.03596 11.1621 5.08429C11.1495 5.13262 11.1233 5.17635 11.0867 5.21036L9.80747 6.42612C9.7884 6.46251 9.77843 6.50297 9.77843 6.54406C9.77843 6.58514 9.7884 6.62561 9.80747 6.662L10.0524 8.38583C10.0629 8.43566 10.0587 8.48744 10.0403 8.53492C10.0219 8.58238 9.9901 8.6235 9.9488 8.65327C9.9075 8.68304 9.85845 8.7002 9.8076 8.70264C9.75675 8.7051 9.70628 8.69275 9.6623 8.66709L8.11994 7.85054C8.08002 7.83249 8.03673 7.82317 7.99292 7.82317C7.94912 7.82317 7.90581 7.83249 7.86591 7.85054L6.32353 8.66709C6.27956 8.69275 6.22909 8.7051 6.17824 8.70264C6.12739 8.7002 6.07834 8.68304 6.03705 8.65327C5.99575 8.6235 5.96397 8.58238 5.94557 8.53492C5.92719 8.48744 5.92296 8.43566 5.9334 8.38583L6.22373 6.662C6.23621 6.62199 6.23861 6.57951 6.23069 6.53836C6.22277 6.4972 6.20481 6.45864 6.17837 6.42612L4.89911 5.20128C4.86517 5.16692 4.84136 5.12387 4.83027 5.07686C4.81918 5.02984 4.82124 4.98069 4.83624 4.93478C4.85123 4.88886 4.87857 4.84796 4.91526 4.81655C4.95196 4.78515 4.99659 4.76445 5.04427 4.75672L6.77717 4.50269C6.82032 4.49832 6.86152 4.48259 6.89659 4.45708C6.93165 4.43157 6.95932 4.39721 6.97677 4.35752L7.75703 2.78793C7.77791 2.7435 7.8108 2.7058 7.85199 2.67908C7.89317 2.65237 7.94101 2.63772 7.9901 2.63677C8.03919 2.63582 8.08755 2.64863 8.12973 2.67374C8.17193 2.69885 8.20624 2.73526 8.22881 2.77886Z" fill="#666687" />
  </g>
  <defs>
    <clipPath id="clip0_455_4596">
      <rect width="16" height="16" fill="white" />
    </clipPath>
  </defs>
</svg>
