<svg xmlns="http://www.w3.org/2000/svg" width="16" height="16" viewBox="0 0 16 16" fill="none">
  <path fill-rule="evenodd" clip-rule="evenodd" d="M6.3512 0.787693L5.82197 2.15385L4.00042 3.18769L2.54812 2.96615C2.3063 2.93333 2.06017 2.97314 1.84102 3.08053C1.62188 3.18791 1.43959 3.35801 1.31735 3.56923L0.825043 4.43077C0.698891 4.64535 0.640769 4.89314 0.658347 5.14144C0.675925 5.38974 0.768379 5.62687 0.923505 5.82154L1.84658 6.96615V9.03385L0.94812 10.1785C0.792994 10.3731 0.700541 10.6103 0.682963 10.8586C0.665384 11.1069 0.723506 11.3547 0.849658 11.5693L1.34197 12.4307C1.46421 12.6419 1.64649 12.8121 1.86564 12.9194C2.08478 13.0269 2.3309 13.0666 2.57273 13.0338L4.02504 12.8123L5.82197 13.8462L6.3512 15.2123C6.44045 15.4437 6.59748 15.6426 6.80172 15.7831C7.00596 15.9237 7.24789 15.9993 7.49581 16H8.52966C8.77759 15.9993 9.01951 15.9237 9.22375 15.7831C9.42799 15.6426 9.58502 15.4437 9.67428 15.2123L10.2035 13.8462L12.0004 12.8123L13.4528 13.0338C13.6946 13.0666 13.9407 13.0269 14.1599 12.9194C14.379 12.8121 14.5612 12.6419 14.6835 12.4307L15.1759 11.5693C15.3019 11.3547 15.3601 11.1069 15.3425 10.8586C15.3249 10.6103 15.2324 10.3731 15.0774 10.1785L14.1543 9.03385V6.96615L15.0528 5.82154C15.2079 5.62687 15.3003 5.38974 15.3179 5.14144C15.3355 4.89314 15.2774 4.64535 15.1512 4.43077L14.6588 3.56923C14.5367 3.35801 14.3544 3.18791 14.1352 3.08053C13.9161 2.97314 13.6699 2.93333 13.4281 2.96615L11.9759 3.18769L10.1789 2.15385L9.64966 0.787693C9.5604 0.556386 9.40337 0.357429 9.19913 0.216877C8.99489 0.0763248 8.75297 0.000732377 8.50504 0H7.49581C7.24789 0.000732377 7.00596 0.0763248 6.80172 0.216877C6.59748 0.357429 6.44045 0.556386 6.3512 0.787693ZM8.00044 10.5714C9.4206 10.5714 10.5719 9.42016 10.5719 8C10.5719 6.57984 9.4206 5.42857 8.00044 5.42857C6.58028 5.42857 5.42901 6.57984 5.42901 8C5.42901 9.42016 6.58028 10.5714 8.00044 10.5714Z" fill="#666687" />
</svg>
