<svg width="18" height="20" viewBox="0 0 18 20" fill="none" xmlns="http://www.w3.org/2000/svg">
<g clip-path="url(#clip0_4336_37133)">
<path d="M17.192 13.6365V6.36381C17.1916 6.04497 17.1079 5.73182 16.9491 5.45578C16.7903 5.17974 16.562 4.95051 16.2872 4.79109L9.95387 1.15472C9.67879 0.995144 9.36675 0.911133 9.04911 0.911133C8.73147 0.911133 8.41943 0.995144 8.14435 1.15472L1.81101 4.79109C1.5362 4.95051 1.30795 5.17974 1.14914 5.45578C0.990341 5.73182 0.906575 6.04497 0.90625 6.36381V13.6365C0.906575 13.9554 0.990341 14.2685 1.14914 14.5446C1.30795 14.8206 1.5362 15.0498 1.81101 15.2093L8.14435 18.8456C8.41943 19.0052 8.73147 19.0892 9.04911 19.0892C9.36675 19.0892 9.67879 19.0052 9.95387 18.8456L16.2872 15.2093C16.562 15.0498 16.7903 14.8206 16.9491 14.5446C17.1079 14.2685 17.1916 13.9554 17.192 13.6365Z" stroke="#145CA8" stroke-width="1.5" stroke-linecap="round" stroke-linejoin="round"/>
<path d="M1.14844 5.41797L9.04701 10.0089L16.9456 5.41797" stroke="#145CA8" stroke-width="1.5" stroke-linecap="round" stroke-linejoin="round"/>
<path d="M9.04688 19.1636V10" stroke="#145CA8" stroke-width="1.5" stroke-linecap="round" stroke-linejoin="round"/>
<path d="M14.4255 12.8381L12.0312 11.563" stroke="#145CA8" stroke-width="1.5" stroke-miterlimit="10" stroke-linecap="round" stroke-linejoin="round"/>
<path d="M13.8503 11.0366L12.5753 13.4309" stroke="#145CA8" stroke-width="1.5" stroke-miterlimit="10" stroke-linecap="round" stroke-linejoin="round"/>
</g>
<defs>
<clipPath id="clip0_4336_37133">
<rect width="18" height="20" fill="white"/>
</clipPath>
</defs>
</svg>
