<svg width="20" height="20" viewBox="0 0 20 20" fill="none" xmlns="http://www.w3.org/2000/svg">
<path d="M0.914062 7.27282V5.45463C0.914062 2.72736 2.73224 0.90918 5.45952 0.90918H14.5504C17.2777 0.90918 19.0959 2.72736 19.0959 5.45463V7.27282" stroke="#145CA8" stroke-width="1.5" stroke-miterlimit="10" stroke-linecap="round" stroke-linejoin="round"/>
<path d="M0.914062 12.7271V14.5452C0.914062 17.2725 2.73224 19.0907 5.45952 19.0907H14.5504C17.2777 19.0907 19.0959 17.2725 19.0959 14.5452V12.7271" stroke="#145CA8" stroke-width="1.5" stroke-miterlimit="10" stroke-linecap="round" stroke-linejoin="round"/>
<path d="M15.1094 12.151V7.80432C15.1092 7.61376 15.0577 7.4266 14.9602 7.26162C14.8627 7.09663 14.7226 6.95963 14.5538 6.86435L10.6649 4.691C10.496 4.59562 10.3044 4.54541 10.1094 4.54541C9.91433 4.54541 9.72273 4.59562 9.55382 4.691L5.66493 6.86435C5.49619 6.95963 5.35603 7.09663 5.25852 7.26162C5.16101 7.4266 5.10957 7.61376 5.10938 7.80432V12.151C5.10957 12.3416 5.16101 12.5287 5.25852 12.6937C5.35603 12.8587 5.49619 12.9957 5.66493 13.091L9.55382 15.2643C9.72273 15.3597 9.91433 15.4099 10.1094 15.4099C10.3044 15.4099 10.496 15.3597 10.6649 15.2643L14.5538 13.091C14.7226 12.9957 14.8627 12.8587 14.9602 12.6937C15.0577 12.5287 15.1092 12.3416 15.1094 12.151Z" stroke="#145CA8" stroke-width="1.5" stroke-linecap="round" stroke-linejoin="round"/>
<path d="M5.25781 7.23926L10.1078 9.98311L14.9578 7.23926" stroke="#145CA8" stroke-width="1.5" stroke-linecap="round" stroke-linejoin="round"/>
<path d="M10.1094 15.4544V9.97754" stroke="#145CA8" stroke-width="1.5" stroke-linecap="round" stroke-linejoin="round"/>
</svg>
