<svg width="18" height="20" viewBox="0 0 18 20" fill="none" xmlns="http://www.w3.org/2000/svg">
<g clip-path="url(#clip0_4336_37104)">
<path d="M17.192 13.6365V6.36381C17.1916 6.04497 17.1079 5.73182 16.9491 5.45578C16.7903 5.17974 16.562 4.95051 16.2872 4.79109L9.95387 1.15472C9.67879 0.995144 9.36675 0.911133 9.04911 0.911133C8.73147 0.911133 8.41943 0.995144 8.14435 1.15472L1.81101 4.79109C1.5362 4.95051 1.30795 5.17974 1.14914 5.45578C0.990341 5.73182 0.906575 6.04497 0.90625 6.36381V13.6365C0.906575 13.9554 0.990341 14.2685 1.14914 14.5446C1.30795 14.8206 1.5362 15.0498 1.81101 15.2093L8.14435 18.8456C8.41943 19.0052 8.73147 19.0892 9.04911 19.0892C9.36675 19.0892 9.67879 19.0052 9.95387 18.8456L16.2872 15.2093C16.562 15.0498 16.7903 14.8206 16.9491 14.5446C17.1079 14.2685 17.1916 13.9554 17.192 13.6365Z" stroke="#145CA8" stroke-width="1.5" stroke-linecap="round" stroke-linejoin="round"/>
<path d="M1.5 5.5L5.5 8M16.7971 5.41797L12.5 8" stroke="#145CA8" stroke-width="1.5" stroke-linecap="round" stroke-linejoin="round"/>
<path d="M9.04687 19.1636L9 17" stroke="#145CA8" stroke-width="1.5" stroke-linecap="round" stroke-linejoin="round"/>
<g clip-path="url(#clip1_4336_37104)">
<path d="M12.9773 10.1786C12.9773 13.4286 8.98864 16.2143 8.98864 16.2143C8.98864 16.2143 5 13.4286 5 10.1786C5 9.07035 5.42023 8.00751 6.16824 7.22388C6.91626 6.44024 7.93078 6 8.98864 6C10.0465 6 11.061 6.44024 11.809 7.22388C12.557 8.00751 12.9773 9.07035 12.9773 10.1786Z" stroke="#145CA8" stroke-width="1.5" stroke-linecap="round" stroke-linejoin="round"/>
<path d="M8.99361 11.5718C9.7279 11.5718 10.3232 10.9482 10.3232 10.179C10.3232 9.40974 9.7279 8.78613 8.99361 8.78613C8.25932 8.78613 7.66406 9.40974 7.66406 10.179C7.66406 10.9482 8.25932 11.5718 8.99361 11.5718Z" stroke="#145CA8" stroke-width="1.5" stroke-linecap="round" stroke-linejoin="round"/>
</g>
</g>
<defs>
<clipPath id="clip0_4336_37104">
<rect width="18" height="20" fill="white"/>
</clipPath>
<clipPath id="clip1_4336_37104">
<rect width="10" height="12" fill="white" transform="translate(4 5)"/>
</clipPath>
</defs>
</svg>
