<svg width="20" height="20" viewBox="0 0 20 20" fill="none" xmlns="http://www.w3.org/2000/svg">
<path d="M5.1875 7.50928L10.0057 10.3002L14.7875 7.52746" stroke="#145CA8" stroke-width="1.5" stroke-linecap="round" stroke-linejoin="round"/>
<path d="M10.0078 15.2456V10.291" stroke="#145CA8" stroke-width="1.5" stroke-linecap="round" stroke-linejoin="round"/>
<path d="M8.87473 4.80905L5.96563 6.42723C5.31109 6.79087 4.76562 7.70905 4.76562 8.46359V11.5454C4.76562 12.3 5.302 13.2181 5.96563 13.5818L8.87473 15.2C9.49292 15.5454 10.5111 15.5454 11.1384 15.2L14.0475 13.5818C14.702 13.2181 15.2474 12.3 15.2474 11.5454V8.45451C15.2474 7.69996 14.7111 6.78177 14.0475 6.41814L11.1384 4.79996C10.5111 4.4545 9.49292 4.4545 8.87473 4.80905Z" stroke="#145CA8" stroke-width="1.5" stroke-linecap="round" stroke-linejoin="round"/>
<path d="M19.0902 12.7275C19.0902 16.2457 16.2447 19.0912 12.7266 19.0912L13.6811 17.5003" stroke="#145CA8" stroke-width="1.5" stroke-linecap="round" stroke-linejoin="round"/>
<path d="M0.90625 7.27282C0.90625 3.75463 3.7517 0.90918 7.26989 0.90918L6.31535 2.50009" stroke="#145CA8" stroke-width="1.5" stroke-linecap="round" stroke-linejoin="round"/>
</svg>
