<svg width="18" height="20" viewBox="0 0 18 20" fill="none" xmlns="http://www.w3.org/2000/svg">
<g clip-path="url(#clip0_4324_37058)">
<path d="M17.0984 13.6365V6.36381C17.0981 6.04497 17.0148 5.73182 16.8568 5.45578C16.6989 5.17974 16.4718 4.95051 16.1984 4.79109L9.89844 1.15472C9.6248 0.995144 9.3144 0.911133 8.99844 0.911133C8.68247 0.911133 8.37207 0.995144 8.09844 1.15472L1.79844 4.79109C1.52507 4.95051 1.29802 5.17974 1.14005 5.45578C0.982086 5.73182 0.898761 6.04497 0.898438 6.36381V13.6365C0.898761 13.9554 0.982086 14.2685 1.14005 14.5446C1.29802 14.8206 1.52507 15.0498 1.79844 15.2093L8.09844 18.8456C8.37207 19.0052 8.68247 19.0892 8.99844 19.0892C9.3144 19.0892 9.6248 19.0052 9.89844 18.8456L16.1984 15.2093C16.4718 15.0498 16.6989 14.8206 16.8568 14.5446C17.0148 14.2685 17.0981 13.9554 17.0984 13.6365Z" stroke="#145CA8" stroke-width="1.5" stroke-linecap="round" stroke-linejoin="round"/>
<path d="M1.14062 5.41797L8.99762 10.0089L16.8546 5.41797" stroke="#145CA8" stroke-width="1.5" stroke-linecap="round" stroke-linejoin="round"/>
<path d="M9 19.1636V10" stroke="#145CA8" stroke-width="1.5" stroke-linecap="round" stroke-linejoin="round"/>
</g>
<defs>
<clipPath id="clip0_4324_37058">
<rect width="18" height="20" fill="white"/>
</clipPath>
</defs>
</svg>
