<svg width="20" height="20" viewBox="0 0 20 20" fill="none" xmlns="http://www.w3.org/2000/svg">
<path d="M11.5391 3.13623L15.1572 5.22713L18.7391 3.14533" stroke="#145CA8" stroke-width="1.5" stroke-linecap="round" stroke-linejoin="round"/>
<path d="M15.1641 8.92737V5.21826" stroke="#145CA8" stroke-width="1.5" stroke-linecap="round" stroke-linejoin="round"/>
<path d="M14.3084 1.10009L12.1266 2.30914C11.6356 2.58187 11.2266 3.27277 11.2266 3.83641V6.14553C11.2266 6.70917 11.6266 7.40007 12.1266 7.6728L14.3084 8.88191C14.772 9.14554 15.5356 9.14554 16.0084 8.88191L18.1902 7.6728C18.6811 7.40007 19.0902 6.70917 19.0902 6.14553V3.83641C19.0902 3.27277 18.6902 2.58187 18.1902 2.30914L16.0084 1.10009C15.5447 0.845543 14.7811 0.845543 14.3084 1.10009Z" stroke="#145CA8" stroke-width="1.5" stroke-linecap="round" stroke-linejoin="round"/>
<path d="M1.22656 13.1362L4.83565 15.2271L8.42656 13.1453" stroke="#145CA8" stroke-width="1.5" stroke-linecap="round" stroke-linejoin="round"/>
<path d="M4.83594 18.9274V15.2183" stroke="#145CA8" stroke-width="1.5" stroke-linecap="round" stroke-linejoin="round"/>
<path d="M3.98807 11.1001L1.80625 12.3091C1.31535 12.5819 0.90625 13.2728 0.90625 13.8364V16.1455C0.90625 16.7092 1.30625 17.4001 1.80625 17.6728L3.98807 18.8819C4.4517 19.1455 5.21534 19.1455 5.68806 18.8819L7.86989 17.6728C8.3608 17.4001 8.76988 16.7092 8.76988 16.1455V13.8364C8.76988 13.2728 8.36989 12.5819 7.86989 12.3091L5.68806 11.1001C5.21534 10.8455 4.4517 10.8455 3.98807 11.1001Z" stroke="#145CA8" stroke-width="1.5" stroke-linecap="round" stroke-linejoin="round"/>
<path d="M19.0902 12.7275C19.0902 16.2457 16.2447 19.0912 12.7266 19.0912L13.6811 17.5003" stroke="#145CA8" stroke-width="1.5" stroke-linecap="round" stroke-linejoin="round"/>
<path d="M0.90625 7.27282C0.90625 3.75463 3.7517 0.90918 7.26989 0.90918L6.31534 2.50009" stroke="#145CA8" stroke-width="1.5" stroke-linecap="round" stroke-linejoin="round"/>
</svg>
