<svg width="20" height="20" viewBox="0 0 20 20" fill="none" xmlns="http://www.w3.org/2000/svg">
<path d="M5.57031 8.64062L12.0057 12.3683L18.3925 8.66491" stroke="#145CA8" stroke-width="1.5" stroke-linecap="round" stroke-linejoin="round"/>
<path d="M12 18.9735V12.356" stroke="#145CA8" stroke-width="1.5" stroke-linecap="round" stroke-linejoin="round"/>
<path d="M10.4883 5.03443L6.60278 7.19575C5.72854 7.68144 5 8.9078 5 9.9156V14.0318C5 15.0396 5.7164 16.266 6.60278 16.7517L10.4883 18.913C11.314 19.3744 12.6739 19.3744 13.5117 18.913L17.3973 16.7517C18.2715 16.266 19 15.0396 19 14.0318V9.90347C19 8.89566 18.2836 7.66929 17.3973 7.1836L13.5117 5.02228C12.6739 4.56088 11.314 4.56088 10.4883 5.03443Z" stroke="#145CA8" stroke-width="1.5" stroke-linecap="round" stroke-linejoin="round"/>
<path d="M1.13281 9.09126C1.13281 4.69354 4.68963 1.13672 9.08736 1.13672L7.89419 3.12536" stroke="#145CA8" stroke-width="1.5" stroke-linecap="round" stroke-linejoin="round"/>
<path d="M7 13.9637L7.92584 14.8364L9.84164 13" stroke="#145CA8" stroke-width="1.5" stroke-linecap="round" stroke-linejoin="round"/>
</svg>
