<svg width="20" height="21" viewBox="0 0 20 21" fill="none" xmlns="http://www.w3.org/2000/svg">
<path d="M6.48438 9.38672L12.5071 12.8754L18.4844 9.40944" stroke="#145CA8" stroke-width="1.5" stroke-linecap="round" stroke-linejoin="round"/>
<path d="M12.5078 19.0569V12.8638" stroke="#145CA8" stroke-width="1.5" stroke-linecap="round" stroke-linejoin="round"/>
<path d="M11.0895 6.01156L7.45313 8.03428C6.63495 8.48883 5.95312 9.63655 5.95312 10.5797V14.432C5.95312 15.3752 6.62359 16.5229 7.45313 16.9775L11.0895 19.0002C11.8622 19.432 13.135 19.432 13.919 19.0002L17.5554 16.9775C18.3736 16.5229 19.0554 15.3752 19.0554 14.432V10.5684C19.0554 9.62519 18.385 8.47746 17.5554 8.02292L13.919 6.00019C13.135 5.56837 11.8622 5.56837 11.0895 6.01156Z" stroke="#145CA8" stroke-width="1.5" stroke-linecap="round" stroke-linejoin="round"/>
<path d="M1.13281 9.09126C1.13281 4.69354 4.68963 1.13672 9.08736 1.13672L7.89419 3.12536" stroke="#145CA8" stroke-width="1.5" stroke-linecap="round" stroke-linejoin="round"/>
</svg>
