<svg width="22" height="20" viewBox="0 0 22 20" fill="none" xmlns="http://www.w3.org/2000/svg">
<path d="M14.6641 2.72705H0.914062V14.5452H14.6641V2.72705Z" stroke="#145CA8" stroke-width="1.5" stroke-linecap="round" stroke-linejoin="round"/>
<path d="M5 9.09911L6.95487 11L11 7" stroke="#145CA8" stroke-width="1.5" stroke-linecap="round" stroke-linejoin="round"/>
<path d="M14.6641 7.27295H18.3307L21.0807 10.0002V14.5457H14.6641V7.27295Z" stroke="#145CA8" stroke-width="1.5" stroke-linecap="round" stroke-linejoin="round"/>
<path d="M5.04167 19.0909C6.30732 19.0909 7.33333 18.0733 7.33333 16.8181C7.33333 15.5629 6.30732 14.5454 5.04167 14.5454C3.77601 14.5454 2.75 15.5629 2.75 16.8181C2.75 18.0733 3.77601 19.0909 5.04167 19.0909Z" stroke="#145CA8" stroke-width="1.5" stroke-linecap="round" stroke-linejoin="round"/>
<path d="M16.9557 19.0909C18.2214 19.0909 19.2474 18.0733 19.2474 16.8181C19.2474 15.5629 18.2214 14.5454 16.9557 14.5454C15.6901 14.5454 14.6641 15.5629 14.6641 16.8181C14.6641 18.0733 15.6901 19.0909 16.9557 19.0909Z" stroke="#145CA8" stroke-width="1.5" stroke-linecap="round" stroke-linejoin="round"/>
</svg>
